%TF.GenerationSoftware,KiCad,Pcbnew,9.0.4*%
%TF.CreationDate,2025-09-14T02:35:36-04:00*%
%TF.ProjectId,D8X3C_Backpack_V1.0,44385833-435f-4426-9163-6b7061636b5f,rev?*%
%TF.SameCoordinates,Original*%
%TF.FileFunction,Copper,L3,Inr*%
%TF.FilePolarity,Positive*%
%FSLAX46Y46*%
G04 Gerber Fmt 4.6, Leading zero omitted, Abs format (unit mm)*
G04 Created by KiCad (PCBNEW 9.0.4) date 2025-09-14 02:35:36*
%MOMM*%
%LPD*%
G01*
G04 APERTURE LIST*
%TA.AperFunction,ComponentPad*%
%ADD10O,3.000000X3.200000*%
%TD*%
%TA.AperFunction,ComponentPad*%
%ADD11O,1.100000X2.000000*%
%TD*%
%TA.AperFunction,ComponentPad*%
%ADD12O,1.200000X1.800000*%
%TD*%
%TA.AperFunction,ViaPad*%
%ADD13C,0.508000*%
%TD*%
%TA.AperFunction,Conductor*%
%ADD14C,0.508000*%
%TD*%
%TA.AperFunction,Conductor*%
%ADD15C,1.016000*%
%TD*%
%TA.AperFunction,Conductor*%
%ADD16C,0.762000*%
%TD*%
G04 APERTURE END LIST*
D10*
%TO.N,GND*%
%TO.C,*%
X2000000Y-2000000D03*
%TD*%
%TO.N,GND*%
%TO.C,*%
X38000000Y-2000000D03*
%TD*%
%TO.N,GND*%
%TO.C,*%
X2000000Y-38000000D03*
%TD*%
D11*
%TO.N,GND*%
%TO.C,USB1*%
X16185500Y-33036500D03*
D12*
%TO.N,N/C*%
X16185500Y-37236500D03*
D11*
%TO.N,GND*%
X24835500Y-33036500D03*
D12*
%TO.N,N/C*%
X24835500Y-37236500D03*
%TD*%
D10*
%TO.N,GND*%
%TO.C,*%
X38000000Y-38000000D03*
%TD*%
D13*
%TO.N,ACMP*%
X6985000Y-25971500D03*
X13582000Y-28276000D03*
%TO.N,VGND*%
X13335000Y-27430500D03*
%TO.N,KEY4*%
X16954500Y-26173500D03*
X29334000Y-31432500D03*
X13488500Y-26035000D03*
%TO.N,KEY5*%
X31369000Y-28419500D03*
X31802000Y-26225500D03*
X13488500Y-25146000D03*
X16637000Y-25450000D03*
%TO.N,KEY1*%
X13488500Y-24257000D03*
X34414000Y-26384500D03*
X17843500Y-25933000D03*
%TO.N,KEY2*%
X24254000Y-26384500D03*
X16954500Y-24130000D03*
X13488500Y-23368000D03*
%TO.N,KEY3*%
X13488500Y-22479000D03*
X29334000Y-21336000D03*
X16951000Y-23470000D03*
%TO.N,FPGA_IO2*%
X13081000Y-20891500D03*
%TO.N,FPGA_IO1*%
X12001500Y-20891500D03*
%TO.N,FPGA_CLK*%
X23063000Y-17780000D03*
%TO.N,FPGA_VSINC*%
X11811000Y-19900500D03*
%TO.N,FPGA_HSYNC*%
X12446000Y-19400500D03*
%TO.N,FPGA_D13*%
X21145500Y-18224500D03*
%TO.N,FPGA_D12*%
X20510500Y-17780000D03*
%TO.N,FPGA_D11*%
X19883000Y-18224500D03*
%TO.N,FPGA_D10*%
X19240500Y-17780000D03*
%TO.N,FPGA_D9*%
X18577000Y-14824000D03*
%TO.N,FPGA_D8*%
X17933000Y-15176500D03*
%TO.N,FPGA_D0*%
X5524500Y-17399000D03*
%TO.N,FPGA_D1*%
X4826000Y-17889500D03*
%TO.N,FPGA_D2*%
X5524500Y-18389500D03*
%TO.N,FPGA_D3*%
X4826000Y-18889500D03*
%TO.N,FPGA_D4*%
X5524500Y-19367500D03*
%TO.N,FPGA_D5*%
X4826000Y-19889500D03*
%TO.N,FPGA_D6*%
X5524500Y-20389500D03*
%TO.N,FPGA_D7*%
X8323000Y-20460500D03*
%TO.N,FPGA_IO3*%
X8064500Y-21389500D03*
%TO.N,FPGA_TCK*%
X20320000Y-3810000D03*
%TO.N,FPGA_TDO*%
X20942500Y-3238500D03*
%TO.N,FPGA_TDI*%
X21526500Y-2667000D03*
%TO.N,FPGA_TMS*%
X22161500Y-2095500D03*
%TO.N,GND*%
X35918000Y-14242000D03*
X20891500Y-24638000D03*
X6667500Y-34127500D03*
X15811500Y-10160000D03*
X24701500Y-9398000D03*
X8249000Y-32611500D03*
X35918000Y-9162000D03*
X23750000Y-4024000D03*
X1016000Y-35750500D03*
X11811000Y-36512500D03*
X30391000Y-5397500D03*
X13906500Y-39179500D03*
X35918000Y-19322000D03*
X27178000Y-23393000D03*
X16510000Y-31686500D03*
X3238500Y-21056500D03*
X5438000Y-9162000D03*
X20678000Y-34562000D03*
X35918000Y-4082000D03*
X12503500Y-37909500D03*
X30391000Y-4661000D03*
X20383500Y-28638500D03*
X30838000Y-4082000D03*
X35918000Y-24402000D03*
X8763000Y-21922500D03*
X3746500Y-35540000D03*
X6451500Y-30940000D03*
X25844500Y-9334500D03*
X10096500Y-27305000D03*
X19050000Y-23876000D03*
X29718000Y-9334500D03*
X30988000Y-9334500D03*
X25758000Y-34562000D03*
X7493000Y-35941000D03*
X23114000Y-11309500D03*
X25146000Y-23393000D03*
X7302500Y-27738000D03*
X16065500Y-29146500D03*
X9271000Y-24130000D03*
X11430000Y-33438000D03*
X35918000Y-29482000D03*
X30353000Y-10350500D03*
X15811500Y-11303000D03*
X15310000Y-30506000D03*
X9949000Y-34430500D03*
X23114000Y-10096500D03*
X22415500Y-26290500D03*
X25270000Y-4032500D03*
X5905500Y-38989000D03*
X2017000Y-35750500D03*
X11896000Y-31066000D03*
X18934500Y-30030500D03*
X3238500Y-24066500D03*
X21559500Y-25209500D03*
%TO.N,$1N3421*%
X7518000Y-36643500D03*
%TO.N,$1N3429*%
X6858000Y-36639500D03*
%TO.N,3V3*%
X31369000Y-30999500D03*
X7136000Y-31280500D03*
X14287500Y-30226000D03*
X26162000Y-12382500D03*
X30226000Y-12446000D03*
X28702000Y-12065000D03*
X3746500Y-34544000D03*
X1524000Y-30924500D03*
X14160500Y-12382500D03*
X35052000Y-14959500D03*
X30289500Y-20448500D03*
X37539500Y-31813500D03*
X27495500Y-12885500D03*
X29337000Y-24638000D03*
X22796500Y-28431500D03*
X11317000Y-31420500D03*
X27495500Y-12065000D03*
X30237500Y-26225500D03*
X24257000Y-25206000D03*
X18859500Y-12382500D03*
X33020000Y-15960500D03*
X37539500Y-30819000D03*
X25903000Y-33642500D03*
X29692000Y-12928000D03*
X36449000Y-25983000D03*
X10894000Y-36512500D03*
X24257000Y-24066500D03*
%TO.N,$1N4042*%
X3993500Y-24041000D03*
X25843000Y-23101500D03*
%TO.N,$1N4038*%
X26503000Y-23101500D03*
X3993500Y-21056500D03*
%TO.N,$1N5374*%
X9874500Y-36544500D03*
%TO.N,DP_SERIAL*%
X20213500Y-30950000D03*
%TO.N,DN_SERIAL*%
X19553500Y-30951000D03*
%TO.N,DP_ADC*%
X13103500Y-39126500D03*
X16495000Y-30973000D03*
%TO.N,DN_ADC*%
X16028000Y-30506000D03*
X12636500Y-38660000D03*
%TO.N,+5V*%
X20924000Y-12954000D03*
X22640000Y-12954000D03*
X27305000Y-21780500D03*
X22918500Y-31530500D03*
X21782000Y-12954000D03*
X22911000Y-32766000D03*
X22923500Y-32158500D03*
X6286500Y-32575500D03*
X23498000Y-12954000D03*
X18110500Y-31528000D03*
X27305000Y-21001500D03*
X27305000Y-20268000D03*
X33757500Y-37528500D03*
X33083500Y-37528500D03*
X18110000Y-32766000D03*
X20066000Y-12954000D03*
X18110500Y-32156000D03*
X34417000Y-37528500D03*
%TO.N,3V3A*%
X27677500Y-35202000D03*
X13164000Y-29273500D03*
X27677500Y-35958000D03*
X32733000Y-35202000D03*
X8894000Y-30899500D03*
X6626000Y-33169000D03*
X11430000Y-35496500D03*
X8927000Y-36254500D03*
X27677500Y-36772500D03*
%TO.N,$1N5907*%
X17273500Y-35948500D03*
%TO.N,$1N5892*%
X17272000Y-35115500D03*
%TO.N,$1N5759*%
X5207000Y-29845000D03*
%TO.N,$1N5755*%
X3619500Y-30924500D03*
%TO.N,1V2A*%
X8826500Y-39243000D03*
X14592500Y-32327500D03*
%TO.N,$1N5750*%
X2603500Y-30924500D03*
%TO.N,1V2*%
X2857500Y-35014000D03*
X4635500Y-37682000D03*
%TO.N,$1N5608*%
X17272000Y-36766500D03*
%TO.N,$1N5613*%
X17272000Y-34290000D03*
%TO.N,1V8*%
X20701000Y-14922500D03*
%TO.N,$1N7724*%
X10033000Y-9893500D03*
%TO.N,$1N8034*%
X23114000Y-14922500D03*
X29972000Y-13970000D03*
%TO.N,$1N7857*%
X17347000Y-11886000D03*
%TO.N,$1N7939*%
X24522500Y-11874500D03*
%TO.N,$1N9790*%
X31432500Y-3365500D03*
%TO.N,$1N9783*%
X29337000Y-6159500D03*
%TO.N,$1N9780*%
X28892500Y-6667500D03*
%TO.N,$1N9777*%
X29337000Y-7239000D03*
%TO.N,$1N9774*%
X28892500Y-7747000D03*
%TO.N,$1N9771*%
X29337000Y-8318500D03*
%TO.N,$1N9591*%
X24841000Y-3391500D03*
%TO.N,$1N9585*%
X24181000Y-3391500D03*
%TO.N,FPGA_3V3*%
X8445500Y-25082500D03*
%TD*%
D14*
%TO.N,+5V*%
X8001000Y-30480000D02*
X11747500Y-26733500D01*
X18110500Y-29350000D02*
X18110500Y-31528000D01*
X6794500Y-32067500D02*
X7556500Y-32067500D01*
D15*
X29358000Y-14648500D02*
X26629500Y-14648500D01*
D14*
X6286500Y-32575500D02*
X6794500Y-32067500D01*
D15*
X30797500Y-18732500D02*
X30797500Y-16088000D01*
X27305000Y-21001500D02*
X27305000Y-21780500D01*
X28194000Y-22669500D02*
X27305000Y-21780500D01*
X28194000Y-29718000D02*
X28194000Y-22669500D01*
X21782000Y-12954000D02*
X22640000Y-12954000D01*
D14*
X7556500Y-32067500D02*
X8001000Y-31623000D01*
X18110500Y-31528000D02*
X18110500Y-32156000D01*
X15494000Y-26733500D02*
X18110500Y-29350000D01*
D15*
X22640000Y-12954000D02*
X23498000Y-12954000D01*
X20066000Y-12954000D02*
X20924000Y-12954000D01*
X22918500Y-31530500D02*
X23270500Y-31178500D01*
D16*
X33083500Y-37528500D02*
X33757500Y-37528500D01*
D15*
X30797500Y-16088000D02*
X29358000Y-14648500D01*
D16*
X22923500Y-32158500D02*
X22923500Y-31535500D01*
D15*
X27305000Y-20268000D02*
X28015000Y-19558000D01*
X28015000Y-19558000D02*
X29972000Y-19558000D01*
D16*
X33757500Y-37528500D02*
X34417000Y-37528500D01*
D14*
X8001000Y-31623000D02*
X8001000Y-30480000D01*
D15*
X27305000Y-20268000D02*
X27305000Y-21001500D01*
X26629500Y-14648500D02*
X24935000Y-12954000D01*
D16*
X22923500Y-31535500D02*
X22918500Y-31530500D01*
D15*
X20924000Y-12954000D02*
X21782000Y-12954000D01*
D14*
X11747500Y-26733500D02*
X15494000Y-26733500D01*
D15*
X26733500Y-31178500D02*
X28194000Y-29718000D01*
X24935000Y-12954000D02*
X23498000Y-12954000D01*
X23270500Y-31178500D02*
X26733500Y-31178500D01*
D16*
X26733500Y-31178500D02*
X33083500Y-37528500D01*
D15*
X29972000Y-19558000D02*
X30797500Y-18732500D01*
D16*
%TO.N,3V3A*%
X13164000Y-34143500D02*
X13100500Y-34207000D01*
X14478000Y-38100000D02*
X15303500Y-38925500D01*
X27677500Y-35958000D02*
X27677500Y-35202000D01*
D14*
X7873500Y-33169000D02*
X8947000Y-34242500D01*
D16*
X8894000Y-30899500D02*
X9948500Y-29845000D01*
D14*
X13100500Y-34207000D02*
X12719500Y-34207000D01*
D16*
X27677500Y-36772500D02*
X27677500Y-35958000D01*
X15303500Y-38925500D02*
X26733500Y-38925500D01*
X9948500Y-29845000D02*
X13164000Y-29845000D01*
D14*
X8947000Y-34242500D02*
X8947000Y-35490000D01*
X11430000Y-35496500D02*
X11423500Y-35490000D01*
X8947000Y-35490000D02*
X8947000Y-36234500D01*
D16*
X13164000Y-29845000D02*
X13164000Y-34143500D01*
X13100500Y-34207000D02*
X14478000Y-35584500D01*
X13164000Y-29273500D02*
X13164000Y-29845000D01*
D14*
X11423500Y-35490000D02*
X8947000Y-35490000D01*
X12719500Y-34207000D02*
X11430000Y-35496500D01*
D16*
X26733500Y-38925500D02*
X27677500Y-37981500D01*
X14478000Y-35584500D02*
X14478000Y-38100000D01*
D14*
X8947000Y-36234500D02*
X8927000Y-36254500D01*
D16*
X27677500Y-37981500D02*
X27677500Y-36772500D01*
D14*
X6626000Y-33169000D02*
X7873500Y-33169000D01*
%TD*%
%TA.AperFunction,Conductor*%
%TO.N,+5V*%
G36*
X23207000Y-33074500D02*
G01*
X17815000Y-33074500D01*
X17815000Y-31253500D01*
X18358000Y-31260000D01*
X18689000Y-31591500D01*
X22141500Y-31591500D01*
X22550000Y-31182500D01*
X23207000Y-31182500D01*
X23207000Y-33074500D01*
G37*
%TD.AperFunction*%
%TD*%
%TA.AperFunction,Conductor*%
%TO.N,1V8*%
G36*
X13224719Y-13102804D02*
G01*
X13236519Y-13112837D01*
X13794576Y-13665912D01*
X13794813Y-13666123D01*
X13800125Y-13668400D01*
X19775000Y-13668400D01*
X19807166Y-13673626D01*
X19870086Y-13694626D01*
X20000648Y-13717209D01*
X20065921Y-13718400D01*
X24575000Y-13718400D01*
X24634719Y-13737804D01*
X24646842Y-13748158D01*
X26086200Y-15187516D01*
X26140727Y-15240183D01*
X26266834Y-15325134D01*
X26406127Y-15382987D01*
X26555055Y-15412329D01*
X26630730Y-15413400D01*
X29000000Y-15413400D01*
X29059719Y-15432804D01*
X29071842Y-15443158D01*
X30001842Y-16373158D01*
X30030349Y-16429106D01*
X30031600Y-16445000D01*
X30031600Y-16725000D01*
X30012196Y-16784719D01*
X30001842Y-16796842D01*
X28031842Y-18766842D01*
X27975894Y-18795349D01*
X27969730Y-18796133D01*
X27876203Y-18805131D01*
X27698266Y-18860770D01*
X27538012Y-18956280D01*
X27470422Y-19018271D01*
X26767920Y-19725756D01*
X26703896Y-19793280D01*
X26606629Y-19952782D01*
X26550222Y-20130950D01*
X26541126Y-20224802D01*
X26516051Y-20282370D01*
X26511842Y-20286842D01*
X25331842Y-21466842D01*
X25275894Y-21495349D01*
X25260000Y-21496600D01*
X13430000Y-21496600D01*
X13370281Y-21477196D01*
X13333373Y-21426396D01*
X13333373Y-21363604D01*
X13369701Y-21313229D01*
X13424128Y-21273093D01*
X13511027Y-21171668D01*
X13568413Y-21052872D01*
X13593545Y-20923345D01*
X13584746Y-20791701D01*
X13542590Y-20666673D01*
X13469009Y-20555223D01*
X13422097Y-20510631D01*
X13372430Y-20468525D01*
X13253036Y-20407167D01*
X13123481Y-20379034D01*
X12991050Y-20385262D01*
X12864701Y-20425427D01*
X12752986Y-20496817D01*
X12662120Y-20596067D01*
X12628214Y-20655406D01*
X12581739Y-20697631D01*
X12519320Y-20704473D01*
X12464801Y-20673320D01*
X12451565Y-20655018D01*
X12422690Y-20603966D01*
X12347228Y-20516083D01*
X12254235Y-20446957D01*
X12201278Y-20421711D01*
X12155722Y-20378497D01*
X12144267Y-20316758D01*
X12169690Y-20261802D01*
X12222954Y-20202983D01*
X12297356Y-20062832D01*
X12316346Y-19985709D01*
X12349465Y-19932361D01*
X12407616Y-19908669D01*
X12416814Y-19908416D01*
X12483189Y-19909601D01*
X12611570Y-19882699D01*
X12727720Y-19825086D01*
X12825664Y-19740142D01*
X12899125Y-19633316D01*
X12943396Y-19511461D01*
X12955629Y-19382385D01*
X12935046Y-19254374D01*
X12882173Y-19133840D01*
X12844896Y-19082596D01*
X12804389Y-19034283D01*
X12699583Y-18954939D01*
X12579569Y-18905198D01*
X12450902Y-18887367D01*
X12321882Y-18902584D01*
X12200874Y-18949869D01*
X12095732Y-19026152D01*
X12013243Y-19126507D01*
X11958108Y-19245819D01*
X11944427Y-19310901D01*
X11913153Y-19365351D01*
X11855846Y-19391019D01*
X11842555Y-19391571D01*
X11769526Y-19389813D01*
X11628786Y-19421560D01*
X11503723Y-19490027D01*
X11402365Y-19590286D01*
X11331867Y-19715809D01*
X11313991Y-19783085D01*
X11300285Y-19851223D01*
X11307003Y-19994524D01*
X11352229Y-20128892D01*
X11432581Y-20245688D01*
X11543189Y-20337036D01*
X11608735Y-20368295D01*
X11654285Y-20411515D01*
X11665732Y-20473256D01*
X11639763Y-20528798D01*
X11587829Y-20585233D01*
X11516769Y-20719086D01*
X11486874Y-20867540D01*
X11491204Y-20940320D01*
X11500702Y-21012218D01*
X11557928Y-21151324D01*
X11653142Y-21267935D01*
X11714833Y-21312886D01*
X11751671Y-21363737D01*
X11751584Y-21426530D01*
X11714605Y-21477279D01*
X11655000Y-21496600D01*
X9075000Y-21496600D01*
X9026253Y-21484142D01*
X8973353Y-21455214D01*
X8859730Y-21419306D01*
X8741154Y-21409207D01*
X8681406Y-21415958D01*
X8619886Y-21403381D01*
X8577508Y-21357045D01*
X8569662Y-21330966D01*
X8559007Y-21264008D01*
X8509184Y-21138139D01*
X8471064Y-21082248D01*
X8453445Y-21021979D01*
X8474616Y-20962863D01*
X8513754Y-20932149D01*
X8573133Y-20905771D01*
X8676338Y-20829502D01*
X8756598Y-20731372D01*
X8810240Y-20616515D01*
X8833957Y-20491990D01*
X8826284Y-20365457D01*
X8787695Y-20244699D01*
X8720582Y-20137156D01*
X8629056Y-20049454D01*
X8517375Y-19986191D01*
X8458368Y-19968103D01*
X8398631Y-19953954D01*
X8270835Y-19951954D01*
X8147893Y-19980832D01*
X8035698Y-20038815D01*
X7941027Y-20122403D01*
X7869601Y-20226561D01*
X7825721Y-20344984D01*
X7812044Y-20470540D01*
X7829397Y-20595629D01*
X7877327Y-20714195D01*
X7913877Y-20767665D01*
X7931558Y-20827917D01*
X7910448Y-20887054D01*
X7871479Y-20917747D01*
X7813862Y-20943514D01*
X7713517Y-21017573D01*
X7634928Y-21112520D01*
X7581568Y-21223618D01*
X7556230Y-21346013D01*
X7556580Y-21406359D01*
X7560536Y-21466309D01*
X7594414Y-21586373D01*
X7654896Y-21693770D01*
X7738991Y-21783888D01*
X7843132Y-21852432D01*
X7901896Y-21875336D01*
X7950492Y-21915103D01*
X7966432Y-21975838D01*
X7943629Y-22034343D01*
X7890792Y-22068272D01*
X7865000Y-22071600D01*
X5855000Y-22071600D01*
X5795281Y-22052196D01*
X5783030Y-22041714D01*
X4384172Y-20637860D01*
X4381040Y-20636610D01*
X4379615Y-20636600D01*
X4315000Y-20636600D01*
X4264827Y-20623347D01*
X4201683Y-20587486D01*
X4063471Y-20548670D01*
X3921529Y-20548670D01*
X3783316Y-20587486D01*
X3720173Y-20623347D01*
X3670000Y-20636600D01*
X3560000Y-20636600D01*
X3509827Y-20623347D01*
X3446683Y-20587486D01*
X3308471Y-20548670D01*
X3166529Y-20548670D01*
X3028316Y-20587486D01*
X2965173Y-20623347D01*
X2915000Y-20636600D01*
X2710000Y-20636600D01*
X2650281Y-20617196D01*
X2638509Y-20607192D01*
X2123509Y-20097192D01*
X2094730Y-20041383D01*
X2093400Y-20025000D01*
X2093400Y-19881140D01*
X4313985Y-19881140D01*
X4330213Y-20018625D01*
X4353948Y-20081205D01*
X4381337Y-20142375D01*
X4465655Y-20252033D01*
X4574524Y-20334715D01*
X4701291Y-20385906D01*
X4838666Y-20402199D01*
X4908227Y-20394084D01*
X4969792Y-20406437D01*
X5012338Y-20452618D01*
X5019604Y-20474962D01*
X5032405Y-20538595D01*
X5084322Y-20655782D01*
X5162553Y-20755340D01*
X5262887Y-20832542D01*
X5379166Y-20882641D01*
X5504196Y-20902544D01*
X5630279Y-20891019D01*
X5751110Y-20848261D01*
X5803888Y-20815258D01*
X5854563Y-20779767D01*
X5940704Y-20685837D01*
X6000498Y-20575028D01*
X6031330Y-20452959D01*
X6031330Y-20327040D01*
X6000498Y-20204971D01*
X5940704Y-20094162D01*
X5854563Y-20000232D01*
X5801716Y-19963220D01*
X5763932Y-19913068D01*
X5762842Y-19850285D01*
X5798864Y-19798853D01*
X5801696Y-19796795D01*
X5853251Y-19760668D01*
X5937839Y-19669569D01*
X5997464Y-19562262D01*
X6030118Y-19442323D01*
X6033370Y-19382769D01*
X6032736Y-19323865D01*
X6006737Y-19203699D01*
X5954581Y-19093977D01*
X5877789Y-18997919D01*
X5829950Y-18958046D01*
X5796500Y-18904905D01*
X5800673Y-18842252D01*
X5831951Y-18800330D01*
X5879663Y-18762571D01*
X5956205Y-18669986D01*
X6007917Y-18563222D01*
X6033145Y-18445607D01*
X6033391Y-18386821D01*
X6031042Y-18328043D01*
X6002145Y-18210908D01*
X5947980Y-18104734D01*
X5870109Y-18012597D01*
X5822139Y-17974819D01*
X5787228Y-17922626D01*
X5789663Y-17859881D01*
X5822836Y-17814637D01*
X5852259Y-17791876D01*
X18725117Y-17791876D01*
X18744340Y-17919600D01*
X18794856Y-18038472D01*
X18873453Y-18140958D01*
X18975160Y-18220567D01*
X19093534Y-18272251D01*
X19222443Y-18292964D01*
X19288314Y-18288620D01*
X19349180Y-18304052D01*
X19389352Y-18352313D01*
X19392041Y-18359906D01*
X19412141Y-18424722D01*
X19479755Y-18540385D01*
X19573701Y-18633565D01*
X19688478Y-18699412D01*
X19816337Y-18733490D01*
X19948663Y-18733490D01*
X20076521Y-18699412D01*
X20191298Y-18633565D01*
X20285244Y-18540385D01*
X20352858Y-18424722D01*
X20372959Y-18359906D01*
X20409181Y-18308615D01*
X20468633Y-18288409D01*
X20470000Y-18288400D01*
X20555000Y-18288400D01*
X20614719Y-18307804D01*
X20651627Y-18358604D01*
X20652085Y-18360049D01*
X20671422Y-18422730D01*
X20736094Y-18535113D01*
X20825656Y-18626799D01*
X20935240Y-18693299D01*
X21057915Y-18730434D01*
X21185985Y-18735857D01*
X21311366Y-18709235D01*
X21426171Y-18652232D01*
X21524294Y-18567481D01*
X21561527Y-18517006D01*
X21595751Y-18464642D01*
X21641199Y-18343701D01*
X21655112Y-18216851D01*
X21637167Y-18090520D01*
X21588495Y-17972557D01*
X21512118Y-17870329D01*
X21412800Y-17790199D01*
X21391680Y-17780550D01*
X22551647Y-17780550D01*
X22553339Y-17846049D01*
X22588040Y-17977333D01*
X22654840Y-18093764D01*
X22749574Y-18188881D01*
X22865733Y-18256158D01*
X22995382Y-18290990D01*
X23129618Y-18290990D01*
X23259266Y-18256158D01*
X23375425Y-18188881D01*
X23470159Y-18093764D01*
X23536959Y-17977333D01*
X23571660Y-17846049D01*
X23573352Y-17780550D01*
X23570972Y-17715295D01*
X23535547Y-17584852D01*
X23468491Y-17469433D01*
X23373907Y-17375233D01*
X23258214Y-17308652D01*
X23129249Y-17274190D01*
X22995751Y-17274190D01*
X22866785Y-17308652D01*
X22751092Y-17375233D01*
X22656508Y-17469433D01*
X22589452Y-17584852D01*
X22554027Y-17715295D01*
X22551647Y-17780550D01*
X21391680Y-17780550D01*
X21296736Y-17737173D01*
X21169292Y-17714211D01*
X21103593Y-17716536D01*
X21043225Y-17699256D01*
X21004543Y-17649793D01*
X21003074Y-17645460D01*
X20982668Y-17580529D01*
X20914458Y-17464722D01*
X20819968Y-17371456D01*
X20704700Y-17305580D01*
X20576383Y-17271490D01*
X20443617Y-17271490D01*
X20315299Y-17305580D01*
X20200031Y-17371456D01*
X20105541Y-17464722D01*
X20037331Y-17580529D01*
X20016926Y-17645460D01*
X19980511Y-17696615D01*
X19920983Y-17716595D01*
X19920000Y-17716600D01*
X19830000Y-17716600D01*
X19770281Y-17697196D01*
X19733373Y-17646396D01*
X19733089Y-17645509D01*
X19713276Y-17582576D01*
X19647989Y-17469824D01*
X19557871Y-17377980D01*
X19447753Y-17311406D01*
X19324549Y-17274265D01*
X19195983Y-17268896D01*
X19070113Y-17295638D01*
X18954835Y-17352805D01*
X18856003Y-17438007D01*
X18818249Y-17488334D01*
X18783881Y-17540923D01*
X18738404Y-17663407D01*
X18725117Y-17791876D01*
X5852259Y-17791876D01*
X5873407Y-17775517D01*
X5954504Y-17678646D01*
X6009185Y-17566365D01*
X6035131Y-17444226D01*
X6030820Y-17319417D01*
X5996511Y-17199346D01*
X5934221Y-17091116D01*
X5846596Y-17000023D01*
X5795882Y-16966037D01*
X5743723Y-16935298D01*
X5624551Y-16896130D01*
X5500906Y-16886950D01*
X5378699Y-16907833D01*
X5265123Y-16957565D01*
X5166883Y-17033197D01*
X5089763Y-17130276D01*
X5037712Y-17244407D01*
X5024309Y-17306453D01*
X4992733Y-17360728D01*
X4935285Y-17386078D01*
X4911411Y-17385687D01*
X4841467Y-17376246D01*
X4702915Y-17390790D01*
X4575020Y-17441462D01*
X4465486Y-17524702D01*
X4381331Y-17635768D01*
X4354313Y-17697892D01*
X4330987Y-17761088D01*
X4314789Y-17898911D01*
X4335531Y-18034430D01*
X4391539Y-18159556D01*
X4479835Y-18266584D01*
X4535999Y-18308750D01*
X4572107Y-18360122D01*
X4571124Y-18422906D01*
X4535838Y-18471371D01*
X4478564Y-18514191D01*
X4389072Y-18623557D01*
X4333198Y-18751603D01*
X4314093Y-18890000D01*
X4333198Y-19028396D01*
X4389072Y-19156442D01*
X4478564Y-19265808D01*
X4535838Y-19308629D01*
X4572048Y-19359929D01*
X4571189Y-19422715D01*
X4535849Y-19471363D01*
X4479535Y-19513478D01*
X4390963Y-19620417D01*
X4334792Y-19745556D01*
X4313985Y-19881140D01*
X2093400Y-19881140D01*
X2093400Y-15118353D01*
X17425879Y-15118353D01*
X17426388Y-15243806D01*
X17457678Y-15367191D01*
X17484642Y-15422052D01*
X17515269Y-15474862D01*
X17601494Y-15568761D01*
X17706786Y-15637886D01*
X17825790Y-15679179D01*
X17951260Y-15690118D01*
X18075612Y-15670047D01*
X18191282Y-15620189D01*
X18291250Y-15543558D01*
X18370404Y-15443616D01*
X18398629Y-15385571D01*
X18442194Y-15340350D01*
X18500831Y-15328979D01*
X18564690Y-15335825D01*
X18690857Y-15322027D01*
X18808566Y-15278634D01*
X18912275Y-15208062D01*
X18995827Y-15114493D01*
X19054267Y-15003486D01*
X19073363Y-14925550D01*
X22601647Y-14925550D01*
X22603339Y-14991049D01*
X22638040Y-15122333D01*
X22704840Y-15238764D01*
X22799574Y-15333881D01*
X22915733Y-15401158D01*
X23045382Y-15435990D01*
X23179618Y-15435990D01*
X23309266Y-15401158D01*
X23425425Y-15333881D01*
X23520159Y-15238764D01*
X23586959Y-15122333D01*
X23621660Y-14991049D01*
X23623352Y-14925550D01*
X23620972Y-14860295D01*
X23585547Y-14729852D01*
X23518491Y-14614433D01*
X23423907Y-14520233D01*
X23308214Y-14453652D01*
X23179249Y-14419190D01*
X23045751Y-14419190D01*
X22916785Y-14453652D01*
X22801092Y-14520233D01*
X22706508Y-14614433D01*
X22639452Y-14729852D01*
X22604027Y-14860295D01*
X22601647Y-14925550D01*
X19073363Y-14925550D01*
X19084120Y-14881646D01*
X19083611Y-14756193D01*
X19052321Y-14632808D01*
X19025357Y-14577947D01*
X18994730Y-14525137D01*
X18908505Y-14431238D01*
X18803213Y-14362113D01*
X18684209Y-14320820D01*
X18558739Y-14309881D01*
X18434387Y-14329952D01*
X18318717Y-14379810D01*
X18218749Y-14456441D01*
X18139595Y-14556383D01*
X18111371Y-14614429D01*
X18067806Y-14659650D01*
X18009169Y-14671021D01*
X17945309Y-14664174D01*
X17819142Y-14677972D01*
X17701433Y-14721365D01*
X17597724Y-14791937D01*
X17514172Y-14885506D01*
X17455732Y-14996513D01*
X17425879Y-15118353D01*
X2093400Y-15118353D01*
X2093400Y-14585000D01*
X2112804Y-14525281D01*
X2123286Y-14513030D01*
X3528286Y-13113030D01*
X3584285Y-13084623D01*
X3600000Y-13083400D01*
X13165000Y-13083400D01*
X13224719Y-13102804D01*
G37*
%TD.AperFunction*%
%TD*%
%TA.AperFunction,Conductor*%
%TO.N,3V3*%
G36*
X37024719Y-277804D02*
G01*
X37061627Y-328604D01*
X37061627Y-391396D01*
X37024719Y-442196D01*
X37023328Y-443189D01*
X36922048Y-514200D01*
X36738866Y-679122D01*
X36580767Y-867087D01*
X36450123Y-1075074D01*
X36349438Y-1299113D01*
X36280646Y-1534894D01*
X36244900Y-1778930D01*
X36241600Y-1901365D01*
X36241600Y-2099167D01*
X36243793Y-2228820D01*
X36281803Y-2486201D01*
X36356967Y-2734322D01*
X36467805Y-2968694D01*
X36611898Y-3184218D01*
X36786113Y-3376213D01*
X36986668Y-3540507D01*
X37209190Y-3673527D01*
X37448868Y-3772382D01*
X37700461Y-3834928D01*
X37958521Y-3859788D01*
X38217434Y-3846441D01*
X38471579Y-3795170D01*
X38715409Y-3707094D01*
X38943637Y-3584118D01*
X39151311Y-3428923D01*
X39333903Y-3244876D01*
X39487996Y-3035253D01*
X39551030Y-2920941D01*
X39596858Y-2878015D01*
X39659165Y-2870224D01*
X39714152Y-2900544D01*
X39740815Y-2957394D01*
X39741600Y-2970000D01*
X39741600Y-37030000D01*
X39722196Y-37089719D01*
X39671396Y-37126627D01*
X39608604Y-37126627D01*
X39557804Y-37089719D01*
X39551157Y-37079290D01*
X39487892Y-36965259D01*
X39333540Y-36756222D01*
X39150816Y-36572732D01*
X38943143Y-36418060D01*
X38715014Y-36295535D01*
X38471373Y-36207821D01*
X38217508Y-36156816D01*
X37958891Y-36143620D01*
X37701144Y-36168527D01*
X37449844Y-36230991D01*
X37210436Y-36329667D01*
X36988097Y-36462413D01*
X36787657Y-36626338D01*
X36613437Y-36817933D01*
X36469233Y-37032991D01*
X36358152Y-37266912D01*
X36282607Y-37514590D01*
X36244094Y-37771575D01*
X36241600Y-37900972D01*
X36241600Y-38099281D01*
X36243387Y-38222301D01*
X36277454Y-38466631D01*
X36345342Y-38702870D01*
X36445808Y-38927203D01*
X36576853Y-39135149D01*
X36735883Y-39322589D01*
X36920302Y-39486280D01*
X37022390Y-39556161D01*
X37060709Y-39605905D01*
X37062470Y-39668673D01*
X37027001Y-39720488D01*
X36967850Y-39741560D01*
X36965000Y-39741600D01*
X26915000Y-39741600D01*
X26855281Y-39722196D01*
X26818373Y-39671396D01*
X26818373Y-39608604D01*
X26855281Y-39557804D01*
X26886681Y-39542427D01*
X26970284Y-39518162D01*
X27122220Y-39433195D01*
X27184928Y-39376387D01*
X28127157Y-38434158D01*
X28184806Y-38373199D01*
X28269033Y-38226793D01*
X28311641Y-38063260D01*
X28313400Y-37978935D01*
X28313400Y-35201151D01*
X28311775Y-35129390D01*
X28280042Y-34988463D01*
X28218249Y-34859369D01*
X28129238Y-34747296D01*
X28017465Y-34657896D01*
X27888581Y-34595673D01*
X27749059Y-34563760D01*
X27605941Y-34563760D01*
X27466418Y-34595673D01*
X27337534Y-34657896D01*
X27225761Y-34747296D01*
X27136750Y-34859369D01*
X27074957Y-34988463D01*
X27043224Y-35129390D01*
X27041600Y-35201151D01*
X27041600Y-37675000D01*
X27022196Y-37734719D01*
X27011491Y-37747192D01*
X26496491Y-38257192D01*
X26440404Y-38285425D01*
X26425000Y-38286600D01*
X25540000Y-38286600D01*
X25480281Y-38267196D01*
X25443373Y-38216396D01*
X25443373Y-38153604D01*
X25463611Y-38118012D01*
X25517115Y-38056998D01*
X25602421Y-37920401D01*
X25660773Y-37771542D01*
X25691025Y-37613224D01*
X25693400Y-37533487D01*
X25693400Y-36936315D01*
X25691049Y-36846371D01*
X25653369Y-36669096D01*
X25580206Y-36504759D01*
X25474461Y-36359218D01*
X25340785Y-36238851D01*
X25184986Y-36148907D01*
X25013910Y-36093317D01*
X24835000Y-36074519D01*
X24656089Y-36093317D01*
X24485013Y-36148907D01*
X24329214Y-36238851D01*
X24195538Y-36359218D01*
X24089793Y-36504759D01*
X24016630Y-36669096D01*
X23978950Y-36846371D01*
X23976600Y-36936315D01*
X23976600Y-37533902D01*
X23978333Y-37613817D01*
X24008190Y-37771897D01*
X24066588Y-37920550D01*
X24152435Y-38056846D01*
X24206194Y-38117791D01*
X24231147Y-38175412D01*
X24217465Y-38236696D01*
X24170374Y-38278233D01*
X24130000Y-38286600D01*
X16890000Y-38286600D01*
X16830281Y-38267196D01*
X16793373Y-38216396D01*
X16793373Y-38153604D01*
X16813611Y-38118012D01*
X16867115Y-38056998D01*
X16952421Y-37920401D01*
X17010773Y-37771542D01*
X17041025Y-37613224D01*
X17043400Y-37533487D01*
X17043400Y-37365000D01*
X17062804Y-37305281D01*
X17113604Y-37268373D01*
X17162612Y-37264938D01*
X17227102Y-37276288D01*
X17356317Y-37270605D01*
X17478691Y-37233782D01*
X17588252Y-37168009D01*
X17679242Y-37076361D01*
X17712349Y-37023536D01*
X17742500Y-36968607D01*
X17778259Y-36843977D01*
X17781850Y-36715861D01*
X17753465Y-36590868D01*
X17694200Y-36475524D01*
X17652089Y-36425210D01*
X17628639Y-36366961D01*
X17643906Y-36306053D01*
X17652541Y-36294253D01*
X17694621Y-36244676D01*
X17754552Y-36131066D01*
X17784304Y-36007724D01*
X17782779Y-35880849D01*
X17750069Y-35758266D01*
X17687431Y-35646145D01*
X17644161Y-35597609D01*
X17618905Y-35540120D01*
X17632264Y-35478765D01*
X17643293Y-35463377D01*
X17685593Y-35414673D01*
X17746498Y-35302750D01*
X17777917Y-35180808D01*
X17778676Y-35054898D01*
X17748725Y-34932595D01*
X17689140Y-34819905D01*
X17647443Y-34770631D01*
X17623678Y-34712509D01*
X17638615Y-34651519D01*
X17647854Y-34638886D01*
X17697043Y-34581487D01*
X17707214Y-34560550D01*
X20166647Y-34560550D01*
X20168339Y-34626049D01*
X20203040Y-34757333D01*
X20269840Y-34873764D01*
X20364574Y-34968881D01*
X20480733Y-35036158D01*
X20610382Y-35070990D01*
X20744618Y-35070990D01*
X20874266Y-35036158D01*
X20990425Y-34968881D01*
X21085159Y-34873764D01*
X21151959Y-34757333D01*
X21186660Y-34626049D01*
X21188352Y-34560550D01*
X21185972Y-34495295D01*
X21150547Y-34364852D01*
X21083491Y-34249433D01*
X20988907Y-34155233D01*
X20873214Y-34088652D01*
X20744249Y-34054190D01*
X20610751Y-34054190D01*
X20481785Y-34088652D01*
X20366092Y-34155233D01*
X20271508Y-34249433D01*
X20204452Y-34364852D01*
X20169027Y-34495295D01*
X20166647Y-34560550D01*
X17707214Y-34560550D01*
X17762291Y-34447168D01*
X17786322Y-34300004D01*
X17778895Y-34225014D01*
X17792318Y-34163674D01*
X17839233Y-34121938D01*
X17840210Y-34121516D01*
X17905252Y-34093831D01*
X18020565Y-34014507D01*
X18114127Y-33912291D01*
X18182282Y-33791651D01*
X18221541Y-33658752D01*
X18229941Y-33519516D01*
X18219524Y-33450073D01*
X18229854Y-33388136D01*
X18274616Y-33344100D01*
X18320000Y-33333400D01*
X22705000Y-33333400D01*
X22764719Y-33352804D01*
X22801627Y-33403604D01*
X22805644Y-33448906D01*
X22795727Y-33520677D01*
X22805083Y-33663731D01*
X22846513Y-33799468D01*
X22917910Y-33922116D01*
X23015470Y-34025173D01*
X23135162Y-34103900D01*
X23199192Y-34129263D01*
X23265467Y-34150397D01*
X23409359Y-34165101D01*
X23551341Y-34146195D01*
X23685068Y-34094877D01*
X23803230Y-34013926D01*
X23900377Y-33906684D01*
X23937351Y-33843616D01*
X23984293Y-33801911D01*
X24046784Y-33795763D01*
X24100954Y-33827520D01*
X24114357Y-33846648D01*
X24156443Y-33924426D01*
X24267382Y-34060336D01*
X24403715Y-34168596D01*
X24560009Y-34245273D01*
X24729056Y-34286818D01*
X24903096Y-34291339D01*
X25075300Y-34258377D01*
X25157342Y-34225637D01*
X25219999Y-34221524D01*
X25273108Y-34255025D01*
X25296382Y-34313345D01*
X25289619Y-34357010D01*
X25264041Y-34422401D01*
X25245152Y-34559783D01*
X25263172Y-34695607D01*
X25316568Y-34821786D01*
X25401527Y-34929272D01*
X25511963Y-35010381D01*
X25639943Y-35059283D01*
X25776317Y-35072480D01*
X25911313Y-35049027D01*
X26036649Y-34989948D01*
X26089061Y-34947655D01*
X26134454Y-34906782D01*
X26207916Y-34804243D01*
X26253774Y-34688331D01*
X26270157Y-34564760D01*
X26256090Y-34440904D01*
X26212399Y-34324163D01*
X26141709Y-34221497D01*
X26048228Y-34139036D01*
X25937547Y-34081709D01*
X25816261Y-34052932D01*
X25690199Y-34054440D01*
X25628099Y-34068939D01*
X25565533Y-34063621D01*
X25518041Y-34022543D01*
X25503765Y-33961395D01*
X25517830Y-33917808D01*
X25557362Y-33851782D01*
X25613254Y-33709679D01*
X25641694Y-33559640D01*
X25643400Y-33483869D01*
X25643400Y-32586101D01*
X25641536Y-32500286D01*
X25605006Y-32331672D01*
X25533056Y-32174851D01*
X25482414Y-32104179D01*
X25463402Y-32044334D01*
X25483197Y-31984744D01*
X25534238Y-31948169D01*
X25565000Y-31943400D01*
X26555000Y-31943400D01*
X26614719Y-31962804D01*
X26626842Y-31973158D01*
X32630797Y-37977113D01*
X32692174Y-38034978D01*
X32839052Y-38120501D01*
X33003024Y-38165231D01*
X33086927Y-38168400D01*
X34413580Y-38168400D01*
X34485265Y-38166390D01*
X34626413Y-38134173D01*
X34755554Y-38071987D01*
X34867613Y-37982613D01*
X34956987Y-37870554D01*
X35019173Y-37741413D01*
X35051070Y-37601669D01*
X35051070Y-37458330D01*
X35019173Y-37318586D01*
X34956987Y-37189445D01*
X34867613Y-37077386D01*
X34755554Y-36988012D01*
X34626413Y-36925826D01*
X34485265Y-36893609D01*
X34413580Y-36891600D01*
X33390000Y-36891600D01*
X33330281Y-36872196D01*
X33318158Y-36861842D01*
X31656866Y-35200550D01*
X32221647Y-35200550D01*
X32223339Y-35266049D01*
X32258040Y-35397333D01*
X32324840Y-35513764D01*
X32419574Y-35608881D01*
X32535733Y-35676158D01*
X32665382Y-35710990D01*
X32799618Y-35710990D01*
X32929266Y-35676158D01*
X33045425Y-35608881D01*
X33140159Y-35513764D01*
X33206959Y-35397333D01*
X33241660Y-35266049D01*
X33243352Y-35200550D01*
X33240972Y-35135295D01*
X33205547Y-35004852D01*
X33138491Y-34889433D01*
X33043907Y-34795233D01*
X32928214Y-34728652D01*
X32799249Y-34694190D01*
X32665751Y-34694190D01*
X32536785Y-34728652D01*
X32421092Y-34795233D01*
X32326508Y-34889433D01*
X32259452Y-35004852D01*
X32224027Y-35135295D01*
X32221647Y-35200550D01*
X31656866Y-35200550D01*
X27891866Y-31435550D01*
X28821647Y-31435550D01*
X28823339Y-31501049D01*
X28858040Y-31632333D01*
X28924840Y-31748764D01*
X29019574Y-31843881D01*
X29135733Y-31911158D01*
X29265382Y-31945990D01*
X29399618Y-31945990D01*
X29529266Y-31911158D01*
X29645425Y-31843881D01*
X29740159Y-31748764D01*
X29806959Y-31632333D01*
X29841660Y-31501049D01*
X29843352Y-31435550D01*
X29840972Y-31370295D01*
X29805547Y-31239852D01*
X29738491Y-31124433D01*
X29643907Y-31030233D01*
X29528214Y-30963652D01*
X29399249Y-30929190D01*
X29265751Y-30929190D01*
X29136785Y-30963652D01*
X29021092Y-31030233D01*
X28926508Y-31124433D01*
X28859452Y-31239852D01*
X28824027Y-31370295D01*
X28821647Y-31435550D01*
X27891866Y-31435550D01*
X27798158Y-31341842D01*
X27769651Y-31285894D01*
X27779474Y-31223875D01*
X27797967Y-31198350D01*
X28732102Y-30259219D01*
X28783714Y-30204804D01*
X28867706Y-30079137D01*
X28925585Y-29940790D01*
X28956073Y-29792857D01*
X28958400Y-29718425D01*
X28958400Y-29480550D01*
X35406647Y-29480550D01*
X35408339Y-29546049D01*
X35443040Y-29677333D01*
X35509840Y-29793764D01*
X35604574Y-29888881D01*
X35720733Y-29956158D01*
X35850382Y-29990990D01*
X35984618Y-29990990D01*
X36114266Y-29956158D01*
X36230425Y-29888881D01*
X36325159Y-29793764D01*
X36391959Y-29677333D01*
X36426660Y-29546049D01*
X36428352Y-29480550D01*
X36425972Y-29415295D01*
X36390547Y-29284852D01*
X36323491Y-29169433D01*
X36228907Y-29075233D01*
X36113214Y-29008652D01*
X35984249Y-28974190D01*
X35850751Y-28974190D01*
X35721785Y-29008652D01*
X35606092Y-29075233D01*
X35511508Y-29169433D01*
X35444452Y-29284852D01*
X35409027Y-29415295D01*
X35406647Y-29480550D01*
X28958400Y-29480550D01*
X28958400Y-28420550D01*
X30856647Y-28420550D01*
X30858339Y-28486049D01*
X30893040Y-28617333D01*
X30959840Y-28733764D01*
X31054574Y-28828881D01*
X31170733Y-28896158D01*
X31300382Y-28930990D01*
X31434618Y-28930990D01*
X31564266Y-28896158D01*
X31680425Y-28828881D01*
X31775159Y-28733764D01*
X31841959Y-28617333D01*
X31876660Y-28486049D01*
X31878352Y-28420550D01*
X31875972Y-28355295D01*
X31840547Y-28224852D01*
X31773491Y-28109433D01*
X31678907Y-28015233D01*
X31563214Y-27948652D01*
X31434249Y-27914190D01*
X31300751Y-27914190D01*
X31171785Y-27948652D01*
X31056092Y-28015233D01*
X30961508Y-28109433D01*
X30894452Y-28224852D01*
X30859027Y-28355295D01*
X30856647Y-28420550D01*
X28958400Y-28420550D01*
X28958400Y-26224449D01*
X31291647Y-26224449D01*
X31294027Y-26289704D01*
X31329452Y-26420147D01*
X31396508Y-26535566D01*
X31491092Y-26629766D01*
X31606785Y-26696347D01*
X31735751Y-26730810D01*
X31869249Y-26730810D01*
X31998214Y-26696347D01*
X32113907Y-26629766D01*
X32208491Y-26535566D01*
X32275547Y-26420147D01*
X32284943Y-26385550D01*
X33901647Y-26385550D01*
X33903339Y-26451049D01*
X33938040Y-26582333D01*
X34004840Y-26698764D01*
X34099574Y-26793881D01*
X34215733Y-26861158D01*
X34345382Y-26895990D01*
X34479618Y-26895990D01*
X34609266Y-26861158D01*
X34725425Y-26793881D01*
X34820159Y-26698764D01*
X34886959Y-26582333D01*
X34921660Y-26451049D01*
X34923352Y-26385550D01*
X34920972Y-26320295D01*
X34885547Y-26189852D01*
X34818491Y-26074433D01*
X34723907Y-25980233D01*
X34608214Y-25913652D01*
X34479249Y-25879190D01*
X34345751Y-25879190D01*
X34216785Y-25913652D01*
X34101092Y-25980233D01*
X34006508Y-26074433D01*
X33939452Y-26189852D01*
X33904027Y-26320295D01*
X33901647Y-26385550D01*
X32284943Y-26385550D01*
X32310972Y-26289704D01*
X32313352Y-26224449D01*
X32311660Y-26158950D01*
X32276959Y-26027666D01*
X32210159Y-25911235D01*
X32115425Y-25816118D01*
X31999266Y-25748841D01*
X31869618Y-25714010D01*
X31735382Y-25714010D01*
X31605733Y-25748841D01*
X31489574Y-25816118D01*
X31394840Y-25911235D01*
X31328040Y-26027666D01*
X31293339Y-26158950D01*
X31291647Y-26224449D01*
X28958400Y-26224449D01*
X28958400Y-24400550D01*
X35406647Y-24400550D01*
X35408339Y-24466049D01*
X35443040Y-24597333D01*
X35509840Y-24713764D01*
X35604574Y-24808881D01*
X35720733Y-24876158D01*
X35850382Y-24910990D01*
X35984618Y-24910990D01*
X36114266Y-24876158D01*
X36230425Y-24808881D01*
X36325159Y-24713764D01*
X36391959Y-24597333D01*
X36426660Y-24466049D01*
X36428352Y-24400550D01*
X36425972Y-24335295D01*
X36390547Y-24204852D01*
X36323491Y-24089433D01*
X36228907Y-23995233D01*
X36113214Y-23928652D01*
X35984249Y-23894190D01*
X35850751Y-23894190D01*
X35721785Y-23928652D01*
X35606092Y-23995233D01*
X35511508Y-24089433D01*
X35444452Y-24204852D01*
X35409027Y-24335295D01*
X35406647Y-24400550D01*
X28958400Y-24400550D01*
X28958400Y-22671344D01*
X28956397Y-22595990D01*
X28926481Y-22446764D01*
X28868612Y-22307353D01*
X28783987Y-22180683D01*
X28732141Y-22125825D01*
X28098158Y-21491842D01*
X28069651Y-21435894D01*
X28068400Y-21420000D01*
X28068400Y-21335550D01*
X28821647Y-21335550D01*
X28823339Y-21401049D01*
X28858040Y-21532333D01*
X28924840Y-21648764D01*
X29019574Y-21743881D01*
X29135733Y-21811158D01*
X29265382Y-21845990D01*
X29399618Y-21845990D01*
X29529266Y-21811158D01*
X29645425Y-21743881D01*
X29740159Y-21648764D01*
X29806959Y-21532333D01*
X29841660Y-21401049D01*
X29843352Y-21335550D01*
X29840972Y-21270295D01*
X29805547Y-21139852D01*
X29738491Y-21024433D01*
X29643907Y-20930233D01*
X29528214Y-20863652D01*
X29399249Y-20829190D01*
X29265751Y-20829190D01*
X29136785Y-20863652D01*
X29021092Y-20930233D01*
X28926508Y-21024433D01*
X28859452Y-21139852D01*
X28824027Y-21270295D01*
X28821647Y-21335550D01*
X28068400Y-21335550D01*
X28068400Y-20625000D01*
X28087804Y-20565281D01*
X28099050Y-20552277D01*
X28304050Y-20352277D01*
X28360346Y-20324462D01*
X28375000Y-20323400D01*
X29968656Y-20323400D01*
X30044009Y-20321397D01*
X30193235Y-20291481D01*
X30332646Y-20233612D01*
X30459316Y-20148987D01*
X30514174Y-20097141D01*
X31290765Y-19320550D01*
X35406647Y-19320550D01*
X35408339Y-19386049D01*
X35443040Y-19517333D01*
X35509840Y-19633764D01*
X35604574Y-19728881D01*
X35720733Y-19796158D01*
X35850382Y-19830990D01*
X35984618Y-19830990D01*
X36114266Y-19796158D01*
X36230425Y-19728881D01*
X36325159Y-19633764D01*
X36391959Y-19517333D01*
X36426660Y-19386049D01*
X36428352Y-19320550D01*
X36425972Y-19255295D01*
X36390547Y-19124852D01*
X36323491Y-19009433D01*
X36228907Y-18915233D01*
X36113214Y-18848652D01*
X35984249Y-18814190D01*
X35850751Y-18814190D01*
X35721785Y-18848652D01*
X35606092Y-18915233D01*
X35511508Y-19009433D01*
X35444452Y-19124852D01*
X35409027Y-19255295D01*
X35406647Y-19320550D01*
X31290765Y-19320550D01*
X31337205Y-19274110D01*
X31388714Y-19219804D01*
X31472706Y-19094137D01*
X31530585Y-18955790D01*
X31561073Y-18807857D01*
X31563400Y-18733425D01*
X31563400Y-16091169D01*
X31561660Y-16015716D01*
X31531930Y-15866564D01*
X31474079Y-15727206D01*
X31389327Y-15600706D01*
X31337257Y-15545941D01*
X30298158Y-14506842D01*
X30269651Y-14450894D01*
X30279474Y-14388875D01*
X30301521Y-14359945D01*
X30352540Y-14313395D01*
X30402160Y-14240550D01*
X35406647Y-14240550D01*
X35408339Y-14306049D01*
X35443040Y-14437333D01*
X35509840Y-14553764D01*
X35604574Y-14648881D01*
X35720733Y-14716158D01*
X35850382Y-14750990D01*
X35984618Y-14750990D01*
X36114266Y-14716158D01*
X36230425Y-14648881D01*
X36325159Y-14553764D01*
X36391959Y-14437333D01*
X36426660Y-14306049D01*
X36428352Y-14240550D01*
X36425972Y-14175295D01*
X36390547Y-14044852D01*
X36323491Y-13929433D01*
X36228907Y-13835233D01*
X36113214Y-13768652D01*
X35984249Y-13734190D01*
X35850751Y-13734190D01*
X35721785Y-13768652D01*
X35606092Y-13835233D01*
X35511508Y-13929433D01*
X35444452Y-14044852D01*
X35409027Y-14175295D01*
X35406647Y-14240550D01*
X30402160Y-14240550D01*
X30429375Y-14200596D01*
X30473633Y-14073165D01*
X30483152Y-13938584D01*
X30457263Y-13806189D01*
X30397758Y-13685113D01*
X30307860Y-13582704D01*
X30253728Y-13544635D01*
X30197485Y-13509319D01*
X30068221Y-13465650D01*
X29933648Y-13457629D01*
X29801715Y-13485302D01*
X29681712Y-13546722D01*
X29582094Y-13637562D01*
X29508845Y-13753070D01*
X29485884Y-13818599D01*
X29447823Y-13868541D01*
X29387675Y-13886573D01*
X29373297Y-13885218D01*
X29351589Y-13881600D01*
X28895000Y-13881600D01*
X28835281Y-13862196D01*
X28823648Y-13852329D01*
X28454903Y-13488567D01*
X28417154Y-13453817D01*
X28319240Y-13413467D01*
X28268149Y-13411600D01*
X26515000Y-13411600D01*
X26455281Y-13392196D01*
X26443158Y-13381842D01*
X25474336Y-12413020D01*
X25418335Y-12360588D01*
X25288449Y-12275064D01*
X25144537Y-12216137D01*
X25068034Y-12199197D01*
X25013923Y-12167341D01*
X24988870Y-12109763D01*
X24994303Y-12065874D01*
X25015578Y-12006212D01*
X25032051Y-11882216D01*
X25018732Y-11759357D01*
X24976597Y-11643193D01*
X24908049Y-11540371D01*
X24817028Y-11456794D01*
X24708740Y-11397250D01*
X24587951Y-11364762D01*
X24528273Y-11361648D01*
X24468193Y-11362743D01*
X24345746Y-11391773D01*
X24235137Y-11448708D01*
X24141439Y-11530539D01*
X24070143Y-11632474D01*
X24025418Y-11748552D01*
X24009890Y-11871977D01*
X24024561Y-11996458D01*
X24045724Y-12055949D01*
X24047457Y-12118717D01*
X24011965Y-12170517D01*
X23952804Y-12191561D01*
X23950000Y-12191600D01*
X20066408Y-12191600D01*
X19981869Y-12193963D01*
X19815517Y-12231561D01*
X19662703Y-12304161D01*
X19529533Y-12408496D01*
X19422507Y-12539514D01*
X19346813Y-12690813D01*
X19306162Y-12855037D01*
X19302519Y-13024177D01*
X19336409Y-13191652D01*
X19369057Y-13271583D01*
X19373675Y-13334205D01*
X19340602Y-13387582D01*
X19282472Y-13411325D01*
X19275000Y-13411600D01*
X13945000Y-13411600D01*
X13885281Y-13392196D01*
X13873531Y-13382213D01*
X13390111Y-12903776D01*
X13352842Y-12869980D01*
X13256471Y-12829343D01*
X13207175Y-12826600D01*
X10745000Y-12826600D01*
X10685281Y-12807196D01*
X10648373Y-12756396D01*
X10648373Y-12693604D01*
X10659728Y-12669762D01*
X10697219Y-12611885D01*
X10745691Y-12484480D01*
X10762135Y-12350728D01*
X10746139Y-12216917D01*
X10698633Y-12090801D01*
X10622370Y-11979686D01*
X10521777Y-11890017D01*
X10511256Y-11884449D01*
X16836647Y-11884449D01*
X16839027Y-11949704D01*
X16874452Y-12080147D01*
X16941508Y-12195566D01*
X17036092Y-12289766D01*
X17151785Y-12356347D01*
X17280751Y-12390810D01*
X17414249Y-12390810D01*
X17543214Y-12356347D01*
X17658907Y-12289766D01*
X17753491Y-12195566D01*
X17820547Y-12080147D01*
X17855972Y-11949704D01*
X17858352Y-11884449D01*
X17856660Y-11818950D01*
X17821959Y-11687666D01*
X17755159Y-11571235D01*
X17660425Y-11476118D01*
X17544266Y-11408841D01*
X17414618Y-11374010D01*
X17280382Y-11374010D01*
X17150733Y-11408841D01*
X17034574Y-11476118D01*
X16939840Y-11571235D01*
X16873040Y-11687666D01*
X16838339Y-11818950D01*
X16836647Y-11884449D01*
X10511256Y-11884449D01*
X10402661Y-11826980D01*
X10270480Y-11793859D01*
X10204887Y-11791654D01*
X10139174Y-11793721D01*
X10006685Y-11826507D01*
X9887226Y-11889269D01*
X9786192Y-11978742D01*
X9709451Y-12089734D01*
X9661439Y-12215848D01*
X9644922Y-12349784D01*
X9660855Y-12483789D01*
X9709050Y-12612034D01*
X9746053Y-12670986D01*
X9761367Y-12731883D01*
X9737962Y-12790150D01*
X9684778Y-12823532D01*
X9660000Y-12826600D01*
X3557036Y-12826600D01*
X3507375Y-12828586D01*
X3412250Y-12868465D01*
X3375751Y-12902928D01*
X1914155Y-14359536D01*
X1881440Y-14396873D01*
X1840403Y-14494772D01*
X1836600Y-14543922D01*
X1836600Y-20062486D01*
X1839114Y-20113447D01*
X1879811Y-20212286D01*
X1913616Y-20249914D01*
X2484909Y-20816240D01*
X2517780Y-20846023D01*
X2601490Y-20886916D01*
X2647410Y-20894903D01*
X2702920Y-20924253D01*
X2730578Y-20980626D01*
X2731327Y-21002447D01*
X2726862Y-21063194D01*
X2742962Y-21182459D01*
X2785887Y-21293362D01*
X2853468Y-21391215D01*
X2943040Y-21471568D01*
X2993537Y-21500706D01*
X3045434Y-21527240D01*
X3161267Y-21559378D01*
X3279924Y-21564187D01*
X3396559Y-21541804D01*
X3506364Y-21492801D01*
X3555879Y-21457373D01*
X3615737Y-21438403D01*
X3675313Y-21458239D01*
X3675523Y-21458394D01*
X3729994Y-21498793D01*
X3852822Y-21552152D01*
X3983602Y-21571841D01*
X4115039Y-21557197D01*
X4238286Y-21509211D01*
X4345012Y-21431106D01*
X4429041Y-21326904D01*
X4458491Y-21265856D01*
X4501915Y-21220499D01*
X4563705Y-21209329D01*
X4620261Y-21236611D01*
X4622019Y-21238336D01*
X5630434Y-22251743D01*
X5667845Y-22286182D01*
X5765759Y-22326532D01*
X5816851Y-22328400D01*
X8063352Y-22328400D01*
X8111822Y-22326831D01*
X8204417Y-22289109D01*
X8241178Y-22255260D01*
X8298253Y-22229081D01*
X8359815Y-22241451D01*
X8383231Y-22259574D01*
X8428952Y-22307116D01*
X8537493Y-22379077D01*
X8658981Y-22421344D01*
X8787159Y-22432153D01*
X8915682Y-22410564D01*
X8974122Y-22386936D01*
X9030699Y-22360044D01*
X9132394Y-22279552D01*
X9209371Y-22177156D01*
X9257843Y-22058562D01*
X9274854Y-21929850D01*
X9268827Y-21864304D01*
X9282680Y-21803059D01*
X9329887Y-21761654D01*
X9370000Y-21753400D01*
X25303145Y-21753400D01*
X25352836Y-21751591D01*
X25447703Y-21711794D01*
X25484081Y-21677234D01*
X26368158Y-20793158D01*
X26424106Y-20764651D01*
X26486125Y-20774474D01*
X26530526Y-20818875D01*
X26541600Y-20865000D01*
X26541600Y-21778655D01*
X26543602Y-21854009D01*
X26573518Y-22003235D01*
X26631387Y-22142646D01*
X26716012Y-22269316D01*
X26768083Y-22324412D01*
X27157298Y-22718617D01*
X27185448Y-22774746D01*
X27175231Y-22836701D01*
X27130548Y-22880818D01*
X27104925Y-22889627D01*
X27054925Y-22899627D01*
X26992561Y-22892312D01*
X26948427Y-22853176D01*
X26911436Y-22792954D01*
X26812544Y-22694467D01*
X26692481Y-22626645D01*
X26558708Y-22593181D01*
X26420847Y-22596490D01*
X26287332Y-22636785D01*
X26226525Y-22672566D01*
X26165215Y-22686128D01*
X26123049Y-22672314D01*
X26061689Y-22635805D01*
X25926931Y-22594479D01*
X25787769Y-22591080D01*
X25652862Y-22625353D01*
X25532202Y-22694757D01*
X25433667Y-22795237D01*
X25397541Y-22856567D01*
X25350512Y-22898174D01*
X25288009Y-22904191D01*
X25285575Y-22903620D01*
X25222383Y-22887969D01*
X25093846Y-22884848D01*
X24970031Y-22913129D01*
X24856990Y-22971033D01*
X24761688Y-23055002D01*
X24690001Y-23159845D01*
X24646348Y-23279116D01*
X24633415Y-23405463D01*
X24652290Y-23533080D01*
X24674002Y-23591300D01*
X24699420Y-23647615D01*
X24776591Y-23750633D01*
X24875594Y-23830410D01*
X24991227Y-23883254D01*
X25116327Y-23905893D01*
X25243159Y-23896922D01*
X25363829Y-23856906D01*
X25470871Y-23788313D01*
X25559072Y-23693890D01*
X25592953Y-23637604D01*
X25640375Y-23596446D01*
X25702932Y-23591022D01*
X25704212Y-23591327D01*
X25775621Y-23608849D01*
X25920779Y-23607661D01*
X26059668Y-23565956D01*
X26122481Y-23528027D01*
X26183633Y-23513767D01*
X26227081Y-23527764D01*
X26286994Y-23563533D01*
X26418553Y-23604571D01*
X26556349Y-23609317D01*
X26624795Y-23595429D01*
X26687180Y-23602570D01*
X26732685Y-23643678D01*
X26761285Y-23692543D01*
X26836002Y-23775586D01*
X26927871Y-23839278D01*
X26978900Y-23861134D01*
X27030304Y-23881690D01*
X27140225Y-23902476D01*
X27251955Y-23898801D01*
X27307048Y-23886026D01*
X27369607Y-23891438D01*
X27417037Y-23932587D01*
X27431600Y-23985000D01*
X27431600Y-29360000D01*
X27412196Y-29419719D01*
X27401653Y-29432030D01*
X26446653Y-30382030D01*
X26390630Y-30410391D01*
X26375000Y-30411600D01*
X23270938Y-30411600D01*
X23195861Y-30413004D01*
X23047926Y-30442197D01*
X22909946Y-30499819D01*
X22785313Y-30584417D01*
X22731493Y-30637190D01*
X22376842Y-30991842D01*
X22342156Y-31026528D01*
X22067486Y-31306192D01*
X22011797Y-31335202D01*
X21995000Y-31336600D01*
X20755000Y-31336600D01*
X20695281Y-31317196D01*
X20658373Y-31266396D01*
X20658373Y-31203604D01*
X20663821Y-31190180D01*
X20694087Y-31128608D01*
X20724011Y-30996430D01*
X20718273Y-30862629D01*
X20677643Y-30735018D01*
X20603938Y-30620943D01*
X20556762Y-30575347D01*
X20507194Y-30533310D01*
X20387304Y-30471507D01*
X20257162Y-30442804D01*
X20124021Y-30448377D01*
X19995193Y-30488331D01*
X19936207Y-30522752D01*
X19874848Y-30536092D01*
X19832937Y-30522247D01*
X19778502Y-30489764D01*
X19659991Y-30449443D01*
X19535119Y-30438374D01*
X19472011Y-30445888D01*
X19410417Y-30433680D01*
X19367762Y-30387599D01*
X19360339Y-30325247D01*
X19371382Y-30295307D01*
X19402895Y-30239108D01*
X19439822Y-30117286D01*
X19445873Y-29991659D01*
X19421126Y-29868326D01*
X19367084Y-29754750D01*
X19286992Y-29657764D01*
X19185681Y-29583208D01*
X19069271Y-29535596D01*
X18944754Y-29517785D01*
X18818215Y-29530995D01*
X18757169Y-29551373D01*
X18694379Y-29551876D01*
X18643285Y-29515375D01*
X18623403Y-29455814D01*
X18623400Y-29455000D01*
X18623400Y-29351638D01*
X18621213Y-29284346D01*
X18586003Y-29152738D01*
X18518020Y-29034765D01*
X18472030Y-28985717D01*
X18126203Y-28640550D01*
X19871647Y-28640550D01*
X19873339Y-28706049D01*
X19908040Y-28837333D01*
X19974840Y-28953764D01*
X20069574Y-29048881D01*
X20185733Y-29116158D01*
X20315382Y-29150990D01*
X20449618Y-29150990D01*
X20579266Y-29116158D01*
X20695425Y-29048881D01*
X20790159Y-28953764D01*
X20856959Y-28837333D01*
X20891660Y-28706049D01*
X20893352Y-28640550D01*
X20890972Y-28575295D01*
X20855547Y-28444852D01*
X20788491Y-28329433D01*
X20693907Y-28235233D01*
X20578214Y-28168652D01*
X20449249Y-28134190D01*
X20315751Y-28134190D01*
X20186785Y-28168652D01*
X20071092Y-28235233D01*
X19976508Y-28329433D01*
X19909452Y-28444852D01*
X19874027Y-28575295D01*
X19871647Y-28640550D01*
X18126203Y-28640550D01*
X15854794Y-26373475D01*
X15805883Y-26328715D01*
X15688555Y-26261307D01*
X15558110Y-26225063D01*
X15492336Y-26221600D01*
X14095000Y-26221600D01*
X14035281Y-26202196D01*
X13998373Y-26151396D01*
X13994011Y-26108878D01*
X14000836Y-26046905D01*
X13988661Y-25924294D01*
X13948548Y-25809355D01*
X13881789Y-25705813D01*
X13837880Y-25661563D01*
X13809590Y-25605505D01*
X13819653Y-25543524D01*
X13837835Y-25518482D01*
X13887863Y-25468000D01*
X13904522Y-25440389D01*
X16123625Y-25440389D01*
X16137644Y-25568809D01*
X16183433Y-25689608D01*
X16258063Y-25795060D01*
X16357891Y-25879383D01*
X16416638Y-25909737D01*
X16460786Y-25954388D01*
X16470257Y-26016462D01*
X16468220Y-26025987D01*
X16451667Y-26088548D01*
X16446307Y-26216318D01*
X16471922Y-26340049D01*
X16526903Y-26453823D01*
X16607940Y-26550775D01*
X16711383Y-26625970D01*
X16767612Y-26650558D01*
X16825698Y-26671480D01*
X16953274Y-26687841D01*
X17079413Y-26672528D01*
X17197912Y-26626666D01*
X17301502Y-26553085D01*
X17384789Y-26455157D01*
X17415125Y-26397618D01*
X17460141Y-26353840D01*
X17522291Y-26344882D01*
X17558715Y-26358761D01*
X17618603Y-26396062D01*
X17750865Y-26439889D01*
X17888323Y-26446786D01*
X18022658Y-26416787D01*
X18144132Y-26352068D01*
X18210092Y-26289449D01*
X21906647Y-26289449D01*
X21909027Y-26354704D01*
X21944452Y-26485147D01*
X22011508Y-26600566D01*
X22106092Y-26694766D01*
X22221785Y-26761347D01*
X22350751Y-26795810D01*
X22484249Y-26795810D01*
X22613214Y-26761347D01*
X22728907Y-26694766D01*
X22823491Y-26600566D01*
X22890547Y-26485147D01*
X22917595Y-26385550D01*
X23741647Y-26385550D01*
X23743339Y-26451049D01*
X23778040Y-26582333D01*
X23844840Y-26698764D01*
X23939574Y-26793881D01*
X24055733Y-26861158D01*
X24185382Y-26895990D01*
X24319618Y-26895990D01*
X24449266Y-26861158D01*
X24565425Y-26793881D01*
X24660159Y-26698764D01*
X24726959Y-26582333D01*
X24761660Y-26451049D01*
X24763352Y-26385550D01*
X24760972Y-26320295D01*
X24725547Y-26189852D01*
X24658491Y-26074433D01*
X24563907Y-25980233D01*
X24448214Y-25913652D01*
X24319249Y-25879190D01*
X24185751Y-25879190D01*
X24056785Y-25913652D01*
X23941092Y-25980233D01*
X23846508Y-26074433D01*
X23779452Y-26189852D01*
X23744027Y-26320295D01*
X23741647Y-26385550D01*
X22917595Y-26385550D01*
X22925972Y-26354704D01*
X22928352Y-26289449D01*
X22926660Y-26223950D01*
X22891959Y-26092666D01*
X22825159Y-25976235D01*
X22730425Y-25881118D01*
X22614266Y-25813841D01*
X22484618Y-25779010D01*
X22350382Y-25779010D01*
X22220733Y-25813841D01*
X22104574Y-25881118D01*
X22009840Y-25976235D01*
X21943040Y-26092666D01*
X21908339Y-26223950D01*
X21906647Y-26289449D01*
X18210092Y-26289449D01*
X18243958Y-26257299D01*
X18314908Y-26139356D01*
X18351845Y-26006769D01*
X18352107Y-25867096D01*
X18336841Y-25801459D01*
X18317208Y-25737582D01*
X18246395Y-25617980D01*
X18147584Y-25522603D01*
X18027005Y-25456863D01*
X17893306Y-25425478D01*
X17756075Y-25430695D01*
X17625147Y-25472140D01*
X17509903Y-25546847D01*
X17417633Y-25650557D01*
X17384776Y-25712569D01*
X17339670Y-25756253D01*
X17277501Y-25765082D01*
X17244592Y-25753214D01*
X17174592Y-25713214D01*
X17132369Y-25666737D01*
X17125527Y-25604319D01*
X17126874Y-25598658D01*
X17144060Y-25534635D01*
X17149069Y-25403740D01*
X17121419Y-25277256D01*
X17062931Y-25161756D01*
X16977328Y-25064610D01*
X16870112Y-24992036D01*
X16748115Y-24948679D01*
X16619140Y-24937304D01*
X16489889Y-24958896D01*
X16430963Y-24983014D01*
X16373589Y-25010114D01*
X16270757Y-25090805D01*
X16192379Y-25193499D01*
X16142268Y-25312555D01*
X16123625Y-25440389D01*
X13904522Y-25440389D01*
X13960358Y-25347844D01*
X13997520Y-25214306D01*
X13997520Y-25075693D01*
X13960358Y-24942155D01*
X13887863Y-24821999D01*
X13837835Y-24771518D01*
X13809580Y-24715442D01*
X13819682Y-24653467D01*
X13838097Y-24628219D01*
X13888021Y-24578209D01*
X13960394Y-24458996D01*
X13997500Y-24326366D01*
X13997500Y-24188633D01*
X13960394Y-24056003D01*
X13888021Y-23936790D01*
X13838097Y-23886781D01*
X13809637Y-23830808D01*
X13819513Y-23768797D01*
X13837835Y-23743482D01*
X13887863Y-23693000D01*
X13960358Y-23572844D01*
X13997520Y-23439306D01*
X13997520Y-23424744D01*
X16440932Y-23424744D01*
X16445977Y-23560989D01*
X16487233Y-23693058D01*
X16522703Y-23753709D01*
X16536101Y-23815056D01*
X16522670Y-23856346D01*
X16487302Y-23916733D01*
X16447302Y-24049021D01*
X16443863Y-24185529D01*
X16476762Y-24318050D01*
X16543624Y-24437103D01*
X16639674Y-24534151D01*
X16758023Y-24602257D01*
X16891947Y-24636984D01*
X16958801Y-24638353D01*
X17025251Y-24635409D01*
X17100937Y-24613741D01*
X20376064Y-24613741D01*
X20387203Y-24748343D01*
X20433315Y-24875291D01*
X20511170Y-24985662D01*
X20615293Y-25071703D01*
X20738363Y-25127356D01*
X20873300Y-25148961D01*
X20942263Y-25143695D01*
X21003286Y-25158495D01*
X21043956Y-25206337D01*
X21051213Y-25236139D01*
X21057231Y-25304886D01*
X21100290Y-25434264D01*
X21174815Y-25546559D01*
X21276116Y-25635435D01*
X21397156Y-25694718D01*
X21529475Y-25720278D01*
X21663881Y-25710325D01*
X21790993Y-25665561D01*
X21903317Y-25588175D01*
X21947444Y-25539289D01*
X21988273Y-25487920D01*
X22046047Y-25364826D01*
X22069567Y-25232467D01*
X22057882Y-25098554D01*
X22011794Y-24972274D01*
X21934466Y-24862308D01*
X21831231Y-24776225D01*
X21709157Y-24719926D01*
X21575116Y-24697028D01*
X21506447Y-24701395D01*
X21445617Y-24685820D01*
X21405560Y-24637465D01*
X21398880Y-24609860D01*
X21392210Y-24541462D01*
X21348255Y-24412952D01*
X21273339Y-24301516D01*
X21172088Y-24213311D01*
X21051435Y-24154385D01*
X20919620Y-24128760D01*
X20785673Y-24138197D01*
X20658760Y-24182035D01*
X20546294Y-24258142D01*
X20501857Y-24306517D01*
X20460040Y-24357818D01*
X20400689Y-24480934D01*
X20376064Y-24613741D01*
X17100937Y-24613741D01*
X17157865Y-24597443D01*
X17274478Y-24526803D01*
X17368441Y-24428028D01*
X17433148Y-24308029D01*
X17464067Y-24175255D01*
X17459022Y-24039010D01*
X17417766Y-23906941D01*
X17399086Y-23875000D01*
X18541654Y-23875000D01*
X18543774Y-23939958D01*
X18578676Y-24070224D01*
X18645271Y-24185567D01*
X18739432Y-24279728D01*
X18854775Y-24346323D01*
X18983417Y-24380790D01*
X19116583Y-24380790D01*
X19245224Y-24346323D01*
X19360567Y-24279728D01*
X19454728Y-24185567D01*
X19521323Y-24070224D01*
X19556225Y-23939958D01*
X19558345Y-23875000D01*
X19556225Y-23810041D01*
X19521323Y-23679775D01*
X19454728Y-23564432D01*
X19360567Y-23470271D01*
X19245224Y-23403676D01*
X19116583Y-23369210D01*
X18983417Y-23369210D01*
X18854775Y-23403676D01*
X18739432Y-23470271D01*
X18645271Y-23564432D01*
X18578676Y-23679775D01*
X18543774Y-23810041D01*
X18541654Y-23875000D01*
X17399086Y-23875000D01*
X17382297Y-23846291D01*
X17368899Y-23784944D01*
X17382330Y-23743654D01*
X17417697Y-23683266D01*
X17457697Y-23550978D01*
X17461136Y-23414470D01*
X17428237Y-23281949D01*
X17361375Y-23162896D01*
X17265325Y-23065848D01*
X17146976Y-22997742D01*
X17013052Y-22963015D01*
X16946198Y-22961646D01*
X16879748Y-22964590D01*
X16747134Y-23002556D01*
X16630521Y-23073196D01*
X16536558Y-23171971D01*
X16471851Y-23291970D01*
X16440932Y-23424744D01*
X13997520Y-23424744D01*
X13997520Y-23300693D01*
X13960358Y-23167155D01*
X13887863Y-23046999D01*
X13837835Y-22996518D01*
X13809580Y-22940442D01*
X13819682Y-22878467D01*
X13837840Y-22853477D01*
X13886699Y-22804182D01*
X13958078Y-22687062D01*
X13995964Y-22556874D01*
X13998541Y-22421307D01*
X13965624Y-22289774D01*
X13899519Y-22171408D01*
X13804784Y-22074404D01*
X13688012Y-22005501D01*
X13555734Y-21969052D01*
X13489583Y-21966651D01*
X13423174Y-21968514D01*
X13290181Y-22004267D01*
X13172652Y-22072897D01*
X13077284Y-22169991D01*
X13010784Y-22288729D01*
X12977815Y-22420787D01*
X12980708Y-22556847D01*
X13019251Y-22687371D01*
X13091259Y-22804011D01*
X13140789Y-22852120D01*
X13170107Y-22907648D01*
X13161188Y-22969803D01*
X13142165Y-22996518D01*
X13092136Y-23046999D01*
X13019641Y-23167155D01*
X12982480Y-23300693D01*
X12982480Y-23439306D01*
X13019641Y-23572844D01*
X13092136Y-23693000D01*
X13142165Y-23743482D01*
X13170420Y-23799558D01*
X13160318Y-23861533D01*
X13142778Y-23885894D01*
X13093587Y-23936391D01*
X13022437Y-24056066D01*
X12985990Y-24188714D01*
X12985990Y-24326285D01*
X13022437Y-24458933D01*
X13093587Y-24578608D01*
X13142778Y-24629106D01*
X13170549Y-24685423D01*
X13159914Y-24747308D01*
X13142165Y-24771518D01*
X13092136Y-24821999D01*
X13019641Y-24942155D01*
X12982480Y-25075693D01*
X12982480Y-25214306D01*
X13019641Y-25347844D01*
X13092136Y-25468000D01*
X13142165Y-25518482D01*
X13170420Y-25574558D01*
X13160318Y-25636533D01*
X13142362Y-25661319D01*
X13098339Y-25705985D01*
X13030934Y-25809934D01*
X12989678Y-25925196D01*
X12975775Y-26048522D01*
X12981219Y-26111212D01*
X12967054Y-26172385D01*
X12919637Y-26213549D01*
X12880000Y-26221600D01*
X11751638Y-26221600D01*
X11684346Y-26223786D01*
X11552738Y-26258996D01*
X11434765Y-26326979D01*
X11385680Y-26373003D01*
X10696842Y-27061842D01*
X10640894Y-27090349D01*
X10578875Y-27080526D01*
X10543720Y-27050960D01*
X10528720Y-27030960D01*
X10508412Y-26971542D01*
X10526907Y-26911536D01*
X10545606Y-26891413D01*
X10597512Y-26848881D01*
X10680527Y-26745347D01*
X10736334Y-26626554D01*
X10762725Y-26497986D01*
X10758224Y-26366814D01*
X10723099Y-26240351D01*
X10659289Y-26125651D01*
X10570369Y-26029122D01*
X10461285Y-25956126D01*
X10336739Y-25910239D01*
X10273409Y-25900984D01*
X10202556Y-25895044D01*
X10057358Y-25916074D01*
X9923870Y-25972960D01*
X9809417Y-26062126D01*
X9721611Y-26177631D01*
X9666315Y-26311776D01*
X9647227Y-26455602D01*
X9665606Y-26599527D01*
X9720986Y-26735803D01*
X9763493Y-26797109D01*
X9781575Y-26857241D01*
X9760859Y-26916517D01*
X9751034Y-26927641D01*
X9701288Y-26976286D01*
X9628175Y-27092636D01*
X9588864Y-27222615D01*
X9585285Y-27358355D01*
X9617684Y-27490217D01*
X9683766Y-27608829D01*
X9779990Y-27706957D01*
X9838953Y-27743909D01*
X9879252Y-27792064D01*
X9883550Y-27854709D01*
X9856842Y-27901842D01*
X7642663Y-30116020D01*
X7595962Y-30164897D01*
X7527739Y-30282262D01*
X7493073Y-30413500D01*
X7491600Y-30481111D01*
X7491600Y-31370000D01*
X7472196Y-31429719D01*
X7461842Y-31441842D01*
X7376842Y-31526842D01*
X7320894Y-31555349D01*
X7305000Y-31556600D01*
X6780000Y-31556600D01*
X6720281Y-31537196D01*
X6683373Y-31486396D01*
X6683373Y-31423604D01*
X6720281Y-31372804D01*
X6722547Y-31371204D01*
X6778688Y-31332712D01*
X6869456Y-31233585D01*
X6930884Y-31115901D01*
X6959940Y-30986366D01*
X6954659Y-30853719D01*
X6915408Y-30726905D01*
X6844824Y-30614476D01*
X6747665Y-30523998D01*
X6630503Y-30461598D01*
X6501219Y-30431468D01*
X6366887Y-30435693D01*
X6304186Y-30452369D01*
X6242480Y-30473006D01*
X6127699Y-30543665D01*
X6036235Y-30640376D01*
X5972883Y-30757436D01*
X5941952Y-30886900D01*
X5945533Y-31019958D01*
X5983393Y-31147573D01*
X6052958Y-31261059D01*
X6149500Y-31352696D01*
X6266450Y-31416276D01*
X6397507Y-31447847D01*
X6465826Y-31448403D01*
X6525385Y-31468292D01*
X6561879Y-31519390D01*
X6561369Y-31582181D01*
X6524049Y-31632679D01*
X6520224Y-31635281D01*
X6496301Y-31650772D01*
X6452033Y-31686583D01*
X6431962Y-31706722D01*
X5928353Y-32215317D01*
X5881341Y-32265958D01*
X5812965Y-32387775D01*
X5779876Y-32521757D01*
X5783627Y-32659720D01*
X5823944Y-32791698D01*
X5897937Y-32908203D01*
X6001499Y-33001951D01*
X6063599Y-33035777D01*
X6106761Y-33081383D01*
X6116504Y-33129426D01*
X6113611Y-33195766D01*
X6137143Y-33324857D01*
X6191636Y-33442570D01*
X6274827Y-33544029D01*
X6327282Y-33584729D01*
X6362570Y-33636668D01*
X6360589Y-33699429D01*
X6334267Y-33739328D01*
X6285379Y-33784886D01*
X6211259Y-33894163D01*
X6167557Y-34017124D01*
X6156225Y-34147129D01*
X6177996Y-34275800D01*
X6231464Y-34394843D01*
X6313185Y-34496594D01*
X6417882Y-34574483D01*
X6540220Y-34624063D01*
X6602884Y-34634165D01*
X6666099Y-34640148D01*
X6796971Y-34622905D01*
X6917804Y-34573734D01*
X7022292Y-34495611D01*
X7103641Y-34393631D01*
X7156561Y-34274400D01*
X7177636Y-34145654D01*
X7165487Y-34015765D01*
X7120211Y-33891252D01*
X7084176Y-33834376D01*
X7068605Y-33773545D01*
X7091764Y-33715179D01*
X7144806Y-33681573D01*
X7170000Y-33678400D01*
X7620000Y-33678400D01*
X7679719Y-33697804D01*
X7691842Y-33708158D01*
X8406842Y-34423158D01*
X8435349Y-34479106D01*
X8436600Y-34495000D01*
X8436600Y-36100000D01*
X8434063Y-36122561D01*
X8419711Y-36185577D01*
X8418825Y-36313255D01*
X8448769Y-36435806D01*
X8507717Y-36547350D01*
X8592102Y-36641139D01*
X8696811Y-36711495D01*
X8815543Y-36754171D01*
X8941087Y-36766584D01*
X9065870Y-36747976D01*
X9183752Y-36698903D01*
X9236685Y-36661802D01*
X9296725Y-36643415D01*
X9356106Y-36663829D01*
X9390025Y-36709045D01*
X9414005Y-36772424D01*
X9488378Y-36883658D01*
X9587554Y-36971022D01*
X9705820Y-37030034D01*
X9835273Y-37056750D01*
X9967240Y-37049386D01*
X10094508Y-37007902D01*
X10149999Y-36974520D01*
X10203423Y-36937830D01*
X10293941Y-36838994D01*
X10355337Y-36721717D01*
X10384628Y-36592613D01*
X10379853Y-36460319D01*
X10341322Y-36333667D01*
X10270773Y-36219746D01*
X10222941Y-36171624D01*
X10194603Y-36115590D01*
X10204614Y-36053601D01*
X10249149Y-36009335D01*
X10295000Y-35998400D01*
X11340000Y-35998400D01*
X11372129Y-36003614D01*
X11387129Y-36008614D01*
X11437647Y-36045907D01*
X11456597Y-36105771D01*
X11436740Y-36165341D01*
X11432420Y-36170793D01*
X11387289Y-36223899D01*
X11325061Y-36346711D01*
X11297794Y-36479986D01*
X11306681Y-36615729D01*
X11351087Y-36744311D01*
X11427857Y-36856608D01*
X11531560Y-36944654D01*
X11654818Y-37002202D01*
X11788900Y-37025163D01*
X11925924Y-37011752D01*
X11988759Y-36990029D01*
X12049775Y-36964512D01*
X12160487Y-36883778D01*
X12245234Y-36778126D01*
X12299384Y-36653999D01*
X12319164Y-36520010D01*
X12303210Y-36385521D01*
X12252618Y-36259892D01*
X12170916Y-36151875D01*
X12063807Y-36068989D01*
X11937238Y-36016396D01*
X11868739Y-36005290D01*
X11812895Y-35976579D01*
X11784593Y-35920526D01*
X11794643Y-35858544D01*
X11813158Y-35833158D01*
X12748158Y-34898158D01*
X12804106Y-34869651D01*
X12866125Y-34879474D01*
X12891842Y-34898158D01*
X13811842Y-35818158D01*
X13840349Y-35874106D01*
X13841600Y-35890000D01*
X13841600Y-38098691D01*
X13843471Y-38171126D01*
X13876290Y-38313484D01*
X13940352Y-38444614D01*
X13985380Y-38502858D01*
X14006555Y-38561973D01*
X13988939Y-38622243D01*
X13939261Y-38660649D01*
X13906505Y-38666589D01*
X13850214Y-38667422D01*
X13741771Y-38691832D01*
X13641834Y-38740730D01*
X13597251Y-38775295D01*
X13538166Y-38796551D01*
X13477871Y-38779017D01*
X13465848Y-38769435D01*
X13411377Y-38718830D01*
X13281063Y-38647233D01*
X13209076Y-38628237D01*
X13156285Y-38594238D01*
X13136238Y-38553848D01*
X13123217Y-38499926D01*
X13077958Y-38400177D01*
X13012420Y-38312422D01*
X12971469Y-38275007D01*
X12940469Y-38220401D01*
X12947487Y-38158002D01*
X12949009Y-38154798D01*
X12977992Y-38096455D01*
X13008971Y-37971544D01*
X13008370Y-37844410D01*
X12976587Y-37721298D01*
X12915577Y-37609752D01*
X12829055Y-37516591D01*
X12722323Y-37447497D01*
X12601902Y-37406700D01*
X12473611Y-37396588D01*
X12412587Y-37405128D01*
X12352020Y-37417952D01*
X12234406Y-37471544D01*
X12134896Y-37551521D01*
X12058198Y-37653597D01*
X12009080Y-37771432D01*
X11990573Y-37897753D01*
X12003828Y-38024734D01*
X12048021Y-38144514D01*
X12121325Y-38251014D01*
X12169251Y-38295657D01*
X12199723Y-38350560D01*
X12192104Y-38412888D01*
X12190977Y-38415231D01*
X12160237Y-38477059D01*
X12129271Y-38609970D01*
X12133784Y-38744835D01*
X12173118Y-38873906D01*
X12244589Y-38988359D01*
X12343289Y-39080368D01*
X12463796Y-39144316D01*
X12530557Y-39161667D01*
X12583475Y-39195469D01*
X12603531Y-39235218D01*
X12620105Y-39301118D01*
X12682400Y-39419914D01*
X12773987Y-39517819D01*
X12830735Y-39555052D01*
X12870022Y-39604036D01*
X12873013Y-39666757D01*
X12838567Y-39719257D01*
X12779841Y-39741485D01*
X12775000Y-39741600D01*
X9290000Y-39741600D01*
X9230281Y-39722196D01*
X9193373Y-39671396D01*
X9193373Y-39608604D01*
X9210440Y-39576812D01*
X9251503Y-39525109D01*
X9308089Y-39407516D01*
X9333351Y-39280989D01*
X9326337Y-39152149D01*
X9287498Y-39029108D01*
X9219275Y-38919602D01*
X9125948Y-38830503D01*
X9013391Y-38767427D01*
X8887253Y-38733955D01*
X8824391Y-38731646D01*
X8761169Y-38733214D01*
X8634072Y-38765575D01*
X8520551Y-38828120D01*
X8426392Y-38917215D01*
X8357679Y-39027115D01*
X8318809Y-39150757D01*
X8312294Y-39280213D01*
X8338537Y-39407145D01*
X8396374Y-39524441D01*
X8438369Y-39575341D01*
X8461408Y-39633754D01*
X8445712Y-39694553D01*
X8397277Y-39734514D01*
X8360000Y-39741600D01*
X3035000Y-39741600D01*
X2975281Y-39722196D01*
X2938373Y-39671396D01*
X2938373Y-39608604D01*
X2975281Y-39557804D01*
X2976685Y-39556802D01*
X3077987Y-39485796D01*
X3261229Y-39320891D01*
X3419392Y-39132947D01*
X3509568Y-38989449D01*
X5396647Y-38989449D01*
X5399027Y-39054704D01*
X5434452Y-39185147D01*
X5501508Y-39300566D01*
X5596092Y-39394766D01*
X5711785Y-39461347D01*
X5840751Y-39495810D01*
X5974249Y-39495810D01*
X6103214Y-39461347D01*
X6218907Y-39394766D01*
X6313491Y-39300566D01*
X6380547Y-39185147D01*
X6415972Y-39054704D01*
X6418352Y-38989449D01*
X6416660Y-38923950D01*
X6381959Y-38792666D01*
X6315159Y-38676235D01*
X6220425Y-38581118D01*
X6104266Y-38513841D01*
X5974618Y-38479010D01*
X5840382Y-38479010D01*
X5710733Y-38513841D01*
X5594574Y-38581118D01*
X5499840Y-38676235D01*
X5433040Y-38792666D01*
X5398339Y-38923950D01*
X5396647Y-38989449D01*
X3509568Y-38989449D01*
X3550098Y-38924953D01*
X3650839Y-38700915D01*
X3719686Y-38465132D01*
X3755457Y-38221226D01*
X3758400Y-38098765D01*
X3758400Y-37900804D01*
X3756385Y-37774484D01*
X3742736Y-37679449D01*
X4126647Y-37679449D01*
X4129027Y-37744704D01*
X4164452Y-37875147D01*
X4231508Y-37990566D01*
X4326092Y-38084766D01*
X4441785Y-38151347D01*
X4570751Y-38185810D01*
X4704249Y-38185810D01*
X4833214Y-38151347D01*
X4948907Y-38084766D01*
X5043491Y-37990566D01*
X5110547Y-37875147D01*
X5145972Y-37744704D01*
X5148352Y-37679449D01*
X5146660Y-37613950D01*
X5111959Y-37482666D01*
X5045159Y-37366235D01*
X4950425Y-37271118D01*
X4834266Y-37203841D01*
X4704618Y-37169010D01*
X4570382Y-37169010D01*
X4440733Y-37203841D01*
X4324574Y-37271118D01*
X4229840Y-37366235D01*
X4163040Y-37482666D01*
X4128339Y-37613950D01*
X4126647Y-37679449D01*
X3742736Y-37679449D01*
X3720365Y-37523687D01*
X3648920Y-37281532D01*
X3543408Y-37052173D01*
X3406011Y-36840342D01*
X3287600Y-36705241D01*
X6349443Y-36705241D01*
X6363542Y-36770023D01*
X6382192Y-36834352D01*
X6451275Y-36955012D01*
X6548929Y-37051550D01*
X6668877Y-37118410D01*
X6802343Y-37150710D01*
X6939581Y-37146075D01*
X7072230Y-37104342D01*
X7132552Y-37067984D01*
X7193715Y-37053774D01*
X7238036Y-37068341D01*
X7300319Y-37106459D01*
X7437990Y-37149270D01*
X7580374Y-37152056D01*
X7717906Y-37115125D01*
X7841343Y-37040409D01*
X7890504Y-36990832D01*
X7936221Y-36938242D01*
X8001478Y-36809633D01*
X8028456Y-36669705D01*
X8015849Y-36527745D01*
X7964035Y-36393197D01*
X7921972Y-36333557D01*
X7903410Y-36273572D01*
X7918620Y-36221511D01*
X7951808Y-36167915D01*
X7993342Y-36050446D01*
X8005297Y-35927881D01*
X7987463Y-35806022D01*
X7940890Y-35692020D01*
X7868292Y-35592548D01*
X7773922Y-35513415D01*
X7662069Y-35458654D01*
X7604115Y-35444486D01*
X7536279Y-35432577D01*
X7393940Y-35441840D01*
X7261008Y-35488530D01*
X7145563Y-35569289D01*
X7056140Y-35678162D01*
X6999348Y-35807100D01*
X6979134Y-35948277D01*
X6986123Y-36020169D01*
X6972589Y-36081486D01*
X6925598Y-36123136D01*
X6884415Y-36131598D01*
X6814669Y-36131196D01*
X6680408Y-36162360D01*
X6560377Y-36226814D01*
X6461377Y-36320416D01*
X6390316Y-36436648D01*
X6352127Y-36567427D01*
X6349443Y-36705241D01*
X3287600Y-36705241D01*
X3239605Y-36650481D01*
X3047620Y-36486499D01*
X2834073Y-36351823D01*
X2602559Y-36248874D01*
X2480781Y-36212308D01*
X2429165Y-36176549D01*
X2408426Y-36117281D01*
X2426484Y-36057141D01*
X2426832Y-36056642D01*
X2461971Y-36006563D01*
X2509263Y-35895396D01*
X2528713Y-35777682D01*
X2519684Y-35657245D01*
X2502496Y-35598557D01*
X2504332Y-35535792D01*
X2542710Y-35486093D01*
X2602971Y-35468443D01*
X2640904Y-35476998D01*
X2695004Y-35500792D01*
X2809112Y-35525337D01*
X2924347Y-35523178D01*
X3037467Y-35494364D01*
X3090690Y-35468571D01*
X3152893Y-35459988D01*
X3208262Y-35489606D01*
X3235646Y-35546112D01*
X3236373Y-35553219D01*
X3240872Y-35620490D01*
X3279342Y-35747981D01*
X3348146Y-35860148D01*
X3443208Y-35951125D01*
X3558287Y-36014933D01*
X3685804Y-36047367D01*
X3817390Y-36046308D01*
X3944364Y-36011824D01*
X4058404Y-35946173D01*
X4153104Y-35852578D01*
X4187443Y-35798359D01*
X4218256Y-35742122D01*
X4254341Y-35614106D01*
X4256608Y-35482709D01*
X4225338Y-35355081D01*
X4162600Y-35239619D01*
X4072515Y-35143944D01*
X3961041Y-35074363D01*
X3835514Y-35035470D01*
X3704225Y-35029821D01*
X3574267Y-35058140D01*
X3513360Y-35086883D01*
X3451071Y-35094821D01*
X3396013Y-35064631D01*
X3369215Y-35007844D01*
X3368575Y-35000968D01*
X3364820Y-34937166D01*
X3330594Y-34815624D01*
X3268709Y-34707232D01*
X3182463Y-34617027D01*
X3076946Y-34550349D01*
X2958446Y-34511169D01*
X2832484Y-34501704D01*
X2771567Y-34510269D01*
X2711341Y-34521695D01*
X2595677Y-34571250D01*
X2496861Y-34646658D01*
X2419479Y-34743933D01*
X2368221Y-34857181D01*
X2346217Y-34979514D01*
X2354914Y-35105352D01*
X2372633Y-35166887D01*
X2370511Y-35229644D01*
X2331907Y-35279167D01*
X2271566Y-35296542D01*
X2234768Y-35288295D01*
X2167560Y-35259312D01*
X2024884Y-35236369D01*
X1883211Y-35253807D01*
X1751981Y-35309971D01*
X1640198Y-35401542D01*
X1596706Y-35460388D01*
X1545606Y-35496881D01*
X1482816Y-35496368D01*
X1433685Y-35460913D01*
X1394359Y-35408416D01*
X1296007Y-35324170D01*
X1181271Y-35267660D01*
X1056094Y-35241371D01*
X928314Y-35246954D01*
X805908Y-35284059D01*
X696536Y-35350355D01*
X605914Y-35442858D01*
X573060Y-35495782D01*
X543762Y-35550656D01*
X509086Y-35675351D01*
X506377Y-35803138D01*
X535367Y-35927634D01*
X594261Y-36041087D01*
X679391Y-36136428D01*
X785471Y-36207750D01*
X907393Y-36251142D01*
X972436Y-36259164D01*
X1029331Y-36285731D01*
X1059744Y-36340667D01*
X1052058Y-36402987D01*
X1018333Y-36443186D01*
X900303Y-36525952D01*
X691636Y-36723333D01*
X518381Y-36952432D01*
X449093Y-37078836D01*
X403373Y-37121877D01*
X341085Y-37129824D01*
X286023Y-37099641D01*
X259217Y-37042858D01*
X258400Y-37030000D01*
X258400Y-30925660D01*
X2091649Y-30925660D01*
X2093257Y-30989303D01*
X2126067Y-31117290D01*
X2189487Y-31231403D01*
X2279757Y-31325721D01*
X2390987Y-31394072D01*
X2515914Y-31431988D01*
X2646378Y-31437011D01*
X2773837Y-31408800D01*
X2889991Y-31349191D01*
X2988422Y-31261045D01*
X3027001Y-31206402D01*
X3077296Y-31168808D01*
X3140082Y-31167956D01*
X3191378Y-31204171D01*
X3192925Y-31206298D01*
X3231547Y-31260856D01*
X3330006Y-31348837D01*
X3446136Y-31408306D01*
X3573540Y-31436429D01*
X3703919Y-31431372D01*
X3828763Y-31393470D01*
X3939947Y-31325195D01*
X4030217Y-31230985D01*
X4093691Y-31116999D01*
X4126627Y-30989098D01*
X4128355Y-30925272D01*
X4126294Y-30861669D01*
X4092800Y-30734323D01*
X4029054Y-30620856D01*
X3938777Y-30527121D01*
X3827788Y-30459159D01*
X3703253Y-30421348D01*
X3573213Y-30416139D01*
X3446055Y-30443866D01*
X3329991Y-30502736D01*
X3231382Y-30589948D01*
X3192631Y-30644115D01*
X3142103Y-30681395D01*
X3079313Y-30681855D01*
X3028244Y-30645319D01*
X3027755Y-30644652D01*
X2988731Y-30590848D01*
X2889937Y-30504310D01*
X2773963Y-30446010D01*
X2647062Y-30418657D01*
X2517361Y-30424010D01*
X2393141Y-30461717D01*
X2282364Y-30529369D01*
X2192082Y-30622653D01*
X2128089Y-30735591D01*
X2094069Y-30862459D01*
X2091649Y-30925660D01*
X258400Y-30925660D01*
X258400Y-29844449D01*
X4696647Y-29844449D01*
X4699027Y-29909704D01*
X4734452Y-30040147D01*
X4801508Y-30155566D01*
X4896092Y-30249766D01*
X5011785Y-30316347D01*
X5140751Y-30350810D01*
X5274249Y-30350810D01*
X5403214Y-30316347D01*
X5518907Y-30249766D01*
X5613491Y-30155566D01*
X5680547Y-30040147D01*
X5715972Y-29909704D01*
X5718352Y-29844449D01*
X5716660Y-29778950D01*
X5681959Y-29647666D01*
X5615159Y-29531235D01*
X5520425Y-29436118D01*
X5404266Y-29368841D01*
X5274618Y-29334010D01*
X5140382Y-29334010D01*
X5010733Y-29368841D01*
X4894574Y-29436118D01*
X4799840Y-29531235D01*
X4733040Y-29647666D01*
X4698339Y-29778950D01*
X4696647Y-29844449D01*
X258400Y-29844449D01*
X258400Y-27740550D01*
X6791647Y-27740550D01*
X6793339Y-27806049D01*
X6828040Y-27937333D01*
X6894840Y-28053764D01*
X6989574Y-28148881D01*
X7105733Y-28216158D01*
X7235382Y-28250990D01*
X7369618Y-28250990D01*
X7499266Y-28216158D01*
X7615425Y-28148881D01*
X7710159Y-28053764D01*
X7776959Y-27937333D01*
X7811660Y-27806049D01*
X7813352Y-27740550D01*
X7810972Y-27675295D01*
X7775547Y-27544852D01*
X7708491Y-27429433D01*
X7613907Y-27335233D01*
X7498214Y-27268652D01*
X7369249Y-27234190D01*
X7235751Y-27234190D01*
X7106785Y-27268652D01*
X6991092Y-27335233D01*
X6896508Y-27429433D01*
X6829452Y-27544852D01*
X6794027Y-27675295D01*
X6791647Y-27740550D01*
X258400Y-27740550D01*
X258400Y-25970000D01*
X6476654Y-25970000D01*
X6478774Y-26034958D01*
X6513676Y-26165224D01*
X6580271Y-26280567D01*
X6674432Y-26374728D01*
X6789775Y-26441323D01*
X6918417Y-26475790D01*
X7051583Y-26475790D01*
X7180224Y-26441323D01*
X7295567Y-26374728D01*
X7389728Y-26280567D01*
X7456323Y-26165224D01*
X7491225Y-26034958D01*
X7493345Y-25970000D01*
X7491225Y-25905041D01*
X7456323Y-25774775D01*
X7389728Y-25659432D01*
X7295567Y-25565271D01*
X7180224Y-25498676D01*
X7051583Y-25464210D01*
X6918417Y-25464210D01*
X6789775Y-25498676D01*
X6674432Y-25565271D01*
X6580271Y-25659432D01*
X6513676Y-25774775D01*
X6478774Y-25905041D01*
X6476654Y-25970000D01*
X258400Y-25970000D01*
X258400Y-25084449D01*
X7936647Y-25084449D01*
X7939027Y-25149704D01*
X7974452Y-25280147D01*
X8041508Y-25395566D01*
X8136092Y-25489766D01*
X8251785Y-25556347D01*
X8380751Y-25590810D01*
X8514249Y-25590810D01*
X8643214Y-25556347D01*
X8758907Y-25489766D01*
X8853491Y-25395566D01*
X8920547Y-25280147D01*
X8955972Y-25149704D01*
X8958352Y-25084449D01*
X8956660Y-25018950D01*
X8921959Y-24887666D01*
X8855159Y-24771235D01*
X8760425Y-24676118D01*
X8644266Y-24608841D01*
X8514618Y-24574010D01*
X8380382Y-24574010D01*
X8250733Y-24608841D01*
X8134574Y-24676118D01*
X8039840Y-24771235D01*
X7973040Y-24887666D01*
X7938339Y-25018950D01*
X7936647Y-25084449D01*
X258400Y-25084449D01*
X258400Y-24082197D01*
X2726611Y-24082197D01*
X2730257Y-24144068D01*
X2765506Y-24267804D01*
X2829402Y-24377675D01*
X2918410Y-24468383D01*
X3027056Y-24534337D01*
X3148602Y-24571453D01*
X3275559Y-24577452D01*
X3400060Y-24551942D01*
X3515844Y-24495829D01*
X3566897Y-24455372D01*
X3625753Y-24433489D01*
X3686231Y-24450379D01*
X3688092Y-24451646D01*
X3741710Y-24489014D01*
X3861094Y-24538019D01*
X3987299Y-24555720D01*
X4113970Y-24541625D01*
X4233214Y-24496615D01*
X4337607Y-24423502D01*
X4420641Y-24326814D01*
X4477163Y-24212578D01*
X4494826Y-24129449D01*
X8761647Y-24129449D01*
X8764027Y-24194704D01*
X8799452Y-24325147D01*
X8866508Y-24440566D01*
X8961092Y-24534766D01*
X9076785Y-24601347D01*
X9205751Y-24635810D01*
X9339249Y-24635810D01*
X9468214Y-24601347D01*
X9583907Y-24534766D01*
X9678491Y-24440566D01*
X9745547Y-24325147D01*
X9780972Y-24194704D01*
X9783352Y-24129449D01*
X9781660Y-24063950D01*
X9746959Y-23932666D01*
X9680159Y-23816235D01*
X9585425Y-23721118D01*
X9469266Y-23653841D01*
X9339618Y-23619010D01*
X9205382Y-23619010D01*
X9075733Y-23653841D01*
X8959574Y-23721118D01*
X8864840Y-23816235D01*
X8798040Y-23932666D01*
X8763339Y-24063950D01*
X8761647Y-24129449D01*
X4494826Y-24129449D01*
X4503993Y-24086309D01*
X4503429Y-24023796D01*
X4499341Y-23961855D01*
X4463441Y-23838636D01*
X4399222Y-23729299D01*
X4310178Y-23639013D01*
X4201723Y-23573300D01*
X4080493Y-23536155D01*
X3953840Y-23529852D01*
X3829504Y-23554759D01*
X3713734Y-23609996D01*
X3662627Y-23650003D01*
X3603641Y-23671535D01*
X3543265Y-23654284D01*
X3542957Y-23654076D01*
X3489151Y-23617570D01*
X3369813Y-23570083D01*
X3243995Y-23553416D01*
X3117917Y-23568031D01*
X2999247Y-23613027D01*
X2895188Y-23685680D01*
X2812055Y-23781584D01*
X2754905Y-23894901D01*
X2726846Y-24020310D01*
X2726611Y-24082197D01*
X258400Y-24082197D01*
X258400Y-11267054D01*
X15294921Y-11267054D01*
X15302280Y-11396334D01*
X15341818Y-11519649D01*
X15410999Y-11629108D01*
X15505416Y-11717733D01*
X15619031Y-11779858D01*
X15746067Y-11811891D01*
X15809490Y-11813360D01*
X15872474Y-11811256D01*
X15998505Y-11778255D01*
X16111068Y-11715670D01*
X16204528Y-11627046D01*
X16273016Y-11517970D01*
X16312212Y-11395284D01*
X16318816Y-11281379D01*
X22604783Y-11281379D01*
X22613671Y-11408512D01*
X22653776Y-11529485D01*
X22722598Y-11636745D01*
X22815837Y-11723620D01*
X22927699Y-11784691D01*
X23052686Y-11816540D01*
X23114891Y-11818353D01*
X23177246Y-11816408D01*
X23302413Y-11784338D01*
X23414276Y-11722981D01*
X23507427Y-11635760D01*
X23576006Y-11528157D01*
X23615730Y-11406904D01*
X23624108Y-11279579D01*
X23600622Y-11154149D01*
X23546743Y-11038495D01*
X23465834Y-10939814D01*
X23362970Y-10864315D01*
X23242934Y-10816050D01*
X23178207Y-10805203D01*
X23122516Y-10776195D01*
X23113748Y-10758598D01*
X23074127Y-10796517D01*
X23047163Y-10805140D01*
X22982756Y-10816178D01*
X22863363Y-10865144D01*
X22761109Y-10941186D01*
X22680872Y-11040205D01*
X22627655Y-11156011D01*
X22604783Y-11281379D01*
X16318816Y-11281379D01*
X16319667Y-11266703D01*
X16294904Y-11140314D01*
X16239480Y-11024045D01*
X16156887Y-10925227D01*
X16051141Y-10849216D01*
X15990473Y-10823596D01*
X15943008Y-10782488D01*
X15928771Y-10721331D01*
X15953199Y-10663485D01*
X15990760Y-10636284D01*
X16051423Y-10610883D01*
X16157215Y-10535392D01*
X16239850Y-10437014D01*
X16295323Y-10321136D01*
X16320102Y-10195077D01*
X16316095Y-10126281D01*
X22605729Y-10126281D01*
X22628562Y-10251844D01*
X22681674Y-10367888D01*
X22761783Y-10467228D01*
X22863934Y-10543720D01*
X22983476Y-10593330D01*
X23048093Y-10605024D01*
X23103402Y-10634753D01*
X23111508Y-10651564D01*
X23149688Y-10614064D01*
X23179333Y-10604615D01*
X23244407Y-10594458D01*
X23365417Y-10546435D01*
X23469456Y-10470669D01*
X23551349Y-10371372D01*
X23605927Y-10254816D01*
X23629757Y-10128330D01*
X23621338Y-9999905D01*
X23581197Y-9877622D01*
X23511856Y-9769181D01*
X23417706Y-9681440D01*
X23304660Y-9619899D01*
X23178460Y-9588098D01*
X23115624Y-9586642D01*
X23053227Y-9588859D01*
X22928184Y-9621359D01*
X22816409Y-9682956D01*
X22723303Y-9770227D01*
X22654614Y-9877788D01*
X22614598Y-9998976D01*
X22605729Y-10126281D01*
X16316095Y-10126281D01*
X16312631Y-10066823D01*
X16273374Y-9944489D01*
X16204830Y-9835821D01*
X16111338Y-9747717D01*
X15998800Y-9685730D01*
X15872878Y-9653426D01*
X15810066Y-9651642D01*
X15747350Y-9653506D01*
X15621636Y-9685973D01*
X15509277Y-9748043D01*
X15415943Y-9836154D01*
X15347519Y-9944754D01*
X15308326Y-10066980D01*
X15300846Y-10195106D01*
X15325538Y-10321071D01*
X15380846Y-10436893D01*
X15463291Y-10535274D01*
X15568858Y-10610868D01*
X15629414Y-10636356D01*
X15676929Y-10677407D01*
X15691240Y-10738547D01*
X15666881Y-10796422D01*
X15628642Y-10823965D01*
X15567330Y-10849178D01*
X15460265Y-10924675D01*
X15376513Y-11023446D01*
X15320207Y-11140050D01*
X15294921Y-11267054D01*
X258400Y-11267054D01*
X258400Y-9895550D01*
X9521647Y-9895550D01*
X9523339Y-9961049D01*
X9558040Y-10092333D01*
X9624840Y-10208764D01*
X9719574Y-10303881D01*
X9835733Y-10371158D01*
X9965382Y-10405990D01*
X10099618Y-10405990D01*
X10229266Y-10371158D01*
X10345425Y-10303881D01*
X10440159Y-10208764D01*
X10506959Y-10092333D01*
X10541660Y-9961049D01*
X10543352Y-9895550D01*
X10540972Y-9830295D01*
X10505547Y-9699852D01*
X10438491Y-9584433D01*
X10343907Y-9490233D01*
X10228214Y-9423652D01*
X10099249Y-9389190D01*
X9965751Y-9389190D01*
X9836785Y-9423652D01*
X9721092Y-9490233D01*
X9626508Y-9584433D01*
X9559452Y-9699852D01*
X9524027Y-9830295D01*
X9521647Y-9895550D01*
X258400Y-9895550D01*
X258400Y-9160550D01*
X4926647Y-9160550D01*
X4928339Y-9226049D01*
X4963040Y-9357333D01*
X5029840Y-9473764D01*
X5124574Y-9568881D01*
X5240733Y-9636158D01*
X5370382Y-9670990D01*
X5504618Y-9670990D01*
X5634266Y-9636158D01*
X5750425Y-9568881D01*
X5845159Y-9473764D01*
X5909347Y-9361885D01*
X24190289Y-9361885D01*
X24191520Y-9424909D01*
X24196601Y-9487755D01*
X24235774Y-9612501D01*
X24304106Y-9722210D01*
X24397696Y-9811340D01*
X24510613Y-9874225D01*
X24635662Y-9906873D01*
X24764915Y-9907206D01*
X24890133Y-9875210D01*
X25003369Y-9812899D01*
X25097418Y-9724259D01*
X25167146Y-9613586D01*
X25189203Y-9551155D01*
X25227392Y-9501311D01*
X25287585Y-9483433D01*
X25346791Y-9504350D01*
X25376623Y-9541094D01*
X25405209Y-9600748D01*
X25486445Y-9703143D01*
X25589543Y-9781018D01*
X25708848Y-9830596D01*
X25836774Y-9848711D01*
X25965163Y-9834212D01*
X26085821Y-9788027D01*
X26191069Y-9713085D01*
X26274203Y-9614177D01*
X26329905Y-9497606D01*
X26355007Y-9368935D01*
X26353506Y-9305696D01*
X26347972Y-9243240D01*
X26307994Y-9119092D01*
X26239114Y-9010104D01*
X26145224Y-8921740D01*
X26032263Y-8859592D01*
X25907370Y-8827574D01*
X25778444Y-8827725D01*
X25653619Y-8860033D01*
X25540811Y-8922446D01*
X25447127Y-9011029D01*
X25377712Y-9121424D01*
X25355863Y-9183657D01*
X25317772Y-9233576D01*
X25257613Y-9251572D01*
X25198367Y-9230771D01*
X25168364Y-9193880D01*
X25139885Y-9134407D01*
X25058963Y-9032252D01*
X24956282Y-8954452D01*
X24837427Y-8904748D01*
X24709933Y-8886308D01*
X24581872Y-8900290D01*
X24461347Y-8945812D01*
X24356016Y-9019988D01*
X24272552Y-9118108D01*
X24216231Y-9233975D01*
X24190289Y-9361885D01*
X5909347Y-9361885D01*
X5911959Y-9357333D01*
X5946660Y-9226049D01*
X5948352Y-9160550D01*
X5945972Y-9095295D01*
X5910547Y-8964852D01*
X5843491Y-8849433D01*
X5748907Y-8755233D01*
X5633214Y-8688652D01*
X5504249Y-8654190D01*
X5370751Y-8654190D01*
X5241785Y-8688652D01*
X5126092Y-8755233D01*
X5031508Y-8849433D01*
X4964452Y-8964852D01*
X4929027Y-9095295D01*
X4926647Y-9160550D01*
X258400Y-9160550D01*
X258400Y-6671289D01*
X28380331Y-6671289D01*
X28395150Y-6792924D01*
X28438334Y-6906038D01*
X28507519Y-7005415D01*
X28599689Y-7086103D01*
X28653992Y-7115993D01*
X28696953Y-7161788D01*
X28704791Y-7224090D01*
X28674512Y-7279099D01*
X28655626Y-7293089D01*
X28601789Y-7324029D01*
X28510338Y-7405841D01*
X28441413Y-7505592D01*
X28397759Y-7618705D01*
X28381618Y-7740365D01*
X28386079Y-7799287D01*
X28394066Y-7857870D01*
X28435431Y-7973536D01*
X28501897Y-8075104D01*
X28590283Y-8158317D01*
X28696910Y-8219258D01*
X28756080Y-8238270D01*
X28807000Y-8275012D01*
X28826456Y-8329600D01*
X28829740Y-8391307D01*
X28861353Y-8509188D01*
X28919103Y-8615039D01*
X29000128Y-8704332D01*
X29099892Y-8772080D01*
X29214373Y-8815050D01*
X29275665Y-8824615D01*
X29331678Y-8852994D01*
X29360313Y-8908878D01*
X29350631Y-8970919D01*
X29337708Y-8990453D01*
X29292752Y-9043825D01*
X29230862Y-9167006D01*
X29203812Y-9300548D01*
X29212767Y-9436502D01*
X29257109Y-9565327D01*
X29333721Y-9678001D01*
X29437232Y-9766596D01*
X29560378Y-9824916D01*
X29694501Y-9848854D01*
X29831322Y-9836631D01*
X29896781Y-9813984D01*
X29959562Y-9812796D01*
X30011051Y-9848736D01*
X30031582Y-9908077D01*
X30013312Y-9968152D01*
X30002951Y-9980716D01*
X29954889Y-10030296D01*
X29885066Y-10147561D01*
X29848531Y-10277450D01*
X29847004Y-10412361D01*
X29880582Y-10543052D01*
X29946956Y-10660523D01*
X30041577Y-10756703D01*
X30157946Y-10825000D01*
X30289503Y-10861114D01*
X30355455Y-10863357D01*
X30421868Y-10861708D01*
X30554378Y-10826501D01*
X30671562Y-10758474D01*
X30766713Y-10662007D01*
X30833131Y-10543902D01*
X30866125Y-10412482D01*
X30863386Y-10277020D01*
X30825088Y-10147045D01*
X30753379Y-10030808D01*
X30704082Y-9982754D01*
X30674862Y-9927174D01*
X30683892Y-9865035D01*
X30727722Y-9820070D01*
X30789611Y-9809456D01*
X30808036Y-9813921D01*
X30868976Y-9834874D01*
X30995461Y-9849399D01*
X31120171Y-9832872D01*
X31237092Y-9786455D01*
X31339188Y-9712948D01*
X31420302Y-9616782D01*
X31475528Y-9503754D01*
X31501557Y-9380679D01*
X31496806Y-9254961D01*
X31469265Y-9160550D01*
X35406647Y-9160550D01*
X35408339Y-9226049D01*
X35443040Y-9357333D01*
X35509840Y-9473764D01*
X35604574Y-9568881D01*
X35720733Y-9636158D01*
X35850382Y-9670990D01*
X35984618Y-9670990D01*
X36114266Y-9636158D01*
X36230425Y-9568881D01*
X36325159Y-9473764D01*
X36391959Y-9357333D01*
X36426660Y-9226049D01*
X36428352Y-9160550D01*
X36425972Y-9095295D01*
X36390547Y-8964852D01*
X36323491Y-8849433D01*
X36228907Y-8755233D01*
X36113214Y-8688652D01*
X35984249Y-8654190D01*
X35850751Y-8654190D01*
X35721785Y-8688652D01*
X35606092Y-8755233D01*
X35511508Y-8849433D01*
X35444452Y-8964852D01*
X35409027Y-9095295D01*
X35406647Y-9160550D01*
X31469265Y-9160550D01*
X31461573Y-9134183D01*
X31397982Y-9025645D01*
X31309086Y-8935085D01*
X31257338Y-8901924D01*
X31199262Y-8868703D01*
X31067583Y-8830119D01*
X30932002Y-8827502D01*
X30800495Y-8860577D01*
X30682289Y-8927037D01*
X30585688Y-9022204D01*
X30517469Y-9139414D01*
X30482419Y-9270416D01*
X30483018Y-9406013D01*
X30519204Y-9536714D01*
X30589126Y-9654472D01*
X30637556Y-9703879D01*
X30665503Y-9760109D01*
X30655061Y-9822027D01*
X30610219Y-9865982D01*
X30548105Y-9875185D01*
X30533263Y-9871516D01*
X30474297Y-9852126D01*
X30352500Y-9838009D01*
X30230702Y-9852126D01*
X30171737Y-9871516D01*
X30108945Y-9871738D01*
X30058015Y-9835009D01*
X30038401Y-9775358D01*
X30057594Y-9715571D01*
X30067235Y-9704093D01*
X30112887Y-9657243D01*
X30180845Y-9547377D01*
X30219160Y-9425652D01*
X30226307Y-9298233D01*
X30201833Y-9172988D01*
X30147258Y-9057634D01*
X30065932Y-8959281D01*
X29962888Y-8883998D01*
X29843037Y-8835853D01*
X29778530Y-8825256D01*
X29722746Y-8796428D01*
X29694561Y-8740317D01*
X29704740Y-8678355D01*
X29716709Y-8660246D01*
X29759670Y-8608303D01*
X29819350Y-8489270D01*
X29846475Y-8360535D01*
X29839973Y-8229141D01*
X29800261Y-8103704D01*
X29729969Y-7992503D01*
X29632504Y-7901721D01*
X29574119Y-7867941D01*
X29532146Y-7821239D01*
X29525640Y-7758785D01*
X29557086Y-7704434D01*
X29573841Y-7692220D01*
X29635025Y-7656561D01*
X29736160Y-7559897D01*
X29807415Y-7441393D01*
X29845425Y-7306543D01*
X29848332Y-7239354D01*
X29846288Y-7172300D01*
X29809112Y-7037525D01*
X29737932Y-6919222D01*
X29636328Y-6823286D01*
X29574814Y-6788340D01*
X29532474Y-6741970D01*
X29525476Y-6679569D01*
X29556492Y-6624972D01*
X29574088Y-6612077D01*
X29632037Y-6578521D01*
X29728899Y-6488368D01*
X29799095Y-6378029D01*
X29839232Y-6253572D01*
X29846731Y-6123006D01*
X29821100Y-5994766D01*
X29763995Y-5877112D01*
X29678109Y-5776475D01*
X29626831Y-5738355D01*
X29573421Y-5703408D01*
X29449526Y-5657644D01*
X29319637Y-5644881D01*
X29190750Y-5665425D01*
X29071254Y-5717921D01*
X28968937Y-5798959D01*
X28890481Y-5903248D01*
X28840569Y-6025014D01*
X28830399Y-6090575D01*
X28802070Y-6146613D01*
X28760211Y-6172005D01*
X28700515Y-6190596D01*
X28592791Y-6250996D01*
X28503382Y-6334065D01*
X28436044Y-6435856D01*
X28394094Y-6551898D01*
X28385953Y-6611637D01*
X28380331Y-6671289D01*
X258400Y-6671289D01*
X258400Y-5383533D01*
X29875592Y-5383533D01*
X29887211Y-5509043D01*
X29929234Y-5627882D01*
X29999093Y-5732799D01*
X30092531Y-5817400D01*
X30203857Y-5876532D01*
X30327754Y-5906942D01*
X30389532Y-5908362D01*
X30451089Y-5906378D01*
X30574423Y-5875080D01*
X30685165Y-5815477D01*
X30778114Y-5730784D01*
X30847722Y-5626050D01*
X30889821Y-5507553D01*
X30901896Y-5382381D01*
X30883207Y-5258023D01*
X30834533Y-5141039D01*
X30797382Y-5089134D01*
X30778403Y-5029279D01*
X30796495Y-4972125D01*
X30843865Y-4903775D01*
X30898337Y-4746668D01*
X30903603Y-4663574D01*
X30926745Y-4605202D01*
X30975217Y-4572863D01*
X31036089Y-4554199D01*
X31145551Y-4492302D01*
X31235464Y-4406595D01*
X31301711Y-4301509D01*
X31340278Y-4183424D01*
X31347372Y-4080550D01*
X35406647Y-4080550D01*
X35408339Y-4146049D01*
X35443040Y-4277333D01*
X35509840Y-4393764D01*
X35604574Y-4488881D01*
X35720733Y-4556158D01*
X35850382Y-4590990D01*
X35984618Y-4590990D01*
X36114266Y-4556158D01*
X36230425Y-4488881D01*
X36325159Y-4393764D01*
X36391959Y-4277333D01*
X36426660Y-4146049D01*
X36428352Y-4080550D01*
X36425972Y-4015295D01*
X36390547Y-3884852D01*
X36323491Y-3769433D01*
X36228907Y-3675233D01*
X36113214Y-3608652D01*
X35984249Y-3574190D01*
X35850751Y-3574190D01*
X35721785Y-3608652D01*
X35606092Y-3675233D01*
X35511508Y-3769433D01*
X35444452Y-3884852D01*
X35409027Y-4015295D01*
X35406647Y-4080550D01*
X31347372Y-4080550D01*
X31348928Y-4057982D01*
X31339517Y-3995021D01*
X31349878Y-3933089D01*
X31394663Y-3889076D01*
X31436564Y-3878458D01*
X31500613Y-3876290D01*
X31623293Y-3844979D01*
X31733418Y-3785554D01*
X31825836Y-3701202D01*
X31895034Y-3596950D01*
X31936887Y-3479034D01*
X31948888Y-3354480D01*
X31930329Y-3230731D01*
X31882309Y-3115189D01*
X31806907Y-3013660D01*
X31760717Y-2973730D01*
X31706922Y-2932257D01*
X31579325Y-2875305D01*
X31442834Y-2854658D01*
X31305769Y-2871129D01*
X31178055Y-2923524D01*
X31068909Y-3008056D01*
X30986244Y-3118601D01*
X30936022Y-3247194D01*
X30921663Y-3386498D01*
X30930764Y-3456992D01*
X30919165Y-3518704D01*
X30873509Y-3561813D01*
X30835271Y-3571463D01*
X30768311Y-3574941D01*
X30640780Y-3610993D01*
X30527629Y-3677049D01*
X30434622Y-3769321D01*
X30367647Y-3881929D01*
X30330539Y-4009250D01*
X30326407Y-4076255D01*
X30303364Y-4134666D01*
X30255207Y-4167006D01*
X30194398Y-4185941D01*
X30084957Y-4248098D01*
X29994701Y-4333742D01*
X29927669Y-4438569D01*
X29887792Y-4556424D01*
X29877409Y-4680416D01*
X29897122Y-4803257D01*
X29946436Y-4919310D01*
X29983159Y-4971629D01*
X30001586Y-5031657D01*
X29982664Y-5089069D01*
X29945107Y-5141628D01*
X29895082Y-5259004D01*
X29875592Y-5383533D01*
X258400Y-5383533D01*
X258400Y-3860625D01*
X19811062Y-3860625D01*
X19840445Y-3989391D01*
X19902361Y-4107492D01*
X19944634Y-4155999D01*
X19990034Y-4202314D01*
X20102971Y-4274344D01*
X20229051Y-4314501D01*
X20361206Y-4320991D01*
X20490603Y-4293364D01*
X20608595Y-4233484D01*
X20707285Y-4145351D01*
X20753266Y-4075556D01*
X23240403Y-4075556D01*
X23268630Y-4199734D01*
X23326623Y-4313094D01*
X23411627Y-4409595D01*
X23462065Y-4445893D01*
X23514864Y-4479615D01*
X23636339Y-4523839D01*
X23763400Y-4536454D01*
X23889623Y-4517207D01*
X24007151Y-4467304D01*
X24108665Y-4389854D01*
X24187836Y-4289694D01*
X24239739Y-4173031D01*
X24261463Y-4045287D01*
X24258503Y-3979572D01*
X24275200Y-3919040D01*
X24324288Y-3879883D01*
X24328716Y-3878336D01*
X24362244Y-3867484D01*
X24426146Y-3837647D01*
X24456047Y-3818909D01*
X24516954Y-3803638D01*
X24563127Y-3818397D01*
X24593563Y-3837068D01*
X24658399Y-3867276D01*
X24692371Y-3878695D01*
X24742795Y-3916115D01*
X24761595Y-3976027D01*
X24761330Y-3982396D01*
X24756549Y-4047886D01*
X24776017Y-4176213D01*
X24826329Y-4294205D01*
X24904537Y-4395901D01*
X25005661Y-4474821D01*
X25123302Y-4525985D01*
X25249988Y-4546125D01*
X25377690Y-4533978D01*
X25499857Y-4489756D01*
X25552862Y-4455936D01*
X25603300Y-4419473D01*
X25688774Y-4323228D01*
X25747153Y-4210278D01*
X25775893Y-4086409D01*
X25773202Y-3959292D01*
X25739245Y-3836757D01*
X25676134Y-3726375D01*
X25587750Y-3634957D01*
X25478238Y-3567348D01*
X25416684Y-3545982D01*
X25366630Y-3508068D01*
X25348420Y-3447974D01*
X25348625Y-3443243D01*
X25353482Y-3370368D01*
X25327433Y-3228550D01*
X25263664Y-3101205D01*
X25165511Y-2995192D01*
X25106952Y-2956714D01*
X25046095Y-2922134D01*
X24906614Y-2883386D01*
X24763554Y-2884487D01*
X24624690Y-2925367D01*
X24561557Y-2962547D01*
X24500252Y-2976131D01*
X24458003Y-2962286D01*
X24395588Y-2925105D01*
X24258121Y-2883669D01*
X24116241Y-2881384D01*
X23977784Y-2918314D01*
X23917342Y-2952135D01*
X23858739Y-2989848D01*
X23760327Y-3094787D01*
X23695314Y-3221230D01*
X23667303Y-3361924D01*
X23671434Y-3434203D01*
X23655470Y-3494932D01*
X23606859Y-3534678D01*
X23602834Y-3536148D01*
X23541062Y-3557242D01*
X23431004Y-3624382D01*
X23342026Y-3715476D01*
X23278270Y-3825711D01*
X23243678Y-3948263D01*
X23240403Y-4075556D01*
X20753266Y-4075556D01*
X20780079Y-4034857D01*
X20822574Y-3907986D01*
X20828836Y-3840600D01*
X20853682Y-3782932D01*
X20907679Y-3750882D01*
X20929296Y-3748402D01*
X20995814Y-3747941D01*
X21123725Y-3717820D01*
X21238596Y-3657218D01*
X21334537Y-3569669D01*
X21405387Y-3460816D01*
X21447134Y-3336012D01*
X21453928Y-3269653D01*
X21479313Y-3212221D01*
X21533608Y-3180678D01*
X21547682Y-3178664D01*
X21611304Y-3174069D01*
X21732081Y-3138198D01*
X21839210Y-3074776D01*
X21927676Y-2987193D01*
X21992160Y-2880701D01*
X22029082Y-2760756D01*
X22033667Y-2697640D01*
X22057346Y-2639483D01*
X22110686Y-2606352D01*
X22135739Y-2603403D01*
X22203869Y-2603898D01*
X22335160Y-2574425D01*
X22453006Y-2512960D01*
X22551083Y-2423267D01*
X22622807Y-2311382D01*
X22663361Y-2184809D01*
X22670012Y-2052070D01*
X22642317Y-1922080D01*
X22581563Y-1802448D01*
X22539585Y-1753147D01*
X22494443Y-1706070D01*
X22381615Y-1632472D01*
X22255205Y-1590952D01*
X22122373Y-1583411D01*
X21992078Y-1610350D01*
X21873115Y-1669952D01*
X21773537Y-1758190D01*
X21700063Y-1869109D01*
X21657229Y-1996450D01*
X21651198Y-2064032D01*
X21626562Y-2121790D01*
X21572682Y-2154036D01*
X21549149Y-2156596D01*
X21481912Y-2156032D01*
X21352230Y-2184747D01*
X21235535Y-2244768D01*
X21137957Y-2332499D01*
X21065893Y-2442166D01*
X21023397Y-2568629D01*
X21015993Y-2636085D01*
X20990190Y-2693331D01*
X20935666Y-2724476D01*
X20922781Y-2726302D01*
X20858964Y-2731203D01*
X20737778Y-2767534D01*
X20630109Y-2831181D01*
X20540881Y-2918823D01*
X20475322Y-3025333D01*
X20436899Y-3145608D01*
X20431192Y-3209097D01*
X20406519Y-3266839D01*
X20352618Y-3299050D01*
X20331692Y-3301586D01*
X20264014Y-3302712D01*
X20134275Y-3334995D01*
X20018518Y-3398595D01*
X19922867Y-3489670D01*
X19853696Y-3602173D01*
X19815579Y-3728632D01*
X19811062Y-3860625D01*
X258400Y-3860625D01*
X258400Y-2970000D01*
X277804Y-2910281D01*
X328604Y-2873373D01*
X391396Y-2873373D01*
X442196Y-2910281D01*
X448843Y-2920710D01*
X512107Y-3034740D01*
X666459Y-3243777D01*
X849183Y-3427267D01*
X1056856Y-3581939D01*
X1284985Y-3704464D01*
X1528626Y-3792178D01*
X1782491Y-3843183D01*
X2041108Y-3856379D01*
X2298855Y-3831472D01*
X2550155Y-3769008D01*
X2789563Y-3670332D01*
X3011902Y-3537586D01*
X3212342Y-3373661D01*
X3386562Y-3182066D01*
X3530766Y-2967008D01*
X3641847Y-2733087D01*
X3717392Y-2485409D01*
X3755905Y-2228424D01*
X3758400Y-2099027D01*
X3758400Y-1900742D01*
X3756593Y-1777710D01*
X3722498Y-1533411D01*
X3654589Y-1297196D01*
X3554100Y-1072891D01*
X3423031Y-864964D01*
X3264004Y-677568D01*
X3079520Y-513838D01*
X2977476Y-443747D01*
X2939237Y-393941D01*
X2937576Y-331171D01*
X2973127Y-279413D01*
X3032312Y-258436D01*
X3035000Y-258400D01*
X36965000Y-258400D01*
X37024719Y-277804D01*
G37*
%TD.AperFunction*%
%TA.AperFunction,Conductor*%
G36*
X15299719Y-27262804D02*
G01*
X15311842Y-27273158D01*
X17571842Y-29533158D01*
X17600349Y-29589106D01*
X17601600Y-29605000D01*
X17601600Y-31085000D01*
X17591214Y-31129749D01*
X17576062Y-31160633D01*
X17558453Y-31226898D01*
X17556600Y-31258017D01*
X17556600Y-32870000D01*
X17537196Y-32929719D01*
X17486396Y-32966627D01*
X17481196Y-32968165D01*
X17421225Y-32984168D01*
X17309945Y-33036173D01*
X17211461Y-33109253D01*
X17169177Y-33154429D01*
X17114201Y-33184769D01*
X17051891Y-33177001D01*
X17006047Y-33134092D01*
X16993400Y-33085000D01*
X16993400Y-32585862D01*
X16992087Y-32510809D01*
X16964067Y-32362713D01*
X16908235Y-32222846D01*
X16868478Y-32158258D01*
X16853698Y-32097230D01*
X16877611Y-32039170D01*
X16878891Y-32037695D01*
X16927275Y-31982982D01*
X16993543Y-31854852D01*
X17021461Y-31715089D01*
X17009638Y-31573059D01*
X16958325Y-31438083D01*
X16916561Y-31377970D01*
X16898423Y-31317855D01*
X16914381Y-31265301D01*
X16948844Y-31211356D01*
X16992610Y-31092679D01*
X17006288Y-30968402D01*
X16989575Y-30844503D01*
X16943454Y-30728291D01*
X16870658Y-30626637D01*
X16775492Y-30545557D01*
X16662236Y-30489174D01*
X16600151Y-30473514D01*
X16546992Y-30440094D01*
X16526501Y-30399910D01*
X16510647Y-30337222D01*
X16453371Y-30223049D01*
X16370912Y-30127488D01*
X16267609Y-30054982D01*
X16149726Y-30009926D01*
X16024389Y-29995047D01*
X15899226Y-30011250D01*
X15780399Y-30058108D01*
X15726790Y-30094246D01*
X15666425Y-30111537D01*
X15612480Y-30093750D01*
X15559812Y-30057578D01*
X15442850Y-30010080D01*
X15319333Y-29992579D01*
X15195257Y-30005558D01*
X15078030Y-30048240D01*
X14974663Y-30118073D01*
X14891322Y-30210894D01*
X14832972Y-30321164D01*
X14802827Y-30443432D01*
X14801629Y-30504458D01*
X14803473Y-30565684D01*
X14834089Y-30687906D01*
X14892629Y-30797843D01*
X14975969Y-30890392D01*
X15079186Y-30960081D01*
X15196177Y-31002803D01*
X15320004Y-31016012D01*
X15443379Y-30998926D01*
X15560141Y-30952103D01*
X15612580Y-30916181D01*
X15672814Y-30898439D01*
X15726927Y-30915846D01*
X15771960Y-30946309D01*
X15870684Y-30992275D01*
X15923105Y-31007365D01*
X15975126Y-31042531D01*
X15993902Y-31081743D01*
X16006486Y-31135259D01*
X16053261Y-31234939D01*
X16086330Y-31279107D01*
X16106590Y-31338541D01*
X16090390Y-31395055D01*
X16059011Y-31443723D01*
X16016859Y-31550047D01*
X15999196Y-31663054D01*
X16001518Y-31720928D01*
X15984524Y-31781377D01*
X15935244Y-31820291D01*
X15934752Y-31820472D01*
X15854522Y-31849675D01*
X15708373Y-31935360D01*
X15583793Y-32048295D01*
X15484979Y-32184335D01*
X15416099Y-32337713D01*
X15379763Y-32503362D01*
X15376600Y-32586916D01*
X15376600Y-33483739D01*
X15378723Y-33569548D01*
X15415012Y-33738504D01*
X15485545Y-33894824D01*
X15587439Y-34032786D01*
X15716097Y-34146182D01*
X15865757Y-34229931D01*
X16029713Y-34280267D01*
X16200586Y-34294936D01*
X16370713Y-34273279D01*
X16533691Y-34215834D01*
X16609001Y-34172127D01*
X16670391Y-34158933D01*
X16727813Y-34184343D01*
X16759332Y-34238651D01*
X16761589Y-34261479D01*
X16760579Y-34330834D01*
X16789703Y-34464700D01*
X16852326Y-34586381D01*
X16897274Y-34639036D01*
X16921289Y-34697054D01*
X16906615Y-34758108D01*
X16897343Y-34770884D01*
X16855203Y-34820353D01*
X16794990Y-34933747D01*
X16764703Y-35056929D01*
X16765462Y-35183783D01*
X16797225Y-35306598D01*
X16858777Y-35419237D01*
X16901514Y-35468156D01*
X16926191Y-35525895D01*
X16912217Y-35587113D01*
X16901875Y-35601429D01*
X16857892Y-35652326D01*
X16795470Y-35769717D01*
X16764815Y-35897528D01*
X16767185Y-36030229D01*
X16783531Y-36095219D01*
X16779280Y-36157867D01*
X16739016Y-36206051D01*
X16678121Y-36221367D01*
X16634251Y-36208018D01*
X16554454Y-36162009D01*
X16381858Y-36101608D01*
X16201705Y-36078941D01*
X16020801Y-36094592D01*
X15847219Y-36147864D01*
X15688687Y-36236390D01*
X15552270Y-36356218D01*
X15444037Y-36502009D01*
X15368818Y-36667287D01*
X15329641Y-36846117D01*
X15326600Y-36936711D01*
X15326600Y-37534283D01*
X15327604Y-37608230D01*
X15354719Y-37754951D01*
X15380400Y-37825051D01*
X15382723Y-37887800D01*
X15347719Y-37939931D01*
X15288759Y-37961530D01*
X15228363Y-37944349D01*
X15215866Y-37934452D01*
X15145866Y-37869452D01*
X15115308Y-37814597D01*
X15113400Y-37795000D01*
X15113400Y-35586840D01*
X15110346Y-35503133D01*
X15066536Y-35339254D01*
X14982880Y-35191732D01*
X14926580Y-35130264D01*
X13833158Y-34036842D01*
X13804651Y-33980894D01*
X13803400Y-33965000D01*
X13803400Y-32330550D01*
X14081647Y-32330550D01*
X14083339Y-32396049D01*
X14118040Y-32527333D01*
X14184840Y-32643764D01*
X14279574Y-32738881D01*
X14395733Y-32806158D01*
X14525382Y-32840990D01*
X14659618Y-32840990D01*
X14789266Y-32806158D01*
X14905425Y-32738881D01*
X15000159Y-32643764D01*
X15066959Y-32527333D01*
X15101660Y-32396049D01*
X15103352Y-32330550D01*
X15100972Y-32265295D01*
X15065547Y-32134852D01*
X14998491Y-32019433D01*
X14903907Y-31925233D01*
X14788214Y-31858652D01*
X14659249Y-31824190D01*
X14525751Y-31824190D01*
X14396785Y-31858652D01*
X14281092Y-31925233D01*
X14186508Y-32019433D01*
X14119452Y-32134852D01*
X14084027Y-32265295D01*
X14081647Y-32330550D01*
X13803400Y-32330550D01*
X13803400Y-29276297D01*
X13801777Y-29212039D01*
X13788038Y-29144449D01*
X15556647Y-29144449D01*
X15559027Y-29209704D01*
X15594452Y-29340147D01*
X15661508Y-29455566D01*
X15756092Y-29549766D01*
X15871785Y-29616347D01*
X16000751Y-29650810D01*
X16134249Y-29650810D01*
X16263214Y-29616347D01*
X16378907Y-29549766D01*
X16473491Y-29455566D01*
X16540547Y-29340147D01*
X16575972Y-29209704D01*
X16578352Y-29144449D01*
X16576660Y-29078950D01*
X16541959Y-28947666D01*
X16475159Y-28831235D01*
X16380425Y-28736118D01*
X16264266Y-28668841D01*
X16134618Y-28634010D01*
X16000382Y-28634010D01*
X15870733Y-28668841D01*
X15754574Y-28736118D01*
X15659840Y-28831235D01*
X15593040Y-28947666D01*
X15558339Y-29078950D01*
X15556647Y-29144449D01*
X13788038Y-29144449D01*
X13775917Y-29084822D01*
X13725418Y-28965248D01*
X13689767Y-28910298D01*
X13673542Y-28849639D01*
X13696070Y-28791027D01*
X13739691Y-28759733D01*
X13803238Y-28736180D01*
X13914992Y-28662543D01*
X14003027Y-28563930D01*
X14062812Y-28446016D01*
X14090358Y-28316733D01*
X14083811Y-28184698D01*
X14043619Y-28058757D01*
X13972458Y-27947347D01*
X13873900Y-27856809D01*
X13814925Y-27823403D01*
X13772527Y-27777086D01*
X13765450Y-27714694D01*
X13775655Y-27686626D01*
X13803065Y-27635999D01*
X13836773Y-27527397D01*
X13845698Y-27413951D01*
X13839073Y-27356676D01*
X13851486Y-27295122D01*
X13897708Y-27252621D01*
X13940000Y-27243400D01*
X15240000Y-27243400D01*
X15299719Y-27262804D01*
G37*
%TD.AperFunction*%
%TA.AperFunction,Conductor*%
G36*
X11579719Y-30502804D02*
G01*
X11616627Y-30553604D01*
X11616627Y-30616396D01*
X11585365Y-30662782D01*
X11534862Y-30705222D01*
X11455759Y-30808732D01*
X11405400Y-30927137D01*
X11385955Y-31054326D01*
X11398626Y-31182371D01*
X11442630Y-31303287D01*
X11516068Y-31410760D01*
X11561602Y-31453188D01*
X11609923Y-31492152D01*
X11726220Y-31549684D01*
X11851594Y-31576337D01*
X11979657Y-31571158D01*
X12102462Y-31534457D01*
X12212375Y-31468526D01*
X12303865Y-31376156D01*
X12339264Y-31320485D01*
X12387681Y-31280502D01*
X12450353Y-31276614D01*
X12503341Y-31310306D01*
X12526405Y-31368709D01*
X12526600Y-31375000D01*
X12526600Y-33670000D01*
X12507196Y-33729719D01*
X12475878Y-33757943D01*
X12443102Y-33776904D01*
X12382551Y-33822303D01*
X12356112Y-33847575D01*
X11257005Y-34951679D01*
X11201121Y-34980313D01*
X11185000Y-34981600D01*
X10365000Y-34981600D01*
X10305281Y-34962196D01*
X10268373Y-34911396D01*
X10268373Y-34848604D01*
X10293805Y-34807517D01*
X10343763Y-34758445D01*
X10417051Y-34641145D01*
X10456206Y-34510208D01*
X10459305Y-34373584D01*
X10426123Y-34241005D01*
X10358214Y-34120470D01*
X10312708Y-34071459D01*
X10264659Y-34025788D01*
X10145944Y-33956950D01*
X10014869Y-33922096D01*
X9879251Y-33922879D01*
X9748598Y-33959240D01*
X9630649Y-34029477D01*
X9580767Y-34077901D01*
X9524402Y-34105574D01*
X9462535Y-34094831D01*
X9418799Y-34049776D01*
X9417574Y-34047190D01*
X9396448Y-34000910D01*
X9340151Y-33916348D01*
X9306840Y-33880524D01*
X8866316Y-33440000D01*
X10921654Y-33440000D01*
X10923774Y-33504958D01*
X10958676Y-33635224D01*
X11025271Y-33750567D01*
X11119432Y-33844728D01*
X11234775Y-33911323D01*
X11363417Y-33945790D01*
X11496583Y-33945790D01*
X11625224Y-33911323D01*
X11740567Y-33844728D01*
X11834728Y-33750567D01*
X11901323Y-33635224D01*
X11936225Y-33504958D01*
X11938345Y-33440000D01*
X11936225Y-33375041D01*
X11901323Y-33244775D01*
X11834728Y-33129432D01*
X11740567Y-33035271D01*
X11625224Y-32968676D01*
X11496583Y-32934210D01*
X11363417Y-32934210D01*
X11234775Y-32968676D01*
X11119432Y-33035271D01*
X11025271Y-33129432D01*
X10958676Y-33244775D01*
X10923774Y-33375041D01*
X10921654Y-33440000D01*
X8866316Y-33440000D01*
X8573158Y-33146842D01*
X8544651Y-33090894D01*
X8554474Y-33028875D01*
X8576951Y-32999556D01*
X8627626Y-32953847D01*
X8704313Y-32842857D01*
X8749120Y-32717247D01*
X8759988Y-32582867D01*
X8750065Y-32518584D01*
X8736175Y-32454865D01*
X8678310Y-32332968D01*
X8592047Y-32231397D01*
X8481170Y-32154586D01*
X8417661Y-32129490D01*
X8369252Y-32089497D01*
X8353596Y-32028688D01*
X8376673Y-31970290D01*
X8377212Y-31969642D01*
X8418635Y-31920340D01*
X8478530Y-31808049D01*
X8510426Y-31684656D01*
X8513400Y-31622562D01*
X8513400Y-31585000D01*
X8532804Y-31525281D01*
X8583604Y-31488373D01*
X8646396Y-31488373D01*
X8651272Y-31490095D01*
X8722467Y-31517305D01*
X8871534Y-31540627D01*
X9020407Y-31528160D01*
X9162087Y-31480836D01*
X9289625Y-31400665D01*
X9343609Y-31347708D01*
X10183373Y-30512944D01*
X10239406Y-30484604D01*
X10255000Y-30483400D01*
X11520000Y-30483400D01*
X11579719Y-30502804D01*
G37*
%TD.AperFunction*%
%TD*%
M02*
