%TF.GenerationSoftware,KiCad,Pcbnew,9.0.4*%
%TF.CreationDate,2025-09-14T02:35:36-04:00*%
%TF.ProjectId,D8X3C_Backpack_V1.0,44385833-435f-4426-9163-6b7061636b5f,rev?*%
%TF.SameCoordinates,Original*%
%TF.FileFunction,Copper,L4,Bot*%
%TF.FilePolarity,Positive*%
%FSLAX46Y46*%
G04 Gerber Fmt 4.6, Leading zero omitted, Abs format (unit mm)*
G04 Created by KiCad (PCBNEW 9.0.4) date 2025-09-14 02:35:36*
%MOMM*%
%LPD*%
G01*
G04 APERTURE LIST*
%TA.AperFunction,ComponentPad*%
%ADD10O,3.000000X3.200000*%
%TD*%
%TA.AperFunction,ComponentPad*%
%ADD11O,1.100000X2.000000*%
%TD*%
%TA.AperFunction,ComponentPad*%
%ADD12O,1.200000X1.800000*%
%TD*%
%TA.AperFunction,SMDPad,CuDef*%
%ADD13C,0.500000*%
%TD*%
%TA.AperFunction,SMDPad,CuDef*%
%ADD14R,0.540000X0.790000*%
%TD*%
%TA.AperFunction,SMDPad,CuDef*%
%ADD15R,0.565500X0.540000*%
%TD*%
%TA.AperFunction,SMDPad,CuDef*%
%ADD16R,0.540000X0.565500*%
%TD*%
%TA.AperFunction,SMDPad,CuDef*%
%ADD17R,0.790000X0.540000*%
%TD*%
%TA.AperFunction,SMDPad,CuDef*%
%ADD18R,1.350000X1.410000*%
%TD*%
%TA.AperFunction,SMDPad,CuDef*%
%ADD19R,1.500000X0.250000*%
%TD*%
%TA.AperFunction,SMDPad,CuDef*%
%ADD20R,2.000000X1.500000*%
%TD*%
%TA.AperFunction,SMDPad,CuDef*%
%ADD21R,1.200000X1.400000*%
%TD*%
%TA.AperFunction,SMDPad,CuDef*%
%ADD22R,0.800000X0.900000*%
%TD*%
%TA.AperFunction,SMDPad,CuDef*%
%ADD23R,0.900000X0.800000*%
%TD*%
%TA.AperFunction,SMDPad,CuDef*%
%ADD24O,0.574000X2.035500*%
%TD*%
%TA.AperFunction,SMDPad,CuDef*%
%ADD25O,0.630000X1.865000*%
%TD*%
%TA.AperFunction,SMDPad,CuDef*%
%ADD26R,0.800000X0.864000*%
%TD*%
%TA.AperFunction,SMDPad,CuDef*%
%ADD27R,2.500000X1.100000*%
%TD*%
%TA.AperFunction,SMDPad,CuDef*%
%ADD28R,2.340000X3.600000*%
%TD*%
%TA.AperFunction,SMDPad,CuDef*%
%ADD29R,1.100000X2.500000*%
%TD*%
%TA.AperFunction,SMDPad,CuDef*%
%ADD30R,3.600000X2.340000*%
%TD*%
%TA.AperFunction,ViaPad*%
%ADD31C,0.508000*%
%TD*%
%TA.AperFunction,Conductor*%
%ADD32C,0.102000*%
%TD*%
%TA.AperFunction,Conductor*%
%ADD33C,0.254000*%
%TD*%
%TA.AperFunction,Conductor*%
%ADD34C,0.508000*%
%TD*%
%TA.AperFunction,Conductor*%
%ADD35C,0.381000*%
%TD*%
%TA.AperFunction,Conductor*%
%ADD36C,0.762000*%
%TD*%
%TA.AperFunction,Conductor*%
%ADD37C,1.016000*%
%TD*%
%TA.AperFunction,Conductor*%
%ADD38C,0.101500*%
%TD*%
G04 APERTURE END LIST*
D10*
%TO.P,,1*%
%TO.N,GND*%
X2000000Y-2000000D03*
%TD*%
%TO.P,,1*%
%TO.N,GND*%
X38000000Y-2000000D03*
%TD*%
%TO.P,,1*%
%TO.N,GND*%
X2000000Y-38000000D03*
%TD*%
D11*
%TO.P,USB1,13*%
%TO.N,GND*%
X16185500Y-33036500D03*
D12*
%TO.N,N/C*%
X16185500Y-37236500D03*
D11*
%TO.P,USB1,14*%
%TO.N,GND*%
X24835500Y-33036500D03*
D12*
%TO.N,N/C*%
X24835500Y-37236500D03*
%TD*%
D10*
%TO.P,,1*%
%TO.N,GND*%
X38000000Y-38000000D03*
%TD*%
D13*
%TO.P,RTS#,1*%
%TO.N,$1N4130*%
X24224000Y-31479500D03*
%TD*%
D14*
%TO.P,C4,1*%
%TO.N,GND*%
X6667500Y-34062500D03*
%TO.P,C4,2*%
%TO.N,$1N3429*%
X6667500Y-35152500D03*
%TD*%
D15*
%TO.P,R37,1*%
%TO.N,KEY5*%
X13455000Y-25164500D03*
%TO.P,R37,2*%
%TO.N,$1N9780*%
X14321000Y-25164500D03*
%TD*%
D16*
%TO.P,R49,1*%
%TO.N,KEY3*%
X29337000Y-22554000D03*
%TO.P,R49,2*%
%TO.N,3V3*%
X29337000Y-23420000D03*
%TD*%
D17*
%TO.P,C9,1*%
%TO.N,3V3A*%
X8990500Y-37338000D03*
%TO.P,C9,2*%
%TO.N,GND*%
X7900500Y-37338000D03*
%TD*%
D18*
%TO.P,C32,1*%
%TO.N,GND*%
X15748000Y-10747500D03*
%TO.P,C32,2*%
%TO.N,+5V*%
X15748000Y-12747500D03*
%TD*%
D15*
%TO.P,R36,1*%
%TO.N,KEY4*%
X13455000Y-26053500D03*
%TO.P,R36,2*%
%TO.N,$1N9783*%
X14321000Y-26053500D03*
%TD*%
D19*
%TO.P,CN1,1*%
%TO.N,FPGA_TMS*%
X6949000Y-25391000D03*
%TO.P,CN1,2*%
%TO.N,FPGA_TDI*%
X6948000Y-24889000D03*
%TO.P,CN1,3*%
%TO.N,FPGA_3V3*%
X6949000Y-24389500D03*
%TO.P,CN1,4*%
%TO.N,FPGA_TDO*%
X6949000Y-23889500D03*
%TO.P,CN1,5*%
%TO.N,FPGA_TCK*%
X6949000Y-23389500D03*
%TO.P,CN1,6*%
%TO.N,FPGA_RXD*%
X6949000Y-22889500D03*
%TO.P,CN1,7*%
%TO.N,FPGA_TXD*%
X6949000Y-22389500D03*
%TO.P,CN1,8*%
%TO.N,GND*%
X6949000Y-21889500D03*
%TO.P,CN1,9*%
%TO.N,FPGA_IO3*%
X6949000Y-21389500D03*
%TO.P,CN1,10*%
%TO.N,FPGA_D7*%
X6949000Y-20889500D03*
%TO.P,CN1,11*%
%TO.N,FPGA_D6*%
X6949000Y-20389500D03*
%TO.P,CN1,12*%
%TO.N,FPGA_D5*%
X6949000Y-19889500D03*
%TO.P,CN1,13*%
%TO.N,FPGA_D4*%
X6949000Y-19389500D03*
%TO.P,CN1,14*%
%TO.N,FPGA_D3*%
X6949000Y-18889500D03*
%TO.P,CN1,15*%
%TO.N,FPGA_D2*%
X6949000Y-18389500D03*
%TO.P,CN1,16*%
%TO.N,FPGA_D1*%
X6949000Y-17889500D03*
%TO.P,CN1,17*%
%TO.N,FPGA_D0*%
X6949000Y-17389500D03*
%TO.P,CN1,18*%
%TO.N,N/C*%
X6949000Y-16889500D03*
%TO.P,CN1,19*%
X6949000Y-16389500D03*
%TO.P,CN1,20*%
%TO.N,GND*%
X6949000Y-15889500D03*
%TO.P,CN1,21*%
X6949000Y-15389500D03*
%TO.P,CN1,22*%
X6949000Y-14889500D03*
%TO.P,CN1,23*%
%TO.N,N/C*%
X6949000Y-14389500D03*
%TO.P,CN1,24*%
X6949000Y-13889500D03*
%TO.P,CN1,25*%
X6949000Y-13389500D03*
%TO.P,CN1,26*%
X10452000Y-13400500D03*
%TO.P,CN1,27*%
X10452000Y-13900500D03*
%TO.P,CN1,28*%
X10452000Y-14400500D03*
%TO.P,CN1,29*%
%TO.N,+5V*%
X10452000Y-14900500D03*
%TO.P,CN1,30*%
X10452000Y-15400500D03*
%TO.P,CN1,31*%
X10452000Y-15900500D03*
%TO.P,CN1,32*%
%TO.N,FPGA_D8*%
X10452000Y-16400500D03*
%TO.P,CN1,33*%
%TO.N,FPGA_D9*%
X10452000Y-16900500D03*
%TO.P,CN1,34*%
%TO.N,FPGA_D10*%
X10452000Y-17400500D03*
%TO.P,CN1,35*%
%TO.N,FPGA_D11*%
X10452000Y-17900500D03*
%TO.P,CN1,36*%
%TO.N,FPGA_D12*%
X10452000Y-18400500D03*
%TO.P,CN1,37*%
%TO.N,FPGA_D13*%
X10452000Y-18900500D03*
%TO.P,CN1,38*%
%TO.N,FPGA_HSYNC*%
X10452000Y-19400500D03*
%TO.P,CN1,39*%
%TO.N,FPGA_VSINC*%
X10452000Y-19900500D03*
%TO.P,CN1,40*%
%TO.N,FPGA_CLK*%
X10452000Y-20400500D03*
%TO.P,CN1,41*%
%TO.N,GND*%
X10452000Y-20900500D03*
%TO.P,CN1,42*%
%TO.N,FPGA_IO1*%
X10452000Y-21400500D03*
%TO.P,CN1,43*%
%TO.N,FPGA_IO2*%
X10452000Y-21900500D03*
%TO.P,CN1,44*%
%TO.N,KEY3*%
X10452000Y-22400000D03*
%TO.P,CN1,45*%
%TO.N,KEY2*%
X10452000Y-22900500D03*
%TO.P,CN1,46*%
%TO.N,KEY1*%
X10452000Y-23400000D03*
%TO.P,CN1,47*%
%TO.N,KEY5*%
X10452000Y-23900500D03*
%TO.P,CN1,48*%
%TO.N,KEY4*%
X10452000Y-24400000D03*
%TO.P,CN1,49*%
%TO.N,VGND*%
X10452000Y-24900500D03*
%TO.P,CN1,50*%
%TO.N,ACMP*%
X10452000Y-25400000D03*
D20*
%TO.P,CN1,51*%
%TO.N,GND*%
X8701000Y-27199000D03*
%TO.P,CN1,52*%
X8703000Y-11601000D03*
%TD*%
D21*
%TO.P,X2,1*%
%TO.N,$1N3429*%
X8249000Y-34811500D03*
%TO.P,X2,2*%
%TO.N,GND*%
X8249000Y-32611500D03*
%TO.P,X2,3*%
%TO.N,$1N3421*%
X9949000Y-32611500D03*
%TO.P,X2,4*%
%TO.N,GND*%
X9949000Y-34811500D03*
%TD*%
D17*
%TO.P,C12,1*%
%TO.N,$1N5613*%
X18187500Y-34671000D03*
%TO.P,C12,2*%
%TO.N,GND*%
X19277500Y-34671000D03*
%TD*%
D15*
%TO.P,R34,1*%
%TO.N,FPGA_RXD*%
X4859500Y-23094000D03*
%TO.P,R34,2*%
%TO.N,$1N9591*%
X3993500Y-23094000D03*
%TD*%
D22*
%TO.P,C33,1*%
%TO.N,3V3*%
X30288000Y-20447000D03*
%TO.P,C33,2*%
%TO.N,GND*%
X31688000Y-20447000D03*
%TD*%
D18*
%TO.P,C31,1*%
%TO.N,GND*%
X20193000Y-10747500D03*
%TO.P,C31,2*%
%TO.N,+5V*%
X20193000Y-12747500D03*
%TD*%
D15*
%TO.P,R4,1*%
%TO.N,$1N4042*%
X3993500Y-24041000D03*
%TO.P,R4,2*%
%TO.N,FPGA_RXD*%
X4859500Y-24041000D03*
%TD*%
%TO.P,R35,1*%
%TO.N,FPGA_TXD*%
X4859500Y-21929500D03*
%TO.P,R35,2*%
%TO.N,$1N9585*%
X3993500Y-21929500D03*
%TD*%
D14*
%TO.P,C3,1*%
%TO.N,$1N3421*%
X11366500Y-32538500D03*
%TO.P,C3,2*%
%TO.N,GND*%
X11366500Y-33628500D03*
%TD*%
D15*
%TO.P,R23,1*%
%TO.N,$1N7857*%
X17347000Y-12382500D03*
%TO.P,R23,2*%
%TO.N,3V3*%
X18213000Y-12382500D03*
%TD*%
D23*
%TO.P,C15,1*%
%TO.N,3V3*%
X22415500Y-24890500D03*
%TO.P,C15,2*%
%TO.N,GND*%
X22415500Y-26290500D03*
%TD*%
D18*
%TO.P,C30,1*%
%TO.N,GND*%
X23050500Y-10747500D03*
%TO.P,C30,2*%
%TO.N,+5V*%
X23050500Y-12747500D03*
%TD*%
D14*
%TO.P,C6,1*%
%TO.N,3V3*%
X4762500Y-34507000D03*
%TO.P,C6,2*%
%TO.N,GND*%
X4762500Y-35597000D03*
%TD*%
%TO.P,C10,1*%
%TO.N,GND*%
X38077000Y-33641000D03*
%TO.P,C10,2*%
%TO.N,3V3A*%
X38077000Y-34731000D03*
%TD*%
D24*
%TO.P,U10,1*%
%TO.N,GND*%
X1524000Y-26886500D03*
%TO.P,U10,2*%
X2794000Y-26886500D03*
%TO.P,U10,3*%
X4064000Y-26886500D03*
%TO.P,U10,4*%
X5334000Y-26886500D03*
%TO.P,U10,5*%
%TO.N,$1N5759*%
X5334000Y-32422500D03*
%TO.P,U10,6*%
%TO.N,$1N5755*%
X4064000Y-32422500D03*
%TO.P,U10,7*%
%TO.N,$1N5750*%
X2794000Y-32422500D03*
%TO.P,U10,8*%
%TO.N,3V3*%
X1524000Y-32422500D03*
%TD*%
D15*
%TO.P,R41,1*%
%TO.N,ACMP*%
X13600500Y-28448000D03*
%TO.P,R41,2*%
%TO.N,$1N9790*%
X14466500Y-28448000D03*
%TD*%
D22*
%TO.P,C19,1*%
%TO.N,1V2*%
X5078500Y-37528500D03*
%TO.P,C19,2*%
%TO.N,GND*%
X6478500Y-37528500D03*
%TD*%
D23*
%TO.P,C8,1*%
%TO.N,3V3A*%
X36337500Y-34886000D03*
%TO.P,C8,2*%
%TO.N,GND*%
X36337500Y-33486000D03*
%TD*%
D25*
%TO.P,U2,1*%
%TO.N,DP_SERIAL*%
X28067000Y-29987500D03*
%TO.P,U2,2*%
%TO.N,DN_SERIAL*%
X26797000Y-29987500D03*
%TO.P,U2,3*%
%TO.N,GND*%
X25527000Y-29987500D03*
%TO.P,U2,4*%
%TO.N,$1N4130*%
X24257000Y-29987500D03*
%TO.P,U2,5*%
%TO.N,3V3*%
X24257000Y-24622500D03*
%TO.P,U2,6*%
%TO.N,$1N4042*%
X25527000Y-24622500D03*
%TO.P,U2,7*%
%TO.N,$1N4038*%
X26797000Y-24622500D03*
%TO.P,U2,8*%
%TO.N,3V3*%
X28067000Y-24622500D03*
%TD*%
D26*
%TO.P,L3,1*%
%TO.N,VGND*%
X13333500Y-27241500D03*
%TO.P,L3,2*%
%TO.N,GND*%
X14733500Y-27241500D03*
%TD*%
D15*
%TO.P,R8,1*%
%TO.N,GND*%
X11291500Y-37211000D03*
%TO.P,R8,2*%
%TO.N,$1N5374*%
X10425500Y-37211000D03*
%TD*%
%TO.P,R40,1*%
%TO.N,KEY3*%
X13455000Y-22497500D03*
%TO.P,R40,2*%
%TO.N,$1N9771*%
X14321000Y-22497500D03*
%TD*%
D22*
%TO.P,C7,1*%
%TO.N,GND*%
X7745500Y-38354000D03*
%TO.P,C7,2*%
%TO.N,3V3A*%
X9145500Y-38354000D03*
%TD*%
D15*
%TO.P,R5,1*%
%TO.N,$1N4038*%
X3993500Y-21056500D03*
%TO.P,R5,2*%
%TO.N,FPGA_TXD*%
X4859500Y-21056500D03*
%TD*%
%TO.P,R25,1*%
%TO.N,$1N7939*%
X24522500Y-12382500D03*
%TO.P,R25,2*%
%TO.N,3V3*%
X25388500Y-12382500D03*
%TD*%
%TO.P,R21,1*%
%TO.N,$1N7724*%
X12584500Y-12382500D03*
%TO.P,R21,2*%
%TO.N,3V3*%
X13450500Y-12382500D03*
%TD*%
D17*
%TO.P,C11,1*%
%TO.N,$1N5608*%
X18187500Y-37338000D03*
%TO.P,C11,2*%
%TO.N,GND*%
X19277500Y-37338000D03*
%TD*%
D15*
%TO.P,R9,1*%
%TO.N,GND*%
X19165500Y-36449000D03*
%TO.P,R9,2*%
%TO.N,$1N5907*%
X18299500Y-36449000D03*
%TD*%
D16*
%TO.P,R30,1*%
%TO.N,KEY1*%
X36449000Y-26849000D03*
%TO.P,R30,2*%
%TO.N,3V3*%
X36449000Y-25983000D03*
%TD*%
D27*
%TO.P,U4,1*%
%TO.N,GND*%
X33617500Y-32902000D03*
%TO.P,U4,2*%
%TO.N,3V3A*%
X33617500Y-35202000D03*
%TO.P,U4,3*%
%TO.N,+5V*%
X33617500Y-37502000D03*
D28*
%TO.P,U4,4*%
%TO.N,3V3A*%
X27677500Y-35202000D03*
%TD*%
D16*
%TO.P,R53,1*%
%TO.N,KEY4*%
X31369000Y-30174000D03*
%TO.P,R53,2*%
%TO.N,3V3*%
X31369000Y-31040000D03*
%TD*%
D17*
%TO.P,C20,1*%
%TO.N,GND*%
X1614000Y-34988500D03*
%TO.P,C20,2*%
%TO.N,1V2*%
X2704000Y-34988500D03*
%TD*%
D15*
%TO.P,R10,1*%
%TO.N,GND*%
X19160500Y-35564000D03*
%TO.P,R10,2*%
%TO.N,$1N5892*%
X18294500Y-35564000D03*
%TD*%
%TO.P,R39,1*%
%TO.N,KEY2*%
X13455000Y-23386500D03*
%TO.P,R39,2*%
%TO.N,$1N9774*%
X14321000Y-23386500D03*
%TD*%
D23*
%TO.P,C17,1*%
%TO.N,GND*%
X13208000Y-31751500D03*
%TO.P,C17,2*%
%TO.N,3V3*%
X13208000Y-30351500D03*
%TD*%
D29*
%TO.P,U11,1*%
%TO.N,GND*%
X31192500Y-17956000D03*
%TO.P,U11,2*%
%TO.N,3V3*%
X28892500Y-17956000D03*
%TO.P,U11,3*%
%TO.N,+5V*%
X26592500Y-17956000D03*
D30*
%TO.P,U11,4*%
%TO.N,3V3*%
X28892500Y-12016000D03*
%TD*%
D15*
%TO.P,R57,1*%
%TO.N,KEY5*%
X31802000Y-26225500D03*
%TO.P,R57,2*%
%TO.N,3V3*%
X30936000Y-26225500D03*
%TD*%
%TO.P,R38,1*%
%TO.N,KEY1*%
X13455000Y-24275500D03*
%TO.P,R38,2*%
%TO.N,$1N9777*%
X14321000Y-24275500D03*
%TD*%
D31*
%TO.N,ACMP*%
X6985000Y-25971500D03*
X13582000Y-28276000D03*
%TO.N,VGND*%
X13335000Y-27430500D03*
%TO.N,KEY4*%
X16954500Y-26173500D03*
X29334000Y-31432500D03*
X13488500Y-26035000D03*
%TO.N,KEY5*%
X31369000Y-28419500D03*
X31802000Y-26225500D03*
X13488500Y-25146000D03*
X16637000Y-25450000D03*
%TO.N,KEY1*%
X13488500Y-24257000D03*
X34414000Y-26384500D03*
X17843500Y-25933000D03*
%TO.N,KEY2*%
X24254000Y-26384500D03*
X16954500Y-24130000D03*
X13488500Y-23368000D03*
%TO.N,KEY3*%
X13488500Y-22479000D03*
X29334000Y-21336000D03*
X16951000Y-23470000D03*
%TO.N,FPGA_IO2*%
X13081000Y-20891500D03*
%TO.N,FPGA_IO1*%
X12001500Y-20891500D03*
%TO.N,FPGA_CLK*%
X23063000Y-17780000D03*
%TO.N,FPGA_VSINC*%
X11811000Y-19900500D03*
%TO.N,FPGA_HSYNC*%
X12446000Y-19400500D03*
%TO.N,FPGA_D13*%
X21145500Y-18224500D03*
%TO.N,FPGA_D12*%
X20510500Y-17780000D03*
%TO.N,FPGA_D11*%
X19883000Y-18224500D03*
%TO.N,FPGA_D10*%
X19240500Y-17780000D03*
%TO.N,FPGA_D9*%
X18577000Y-14824000D03*
%TO.N,FPGA_D8*%
X17933000Y-15176500D03*
%TO.N,FPGA_D0*%
X5524500Y-17399000D03*
%TO.N,FPGA_D1*%
X4826000Y-17889500D03*
%TO.N,FPGA_D2*%
X5524500Y-18389500D03*
%TO.N,FPGA_D3*%
X4826000Y-18889500D03*
%TO.N,FPGA_D4*%
X5524500Y-19367500D03*
%TO.N,FPGA_D5*%
X4826000Y-19889500D03*
%TO.N,FPGA_D6*%
X5524500Y-20389500D03*
%TO.N,FPGA_D7*%
X8323000Y-20460500D03*
%TO.N,FPGA_IO3*%
X8064500Y-21389500D03*
%TO.N,FPGA_TCK*%
X20320000Y-3810000D03*
%TO.N,FPGA_TDO*%
X20942500Y-3238500D03*
%TO.N,FPGA_TDI*%
X21526500Y-2667000D03*
%TO.N,FPGA_TMS*%
X22161500Y-2095500D03*
%TO.N,GND*%
X35918000Y-14242000D03*
X20891500Y-24638000D03*
X6667500Y-34127500D03*
X15811500Y-10160000D03*
X24701500Y-9398000D03*
X8249000Y-32611500D03*
X35918000Y-9162000D03*
X23750000Y-4024000D03*
X1016000Y-35750500D03*
X11811000Y-36512500D03*
X30391000Y-5397500D03*
X13906500Y-39179500D03*
X35918000Y-19322000D03*
X27178000Y-23393000D03*
X16510000Y-31686500D03*
X3238500Y-21056500D03*
X5438000Y-9162000D03*
X20678000Y-34562000D03*
X35918000Y-4082000D03*
X12503500Y-37909500D03*
X30391000Y-4661000D03*
X20383500Y-28638500D03*
X30838000Y-4082000D03*
X35918000Y-24402000D03*
X8763000Y-21922500D03*
X3746500Y-35540000D03*
X6451500Y-30940000D03*
X25844500Y-9334500D03*
X10096500Y-27305000D03*
X19050000Y-23876000D03*
X29718000Y-9334500D03*
X30988000Y-9334500D03*
X25758000Y-34562000D03*
X7493000Y-35941000D03*
X23114000Y-11309500D03*
X25146000Y-23393000D03*
X7302500Y-27738000D03*
X16065500Y-29146500D03*
X9271000Y-24130000D03*
X11430000Y-33438000D03*
X35918000Y-29482000D03*
X30353000Y-10350500D03*
X15811500Y-11303000D03*
X15310000Y-30506000D03*
X9949000Y-34430500D03*
X23114000Y-10096500D03*
X22415500Y-26290500D03*
X25270000Y-4032500D03*
X5905500Y-38989000D03*
X2017000Y-35750500D03*
X11896000Y-31066000D03*
X18934500Y-30030500D03*
X3238500Y-24066500D03*
X21559500Y-25209500D03*
%TO.N,$1N3421*%
X7518000Y-36643500D03*
%TO.N,$1N3429*%
X6858000Y-36639500D03*
%TO.N,3V3*%
X31369000Y-30999500D03*
X7136000Y-31280500D03*
X14287500Y-30226000D03*
X26162000Y-12382500D03*
X30226000Y-12446000D03*
X28702000Y-12065000D03*
X3746500Y-34544000D03*
X1524000Y-30924500D03*
X14160500Y-12382500D03*
X35052000Y-14959500D03*
X30289500Y-20448500D03*
X37539500Y-31813500D03*
X27495500Y-12885500D03*
X29337000Y-24638000D03*
X22796500Y-28431500D03*
X11317000Y-31420500D03*
X27495500Y-12065000D03*
X30237500Y-26225500D03*
X24257000Y-25206000D03*
X18859500Y-12382500D03*
X33020000Y-15960500D03*
X37539500Y-30819000D03*
X25903000Y-33642500D03*
X29692000Y-12928000D03*
X36449000Y-25983000D03*
X10894000Y-36512500D03*
X24257000Y-24066500D03*
%TO.N,$1N4042*%
X3993500Y-24041000D03*
X25843000Y-23101500D03*
%TO.N,$1N4038*%
X26503000Y-23101500D03*
X3993500Y-21056500D03*
%TO.N,$1N5374*%
X9874500Y-36544500D03*
%TO.N,DP_SERIAL*%
X20213500Y-30950000D03*
%TO.N,DN_SERIAL*%
X19553500Y-30951000D03*
%TO.N,DP_ADC*%
X13103500Y-39126500D03*
X16495000Y-30973000D03*
%TO.N,DN_ADC*%
X16028000Y-30506000D03*
X12636500Y-38660000D03*
%TO.N,+5V*%
X20924000Y-12954000D03*
X22640000Y-12954000D03*
X27305000Y-21780500D03*
X22918500Y-31530500D03*
X21782000Y-12954000D03*
X22911000Y-32766000D03*
X22923500Y-32158500D03*
X6286500Y-32575500D03*
X23498000Y-12954000D03*
X18110500Y-31528000D03*
X27305000Y-21001500D03*
X27305000Y-20268000D03*
X33757500Y-37528500D03*
X33083500Y-37528500D03*
X18110000Y-32766000D03*
X20066000Y-12954000D03*
X18110500Y-32156000D03*
X34417000Y-37528500D03*
%TO.N,3V3A*%
X27677500Y-35202000D03*
X13164000Y-29273500D03*
X27677500Y-35958000D03*
X32733000Y-35202000D03*
X8894000Y-30899500D03*
X6626000Y-33169000D03*
X11430000Y-35496500D03*
X8927000Y-36254500D03*
X27677500Y-36772500D03*
%TO.N,$1N5907*%
X17273500Y-35948500D03*
%TO.N,$1N5892*%
X17272000Y-35115500D03*
%TO.N,$1N5759*%
X5207000Y-29845000D03*
%TO.N,$1N5755*%
X3619500Y-30924500D03*
%TO.N,1V2A*%
X8826500Y-39243000D03*
X14592500Y-32327500D03*
%TO.N,$1N5750*%
X2603500Y-30924500D03*
%TO.N,1V2*%
X2857500Y-35014000D03*
X4635500Y-37682000D03*
%TO.N,$1N5608*%
X17272000Y-36766500D03*
%TO.N,$1N5613*%
X17272000Y-34290000D03*
%TO.N,1V8*%
X20701000Y-14922500D03*
%TO.N,$1N7724*%
X10033000Y-9893500D03*
%TO.N,$1N8034*%
X23114000Y-14922500D03*
X29972000Y-13970000D03*
%TO.N,$1N7857*%
X17347000Y-11886000D03*
%TO.N,$1N7939*%
X24522500Y-11874500D03*
%TO.N,$1N9790*%
X31432500Y-3365500D03*
%TO.N,$1N9783*%
X29337000Y-6159500D03*
%TO.N,$1N9780*%
X28892500Y-6667500D03*
%TO.N,$1N9777*%
X29337000Y-7239000D03*
%TO.N,$1N9774*%
X28892500Y-7747000D03*
%TO.N,$1N9771*%
X29337000Y-8318500D03*
%TO.N,$1N9591*%
X24841000Y-3391500D03*
%TO.N,$1N9585*%
X24181000Y-3391500D03*
%TO.N,FPGA_3V3*%
X8445500Y-25082500D03*
%TD*%
D32*
%TO.N,ACMP*%
X9080500Y-25400000D02*
X8509000Y-25971500D01*
X10452000Y-25780500D02*
X12947500Y-28276000D01*
X8509000Y-25971500D02*
X6985000Y-25971500D01*
X10452000Y-25400000D02*
X10452000Y-25780500D01*
X12947500Y-28276000D02*
X13582000Y-28276000D01*
X10452000Y-25400000D02*
X9080500Y-25400000D01*
D33*
%TO.N,VGND*%
X12319000Y-25717500D02*
X11502000Y-24900500D01*
X13335000Y-27241500D02*
X12319000Y-26225500D01*
X12319000Y-26225500D02*
X12319000Y-25717500D01*
X13335000Y-27430500D02*
X13335000Y-27241500D01*
X11502000Y-24900500D02*
X10452000Y-24900500D01*
D32*
%TO.N,KEY4*%
X29334000Y-31432500D02*
X30592500Y-30174000D01*
X20193000Y-27622500D02*
X28765500Y-27622500D01*
X10452000Y-24400000D02*
X11802000Y-24400000D01*
X17260500Y-26479500D02*
X19050000Y-26479500D01*
X30592500Y-30174000D02*
X31369000Y-30174000D01*
X16954500Y-26173500D02*
X17260500Y-26479500D01*
X19050000Y-26479500D02*
X20193000Y-27622500D01*
X29334000Y-28191000D02*
X29334000Y-31432500D01*
X28765500Y-27622500D02*
X29334000Y-28191000D01*
X11802000Y-24400000D02*
X13455000Y-26053500D01*
%TO.N,KEY5*%
X31802000Y-27986500D02*
X31802000Y-26225500D01*
X31369000Y-28419500D02*
X31802000Y-27986500D01*
X12191000Y-23900500D02*
X13455000Y-25164500D01*
X18796000Y-25463500D02*
X16650500Y-25463500D01*
X16650500Y-25463500D02*
X16637000Y-25450000D01*
X10452000Y-23900500D02*
X12191000Y-23900500D01*
X30324500Y-28419500D02*
X29019500Y-27114500D01*
X29019500Y-27114500D02*
X20447000Y-27114500D01*
X20447000Y-27114500D02*
X18796000Y-25463500D01*
X31369000Y-28419500D02*
X30324500Y-28419500D01*
%TO.N,KEY1*%
X10452000Y-23400000D02*
X12580000Y-23400000D01*
X34414000Y-27562000D02*
X34414000Y-26384500D01*
X28906000Y-27382000D02*
X30400500Y-28876500D01*
X36449000Y-26849000D02*
X35984500Y-26384500D01*
X30400500Y-28876500D02*
X33099500Y-28876500D01*
X20333500Y-27382000D02*
X28906000Y-27382000D01*
X35984500Y-26384500D02*
X34414000Y-26384500D01*
X12580000Y-23400000D02*
X13455000Y-24275500D01*
X33099500Y-28876500D02*
X34414000Y-27562000D01*
X17843500Y-25933000D02*
X18884500Y-25933000D01*
X18884500Y-25933000D02*
X20333500Y-27382000D01*
%TO.N,KEY2*%
X24254000Y-26384500D02*
X24892000Y-25746000D01*
X17716500Y-23368000D02*
X16954500Y-24130000D01*
X24447500Y-23368000D02*
X17716500Y-23368000D01*
X10452000Y-22900500D02*
X12969000Y-22900500D01*
X12969000Y-22900500D02*
X13455000Y-23386500D01*
X24892000Y-23812500D02*
X24447500Y-23368000D01*
X24892000Y-25746000D02*
X24892000Y-23812500D01*
%TO.N,KEY3*%
X28025500Y-22644500D02*
X29334000Y-21336000D01*
X25171000Y-22644500D02*
X28025500Y-22644500D01*
X10452000Y-22400000D02*
X13358000Y-22400000D01*
X29334000Y-21336000D02*
X29337000Y-21339000D01*
X16951000Y-23470000D02*
X17434000Y-22987000D01*
X13358000Y-22400000D02*
X13455000Y-22497500D01*
X17434000Y-22987000D02*
X24828500Y-22987000D01*
X24828500Y-22987000D02*
X25171000Y-22644500D01*
X29337000Y-21339000D02*
X29337000Y-22554000D01*
%TO.N,FPGA_IO2*%
X12072000Y-21900500D02*
X13081000Y-20891500D01*
X10452000Y-21900500D02*
X12072000Y-21900500D01*
%TO.N,FPGA_IO1*%
X11493000Y-21400000D02*
X12001500Y-20891500D01*
X10452000Y-21400000D02*
X11493000Y-21400000D01*
%TO.N,FPGA_CLK*%
X14296500Y-20138000D02*
X14368500Y-20066000D01*
X17780000Y-20320000D02*
X17852500Y-20248000D01*
X21988500Y-20066000D02*
X22098000Y-20066000D01*
X16510000Y-20066000D02*
X16582500Y-20138000D01*
X19122500Y-20138000D02*
X19122500Y-20248000D01*
X19884500Y-20248000D02*
X19884500Y-20138000D01*
X20464500Y-20066000D02*
X20574000Y-20066000D01*
X22915000Y-18897500D02*
X22987000Y-18825500D01*
X15058500Y-20248000D02*
X15130500Y-20320000D01*
X15494000Y-20066000D02*
X15566500Y-20138000D01*
X16146500Y-20320000D02*
X16256000Y-20320000D01*
X22170500Y-20248000D02*
X22242500Y-20320000D01*
X20900500Y-20138000D02*
X20972500Y-20066000D01*
X15058500Y-20138000D02*
X15058500Y-20248000D01*
X17598500Y-20138000D02*
X17598500Y-20248000D01*
X17852500Y-20138000D02*
X17924500Y-20066000D01*
X20138500Y-20138000D02*
X20138500Y-20248000D01*
X15892500Y-20066000D02*
X16002000Y-20066000D01*
X22987000Y-19223500D02*
X22915000Y-19151500D01*
X21916500Y-20248000D02*
X21916500Y-20138000D01*
X21734500Y-20320000D02*
X21844000Y-20320000D01*
X21082000Y-20066000D02*
X21154500Y-20138000D01*
X17090500Y-20248000D02*
X17162500Y-20320000D01*
X17162500Y-20320000D02*
X17272000Y-20320000D01*
X13098500Y-20320000D02*
X13208000Y-20320000D01*
X20320000Y-20320000D02*
X20392500Y-20248000D01*
X18868500Y-20138000D02*
X18940500Y-20066000D01*
X21662500Y-20138000D02*
X21662500Y-20248000D01*
X17344500Y-20138000D02*
X17416500Y-20066000D01*
X21154500Y-20138000D02*
X21154500Y-20248000D01*
X10452000Y-20400500D02*
X12238500Y-20400500D01*
X18360500Y-20248000D02*
X18360500Y-20138000D01*
X22987000Y-18825500D02*
X22987000Y-18715500D01*
X15638500Y-20320000D02*
X15748000Y-20320000D01*
X21480500Y-20066000D02*
X21590000Y-20066000D01*
X18360500Y-20138000D02*
X18432500Y-20066000D01*
X13788500Y-20248000D02*
X13788500Y-20138000D01*
X21336000Y-20320000D02*
X21408500Y-20248000D01*
X21916500Y-20138000D02*
X21988500Y-20066000D01*
X22242500Y-20320000D02*
X22352000Y-20320000D01*
X22796500Y-18969500D02*
X22868500Y-18897500D01*
X14876500Y-20066000D02*
X14986000Y-20066000D01*
X13026500Y-20138000D02*
X13026500Y-20248000D01*
X17018000Y-20066000D02*
X17090500Y-20138000D01*
X13026500Y-20248000D02*
X13098500Y-20320000D01*
X16908500Y-20066000D02*
X17018000Y-20066000D01*
X18542000Y-20066000D02*
X18614500Y-20138000D01*
X22915000Y-19405500D02*
X22987000Y-19333500D01*
X22796500Y-18571500D02*
X22796500Y-18046500D01*
X13280500Y-20138000D02*
X13352500Y-20066000D01*
X20138500Y-20248000D02*
X20210500Y-20320000D01*
X16764000Y-20320000D02*
X16836500Y-20248000D01*
X20066000Y-20066000D02*
X20138500Y-20138000D01*
X22987000Y-19333500D02*
X22987000Y-19223500D01*
X22098000Y-20066000D02*
X22170500Y-20138000D01*
X16836500Y-20138000D02*
X16908500Y-20066000D01*
X14224000Y-20320000D02*
X14296500Y-20248000D01*
X15130500Y-20320000D02*
X15240000Y-20320000D01*
X21844000Y-20320000D02*
X21916500Y-20248000D01*
X15312500Y-20138000D02*
X15384500Y-20066000D01*
X18940500Y-20066000D02*
X19050000Y-20066000D01*
X13534500Y-20248000D02*
X13606500Y-20320000D01*
X20646500Y-20248000D02*
X20718500Y-20320000D01*
X14114500Y-20320000D02*
X14224000Y-20320000D01*
X20718500Y-20320000D02*
X20828000Y-20320000D01*
X19884500Y-20138000D02*
X19956500Y-20066000D01*
X19304000Y-20320000D02*
X19376500Y-20248000D01*
X20392500Y-20138000D02*
X20464500Y-20066000D01*
X19630500Y-20138000D02*
X19630500Y-20248000D01*
X21408500Y-20248000D02*
X21408500Y-20138000D01*
X19050000Y-20066000D02*
X19122500Y-20138000D01*
X13352500Y-20066000D02*
X13462000Y-20066000D01*
X14296500Y-20248000D02*
X14296500Y-20138000D01*
X22868500Y-18897500D02*
X22915000Y-18897500D01*
X22868500Y-18643500D02*
X22796500Y-18571500D01*
X15820500Y-20138000D02*
X15892500Y-20066000D01*
X18106500Y-20248000D02*
X18178500Y-20320000D01*
X13534500Y-20138000D02*
X13534500Y-20248000D01*
X20574000Y-20066000D02*
X20646500Y-20138000D01*
X14622500Y-20320000D02*
X14732000Y-20320000D01*
X22352000Y-20320000D02*
X22424500Y-20248000D01*
X16002000Y-20066000D02*
X16074500Y-20138000D01*
X19448500Y-20066000D02*
X19558000Y-20066000D01*
X13788500Y-20138000D02*
X13860500Y-20066000D01*
X22424500Y-20248000D02*
X22424500Y-20138000D01*
X18432500Y-20066000D02*
X18542000Y-20066000D01*
X15566500Y-20248000D02*
X15638500Y-20320000D01*
X16654500Y-20320000D02*
X16764000Y-20320000D01*
X22170500Y-20138000D02*
X22170500Y-20248000D01*
X16836500Y-20248000D02*
X16836500Y-20138000D01*
X17090500Y-20138000D02*
X17090500Y-20248000D01*
X19956500Y-20066000D02*
X20066000Y-20066000D01*
X16582500Y-20138000D02*
X16582500Y-20248000D01*
X19812000Y-20320000D02*
X19884500Y-20248000D01*
X18106500Y-20138000D02*
X18106500Y-20248000D01*
X16328500Y-20248000D02*
X16328500Y-20138000D01*
X18178500Y-20320000D02*
X18288000Y-20320000D01*
X14478000Y-20066000D02*
X14550500Y-20138000D01*
X14804500Y-20138000D02*
X14876500Y-20066000D01*
X21226500Y-20320000D02*
X21336000Y-20320000D01*
X17852500Y-20248000D02*
X17852500Y-20138000D01*
X22796500Y-18046500D02*
X23063000Y-17780000D01*
X14550500Y-20138000D02*
X14550500Y-20248000D01*
X18868500Y-20248000D02*
X18868500Y-20138000D01*
X14732000Y-20320000D02*
X14804500Y-20248000D01*
X22915000Y-19151500D02*
X22868500Y-19151500D01*
X19702500Y-20320000D02*
X19812000Y-20320000D01*
X22868500Y-19151500D02*
X22796500Y-19079500D01*
X19122500Y-20248000D02*
X19194500Y-20320000D01*
X19376500Y-20248000D02*
X19376500Y-20138000D01*
X14804500Y-20248000D02*
X14804500Y-20138000D01*
X21154500Y-20248000D02*
X21226500Y-20320000D01*
X19630500Y-20248000D02*
X19702500Y-20320000D01*
X17272000Y-20320000D02*
X17344500Y-20248000D01*
X17670500Y-20320000D02*
X17780000Y-20320000D01*
X20646500Y-20138000D02*
X20646500Y-20248000D01*
X12954000Y-20066000D02*
X13026500Y-20138000D01*
X22424500Y-20138000D02*
X22796500Y-19766000D01*
X16328500Y-20138000D02*
X16400500Y-20066000D01*
X16400500Y-20066000D02*
X16510000Y-20066000D01*
X13280500Y-20248000D02*
X13280500Y-20138000D01*
X14042500Y-20138000D02*
X14042500Y-20248000D01*
X22796500Y-19477500D02*
X22868500Y-19405500D01*
X21408500Y-20138000D02*
X21480500Y-20066000D01*
X22868500Y-19405500D02*
X22915000Y-19405500D01*
X20210500Y-20320000D02*
X20320000Y-20320000D01*
X13716000Y-20320000D02*
X13788500Y-20248000D01*
X13860500Y-20066000D02*
X13970000Y-20066000D01*
X18288000Y-20320000D02*
X18360500Y-20248000D01*
X12238500Y-20400500D02*
X12573000Y-20066000D01*
X18614500Y-20138000D02*
X18614500Y-20248000D01*
X15566500Y-20138000D02*
X15566500Y-20248000D01*
X15240000Y-20320000D02*
X15312500Y-20248000D01*
X16582500Y-20248000D02*
X16654500Y-20320000D01*
X17344500Y-20248000D02*
X17344500Y-20138000D01*
X13462000Y-20066000D02*
X13534500Y-20138000D01*
X22987000Y-18715500D02*
X22915000Y-18643500D01*
X19558000Y-20066000D02*
X19630500Y-20138000D01*
X15384500Y-20066000D02*
X15494000Y-20066000D01*
X21590000Y-20066000D02*
X21662500Y-20138000D01*
X19194500Y-20320000D02*
X19304000Y-20320000D01*
X20900500Y-20248000D02*
X20900500Y-20138000D01*
X20972500Y-20066000D02*
X21082000Y-20066000D01*
X14368500Y-20066000D02*
X14478000Y-20066000D01*
X14042500Y-20248000D02*
X14114500Y-20320000D01*
X15820500Y-20248000D02*
X15820500Y-20138000D01*
X22796500Y-19079500D02*
X22796500Y-18969500D01*
X13208000Y-20320000D02*
X13280500Y-20248000D01*
X17598500Y-20248000D02*
X17670500Y-20320000D01*
X17924500Y-20066000D02*
X18034000Y-20066000D01*
X18034000Y-20066000D02*
X18106500Y-20138000D01*
X14986000Y-20066000D02*
X15058500Y-20138000D01*
X19376500Y-20138000D02*
X19448500Y-20066000D01*
X18796000Y-20320000D02*
X18868500Y-20248000D01*
X20392500Y-20248000D02*
X20392500Y-20138000D01*
X17416500Y-20066000D02*
X17526000Y-20066000D01*
X15312500Y-20248000D02*
X15312500Y-20138000D01*
X18614500Y-20248000D02*
X18686500Y-20320000D01*
X13606500Y-20320000D02*
X13716000Y-20320000D01*
X12573000Y-20066000D02*
X12954000Y-20066000D01*
X13970000Y-20066000D02*
X14042500Y-20138000D01*
X20828000Y-20320000D02*
X20900500Y-20248000D01*
X14550500Y-20248000D02*
X14622500Y-20320000D01*
X16074500Y-20138000D02*
X16074500Y-20248000D01*
X22796500Y-19766000D02*
X22796500Y-19477500D01*
X18686500Y-20320000D02*
X18796000Y-20320000D01*
X15748000Y-20320000D02*
X15820500Y-20248000D01*
X17526000Y-20066000D02*
X17598500Y-20138000D01*
X21662500Y-20248000D02*
X21734500Y-20320000D01*
X22915000Y-18643500D02*
X22868500Y-18643500D01*
X16074500Y-20248000D02*
X16146500Y-20320000D01*
X16256000Y-20320000D02*
X16328500Y-20248000D01*
%TO.N,FPGA_VSINC*%
X10452000Y-19900500D02*
X11811000Y-19900500D01*
%TO.N,FPGA_HSYNC*%
X10452000Y-19400500D02*
X12446000Y-19400500D01*
%TO.N,FPGA_D13*%
X22288500Y-19431000D02*
X22034500Y-19685000D01*
X14944000Y-19566500D02*
X14944000Y-19613000D01*
X17992000Y-19566500D02*
X17992000Y-19613000D01*
X17048000Y-19494500D02*
X16976000Y-19566500D01*
X15452000Y-19613000D02*
X15379500Y-19685000D01*
X15452000Y-19566500D02*
X15452000Y-19613000D01*
X15125500Y-19494500D02*
X15016000Y-19494500D01*
X15960000Y-19613000D02*
X15887500Y-19685000D01*
X18500000Y-19566500D02*
X18500000Y-19613000D01*
X19189500Y-19494500D02*
X19080000Y-19494500D01*
X21796000Y-17843500D02*
X21796000Y-19304000D01*
X18754000Y-19613000D02*
X18754000Y-19566500D01*
X18246000Y-19566500D02*
X18173500Y-19494500D01*
X22034500Y-19685000D02*
X20350000Y-19685000D01*
X16722000Y-19613000D02*
X16722000Y-19566500D01*
X19770000Y-19566500D02*
X19697500Y-19494500D01*
X21217500Y-19185500D02*
X21463000Y-19185500D01*
X20278000Y-19566500D02*
X20205500Y-19494500D01*
X20205500Y-19494500D02*
X20096000Y-19494500D01*
X17157500Y-19494500D02*
X17048000Y-19494500D01*
X18064000Y-19494500D02*
X17992000Y-19566500D01*
X21970000Y-19376000D02*
X22042500Y-19304000D01*
X18681500Y-19494500D02*
X18572000Y-19494500D01*
X15198000Y-19613000D02*
X15198000Y-19566500D01*
X14690000Y-19613000D02*
X14690000Y-19566500D01*
X18318000Y-19685000D02*
X18246000Y-19613000D01*
X15778000Y-19685000D02*
X15706000Y-19613000D01*
X20278000Y-19613000D02*
X20278000Y-19566500D01*
X21796000Y-19304000D02*
X21868000Y-19376000D01*
X15706000Y-19613000D02*
X15706000Y-19566500D01*
X19697500Y-19494500D02*
X19588000Y-19494500D01*
X17810000Y-19685000D02*
X17738000Y-19613000D01*
X22288500Y-17852000D02*
X22288500Y-19431000D01*
X15016000Y-19494500D02*
X14944000Y-19566500D01*
X21724000Y-17771500D02*
X21796000Y-17843500D01*
X18500000Y-19613000D02*
X18427500Y-19685000D01*
X21868000Y-19376000D02*
X21970000Y-19376000D01*
X22042500Y-17852000D02*
X22114500Y-17780000D01*
X18572000Y-19494500D02*
X18500000Y-19566500D01*
X13589000Y-19685000D02*
X12804500Y-18900500D01*
X14000000Y-19494500D02*
X13928000Y-19566500D01*
X19516000Y-19613000D02*
X19443500Y-19685000D01*
X21550000Y-17843500D02*
X21622000Y-17771500D01*
X17230000Y-19566500D02*
X17157500Y-19494500D01*
X17665500Y-19494500D02*
X17556000Y-19494500D01*
X19842000Y-19685000D02*
X19770000Y-19613000D01*
X15706000Y-19566500D02*
X15633500Y-19494500D01*
X16395500Y-19685000D02*
X16286000Y-19685000D01*
X21145500Y-18224500D02*
X21145500Y-19113500D01*
X22114500Y-17780000D02*
X22216500Y-17780000D01*
X15379500Y-19685000D02*
X15270000Y-19685000D01*
X19588000Y-19494500D02*
X19516000Y-19566500D01*
X16540000Y-19494500D02*
X16468000Y-19566500D01*
X13855500Y-19685000D02*
X13589000Y-19685000D01*
X16468000Y-19566500D02*
X16468000Y-19613000D01*
X17738000Y-19566500D02*
X17665500Y-19494500D01*
X19443500Y-19685000D02*
X19334000Y-19685000D01*
X21145500Y-19113500D02*
X21217500Y-19185500D01*
X14944000Y-19613000D02*
X14871500Y-19685000D01*
X15960000Y-19566500D02*
X15960000Y-19613000D01*
X17484000Y-19566500D02*
X17484000Y-19613000D01*
X19262000Y-19566500D02*
X19189500Y-19494500D01*
X21622000Y-17771500D02*
X21724000Y-17771500D01*
X16468000Y-19613000D02*
X16395500Y-19685000D01*
X17738000Y-19613000D02*
X17738000Y-19566500D01*
X20096000Y-19494500D02*
X20024000Y-19566500D01*
X19516000Y-19566500D02*
X19516000Y-19613000D01*
X15633500Y-19494500D02*
X15524000Y-19494500D01*
X16903500Y-19685000D02*
X16794000Y-19685000D01*
X16649500Y-19494500D02*
X16540000Y-19494500D01*
X13928000Y-19613000D02*
X13855500Y-19685000D01*
X14436000Y-19613000D02*
X14363500Y-19685000D01*
X21463000Y-19185500D02*
X21550000Y-19099000D01*
X19080000Y-19494500D02*
X19008000Y-19566500D01*
X16214000Y-19613000D02*
X16214000Y-19566500D01*
X15887500Y-19685000D02*
X15778000Y-19685000D01*
X14690000Y-19566500D02*
X14617500Y-19494500D01*
X15198000Y-19566500D02*
X15125500Y-19494500D01*
X12804500Y-18900500D02*
X10452000Y-18900500D01*
X16794000Y-19685000D02*
X16722000Y-19613000D01*
X16976000Y-19566500D02*
X16976000Y-19613000D01*
X20350000Y-19685000D02*
X20278000Y-19613000D01*
X14254000Y-19685000D02*
X14182000Y-19613000D01*
X19262000Y-19613000D02*
X19262000Y-19566500D01*
X14617500Y-19494500D02*
X14508000Y-19494500D01*
X16032000Y-19494500D02*
X15960000Y-19566500D01*
X17230000Y-19613000D02*
X17230000Y-19566500D01*
X16286000Y-19685000D02*
X16214000Y-19613000D01*
X17411500Y-19685000D02*
X17302000Y-19685000D01*
X16214000Y-19566500D02*
X16141500Y-19494500D01*
X14109500Y-19494500D02*
X14000000Y-19494500D01*
X13928000Y-19566500D02*
X13928000Y-19613000D01*
X19770000Y-19613000D02*
X19770000Y-19566500D01*
X14871500Y-19685000D02*
X14762000Y-19685000D01*
X16976000Y-19613000D02*
X16903500Y-19685000D01*
X16722000Y-19566500D02*
X16649500Y-19494500D01*
X20024000Y-19613000D02*
X19951500Y-19685000D01*
X14182000Y-19613000D02*
X14182000Y-19566500D01*
X17556000Y-19494500D02*
X17484000Y-19566500D01*
X14436000Y-19566500D02*
X14436000Y-19613000D01*
X21550000Y-19099000D02*
X21550000Y-17843500D01*
X19008000Y-19613000D02*
X18935500Y-19685000D01*
X22042500Y-19304000D02*
X22042500Y-17852000D01*
X18935500Y-19685000D02*
X18826000Y-19685000D01*
X18754000Y-19566500D02*
X18681500Y-19494500D01*
X14363500Y-19685000D02*
X14254000Y-19685000D01*
X17992000Y-19613000D02*
X17919500Y-19685000D01*
X15270000Y-19685000D02*
X15198000Y-19613000D01*
X17919500Y-19685000D02*
X17810000Y-19685000D01*
X17302000Y-19685000D02*
X17230000Y-19613000D01*
X22216500Y-17780000D02*
X22288500Y-17852000D01*
X18427500Y-19685000D02*
X18318000Y-19685000D01*
X20024000Y-19566500D02*
X20024000Y-19613000D01*
X18246000Y-19613000D02*
X18246000Y-19566500D01*
X19951500Y-19685000D02*
X19842000Y-19685000D01*
X19008000Y-19566500D02*
X19008000Y-19613000D01*
X18826000Y-19685000D02*
X18754000Y-19613000D01*
X18173500Y-19494500D02*
X18064000Y-19494500D01*
X15524000Y-19494500D02*
X15452000Y-19566500D01*
X14762000Y-19685000D02*
X14690000Y-19613000D01*
X16141500Y-19494500D02*
X16032000Y-19494500D01*
X14182000Y-19566500D02*
X14109500Y-19494500D01*
X17484000Y-19613000D02*
X17411500Y-19685000D01*
X14508000Y-19494500D02*
X14436000Y-19566500D01*
X19334000Y-19685000D02*
X19262000Y-19613000D01*
%TO.N,FPGA_D12*%
X12908000Y-18594500D02*
X12908000Y-18472500D01*
X12908000Y-18472500D02*
X12980500Y-18400500D01*
X15487000Y-18343000D02*
X15589000Y-18343000D01*
X14685500Y-18415000D02*
X14685500Y-19177000D01*
X13700500Y-19177000D02*
X13772500Y-19249000D01*
X12654000Y-18472500D02*
X12654000Y-18594500D01*
X11638000Y-18594500D02*
X11710500Y-18666500D01*
X14994500Y-18343000D02*
X15096500Y-18343000D01*
X13628500Y-18343000D02*
X13700500Y-18415000D01*
X14922500Y-19177000D02*
X14922500Y-18415000D01*
X12400000Y-18594500D02*
X12400000Y-18472500D01*
X11820000Y-18666500D02*
X11892000Y-18594500D01*
X11566000Y-18400500D02*
X11638000Y-18472500D01*
X14439000Y-18415000D02*
X14511500Y-18343000D01*
X13874500Y-19249000D02*
X13946500Y-19177000D01*
X16637000Y-19177000D02*
X16709000Y-19249000D01*
X16709000Y-19249000D02*
X19994000Y-19249000D01*
X16153500Y-18415000D02*
X16153500Y-19177000D01*
X13454000Y-18415000D02*
X13526500Y-18343000D01*
X14853000Y-19246500D02*
X14922500Y-19177000D01*
X13946500Y-19177000D02*
X13946500Y-18415000D01*
X12400000Y-18472500D02*
X12472500Y-18400500D01*
X13946500Y-18415000D02*
X14019000Y-18343000D01*
X14613500Y-18343000D02*
X14685500Y-18415000D01*
X12582000Y-18400500D02*
X12654000Y-18472500D01*
X15343000Y-19249000D02*
X15415000Y-19177000D01*
X11638000Y-18472500D02*
X11638000Y-18594500D01*
X15415000Y-19177000D02*
X15415000Y-18415000D01*
X15096500Y-18343000D02*
X15168500Y-18415000D01*
X16469500Y-18345500D02*
X16567500Y-18345500D01*
X15907500Y-19177000D02*
X15907500Y-18415000D01*
X11892000Y-18594500D02*
X11892000Y-18472500D01*
X14265000Y-19249000D02*
X14367000Y-19249000D01*
X15168500Y-19177000D02*
X15241000Y-19249000D01*
X19994000Y-19249000D02*
X20510500Y-18732500D01*
X13352000Y-18663500D02*
X13454000Y-18561500D01*
X14193000Y-19177000D02*
X14265000Y-19249000D01*
X12726500Y-18666500D02*
X12836000Y-18666500D01*
X12836000Y-18666500D02*
X12908000Y-18594500D01*
X12146000Y-18594500D02*
X12218500Y-18666500D01*
X14367000Y-19249000D02*
X14439000Y-19177000D01*
X15415000Y-18415000D02*
X15487000Y-18343000D01*
X11964500Y-18400500D02*
X12074000Y-18400500D01*
X15661000Y-18415000D02*
X15661000Y-19177000D01*
X13090000Y-18400500D02*
X13162000Y-18472500D01*
X13772500Y-19249000D02*
X13874500Y-19249000D01*
X12654000Y-18594500D02*
X12726500Y-18666500D01*
X16226000Y-19249000D02*
X16328000Y-19249000D01*
X15979500Y-18343000D02*
X16081500Y-18343000D01*
X16153500Y-19177000D02*
X16226000Y-19249000D01*
X14439000Y-19177000D02*
X14439000Y-18415000D01*
X14511500Y-18343000D02*
X14613500Y-18343000D01*
X14922500Y-18415000D02*
X14994500Y-18343000D01*
X16637000Y-18415000D02*
X16637000Y-19177000D01*
X16400000Y-19177000D02*
X16400000Y-18415000D01*
X15241000Y-19249000D02*
X15343000Y-19249000D01*
X13526500Y-18343000D02*
X13628500Y-18343000D01*
X11710500Y-18666500D02*
X11820000Y-18666500D01*
X15589000Y-18343000D02*
X15661000Y-18415000D01*
X14193000Y-18415000D02*
X14193000Y-19177000D01*
X12218500Y-18666500D02*
X12328000Y-18666500D01*
X16567500Y-18345500D02*
X16637000Y-18415000D01*
X12328000Y-18666500D02*
X12400000Y-18594500D01*
X15733500Y-19249000D02*
X15835500Y-19249000D01*
X16081500Y-18343000D02*
X16153500Y-18415000D01*
X14755000Y-19246500D02*
X14853000Y-19246500D01*
X12074000Y-18400500D02*
X12146000Y-18472500D01*
X13234500Y-18663500D02*
X13352000Y-18663500D01*
X15907500Y-18415000D02*
X15979500Y-18343000D01*
X12472500Y-18400500D02*
X12582000Y-18400500D01*
X10452000Y-18400500D02*
X11566000Y-18400500D01*
X14685500Y-19177000D02*
X14755000Y-19246500D01*
X11892000Y-18472500D02*
X11964500Y-18400500D01*
X16328000Y-19249000D02*
X16400000Y-19177000D01*
X15835500Y-19249000D02*
X15907500Y-19177000D01*
X14019000Y-18343000D02*
X14121000Y-18343000D01*
X12146000Y-18472500D02*
X12146000Y-18594500D01*
X13700500Y-18415000D02*
X13700500Y-19177000D01*
X12980500Y-18400500D02*
X13090000Y-18400500D01*
X13162000Y-18472500D02*
X13162000Y-18591000D01*
X13454000Y-18561500D02*
X13454000Y-18415000D01*
X13162000Y-18591000D02*
X13234500Y-18663500D01*
X15168500Y-18415000D02*
X15168500Y-19177000D01*
X16400000Y-18415000D02*
X16469500Y-18345500D01*
X15661000Y-19177000D02*
X15733500Y-19249000D01*
X14121000Y-18343000D02*
X14193000Y-18415000D01*
X20510500Y-18732500D02*
X20510500Y-17780000D01*
%TO.N,FPGA_D11*%
X18678000Y-18986500D02*
X18678000Y-18415000D01*
X11631000Y-18173500D02*
X11703000Y-18101500D01*
X17447000Y-18986500D02*
X17505500Y-19045000D01*
X19685000Y-18732500D02*
X19883000Y-18534500D01*
X12973000Y-17972500D02*
X12973000Y-18101500D01*
X12465000Y-17972500D02*
X12465000Y-18101500D01*
X18923000Y-18986500D02*
X18981500Y-19045000D01*
X15839000Y-17900500D02*
X15949000Y-17900500D01*
X18127000Y-19045000D02*
X18185500Y-18986500D01*
X16954500Y-18986500D02*
X17013000Y-19045000D01*
X15259000Y-17972500D02*
X15331000Y-17900500D01*
X12139000Y-18173500D02*
X12211000Y-18101500D01*
X18432000Y-18986500D02*
X18490500Y-19045000D01*
X12211000Y-17972500D02*
X12283000Y-17900500D01*
X13917000Y-17900500D02*
X13989000Y-17972500D01*
X18490500Y-19045000D02*
X18619500Y-19045000D01*
X17867500Y-17898500D02*
X17939500Y-17970500D01*
X13409000Y-17900500D02*
X13481000Y-17972500D01*
X18432000Y-17970500D02*
X18432000Y-18986500D01*
X15187000Y-18109000D02*
X15259000Y-18037000D01*
X18981500Y-19045000D02*
X19110500Y-19045000D01*
X12393000Y-17900500D02*
X12465000Y-17972500D01*
X14751000Y-18037000D02*
X14751000Y-17972500D01*
X17505500Y-19045000D02*
X17634500Y-19045000D01*
X17273000Y-17898500D02*
X17375000Y-17898500D01*
X15513000Y-17972500D02*
X15513000Y-18037000D01*
X17693000Y-18986500D02*
X17693000Y-17970500D01*
X19249000Y-18343000D02*
X19351000Y-18343000D01*
X13989000Y-18037000D02*
X14061000Y-18109000D01*
X17634500Y-19045000D02*
X17693000Y-18986500D01*
X12211000Y-18101500D02*
X12211000Y-17972500D01*
X19431000Y-18423000D02*
X19431000Y-18986500D01*
X17200500Y-17970500D02*
X17273000Y-17898500D01*
X15077000Y-18109000D02*
X15187000Y-18109000D01*
X12719000Y-18101500D02*
X12719000Y-17972500D01*
X19177000Y-18415000D02*
X19249000Y-18343000D01*
X19883000Y-18534500D02*
X19883000Y-18224500D01*
X13807000Y-17900500D02*
X13917000Y-17900500D01*
X13227000Y-18101500D02*
X13227000Y-17972500D01*
X19177000Y-18978500D02*
X19177000Y-18415000D01*
X19351000Y-18343000D02*
X19431000Y-18423000D01*
X12283000Y-17900500D02*
X12393000Y-17900500D01*
X13735000Y-18037000D02*
X13735000Y-17972500D01*
X12647000Y-18173500D02*
X12719000Y-18101500D01*
X19618500Y-19045000D02*
X19685000Y-18978500D01*
X17013000Y-19045000D02*
X17142000Y-19045000D01*
X11703000Y-18101500D02*
X11703000Y-17972500D01*
X16954500Y-18097500D02*
X16954500Y-18986500D01*
X11775000Y-17900500D02*
X11885000Y-17900500D01*
X13045000Y-18173500D02*
X13155000Y-18173500D01*
X18185500Y-17970500D02*
X18258000Y-17898500D01*
X15767000Y-17972500D02*
X15839000Y-17900500D01*
X13481000Y-17972500D02*
X13481000Y-18037000D01*
X14171000Y-18109000D02*
X14243000Y-18037000D01*
X13299000Y-17900500D02*
X13409000Y-17900500D01*
X15585000Y-18109000D02*
X15695000Y-18109000D01*
X16203000Y-18109000D02*
X16275000Y-18037000D01*
X18185500Y-18986500D02*
X18185500Y-17970500D01*
X19489500Y-19045000D02*
X19618500Y-19045000D01*
X12465000Y-18101500D02*
X12537000Y-18173500D01*
X13227000Y-17972500D02*
X13299000Y-17900500D01*
X14243000Y-18037000D02*
X14243000Y-17972500D01*
X12719000Y-17972500D02*
X12791000Y-17900500D01*
X15005000Y-17972500D02*
X15005000Y-18037000D01*
X16021000Y-18037000D02*
X16093000Y-18109000D01*
X17447000Y-17970500D02*
X17447000Y-18986500D01*
X13155000Y-18173500D02*
X13227000Y-18101500D01*
X11449000Y-17972500D02*
X11449000Y-18101500D01*
X14497000Y-18037000D02*
X14569000Y-18109000D01*
X14061000Y-18109000D02*
X14171000Y-18109000D01*
X17200500Y-18986500D02*
X17200500Y-17970500D01*
X13989000Y-17972500D02*
X13989000Y-18037000D01*
X14425000Y-17900500D02*
X14497000Y-17972500D01*
X13735000Y-17972500D02*
X13807000Y-17900500D01*
X17142000Y-19045000D02*
X17200500Y-18986500D01*
X14933000Y-17900500D02*
X15005000Y-17972500D01*
X13553000Y-18109000D02*
X13663000Y-18109000D01*
X12029000Y-18173500D02*
X12139000Y-18173500D01*
X11449000Y-18101500D02*
X11521000Y-18173500D01*
X14569000Y-18109000D02*
X14679000Y-18109000D01*
X14823000Y-17900500D02*
X14933000Y-17900500D01*
X12901000Y-17900500D02*
X12973000Y-17972500D01*
X12791000Y-17900500D02*
X12901000Y-17900500D01*
X11957000Y-17972500D02*
X11957000Y-18101500D01*
X10452000Y-17900500D02*
X11377000Y-17900500D01*
X18258000Y-17898500D02*
X18360000Y-17898500D01*
X17939500Y-18986500D02*
X17998000Y-19045000D01*
X15767000Y-18037000D02*
X15767000Y-17972500D01*
X16757500Y-17900500D02*
X16954500Y-18097500D01*
X11377000Y-17900500D02*
X11449000Y-17972500D01*
X18360000Y-17898500D02*
X18432000Y-17970500D01*
X16275000Y-18037000D02*
X16275000Y-17972500D01*
X11885000Y-17900500D02*
X11957000Y-17972500D01*
X12537000Y-18173500D02*
X12647000Y-18173500D01*
X15005000Y-18037000D02*
X15077000Y-18109000D01*
X11957000Y-18101500D02*
X12029000Y-18173500D01*
X17765500Y-17898500D02*
X17867500Y-17898500D01*
X18923000Y-18415000D02*
X18923000Y-18986500D01*
X16275000Y-17972500D02*
X16347000Y-17900500D01*
X15513000Y-18037000D02*
X15585000Y-18109000D01*
X14497000Y-17972500D02*
X14497000Y-18037000D01*
X14315000Y-17900500D02*
X14425000Y-17900500D01*
X16093000Y-18109000D02*
X16203000Y-18109000D01*
X13663000Y-18109000D02*
X13735000Y-18037000D01*
X15331000Y-17900500D02*
X15441000Y-17900500D01*
X13481000Y-18037000D02*
X13553000Y-18109000D01*
X15949000Y-17900500D02*
X16021000Y-17972500D01*
X19110500Y-19045000D02*
X19177000Y-18978500D01*
X18678000Y-18415000D02*
X18750000Y-18343500D01*
X14243000Y-17972500D02*
X14315000Y-17900500D01*
X15259000Y-18037000D02*
X15259000Y-17972500D01*
X14679000Y-18109000D02*
X14751000Y-18037000D01*
X15695000Y-18109000D02*
X15767000Y-18037000D01*
X11521000Y-18173500D02*
X11631000Y-18173500D01*
X19431000Y-18986500D02*
X19489500Y-19045000D01*
X17939500Y-17970500D02*
X17939500Y-18986500D01*
X17998000Y-19045000D02*
X18127000Y-19045000D01*
X17375000Y-17898500D02*
X17447000Y-17970500D01*
X12973000Y-18101500D02*
X13045000Y-18173500D01*
X18750000Y-18343500D02*
X18851500Y-18343500D01*
X14751000Y-17972500D02*
X14823000Y-17900500D01*
X18619500Y-19045000D02*
X18678000Y-18986500D01*
X18851500Y-18343500D02*
X18923000Y-18415000D01*
X11703000Y-17972500D02*
X11775000Y-17900500D01*
X15441000Y-17900500D02*
X15513000Y-17972500D01*
X17693000Y-17970500D02*
X17765500Y-17898500D01*
X16347000Y-17900500D02*
X16757500Y-17900500D01*
X19685000Y-18978500D02*
X19685000Y-18732500D01*
X16021000Y-17972500D02*
X16021000Y-18037000D01*
%TO.N,FPGA_D10*%
X15682000Y-16994000D02*
X15754000Y-17066000D01*
X15371000Y-17384500D02*
X15371000Y-17486500D01*
X18931500Y-17240000D02*
X18859500Y-17312000D01*
X15443000Y-17558500D02*
X19019000Y-17558500D01*
X19019000Y-17558500D02*
X19240500Y-17780000D01*
X18859500Y-16819500D02*
X15754000Y-16819500D01*
X15443000Y-17312000D02*
X15371000Y-17384500D01*
X18931500Y-16747500D02*
X18859500Y-16819500D01*
X14857500Y-17400500D02*
X15684500Y-16573500D01*
X15754000Y-16819500D02*
X15682000Y-16892000D01*
X15754000Y-17066000D02*
X18859500Y-17066000D01*
X18859500Y-16573500D02*
X18931500Y-16645500D01*
X18931500Y-17138000D02*
X18931500Y-17240000D01*
X18859500Y-17312000D02*
X15443000Y-17312000D01*
X18859500Y-17066000D02*
X18931500Y-17138000D01*
X18931500Y-16645500D02*
X18931500Y-16747500D01*
X10452000Y-17400500D02*
X14857500Y-17400500D01*
X15682000Y-16892000D02*
X15682000Y-16994000D01*
X15684500Y-16573500D02*
X18859500Y-16573500D01*
X15371000Y-17486500D02*
X15443000Y-17558500D01*
%TO.N,FPGA_D9*%
X18859500Y-16319500D02*
X18931500Y-16247500D01*
X15621000Y-15827000D02*
X18653500Y-15827000D01*
X14740500Y-17009500D02*
X14740500Y-16907500D01*
X18653500Y-15827000D02*
X18923000Y-15557500D01*
X18923000Y-15557500D02*
X18923000Y-15169500D01*
X18859500Y-16073500D02*
X15621000Y-16073500D01*
X14740500Y-16907500D02*
X14668500Y-16835500D01*
X15549000Y-16001000D02*
X15549000Y-15899000D01*
X15621000Y-16073500D02*
X15549000Y-16001000D01*
X11747500Y-16589000D02*
X15224500Y-16589000D01*
X18931500Y-16145500D02*
X18859500Y-16073500D01*
X11675500Y-16763000D02*
X11675500Y-16661000D01*
X14668500Y-17081500D02*
X14740500Y-17009500D01*
X15494000Y-16319500D02*
X18859500Y-16319500D01*
X15549000Y-15899000D02*
X15621000Y-15827000D01*
X14668500Y-16835500D02*
X11747500Y-16835500D01*
X11747500Y-16835500D02*
X11675500Y-16763000D01*
X11675500Y-16661000D02*
X11747500Y-16589000D01*
X11684000Y-17081500D02*
X14668500Y-17081500D01*
X18923000Y-15169500D02*
X18577000Y-14824000D01*
X10452000Y-16900500D02*
X11503000Y-16900500D01*
X11503000Y-16900500D02*
X11684000Y-17081500D01*
X15224500Y-16589000D02*
X15494000Y-16319500D01*
X18931500Y-16247500D02*
X18931500Y-16145500D01*
%TO.N,FPGA_D8*%
X15176500Y-14572500D02*
X17335500Y-14572500D01*
X15049500Y-16319500D02*
X15303500Y-16065500D01*
X17407500Y-14500500D02*
X17407500Y-14398500D01*
X15104500Y-14746500D02*
X15104500Y-14644500D01*
X15405500Y-15557500D02*
X17335500Y-15557500D01*
X15176500Y-15065000D02*
X17335500Y-15065000D01*
X17407500Y-15485500D02*
X17407500Y-15383500D01*
X17335500Y-14572500D02*
X17407500Y-14500500D01*
X15248500Y-14080000D02*
X17509000Y-14080000D01*
X17335500Y-14326500D02*
X15248500Y-14326500D01*
X17933000Y-14504000D02*
X17933000Y-15176500D01*
X11620500Y-16319500D02*
X15049500Y-16319500D01*
X15176500Y-14254000D02*
X15176500Y-14152000D01*
X17407500Y-15383500D02*
X17335500Y-15311500D01*
X17509000Y-14080000D02*
X17933000Y-14504000D01*
X17407500Y-14398500D02*
X17335500Y-14326500D01*
X15104500Y-14644500D02*
X15176500Y-14572500D01*
X15104500Y-15239000D02*
X15104500Y-15137000D01*
X17407500Y-14993000D02*
X17407500Y-14891000D01*
X15303500Y-15659500D02*
X15405500Y-15557500D01*
X15303500Y-16065500D02*
X15303500Y-15659500D01*
X10452000Y-16400500D02*
X11539500Y-16400500D01*
X17335500Y-15065000D02*
X17407500Y-14993000D01*
X15104500Y-15137000D02*
X15176500Y-15065000D01*
X15248500Y-14326500D02*
X15176500Y-14254000D01*
X11539500Y-16400500D02*
X11620500Y-16319500D01*
X15176500Y-15311500D02*
X15104500Y-15239000D01*
X17335500Y-15557500D02*
X17407500Y-15485500D01*
X17407500Y-14891000D02*
X17335500Y-14819000D01*
X15176500Y-14152000D02*
X15248500Y-14080000D01*
X17335500Y-14819000D02*
X15176500Y-14819000D01*
X15176500Y-14819000D02*
X15104500Y-14746500D01*
X17335500Y-15311500D02*
X15176500Y-15311500D01*
%TO.N,FPGA_D0*%
X6939500Y-17399000D02*
X5524500Y-17399000D01*
X6949000Y-17389500D02*
X6939500Y-17399000D01*
%TO.N,FPGA_D1*%
X6949000Y-17889500D02*
X4826000Y-17889500D01*
%TO.N,FPGA_D2*%
X6949000Y-18389500D02*
X5524500Y-18389500D01*
%TO.N,FPGA_D3*%
X6949000Y-18889500D02*
X4826000Y-18889500D01*
%TO.N,FPGA_D4*%
X6927000Y-19367500D02*
X5524500Y-19367500D01*
X6949000Y-19389500D02*
X6927000Y-19367500D01*
%TO.N,FPGA_D5*%
X6949000Y-19889500D02*
X4826000Y-19889500D01*
%TO.N,FPGA_D6*%
X6949000Y-20389500D02*
X5524500Y-20389500D01*
%TO.N,FPGA_D7*%
X7894500Y-20889500D02*
X8323000Y-20460500D01*
X6949000Y-20889500D02*
X7894500Y-20889500D01*
%TO.N,FPGA_IO3*%
X6949000Y-21389500D02*
X8064500Y-21389500D01*
D33*
%TO.N,FPGA_TXD*%
X4859500Y-21291000D02*
X4878000Y-21272500D01*
X6949000Y-22389500D02*
X5042000Y-22389500D01*
X5042000Y-22389500D02*
X4859500Y-22206500D01*
X4859500Y-21929500D02*
X4859500Y-21291000D01*
X4859500Y-22206500D02*
X4859500Y-21929500D01*
%TO.N,FPGA_RXD*%
X4878000Y-23114000D02*
X4859500Y-23095500D01*
X4878000Y-24066500D02*
X4878000Y-23114000D01*
X5065500Y-22889500D02*
X6949000Y-22889500D01*
X4859500Y-23095500D02*
X5065500Y-22889500D01*
D32*
%TO.N,FPGA_TCK*%
X5143500Y-3810000D02*
X20320000Y-3810000D01*
X2032000Y-24638000D02*
X1714500Y-24320500D01*
X5461000Y-23749000D02*
X5461000Y-24384000D01*
X5461000Y-24384000D02*
X5207000Y-24638000D01*
X1714500Y-24320500D02*
X1714500Y-7239000D01*
X5207000Y-24638000D02*
X2032000Y-24638000D01*
X6949000Y-23389500D02*
X5820500Y-23389500D01*
X5820500Y-23389500D02*
X5461000Y-23749000D01*
X1714500Y-7239000D02*
X5143500Y-3810000D01*
%TO.N,FPGA_TDO*%
X5143500Y-3238500D02*
X20942500Y-3238500D01*
X1333500Y-7048500D02*
X5143500Y-3238500D01*
X5461000Y-24892000D02*
X1778000Y-24892000D01*
X6949000Y-23889500D02*
X6057500Y-23889500D01*
X5821000Y-24126000D02*
X5821000Y-24532000D01*
X1333500Y-24447500D02*
X1333500Y-7048500D01*
X5821000Y-24532000D02*
X5461000Y-24892000D01*
X6057500Y-23889500D02*
X5821000Y-24126000D01*
X1778000Y-24892000D02*
X1333500Y-24447500D01*
%TO.N,FPGA_TDI*%
X6948000Y-24889000D02*
X5969000Y-24889000D01*
X1524000Y-25146000D02*
X952500Y-24574500D01*
X5969000Y-24889000D02*
X5712000Y-25146000D01*
X952500Y-6858000D02*
X5143500Y-2667000D01*
X5712000Y-25146000D02*
X1524000Y-25146000D01*
X5143500Y-2667000D02*
X21526500Y-2667000D01*
X952500Y-24574500D02*
X952500Y-6858000D01*
%TO.N,FPGA_TMS*%
X571500Y-24701500D02*
X1261000Y-25391000D01*
X5143500Y-2095500D02*
X571500Y-6667500D01*
X1261000Y-25391000D02*
X6949000Y-25391000D01*
X571500Y-6667500D02*
X571500Y-24701500D01*
X22161500Y-2095500D02*
X5143500Y-2095500D01*
D33*
%TO.N,GND*%
X6982000Y-21922500D02*
X8763000Y-21922500D01*
X6949000Y-21889500D02*
X6982000Y-21922500D01*
D32*
%TO.N,$1N3421*%
X8447000Y-35714500D02*
X7518000Y-36643500D01*
X9949000Y-32611500D02*
X10149000Y-32411500D01*
X8933000Y-35714500D02*
X8447000Y-35714500D01*
X9080500Y-33591500D02*
X9080500Y-35567000D01*
X9949000Y-32723000D02*
X9080500Y-33591500D01*
X10149000Y-32411500D02*
X11493500Y-32411500D01*
X9949000Y-32611500D02*
X9949000Y-32723000D01*
X9080500Y-35567000D02*
X8933000Y-35714500D01*
%TO.N,$1N3429*%
X6604000Y-35152500D02*
X6604000Y-35179000D01*
X6604000Y-35089000D02*
X7971500Y-35089000D01*
X6858000Y-35433000D02*
X6858000Y-36639500D01*
X6604000Y-35179000D02*
X6858000Y-35433000D01*
X7971500Y-35089000D02*
X8249000Y-34811500D01*
X6540500Y-35089000D02*
X6604000Y-35152500D01*
D34*
%TO.N,3V3*%
X13450500Y-12382500D02*
X14160500Y-12382500D01*
X3746500Y-34544000D02*
X4725500Y-34544000D01*
X18213000Y-12382500D02*
X18859500Y-12382500D01*
X1524000Y-31851000D02*
X1524000Y-30924500D01*
X29321500Y-24622500D02*
X29337000Y-24638000D01*
X29337000Y-24638000D02*
X30289500Y-23685500D01*
X29780000Y-19939000D02*
X29780000Y-19220500D01*
X25388500Y-12382500D02*
X26162000Y-12382500D01*
D35*
X11288000Y-30226000D02*
X8190500Y-30226000D01*
X11317000Y-31331000D02*
X11317000Y-31420500D01*
D36*
X24257000Y-25206000D02*
X23941500Y-24890500D01*
D32*
X29337000Y-23420000D02*
X30286000Y-23420000D01*
D34*
X29780000Y-19220500D02*
X28892500Y-18333000D01*
X30289500Y-20448500D02*
X29780000Y-19939000D01*
D35*
X11288000Y-30226000D02*
X11299500Y-30237500D01*
D34*
X30237500Y-26225500D02*
X30936000Y-26225500D01*
D35*
X11299500Y-31313500D02*
X11317000Y-31331000D01*
D34*
X28067000Y-24622500D02*
X29321500Y-24622500D01*
X30289500Y-23685500D02*
X30289500Y-23423500D01*
D32*
X30286000Y-23420000D02*
X30289500Y-23423500D01*
D35*
X11288000Y-30226000D02*
X14287500Y-30226000D01*
D34*
X28892500Y-18333000D02*
X28892500Y-17956000D01*
X30289500Y-23423500D02*
X30289500Y-20448500D01*
D36*
X23941500Y-24890500D02*
X22415500Y-24890500D01*
D35*
X8190500Y-30226000D02*
X7136000Y-31280500D01*
D34*
X4725500Y-34544000D02*
X4762500Y-34507000D01*
D35*
X11299500Y-30237500D02*
X11299500Y-31313500D01*
D32*
%TO.N,$1N4042*%
X25843000Y-24201500D02*
X25527000Y-24517500D01*
X25527000Y-24517500D02*
X25527000Y-24622500D01*
X25843000Y-23101500D02*
X25843000Y-24201500D01*
%TO.N,$1N4038*%
X26797000Y-24517500D02*
X26797000Y-24622500D01*
X26503000Y-23101500D02*
X26503000Y-24223000D01*
X26503000Y-24223000D02*
X26797000Y-24517500D01*
%TO.N,$1N5374*%
X10425500Y-37095500D02*
X9874500Y-36544500D01*
X10425500Y-37211000D02*
X10425500Y-37095500D01*
%TO.N,$1N4130*%
X24257000Y-31446500D02*
X24224000Y-31479500D01*
X24257000Y-29987500D02*
X24257000Y-31446500D01*
%TO.N,DP_SERIAL*%
X28067000Y-29882500D02*
X28067000Y-29987500D01*
X21590000Y-31454500D02*
X21590000Y-30121000D01*
X20082500Y-31874500D02*
X21170000Y-31874500D01*
X23050500Y-29486000D02*
X23050500Y-28978000D01*
X26902000Y-28067000D02*
X27559000Y-28724000D01*
X23050500Y-28978000D02*
X23961500Y-28067000D01*
X20031500Y-31679000D02*
X20031500Y-31823500D01*
X21170000Y-31874500D02*
X21590000Y-31454500D01*
X20031500Y-31823500D02*
X20082500Y-31874500D01*
X27846000Y-29661500D02*
X28067000Y-29882500D01*
X21590000Y-30121000D02*
X21811000Y-29900000D01*
X23961500Y-28067000D02*
X26902000Y-28067000D01*
X27629500Y-29661500D02*
X27846000Y-29661500D01*
X27559000Y-28724000D02*
X27559000Y-29591000D01*
X20213500Y-31497500D02*
X20031500Y-31679000D01*
X20213500Y-30950000D02*
X20213500Y-31497500D01*
X27559000Y-29591000D02*
X27629500Y-29661500D01*
X21811000Y-29900000D02*
X22636500Y-29900000D01*
X22636500Y-29900000D02*
X23050500Y-29486000D01*
%TO.N,DN_SERIAL*%
X27305000Y-29591000D02*
X27234500Y-29661500D01*
X19553500Y-31491500D02*
X19756500Y-31694500D01*
X21844000Y-30226000D02*
X21916000Y-30154000D01*
X19756500Y-31694500D02*
X19756500Y-31907500D01*
X21844000Y-31559500D02*
X21844000Y-30226000D01*
X22741500Y-30154000D02*
X23304500Y-29591000D01*
X26797000Y-28321000D02*
X27305000Y-28829000D01*
X19553500Y-30951000D02*
X19553500Y-31491500D01*
X27305000Y-28829000D02*
X27305000Y-29591000D01*
X21916000Y-30154000D02*
X22741500Y-30154000D01*
X27234500Y-29661500D02*
X27018000Y-29661500D01*
X19977500Y-32128500D02*
X21275000Y-32128500D01*
X19756500Y-31907500D02*
X19977500Y-32128500D01*
X24066500Y-28321000D02*
X26797000Y-28321000D01*
X23304500Y-29591000D02*
X23304500Y-29083000D01*
X21275000Y-32128500D02*
X21844000Y-31559500D01*
X23304500Y-29083000D02*
X24066500Y-28321000D01*
X26797000Y-29882500D02*
X26797000Y-29987500D01*
X27018000Y-29661500D02*
X26797000Y-29882500D01*
%TO.N,DP_ADC*%
X15303500Y-37655500D02*
X15303500Y-31877000D01*
X15956000Y-31224500D02*
X16243000Y-31224500D01*
X16243000Y-31224500D02*
X16495000Y-30973000D01*
X13355000Y-38875000D02*
X13355000Y-38588000D01*
X15303500Y-31877000D02*
X15956000Y-31224500D01*
X13716000Y-38227000D02*
X14732000Y-38227000D01*
X14732000Y-38227000D02*
X15303500Y-37655500D01*
X13103500Y-39126500D02*
X13355000Y-38875000D01*
X13355000Y-38588000D02*
X13716000Y-38227000D01*
%TO.N,DN_ADC*%
X15049500Y-31772000D02*
X15776500Y-31045000D01*
X14627000Y-37973000D02*
X15049500Y-37550500D01*
X15049500Y-37550500D02*
X15049500Y-31772000D01*
X13611000Y-37973000D02*
X14627000Y-37973000D01*
X13175500Y-38408500D02*
X13611000Y-37973000D01*
X15776500Y-31045000D02*
X15776500Y-30758000D01*
X12636500Y-38660000D02*
X12888500Y-38408500D01*
X12888500Y-38408500D02*
X13175500Y-38408500D01*
X15776500Y-30758000D02*
X16028000Y-30506000D01*
D37*
%TO.N,+5V*%
X22640000Y-12954000D02*
X23498000Y-12954000D01*
X20924000Y-12954000D02*
X20066000Y-12954000D01*
D36*
X27305000Y-21001500D02*
X27305000Y-21780500D01*
X27305000Y-18668500D02*
X26592500Y-17956000D01*
D37*
X21782000Y-12954000D02*
X22640000Y-12954000D01*
X19696500Y-12954000D02*
X19295000Y-13355500D01*
X15038500Y-13355500D02*
X13090500Y-15303500D01*
X12319000Y-15303500D02*
X12065000Y-15557500D01*
X20924000Y-12954000D02*
X21782000Y-12954000D01*
X19295000Y-13355500D02*
X15038500Y-13355500D01*
D36*
X27305000Y-20268000D02*
X27305000Y-18668500D01*
D37*
X20066000Y-12954000D02*
X19696500Y-12954000D01*
X13090500Y-15303500D02*
X12319000Y-15303500D01*
D36*
X27305000Y-21001500D02*
X27305000Y-20273500D01*
%TO.N,3V3A*%
X32733000Y-35202000D02*
X33615500Y-35202000D01*
X27677500Y-35202000D02*
X32733000Y-35202000D01*
D35*
X9145500Y-37493000D02*
X9145500Y-38354000D01*
D36*
X37922000Y-34886000D02*
X38077000Y-34731000D01*
D35*
X8990500Y-36318000D02*
X8990500Y-37338000D01*
X8990500Y-37338000D02*
X9145500Y-37493000D01*
D36*
X36337500Y-34886000D02*
X37922000Y-34886000D01*
X33615500Y-35202000D02*
X36021500Y-35202000D01*
X36021500Y-35202000D02*
X36337500Y-34886000D01*
D35*
X8927000Y-36254500D02*
X8990500Y-36318000D01*
D32*
%TO.N,$1N5907*%
X17273500Y-35948500D02*
X17773500Y-36449000D01*
X17773500Y-36449000D02*
X18299500Y-36449000D01*
%TO.N,$1N5892*%
X17335500Y-35115500D02*
X17272000Y-35115500D01*
X18295000Y-35564000D02*
X17784000Y-35564000D01*
X17784000Y-35564000D02*
X17335500Y-35115500D01*
%TO.N,$1N5759*%
X5207000Y-32295500D02*
X5334000Y-32422500D01*
X5207000Y-29845000D02*
X5207000Y-32295500D01*
D38*
%TO.N,$1N5755*%
X4064000Y-31369000D02*
X4064000Y-32422500D01*
X3619500Y-30924500D02*
X4064000Y-31369000D01*
D33*
%TO.N,1V2A*%
X12509500Y-36957000D02*
X14351000Y-36957000D01*
X11493500Y-38671500D02*
X11493500Y-37973000D01*
X11493500Y-37973000D02*
X12509500Y-36957000D01*
X14351000Y-36957000D02*
X14592500Y-36715500D01*
X10922000Y-39243000D02*
X11493500Y-38671500D01*
X14592500Y-36715500D02*
X14592500Y-32327500D01*
X8826500Y-39243000D02*
X10922000Y-39243000D01*
D32*
%TO.N,$1N5750*%
X2603500Y-32232000D02*
X2794000Y-32422500D01*
X2603500Y-30924500D02*
X2603500Y-32232000D01*
%TO.N,$1N5608*%
X17272000Y-36766500D02*
X17843500Y-37338000D01*
X17843500Y-37338000D02*
X18187500Y-37338000D01*
%TO.N,$1N5613*%
X17806500Y-34290000D02*
X18187500Y-34671000D01*
X17272000Y-34290000D02*
X17806500Y-34290000D01*
D34*
%TO.N,$1N7724*%
X10033000Y-9893500D02*
X12522000Y-12382500D01*
X12522000Y-12382500D02*
X12584500Y-12382500D01*
D32*
%TO.N,$1N8034*%
X23114000Y-14922500D02*
X24066500Y-13970000D01*
X24066500Y-13970000D02*
X29972000Y-13970000D01*
D34*
%TO.N,$1N7857*%
X17347000Y-12382500D02*
X17347000Y-11886000D01*
%TO.N,$1N7939*%
X24522500Y-12382500D02*
X24522500Y-11874500D01*
D32*
%TO.N,$1N9790*%
X14313000Y-26543000D02*
X14671000Y-26543000D01*
X25781000Y-16680500D02*
X26078500Y-16383000D01*
X24701500Y-22606000D02*
X25781000Y-21526500D01*
X26078500Y-16383000D02*
X31496000Y-16383000D01*
X14033500Y-28015000D02*
X14033500Y-26822500D01*
X33591500Y-14287500D02*
X33591500Y-5524500D01*
X14033500Y-26822500D02*
X14313000Y-26543000D01*
X31496000Y-16383000D02*
X33591500Y-14287500D01*
X25781000Y-21526500D02*
X25781000Y-16680500D01*
X14466500Y-28448000D02*
X14033500Y-28015000D01*
X16446500Y-24767500D02*
X16446500Y-22860000D01*
X16446500Y-22860000D02*
X16700500Y-22606000D01*
X14671000Y-26543000D02*
X16446500Y-24767500D01*
X33591500Y-5524500D02*
X31432500Y-3365500D01*
X16700500Y-22606000D02*
X24701500Y-22606000D01*
%TO.N,$1N9783*%
X16065500Y-22733000D02*
X16065500Y-24309000D01*
X33210500Y-14097000D02*
X31305500Y-16002000D01*
X16065500Y-24309000D02*
X14321000Y-26053500D01*
X33210500Y-8318500D02*
X33210500Y-14097000D01*
X25463500Y-21336000D02*
X24574500Y-22225000D01*
X16573500Y-22225000D02*
X16065500Y-22733000D01*
X25463500Y-16510000D02*
X25463500Y-21336000D01*
X25971500Y-16002000D02*
X25463500Y-16510000D01*
X31305500Y-16002000D02*
X25971500Y-16002000D01*
X29337000Y-6159500D02*
X31051500Y-6159500D01*
X31051500Y-6159500D02*
X33210500Y-8318500D01*
X24574500Y-22225000D02*
X16573500Y-22225000D01*
%TO.N,$1N9780*%
X16446500Y-21844000D02*
X15684500Y-22606000D01*
X24384000Y-21844000D02*
X16446500Y-21844000D01*
X15684500Y-23801000D02*
X14321000Y-25164500D01*
X30988000Y-6667500D02*
X32829500Y-8509000D01*
X31128500Y-15607500D02*
X25858000Y-15607500D01*
X32829500Y-8509000D02*
X32829500Y-13906500D01*
X25146000Y-16319500D02*
X25146000Y-21082000D01*
X25146000Y-21082000D02*
X24384000Y-21844000D01*
X15684500Y-22606000D02*
X15684500Y-23801000D01*
X28892500Y-6667500D02*
X30988000Y-6667500D01*
X25858000Y-15607500D02*
X25146000Y-16319500D01*
X32829500Y-13906500D02*
X31128500Y-15607500D01*
%TO.N,$1N9777*%
X16319500Y-21463000D02*
X15303500Y-22479000D01*
X25717500Y-15240000D02*
X24828500Y-16129000D01*
X24828500Y-16129000D02*
X24828500Y-20891500D01*
X24257000Y-21463000D02*
X16319500Y-21463000D01*
X15303500Y-22479000D02*
X15303500Y-23293000D01*
X30924500Y-15240000D02*
X25717500Y-15240000D01*
X15303500Y-23293000D02*
X14321000Y-24275500D01*
X32448500Y-8699500D02*
X32448500Y-13716000D01*
X29337000Y-7239000D02*
X30988000Y-7239000D01*
X32448500Y-13716000D02*
X30924500Y-15240000D01*
X24828500Y-20891500D02*
X24257000Y-21463000D01*
X30988000Y-7239000D02*
X32448500Y-8699500D01*
%TO.N,$1N9774*%
X24511000Y-20701000D02*
X24511000Y-15938500D01*
X14321000Y-23386500D02*
X14922500Y-22785000D01*
X24511000Y-15938500D02*
X25590500Y-14859000D01*
X24130000Y-21082000D02*
X24511000Y-20701000D01*
X16192500Y-21082000D02*
X24130000Y-21082000D01*
X14922500Y-22352000D02*
X16192500Y-21082000D01*
X30670500Y-14859000D02*
X32067500Y-13462000D01*
X25590500Y-14859000D02*
X30670500Y-14859000D01*
X32067500Y-13462000D02*
X32067500Y-8890000D01*
X30924500Y-7747000D02*
X28892500Y-7747000D01*
X32067500Y-8890000D02*
X30924500Y-7747000D01*
X14922500Y-22785000D02*
X14922500Y-22352000D01*
%TO.N,$1N9771*%
X30416500Y-14478000D02*
X25463500Y-14478000D01*
X25463500Y-14478000D02*
X24193500Y-15748000D01*
X24193500Y-20510500D02*
X24003000Y-20701000D01*
X24193500Y-15748000D02*
X24193500Y-20510500D01*
X30924500Y-8318500D02*
X31686500Y-9080500D01*
X31686500Y-9080500D02*
X31686500Y-13208000D01*
X24003000Y-20701000D02*
X16117500Y-20701000D01*
X31686500Y-13208000D02*
X30416500Y-14478000D01*
X29337000Y-8318500D02*
X30924500Y-8318500D01*
X16117500Y-20701000D02*
X14321000Y-22497500D01*
%TO.N,$1N9591*%
X22606000Y-2879500D02*
X23326500Y-2159000D01*
X24108000Y-2159000D02*
X24638000Y-2689000D01*
X24638000Y-2896000D02*
X24841000Y-3099000D01*
X22606000Y-3683000D02*
X22606000Y-2879500D01*
X3538500Y-22638500D02*
X3331500Y-22638500D01*
X24638000Y-2689000D02*
X24638000Y-2896000D01*
X24841000Y-3099000D02*
X24841000Y-3391500D01*
X21844000Y-4445000D02*
X22606000Y-3683000D01*
X23326500Y-2159000D02*
X24108000Y-2159000D01*
X3993500Y-23094000D02*
X3538500Y-22638500D01*
X3331500Y-22638500D02*
X2159000Y-21466500D01*
X2159000Y-21466500D02*
X2159000Y-7515000D01*
X5229000Y-4445000D02*
X21844000Y-4445000D01*
X2159000Y-7515000D02*
X5229000Y-4445000D01*
%TO.N,$1N9585*%
X2667000Y-20274500D02*
X2595000Y-20202500D01*
X2485000Y-19948500D02*
X2595000Y-19948500D01*
X3538500Y-22384500D02*
X3436500Y-22384500D01*
X2595000Y-20710500D02*
X2485000Y-20710500D01*
X22860000Y-2984500D02*
X23431500Y-2413000D01*
X2413000Y-20130000D02*
X2413000Y-20020500D01*
X24181000Y-3099000D02*
X24181000Y-3391500D01*
X2595000Y-20202500D02*
X2485000Y-20202500D01*
X2485000Y-20964500D02*
X2595000Y-20964500D01*
X2667000Y-19876000D02*
X2667000Y-19766500D01*
X2413000Y-21361000D02*
X2413000Y-21036500D01*
X2413000Y-20528500D02*
X2485000Y-20456500D01*
X2413000Y-20638000D02*
X2413000Y-20528500D01*
X24384000Y-2794000D02*
X24384000Y-2896000D01*
X2485000Y-20456500D02*
X2595000Y-20456500D01*
X2595000Y-19186500D02*
X2485000Y-19186500D01*
X2595000Y-20456500D02*
X2667000Y-20384000D01*
X21949000Y-4699000D02*
X22860000Y-3788000D01*
X2485000Y-20202500D02*
X2413000Y-20130000D01*
X2595000Y-20964500D02*
X2667000Y-20892000D01*
X2595000Y-19694500D02*
X2485000Y-19694500D01*
X3436500Y-22384500D02*
X2413000Y-21361000D01*
X2485000Y-20710500D02*
X2413000Y-20638000D01*
X2667000Y-20892000D02*
X2667000Y-20782500D01*
X2413000Y-19622000D02*
X2413000Y-19512500D01*
X22860000Y-3788000D02*
X22860000Y-2984500D01*
X2485000Y-19186500D02*
X2413000Y-19114000D01*
X2595000Y-19948500D02*
X2667000Y-19876000D01*
X2485000Y-19694500D02*
X2413000Y-19622000D01*
X3993500Y-21929500D02*
X3538500Y-22384500D01*
X2667000Y-19766500D02*
X2595000Y-19694500D01*
X24003000Y-2413000D02*
X24384000Y-2794000D01*
X2667000Y-20782500D02*
X2595000Y-20710500D01*
X2413000Y-7620000D02*
X5334000Y-4699000D01*
X2413000Y-19512500D02*
X2485000Y-19440500D01*
X24384000Y-2896000D02*
X24181000Y-3099000D01*
X2485000Y-19440500D02*
X2595000Y-19440500D01*
X2667000Y-20384000D02*
X2667000Y-20274500D01*
X23431500Y-2413000D02*
X24003000Y-2413000D01*
X5334000Y-4699000D02*
X21949000Y-4699000D01*
X2413000Y-20020500D02*
X2485000Y-19948500D01*
X2667000Y-19368000D02*
X2667000Y-19258500D01*
X2667000Y-19258500D02*
X2595000Y-19186500D01*
X2413000Y-21036500D02*
X2485000Y-20964500D01*
X2413000Y-19114000D02*
X2413000Y-7620000D01*
X2595000Y-19440500D02*
X2667000Y-19368000D01*
D33*
%TO.N,FPGA_3V3*%
X7752500Y-24389500D02*
X8445500Y-25082500D01*
X6949000Y-24389500D02*
X7752500Y-24389500D01*
%TD*%
%TA.AperFunction,Conductor*%
%TO.N,GND*%
G36*
X432135Y-24993452D02*
G01*
X1040934Y-25607241D01*
X1070222Y-25634853D01*
X1141498Y-25676012D01*
X1220968Y-25697264D01*
X1261427Y-25698400D01*
X5980000Y-25698400D01*
X6038794Y-25717140D01*
X6075169Y-25742951D01*
X6159494Y-25771707D01*
X6202029Y-25773400D01*
X6380000Y-25773400D01*
X6439719Y-25792804D01*
X6476627Y-25843604D01*
X6480835Y-25887448D01*
X6472595Y-25954193D01*
X6486030Y-26086433D01*
X6531688Y-26209648D01*
X6606797Y-26317451D01*
X6707617Y-26403871D01*
X6764169Y-26433444D01*
X6822776Y-26459424D01*
X6953430Y-26484525D01*
X7084531Y-26475403D01*
X7208915Y-26432990D01*
X7319779Y-26359110D01*
X7366286Y-26310080D01*
X7421462Y-26280105D01*
X7440000Y-26278400D01*
X8508351Y-26278400D01*
X8548800Y-26277090D01*
X8628501Y-26255782D01*
X8699850Y-26214702D01*
X8729261Y-26187054D01*
X9178158Y-25738158D01*
X9234106Y-25709651D01*
X9250000Y-25708400D01*
X9485000Y-25708400D01*
X9542132Y-25725985D01*
X9579011Y-25751064D01*
X9663042Y-25780422D01*
X9703716Y-25783400D01*
X9870000Y-25783400D01*
X9929719Y-25802804D01*
X9966627Y-25853604D01*
X9966627Y-25916396D01*
X9929719Y-25967196D01*
X9924580Y-25970695D01*
X9868139Y-26006642D01*
X9773400Y-26099097D01*
X9703300Y-26209774D01*
X9660644Y-26333628D01*
X9647736Y-26464005D01*
X9665265Y-26593824D01*
X9712291Y-26716103D01*
X9787056Y-26825355D01*
X9833109Y-26869545D01*
X9882028Y-26911076D01*
X9999037Y-26974246D01*
X10126208Y-27007734D01*
X10257685Y-27010377D01*
X10386101Y-26982005D01*
X10504230Y-26924228D01*
X10605452Y-26840281D01*
X10684798Y-26733919D01*
X10712506Y-26672960D01*
X10754881Y-26626622D01*
X10816401Y-26614042D01*
X10873565Y-26640024D01*
X10876745Y-26643061D01*
X12729465Y-28490787D01*
X12774326Y-28530203D01*
X12890000Y-28578988D01*
X12948803Y-28583400D01*
X12960000Y-28583400D01*
X13019719Y-28602804D01*
X13056627Y-28653604D01*
X13061600Y-28685000D01*
X13061600Y-28695000D01*
X13042196Y-28754719D01*
X12996760Y-28789717D01*
X12933388Y-28814312D01*
X12822390Y-28889835D01*
X12735475Y-28990016D01*
X12677081Y-29109105D01*
X12651100Y-29239160D01*
X12659255Y-29371541D01*
X12701560Y-29499082D01*
X12736875Y-29557318D01*
X12751249Y-29618443D01*
X12726949Y-29676343D01*
X12684129Y-29705696D01*
X12659182Y-29714592D01*
X12612596Y-29739838D01*
X12591475Y-29755891D01*
X12532188Y-29776576D01*
X12530000Y-29776600D01*
X8191483Y-29776600D01*
X8132377Y-29778308D01*
X8017150Y-29809689D01*
X7914327Y-29870700D01*
X7871270Y-29912413D01*
X7011842Y-30771842D01*
X6975246Y-30795290D01*
X6912761Y-30818401D01*
X6802587Y-30890428D01*
X6715161Y-30986754D01*
X6654813Y-31101993D01*
X6625464Y-31228721D01*
X6628981Y-31358771D01*
X6665145Y-31483721D01*
X6732341Y-31596714D01*
X6776367Y-31642629D01*
X6822696Y-31685809D01*
X6935796Y-31751522D01*
X7060300Y-31786396D01*
X7189562Y-31788963D01*
X7315346Y-31759056D01*
X7429626Y-31698587D01*
X7525103Y-31611410D01*
X7596615Y-31501685D01*
X7619803Y-31439502D01*
X7643158Y-31403158D01*
X8208158Y-30838158D01*
X8264106Y-30809651D01*
X8326125Y-30819474D01*
X8370526Y-30863875D01*
X8381505Y-30905605D01*
X8384203Y-30967921D01*
X8414997Y-31087224D01*
X8472372Y-31194590D01*
X8553446Y-31285400D01*
X8653648Y-31354527D01*
X8767329Y-31398064D01*
X8889592Y-31413763D01*
X8949031Y-31408955D01*
X9008278Y-31400890D01*
X9124526Y-31359095D01*
X9226374Y-31291799D01*
X9309397Y-31202351D01*
X9368914Y-31095777D01*
X9401538Y-30978170D01*
X9405475Y-30854238D01*
X9394854Y-30792126D01*
X9403914Y-30729990D01*
X9447766Y-30685047D01*
X9495000Y-30673400D01*
X10750000Y-30673400D01*
X10809719Y-30692804D01*
X10846627Y-30743604D01*
X10851600Y-30775000D01*
X10851600Y-31190000D01*
X10845019Y-31225973D01*
X10823698Y-31282289D01*
X10805431Y-31399812D01*
X10815096Y-31518272D01*
X10832334Y-31575870D01*
X10830867Y-31638645D01*
X10792782Y-31688569D01*
X10732626Y-31706572D01*
X10684561Y-31693196D01*
X10653642Y-31675513D01*
X10584763Y-31656954D01*
X10549475Y-31656600D01*
X9352396Y-31656600D01*
X9312647Y-31658481D01*
X9234322Y-31684268D01*
X9168972Y-31731417D01*
X9120930Y-31796104D01*
X9094049Y-31874144D01*
X9091600Y-31913190D01*
X9091600Y-33105000D01*
X9072196Y-33164719D01*
X9060927Y-33177746D01*
X8862401Y-33371308D01*
X8835008Y-33400286D01*
X8793754Y-33471561D01*
X8772493Y-33550701D01*
X8771600Y-33591115D01*
X8771600Y-33755000D01*
X8752196Y-33814719D01*
X8701396Y-33851627D01*
X8670000Y-33856600D01*
X7652396Y-33856600D01*
X7612647Y-33858481D01*
X7534322Y-33884268D01*
X7468972Y-33931417D01*
X7420930Y-33996104D01*
X7394049Y-34074144D01*
X7391600Y-34113190D01*
X7391600Y-34680000D01*
X7372196Y-34739719D01*
X7321396Y-34776627D01*
X7290000Y-34781600D01*
X7285000Y-34781600D01*
X7225281Y-34762196D01*
X7188373Y-34711396D01*
X7187366Y-34708109D01*
X7174865Y-34664690D01*
X7127550Y-34590182D01*
X7060528Y-34535895D01*
X6977394Y-34504916D01*
X6935945Y-34501600D01*
X6396443Y-34501600D01*
X6355831Y-34502763D01*
X6277619Y-34527981D01*
X6212876Y-34575408D01*
X6166378Y-34640801D01*
X6142257Y-34719442D01*
X6141600Y-34760798D01*
X6141600Y-35548012D01*
X6143154Y-35587861D01*
X6168373Y-35665468D01*
X6215148Y-35729851D01*
X6279531Y-35776626D01*
X6357138Y-35801845D01*
X6396987Y-35803400D01*
X6450000Y-35803400D01*
X6509719Y-35822804D01*
X6546627Y-35873604D01*
X6551600Y-35905000D01*
X6551600Y-36185000D01*
X6532196Y-36244719D01*
X6520334Y-36258319D01*
X6473529Y-36303218D01*
X6402326Y-36409753D01*
X6359742Y-36529011D01*
X6347519Y-36655051D01*
X6366399Y-36780266D01*
X6415819Y-36898501D01*
X6451467Y-36949223D01*
X6489869Y-36997762D01*
X6589517Y-37078141D01*
X6704673Y-37130598D01*
X6829268Y-37152762D01*
X6955451Y-37143243D01*
X7076700Y-37102176D01*
X7131948Y-37068351D01*
X7193011Y-37053716D01*
X7238217Y-37068452D01*
X7292753Y-37101985D01*
X7412218Y-37143583D01*
X7536712Y-37154806D01*
X7660208Y-37135469D01*
X7775320Y-37086739D01*
X7875151Y-37011518D01*
X7953741Y-36914316D01*
X8006388Y-36800932D01*
X8030211Y-36676760D01*
X8028439Y-36612816D01*
X8046180Y-36552582D01*
X8058158Y-36538158D01*
X8263158Y-36333158D01*
X8319106Y-36304651D01*
X8381125Y-36314474D01*
X8425526Y-36358875D01*
X8432445Y-36376240D01*
X8447951Y-36428778D01*
X8494386Y-36528114D01*
X8524709Y-36573902D01*
X8541600Y-36630000D01*
X8541600Y-36745000D01*
X8522196Y-36804719D01*
X8487550Y-36834786D01*
X8442661Y-36858558D01*
X8374961Y-36931153D01*
X8338599Y-37023474D01*
X8336600Y-37072085D01*
X8336600Y-37608368D01*
X8337907Y-37648923D01*
X8363561Y-37727198D01*
X8412811Y-37793471D01*
X8446557Y-37819171D01*
X8482311Y-37870790D01*
X8486600Y-37900000D01*
X8486600Y-38805000D01*
X8486211Y-38805000D01*
X8490226Y-38831655D01*
X8464242Y-38884359D01*
X8420131Y-38931574D01*
X8355274Y-39041467D01*
X8319861Y-39162440D01*
X8315274Y-39288410D01*
X8341798Y-39411646D01*
X8398469Y-39525924D01*
X8439044Y-39576167D01*
X8461468Y-39634819D01*
X8445135Y-39695449D01*
X8396283Y-39734900D01*
X8360000Y-39741600D01*
X1000000Y-39741600D01*
X996684Y-39741546D01*
X912784Y-39738806D01*
X889802Y-39735398D01*
X727732Y-39691968D01*
X703235Y-39681821D01*
X557915Y-39597931D01*
X536868Y-39581782D01*
X418218Y-39463132D01*
X402069Y-39442085D01*
X318179Y-39296765D01*
X308032Y-39272268D01*
X264602Y-39110198D01*
X261194Y-39087216D01*
X258454Y-39003316D01*
X258400Y-39000000D01*
X258400Y-37692541D01*
X4123984Y-37692541D01*
X4130639Y-37750799D01*
X4140302Y-37808158D01*
X4184161Y-37920225D01*
X4251911Y-38018025D01*
X4340401Y-38097547D01*
X4446051Y-38155152D01*
X4504332Y-38172726D01*
X4530486Y-38184889D01*
X4564723Y-38207209D01*
X4642845Y-38231877D01*
X4681971Y-38233400D01*
X5478013Y-38233400D01*
X5517861Y-38231845D01*
X5595468Y-38206626D01*
X5659851Y-38159851D01*
X5706626Y-38095468D01*
X5731845Y-38017861D01*
X5733400Y-37978012D01*
X5733400Y-37082362D01*
X5731551Y-37042537D01*
X5705813Y-36964182D01*
X5658691Y-36898817D01*
X5593999Y-36850785D01*
X5516010Y-36823960D01*
X5476937Y-36821600D01*
X4681985Y-36821600D01*
X4641350Y-36823184D01*
X4562239Y-36848894D01*
X4496588Y-36896588D01*
X4448894Y-36962239D01*
X4423184Y-37041350D01*
X4421600Y-37081984D01*
X4421600Y-37155000D01*
X4402196Y-37214719D01*
X4374530Y-37240727D01*
X4322947Y-37273537D01*
X4236590Y-37357966D01*
X4173083Y-37459003D01*
X4134892Y-37572078D01*
X4123984Y-37692541D01*
X258400Y-37692541D01*
X258400Y-34721984D01*
X2051600Y-34721984D01*
X2051600Y-35258614D01*
X2052721Y-35299302D01*
X2077867Y-35377558D01*
X2125266Y-35442306D01*
X2190672Y-35488802D01*
X2269255Y-35512851D01*
X2310667Y-35513400D01*
X2750000Y-35513400D01*
X2766539Y-35514755D01*
X2811726Y-35522210D01*
X2903274Y-35522210D01*
X2948461Y-35514755D01*
X2965000Y-35513400D01*
X3098013Y-35513400D01*
X3137861Y-35511845D01*
X3215468Y-35486626D01*
X3279851Y-35439851D01*
X3326626Y-35375468D01*
X3351845Y-35297861D01*
X3353400Y-35258012D01*
X3353400Y-35135000D01*
X3355819Y-35112960D01*
X3365819Y-35067960D01*
X3397716Y-35013872D01*
X3455313Y-34988863D01*
X3509519Y-34998673D01*
X3564614Y-35025530D01*
X3683973Y-35053223D01*
X3745293Y-35053400D01*
X4240000Y-35053400D01*
X4299719Y-35072804D01*
X4306957Y-35078584D01*
X4346873Y-35113559D01*
X4444772Y-35154596D01*
X4493922Y-35158400D01*
X5033615Y-35158400D01*
X5074302Y-35157278D01*
X5152558Y-35132132D01*
X5217306Y-35084733D01*
X5263802Y-35019327D01*
X5287851Y-34940744D01*
X5288400Y-34899333D01*
X5288400Y-34111987D01*
X5286845Y-34072138D01*
X5261626Y-33994531D01*
X5214851Y-33930148D01*
X5150468Y-33883373D01*
X5072861Y-33858154D01*
X5033013Y-33856600D01*
X4492054Y-33856600D01*
X4448174Y-33858374D01*
X4363935Y-33888738D01*
X4295285Y-33945954D01*
X4270705Y-33984564D01*
X4222265Y-34024519D01*
X4185000Y-34031600D01*
X3746382Y-34031600D01*
X3680982Y-34033370D01*
X3553274Y-34066440D01*
X3439593Y-34130137D01*
X3345871Y-34220672D01*
X3277434Y-34333463D01*
X3256465Y-34396891D01*
X3219297Y-34447501D01*
X3159479Y-34466599D01*
X3151563Y-34466249D01*
X3095775Y-34461600D01*
X2311985Y-34461600D01*
X2271350Y-34463184D01*
X2192239Y-34488894D01*
X2126588Y-34536588D01*
X2078894Y-34602239D01*
X2053184Y-34681350D01*
X2051600Y-34721984D01*
X258400Y-34721984D01*
X258400Y-31646599D01*
X981523Y-31646599D01*
X981600Y-31689820D01*
X981600Y-33153491D01*
X983588Y-33220823D01*
X1016889Y-33352787D01*
X1080775Y-33471214D01*
X1171733Y-33570363D01*
X1284218Y-33644208D01*
X1411374Y-33688235D01*
X1545430Y-33699750D01*
X1678230Y-33678065D01*
X1801669Y-33624498D01*
X1908216Y-33542322D01*
X1991371Y-33436531D01*
X2046692Y-33312187D01*
X2060447Y-33244708D01*
X2091387Y-33190068D01*
X2148535Y-33164049D01*
X2210062Y-33176590D01*
X2252467Y-33222901D01*
X2259547Y-33244680D01*
X2273685Y-33313944D01*
X2331432Y-33441226D01*
X2418392Y-33548673D01*
X2529600Y-33630789D01*
X2657887Y-33682269D01*
X2795000Y-33699811D01*
X2932112Y-33682269D01*
X3060399Y-33630789D01*
X3171607Y-33548673D01*
X3258567Y-33441226D01*
X3316314Y-33313944D01*
X3330453Y-33244680D01*
X3361408Y-33190048D01*
X3418564Y-33164046D01*
X3480087Y-33176604D01*
X3522479Y-33222927D01*
X3529547Y-33244680D01*
X3543685Y-33313944D01*
X3601432Y-33441226D01*
X3688392Y-33548673D01*
X3799600Y-33630789D01*
X3927887Y-33682269D01*
X4065000Y-33699811D01*
X4202112Y-33682269D01*
X4330399Y-33630789D01*
X4441607Y-33548673D01*
X4528567Y-33441226D01*
X4586314Y-33313944D01*
X4600453Y-33244680D01*
X4631408Y-33190048D01*
X4688564Y-33164046D01*
X4750087Y-33176604D01*
X4792479Y-33222927D01*
X4799538Y-33244632D01*
X4813334Y-33312055D01*
X4868712Y-33436281D01*
X4951883Y-33541954D01*
X5058409Y-33624041D01*
X5181789Y-33677540D01*
X5314505Y-33699191D01*
X5448491Y-33687674D01*
X5575574Y-33643697D01*
X5688016Y-33569929D01*
X5778966Y-33470871D01*
X5842886Y-33352562D01*
X5876279Y-33220634D01*
X5878400Y-33153412D01*
X5878400Y-33105000D01*
X5897804Y-33045281D01*
X5948604Y-33008373D01*
X6011396Y-33008373D01*
X6030408Y-33016786D01*
X6065408Y-33036786D01*
X6107631Y-33083263D01*
X6116517Y-33129113D01*
X6113648Y-33199930D01*
X6141069Y-33337169D01*
X6203431Y-33460544D01*
X6296523Y-33562733D01*
X6413565Y-33636293D01*
X6546020Y-33675868D01*
X6684228Y-33678559D01*
X6819681Y-33643775D01*
X6879176Y-33611963D01*
X6936459Y-33576354D01*
X7034487Y-33476748D01*
X7101579Y-33356091D01*
X7134065Y-33221914D01*
X7129590Y-33083922D01*
X7088478Y-32952137D01*
X7013704Y-32836075D01*
X6909385Y-32743006D01*
X6846978Y-32709534D01*
X6803522Y-32664208D01*
X6793477Y-32616046D01*
X6796246Y-32544925D01*
X6768621Y-32407069D01*
X6706112Y-32282995D01*
X6611883Y-32178920D01*
X6555922Y-32141080D01*
X6497721Y-32107199D01*
X6363783Y-32067481D01*
X6225838Y-32065334D01*
X6090582Y-32100913D01*
X6028096Y-32134495D01*
X5966307Y-32145673D01*
X5909748Y-32118398D01*
X5880023Y-32063087D01*
X5878400Y-32045000D01*
X5878400Y-31691236D01*
X5876900Y-31630252D01*
X5849580Y-31510172D01*
X5796724Y-31400446D01*
X5720691Y-31305281D01*
X5624370Y-31228734D01*
X5568964Y-31200572D01*
X5524519Y-31156214D01*
X5513400Y-31110000D01*
X5513400Y-30300000D01*
X5532804Y-30240281D01*
X5544760Y-30226591D01*
X5595354Y-30178180D01*
X5670143Y-30061849D01*
X5710930Y-29931442D01*
X5715703Y-29794886D01*
X5684104Y-29661952D01*
X5618406Y-29542142D01*
X5523300Y-29444037D01*
X5405596Y-29374633D01*
X5272148Y-29338496D01*
X5205201Y-29336644D01*
X5138305Y-29338750D01*
X5005132Y-29375273D01*
X4887848Y-29444962D01*
X4793256Y-29543276D01*
X4728138Y-29663147D01*
X4697151Y-29796014D01*
X4702520Y-29932328D01*
X4743856Y-30062348D01*
X4819127Y-30178148D01*
X4869889Y-30226257D01*
X4899887Y-30281420D01*
X4901600Y-30300000D01*
X4901600Y-31335000D01*
X4886447Y-31388381D01*
X4855887Y-31437870D01*
X4811953Y-31545620D01*
X4799093Y-31602432D01*
X4766982Y-31656393D01*
X4709287Y-31681175D01*
X4648044Y-31667311D01*
X4606647Y-31620097D01*
X4600487Y-31600488D01*
X4584802Y-31524305D01*
X4517557Y-31386201D01*
X4414121Y-31272622D01*
X4349154Y-31229875D01*
X4324469Y-31206947D01*
X4278489Y-31147173D01*
X4158158Y-31026842D01*
X4129651Y-30970894D01*
X4128414Y-30953335D01*
X4129524Y-30885593D01*
X4101581Y-30754733D01*
X4041909Y-30636773D01*
X3954110Y-30537934D01*
X3842704Y-30463900D01*
X3782560Y-30441344D01*
X3720227Y-30422695D01*
X3585177Y-30414251D01*
X3454127Y-30440514D01*
X3334252Y-30499631D01*
X3232443Y-30588638D01*
X3192544Y-30644237D01*
X3141961Y-30681442D01*
X3079170Y-30681809D01*
X3028155Y-30645199D01*
X3027631Y-30644480D01*
X2988436Y-30590202D01*
X2889069Y-30502841D01*
X2772326Y-30443923D01*
X2643025Y-30415876D01*
X2579727Y-30416555D01*
X2516282Y-30421793D01*
X2389443Y-30461949D01*
X2278048Y-30531852D01*
X2186713Y-30628595D01*
X2152525Y-30686594D01*
X2105483Y-30728186D01*
X2042978Y-30734185D01*
X1988885Y-30702298D01*
X1977052Y-30685869D01*
X1942264Y-30625724D01*
X1847869Y-30526022D01*
X1732045Y-30455275D01*
X1601758Y-30417245D01*
X1464468Y-30414553D01*
X1399795Y-30428583D01*
X1336140Y-30446829D01*
X1216307Y-30514204D01*
X1119295Y-30609356D01*
X1050413Y-30726496D01*
X1013988Y-30859059D01*
X1011600Y-30926793D01*
X1011600Y-31490000D01*
X1007042Y-31520090D01*
X994278Y-31561255D01*
X981523Y-31646599D01*
X258400Y-31646599D01*
X258400Y-25065000D01*
X277804Y-25005281D01*
X328604Y-24968373D01*
X391396Y-24968373D01*
X432135Y-24993452D01*
G37*
%TD.AperFunction*%
%TA.AperFunction,Conductor*%
G36*
X14702918Y-37265226D02*
G01*
X14737792Y-37317444D01*
X14741600Y-37345000D01*
X14741600Y-37380000D01*
X14722196Y-37439719D01*
X14711842Y-37451842D01*
X14526842Y-37636842D01*
X14470894Y-37665349D01*
X14455000Y-37666600D01*
X13611649Y-37666600D01*
X13571199Y-37667909D01*
X13491498Y-37689217D01*
X13420149Y-37730297D01*
X13390738Y-37757945D01*
X13076842Y-38071842D01*
X13020894Y-38100349D01*
X13005000Y-38101600D01*
X12891874Y-38101600D01*
X12852290Y-38103067D01*
X12771784Y-38123195D01*
X12734452Y-38141360D01*
X12684032Y-38151425D01*
X12618391Y-38147562D01*
X12490253Y-38168355D01*
X12372760Y-38219671D01*
X12271668Y-38298543D01*
X12193323Y-38400032D01*
X12142004Y-38519232D01*
X12130440Y-38580639D01*
X12122738Y-38643106D01*
X12135432Y-38773154D01*
X12179497Y-38894469D01*
X12252320Y-39001017D01*
X12349344Y-39086121D01*
X12465942Y-39145184D01*
X12530111Y-39161552D01*
X12583181Y-39195114D01*
X12603531Y-39235218D01*
X12620105Y-39301118D01*
X12682400Y-39419914D01*
X12773987Y-39517819D01*
X12830735Y-39555052D01*
X12870022Y-39604036D01*
X12873013Y-39666757D01*
X12838567Y-39719257D01*
X12779841Y-39741485D01*
X12775000Y-39741600D01*
X11200000Y-39741600D01*
X11140281Y-39722196D01*
X11103373Y-39671396D01*
X11103373Y-39608604D01*
X11134372Y-39562440D01*
X11196148Y-39510168D01*
X11762284Y-38944031D01*
X11797524Y-38907055D01*
X11849475Y-38818144D01*
X11876611Y-38718730D01*
X11878400Y-38668212D01*
X11878400Y-38175000D01*
X11897804Y-38115281D01*
X11907913Y-38103404D01*
X12637913Y-37368404D01*
X12693764Y-37339706D01*
X12710000Y-37338400D01*
X14347819Y-37338400D01*
X14409323Y-37335763D01*
X14530445Y-37295991D01*
X14583573Y-37260510D01*
X14644012Y-37243479D01*
X14702918Y-37265226D01*
G37*
%TD.AperFunction*%
%TA.AperFunction,Conductor*%
G36*
X39003316Y-258454D02*
G01*
X39087216Y-261194D01*
X39110198Y-264602D01*
X39272268Y-308032D01*
X39296765Y-318179D01*
X39442085Y-402069D01*
X39463132Y-418218D01*
X39581782Y-536868D01*
X39597931Y-557915D01*
X39681821Y-703235D01*
X39691968Y-727732D01*
X39735398Y-889802D01*
X39738806Y-912784D01*
X39741546Y-996684D01*
X39741600Y-1000000D01*
X39741600Y-39000000D01*
X39741546Y-39003316D01*
X39738806Y-39087216D01*
X39735398Y-39110198D01*
X39691968Y-39272268D01*
X39681821Y-39296765D01*
X39597931Y-39442085D01*
X39581782Y-39463132D01*
X39463132Y-39581782D01*
X39442085Y-39597931D01*
X39296765Y-39681821D01*
X39272268Y-39691968D01*
X39110198Y-39735398D01*
X39087216Y-39738806D01*
X39003316Y-39741546D01*
X39000000Y-39741600D01*
X13435000Y-39741600D01*
X13375281Y-39722196D01*
X13338373Y-39671396D01*
X13338373Y-39608604D01*
X13375281Y-39557804D01*
X13377363Y-39556331D01*
X13435718Y-39516131D01*
X13529081Y-39411867D01*
X13590489Y-39288002D01*
X13616923Y-39150619D01*
X13613518Y-39079886D01*
X13625009Y-39027838D01*
X13643647Y-38992273D01*
X13663111Y-38914419D01*
X13663400Y-38874674D01*
X13663400Y-38755000D01*
X13682804Y-38695281D01*
X13693158Y-38683158D01*
X13813158Y-38563158D01*
X13869106Y-38534651D01*
X13885000Y-38533400D01*
X14728351Y-38533400D01*
X14768800Y-38532090D01*
X14848501Y-38510782D01*
X14919850Y-38469702D01*
X14949414Y-38441910D01*
X15522309Y-37873997D01*
X15549991Y-37844713D01*
X15591245Y-37773438D01*
X15612506Y-37694298D01*
X15613400Y-37653884D01*
X15613400Y-34295688D01*
X16758905Y-34295688D01*
X16782951Y-34444788D01*
X16848339Y-34581017D01*
X16897663Y-34639494D01*
X16921334Y-34697653D01*
X16906299Y-34758619D01*
X16897343Y-34770884D01*
X16855203Y-34820353D01*
X16794990Y-34933747D01*
X16764703Y-35056929D01*
X16765462Y-35183783D01*
X16797225Y-35306598D01*
X16858777Y-35419237D01*
X16901514Y-35468156D01*
X16926191Y-35525895D01*
X16912217Y-35587113D01*
X16902044Y-35601232D01*
X16859854Y-35650308D01*
X16798367Y-35762500D01*
X16764992Y-35885957D01*
X16761648Y-35946895D01*
X16762691Y-36006989D01*
X16792168Y-36129368D01*
X16850940Y-36240597D01*
X16892286Y-36289049D01*
X16916290Y-36347072D01*
X16901605Y-36408123D01*
X16892289Y-36420947D01*
X16852183Y-36467950D01*
X16794028Y-36575215D01*
X16763238Y-36691736D01*
X16760841Y-36812244D01*
X16787383Y-36931754D01*
X16811420Y-36985550D01*
X16838739Y-37037380D01*
X16916308Y-37131941D01*
X17012228Y-37205489D01*
X17122380Y-37255255D01*
X17242330Y-37278908D01*
X17304170Y-37278403D01*
X17364045Y-37297318D01*
X17375420Y-37306763D01*
X17505420Y-37431763D01*
X17535018Y-37487142D01*
X17536600Y-37505000D01*
X17536600Y-37608012D01*
X17538154Y-37647861D01*
X17563373Y-37725468D01*
X17610148Y-37789851D01*
X17674531Y-37836626D01*
X17752138Y-37861845D01*
X17791987Y-37863400D01*
X18577604Y-37863400D01*
X18617352Y-37861518D01*
X18695677Y-37835731D01*
X18761027Y-37788582D01*
X18809069Y-37723895D01*
X18835950Y-37645855D01*
X18838400Y-37606809D01*
X18838400Y-37071693D01*
X18837307Y-37038837D01*
X18820044Y-36971853D01*
X18804372Y-36940925D01*
X18794686Y-36878884D01*
X18805317Y-36847255D01*
X18821201Y-36817417D01*
X18838048Y-36752355D01*
X18838400Y-36719475D01*
X18838400Y-36182344D01*
X18836817Y-36148051D01*
X18818938Y-36076778D01*
X18803171Y-36043475D01*
X18795155Y-35981196D01*
X18803709Y-35955407D01*
X18817678Y-35926808D01*
X18832643Y-35864660D01*
X18833400Y-35833742D01*
X18833400Y-35296781D01*
X18832254Y-35263876D01*
X18815037Y-35196818D01*
X18799385Y-35165952D01*
X18789682Y-35103914D01*
X18800258Y-35072367D01*
X18817218Y-35040413D01*
X18836565Y-34970647D01*
X18838400Y-34937221D01*
X18838400Y-34401442D01*
X18837236Y-34360831D01*
X18812018Y-34282619D01*
X18764591Y-34217876D01*
X18699198Y-34171378D01*
X18620557Y-34147257D01*
X18579201Y-34146600D01*
X18140000Y-34146600D01*
X18080281Y-34127196D01*
X18068158Y-34116842D01*
X18063158Y-34111842D01*
X18034651Y-34055894D01*
X18044474Y-33993875D01*
X18058595Y-33973031D01*
X18112211Y-33911860D01*
X18188342Y-33770032D01*
X18225364Y-33615020D01*
X18221521Y-33453947D01*
X18201511Y-33374948D01*
X18205657Y-33312292D01*
X18245838Y-33264040D01*
X18266085Y-33254228D01*
X18329000Y-33231948D01*
X18440302Y-33161264D01*
X18528991Y-33065855D01*
X18590637Y-32951083D01*
X18621218Y-32824451D01*
X18621104Y-32818462D01*
X22400620Y-32818462D01*
X22431030Y-32946771D01*
X22493079Y-33063123D01*
X22582672Y-33159862D01*
X22695390Y-33231558D01*
X22759148Y-33254311D01*
X22808871Y-33292657D01*
X22826558Y-33352907D01*
X22823186Y-33376118D01*
X22803930Y-33448504D01*
X22796669Y-33596516D01*
X22824610Y-33740508D01*
X22886056Y-33873678D01*
X22977478Y-33988362D01*
X23093596Y-34077955D01*
X23227729Y-34137295D01*
X23372135Y-34162947D01*
X23518489Y-34153440D01*
X23659687Y-34108896D01*
X23721994Y-34073272D01*
X23782551Y-34033789D01*
X23887085Y-33927639D01*
X23962159Y-33800654D01*
X24004366Y-33659307D01*
X24004586Y-33654576D01*
X25392042Y-33654576D01*
X25413966Y-33787550D01*
X25468524Y-33909014D01*
X25552338Y-34012478D01*
X25659826Y-34091047D01*
X25783846Y-34139507D01*
X25916138Y-34154626D01*
X26049486Y-34135169D01*
X26113056Y-34110355D01*
X26175742Y-34106715D01*
X26228596Y-34140617D01*
X26251429Y-34199111D01*
X26251600Y-34205000D01*
X26251600Y-36997604D01*
X26253481Y-37037352D01*
X26279268Y-37115677D01*
X26326417Y-37181027D01*
X26391104Y-37229069D01*
X26469144Y-37255950D01*
X26508190Y-37258400D01*
X27505000Y-37258400D01*
X27529718Y-37261453D01*
X27602506Y-37279710D01*
X27752494Y-37279710D01*
X27825282Y-37261453D01*
X27850000Y-37258400D01*
X28843015Y-37258400D01*
X28883649Y-37256815D01*
X28962760Y-37231105D01*
X29028411Y-37183411D01*
X29076105Y-37117760D01*
X29101815Y-37038649D01*
X29103400Y-36998015D01*
X29103400Y-36951987D01*
X32111600Y-36951987D01*
X32111600Y-38047604D01*
X32113481Y-38087352D01*
X32139268Y-38165677D01*
X32186417Y-38231027D01*
X32251104Y-38279069D01*
X32329144Y-38305950D01*
X32368190Y-38308400D01*
X34863015Y-38308400D01*
X34903649Y-38306815D01*
X34982760Y-38281105D01*
X35048411Y-38233411D01*
X35096105Y-38167760D01*
X35121815Y-38088649D01*
X35123400Y-38048015D01*
X35123400Y-36951442D01*
X35122236Y-36910831D01*
X35097018Y-36832619D01*
X35049591Y-36767876D01*
X34984198Y-36721378D01*
X34905557Y-36697257D01*
X34864201Y-36696600D01*
X32366987Y-36696600D01*
X32327138Y-36698154D01*
X32249531Y-36723373D01*
X32185148Y-36770148D01*
X32138373Y-36834531D01*
X32113154Y-36912138D01*
X32111600Y-36951987D01*
X29103400Y-36951987D01*
X29103400Y-35940000D01*
X29122804Y-35880281D01*
X29173604Y-35843373D01*
X29205000Y-35838400D01*
X32065000Y-35838400D01*
X32124719Y-35857804D01*
X32147973Y-35881366D01*
X32174243Y-35918540D01*
X32243834Y-35974171D01*
X32327249Y-36005298D01*
X32368788Y-36008400D01*
X34863105Y-36008400D01*
X34906829Y-36006765D01*
X34990907Y-35977220D01*
X35060219Y-35921325D01*
X35085589Y-35883454D01*
X35134947Y-35844638D01*
X35170000Y-35838400D01*
X36018247Y-35838400D01*
X36102040Y-35835499D01*
X36265870Y-35791845D01*
X36413243Y-35708097D01*
X36474681Y-35651634D01*
X36553158Y-35573158D01*
X36609106Y-35544651D01*
X36625000Y-35543400D01*
X36783711Y-35543400D01*
X36805865Y-35542841D01*
X36852129Y-35535113D01*
X36874551Y-35528070D01*
X36905000Y-35523400D01*
X37918589Y-35523400D01*
X37985429Y-35521561D01*
X38117668Y-35493552D01*
X38241491Y-35439025D01*
X38298171Y-35400780D01*
X38348420Y-35383613D01*
X38390190Y-35380901D01*
X38467309Y-35353939D01*
X38531073Y-35305968D01*
X38577249Y-35240905D01*
X38602022Y-35163195D01*
X38603400Y-35123240D01*
X38603400Y-35120000D01*
X38617203Y-35068870D01*
X38653608Y-35006355D01*
X38700364Y-34870981D01*
X38716062Y-34730000D01*
X38700364Y-34589018D01*
X38653608Y-34453644D01*
X38617203Y-34391130D01*
X38603400Y-34340000D01*
X38603400Y-34336442D01*
X38602236Y-34295831D01*
X38577018Y-34217619D01*
X38529591Y-34152876D01*
X38464198Y-34106378D01*
X38385557Y-34082257D01*
X38344201Y-34081600D01*
X37806939Y-34081600D01*
X37764366Y-34083225D01*
X37682193Y-34111867D01*
X37613964Y-34166013D01*
X37588599Y-34202739D01*
X37538695Y-34240850D01*
X37505000Y-34246600D01*
X36905000Y-34246600D01*
X36869882Y-34240338D01*
X36852088Y-34233783D01*
X36814433Y-34229086D01*
X36795510Y-34231055D01*
X36785000Y-34231600D01*
X35886760Y-34231600D01*
X35848238Y-34232935D01*
X35773076Y-34256373D01*
X35709783Y-34300114D01*
X35662383Y-34360713D01*
X35634673Y-34434022D01*
X35631219Y-34473793D01*
X35606720Y-34531608D01*
X35552916Y-34563982D01*
X35530000Y-34566600D01*
X35170000Y-34566600D01*
X35110281Y-34547196D01*
X35085209Y-34520973D01*
X35060138Y-34482994D01*
X34991325Y-34427101D01*
X34907426Y-34397998D01*
X34863382Y-34396600D01*
X32366777Y-34396600D01*
X32323782Y-34398095D01*
X32241605Y-34427187D01*
X32174537Y-34482469D01*
X32150479Y-34519917D01*
X32101874Y-34559672D01*
X32065000Y-34566600D01*
X29205000Y-34566600D01*
X29145281Y-34547196D01*
X29108373Y-34496396D01*
X29103400Y-34465000D01*
X29103400Y-33401442D01*
X29102236Y-33360831D01*
X29077018Y-33282619D01*
X29029591Y-33217876D01*
X28964198Y-33171378D01*
X28885557Y-33147257D01*
X28844201Y-33146600D01*
X26507178Y-33146600D01*
X26458830Y-33148671D01*
X26365467Y-33186697D01*
X26328045Y-33220448D01*
X26270702Y-33246035D01*
X26209271Y-33233029D01*
X26203801Y-33229642D01*
X26146904Y-33191864D01*
X26020597Y-33144637D01*
X25888042Y-33131712D01*
X25756632Y-33153380D01*
X25635240Y-33208167D01*
X25532056Y-33292383D01*
X25454058Y-33400334D01*
X25405694Y-33526863D01*
X25396117Y-33590791D01*
X25392042Y-33654576D01*
X24004586Y-33654576D01*
X24011211Y-33511946D01*
X23982284Y-33367301D01*
X23919290Y-33233903D01*
X23825976Y-33119660D01*
X23707839Y-33031317D01*
X23570561Y-32973541D01*
X23496597Y-32959919D01*
X23441381Y-32930020D01*
X23414284Y-32873375D01*
X23414234Y-32847006D01*
X23421487Y-32790756D01*
X23414768Y-32678930D01*
X23384404Y-32571106D01*
X23359086Y-32520357D01*
X23349789Y-32458257D01*
X23361396Y-32425281D01*
X23396285Y-32363104D01*
X23433521Y-32227244D01*
X23432424Y-32088003D01*
X23393027Y-31952728D01*
X23357173Y-31891078D01*
X23343924Y-31829699D01*
X23355977Y-31791037D01*
X23389111Y-31730792D01*
X23425262Y-31599819D01*
X23425979Y-31465530D01*
X23391615Y-31335711D01*
X23324560Y-31219361D01*
X23229466Y-31124542D01*
X23112915Y-31057828D01*
X22981272Y-31023385D01*
X22915821Y-31021657D01*
X22850513Y-31024450D01*
X22719446Y-31061429D01*
X22603748Y-31130297D01*
X22509830Y-31226785D01*
X22444107Y-31344301D01*
X22411057Y-31474832D01*
X22412942Y-31609465D01*
X22450007Y-31740355D01*
X22483623Y-31800315D01*
X22495901Y-31861895D01*
X22484148Y-31898736D01*
X22451986Y-31957565D01*
X22416154Y-32085046D01*
X22413947Y-32215874D01*
X22445431Y-32344394D01*
X22475656Y-32404129D01*
X22485304Y-32466176D01*
X22473776Y-32499410D01*
X22440921Y-32558441D01*
X22403839Y-32686640D01*
X22400620Y-32818462D01*
X18621104Y-32818462D01*
X18618729Y-32694210D01*
X18582906Y-32567315D01*
X18550871Y-32508771D01*
X18539226Y-32447068D01*
X18550376Y-32412144D01*
X18583118Y-32350824D01*
X18617999Y-32217967D01*
X18616956Y-32082202D01*
X18580089Y-31950060D01*
X18546292Y-31889532D01*
X18534119Y-31827931D01*
X18545644Y-31791647D01*
X18578377Y-31731154D01*
X18614243Y-31600157D01*
X18615060Y-31466026D01*
X18581206Y-31336220D01*
X18514990Y-31219570D01*
X18420894Y-31123972D01*
X18305293Y-31055912D01*
X18174338Y-31019540D01*
X18109078Y-31016658D01*
X18043641Y-31018356D01*
X17911857Y-31053400D01*
X17795224Y-31120918D01*
X17700331Y-31216611D01*
X17633784Y-31333815D01*
X17600240Y-31464342D01*
X17602031Y-31599099D01*
X17639409Y-31730021D01*
X17673364Y-31789856D01*
X17685962Y-31851372D01*
X17673674Y-31889593D01*
X17639765Y-31950222D01*
X17602551Y-32082295D01*
X17601502Y-32217885D01*
X17636707Y-32350668D01*
X17669569Y-32412042D01*
X17680652Y-32473848D01*
X17669524Y-32508042D01*
X17641506Y-32560251D01*
X17607261Y-32672162D01*
X17598611Y-32788838D01*
X17605840Y-32847595D01*
X17593873Y-32909236D01*
X17547959Y-32952071D01*
X17524849Y-32959642D01*
X17450764Y-32974399D01*
X17313694Y-33034238D01*
X17196219Y-33124427D01*
X17103924Y-33240256D01*
X17042228Y-33374902D01*
X17014780Y-33520442D01*
X17023278Y-33670170D01*
X17043086Y-33743509D01*
X17039924Y-33806221D01*
X17001251Y-33854607D01*
X16937475Y-33897008D01*
X16838019Y-34011036D01*
X16776836Y-34149374D01*
X16765881Y-34222368D01*
X16758905Y-34295688D01*
X15613400Y-34295688D01*
X15613400Y-32045000D01*
X15632804Y-31985281D01*
X15643158Y-31973158D01*
X16053158Y-31563158D01*
X16109106Y-31534651D01*
X16125000Y-31533400D01*
X16243615Y-31533400D01*
X16281769Y-31532366D01*
X16358372Y-31512709D01*
X16393577Y-31494626D01*
X16446203Y-31483590D01*
X16511980Y-31487613D01*
X16640507Y-31466529D01*
X16758306Y-31414585D01*
X16859381Y-31334834D01*
X16937283Y-31232345D01*
X16987895Y-31111693D01*
X16999474Y-31049832D01*
X17006580Y-30988084D01*
X16993059Y-30858968D01*
X16948632Y-30738652D01*
X16875884Y-30633042D01*
X16779314Y-30548645D01*
X16663316Y-30489902D01*
X16599489Y-30473345D01*
X16546555Y-30439568D01*
X16526557Y-30400132D01*
X16510287Y-30336405D01*
X16451597Y-30220527D01*
X16367156Y-30123896D01*
X16261476Y-30051106D01*
X16141107Y-30006662D01*
X16012098Y-29993159D01*
X15950450Y-30000478D01*
X15889283Y-30012047D01*
X15770064Y-30063382D01*
X15668580Y-30141720D01*
X15589721Y-30242789D01*
X15538415Y-30360270D01*
X15517616Y-30488436D01*
X15521429Y-30554111D01*
X15510518Y-30606141D01*
X15491426Y-30643593D01*
X15469158Y-30724687D01*
X15466600Y-30763352D01*
X15466600Y-30875000D01*
X15447196Y-30934719D01*
X15436842Y-30946842D01*
X14833103Y-31550580D01*
X14798509Y-31587707D01*
X14753146Y-31682535D01*
X14745534Y-31734677D01*
X14717707Y-31790967D01*
X14662108Y-31820149D01*
X14640695Y-31821509D01*
X14564968Y-31818297D01*
X14418457Y-31848973D01*
X14287954Y-31918552D01*
X14181018Y-32022936D01*
X14143798Y-32084498D01*
X14117919Y-32135011D01*
X14086035Y-32249794D01*
X14081310Y-32367379D01*
X14103592Y-32482930D01*
X14152332Y-32591702D01*
X14187541Y-32640759D01*
X14206600Y-32700000D01*
X14206600Y-36470000D01*
X14187196Y-36529719D01*
X14136396Y-36566627D01*
X14105000Y-36571600D01*
X12511496Y-36571600D01*
X12460784Y-36573093D01*
X12361585Y-36599944D01*
X12273060Y-36651899D01*
X12236200Y-36687483D01*
X11222708Y-37700975D01*
X11187863Y-37737574D01*
X11137048Y-37825812D01*
X11111879Y-37924114D01*
X11111600Y-37975190D01*
X11111600Y-38470000D01*
X11092196Y-38529719D01*
X11081842Y-38541842D01*
X10791842Y-38831842D01*
X10735894Y-38860349D01*
X10720000Y-38861600D01*
X9905000Y-38861600D01*
X9845281Y-38842196D01*
X9808373Y-38791396D01*
X9803400Y-38760000D01*
X9803400Y-37907140D01*
X9801623Y-37864819D01*
X9773613Y-37782619D01*
X9720519Y-37713361D01*
X9684442Y-37686580D01*
X9648056Y-37635404D01*
X9643400Y-37605000D01*
X9643400Y-37140000D01*
X9662804Y-37080281D01*
X9713604Y-37043373D01*
X9769642Y-37041434D01*
X9809642Y-37051434D01*
X9862871Y-37084742D01*
X9886357Y-37142977D01*
X9886600Y-37150000D01*
X9886600Y-37478015D01*
X9888184Y-37518649D01*
X9913894Y-37597760D01*
X9961588Y-37663411D01*
X10027239Y-37711105D01*
X10106350Y-37736815D01*
X10146985Y-37738400D01*
X10708557Y-37738400D01*
X10749168Y-37737236D01*
X10827380Y-37712018D01*
X10892123Y-37664591D01*
X10938621Y-37599198D01*
X10962742Y-37520557D01*
X10963400Y-37479201D01*
X10963400Y-37100000D01*
X10982804Y-37040281D01*
X11033547Y-37003391D01*
X11096151Y-36983008D01*
X11207940Y-36916372D01*
X11298595Y-36825075D01*
X11363688Y-36714081D01*
X11399134Y-36590394D01*
X11402693Y-36461780D01*
X11374150Y-36336319D01*
X11314686Y-36220717D01*
X11272335Y-36170504D01*
X11248666Y-36112343D01*
X11263702Y-36051378D01*
X11311702Y-36010895D01*
X11360605Y-36003955D01*
X11426780Y-36010900D01*
X11557316Y-35995180D01*
X11678289Y-35947705D01*
X11783436Y-35871347D01*
X11866010Y-35771003D01*
X11920704Y-35653123D01*
X11944009Y-35525277D01*
X11934424Y-35395689D01*
X11892566Y-35272665D01*
X11821118Y-35164109D01*
X11723640Y-35076067D01*
X11667935Y-35045080D01*
X11610844Y-35017120D01*
X11483471Y-34987100D01*
X11354169Y-34989949D01*
X11229701Y-35025128D01*
X11118042Y-35090394D01*
X11026302Y-35181576D01*
X10960364Y-35292831D01*
X10924425Y-35417087D01*
X10920784Y-35546378D01*
X10949687Y-35672440D01*
X11010072Y-35788775D01*
X11052805Y-35839663D01*
X11076350Y-35897874D01*
X11061182Y-35958807D01*
X11013096Y-35999187D01*
X10964837Y-36006090D01*
X10890170Y-35998583D01*
X10743687Y-36021457D01*
X10611300Y-36084300D01*
X10501051Y-36183255D01*
X10459879Y-36245840D01*
X10410847Y-36285066D01*
X10348122Y-36287980D01*
X10295664Y-36253469D01*
X10294066Y-36251419D01*
X10251742Y-36195648D01*
X10144771Y-36107943D01*
X10019972Y-36052132D01*
X9884882Y-36031123D01*
X9749040Y-36046401D01*
X9620710Y-36097400D01*
X9563866Y-36137809D01*
X9503950Y-36156595D01*
X9444434Y-36136574D01*
X9409727Y-36090293D01*
X9391566Y-36041267D01*
X9337923Y-35951332D01*
X9303428Y-35911778D01*
X9278801Y-35854017D01*
X9292828Y-35792811D01*
X9302918Y-35778812D01*
X9342173Y-35733095D01*
X9386212Y-35621233D01*
X9388400Y-35563093D01*
X9388400Y-33760000D01*
X9407804Y-33700281D01*
X9418158Y-33688158D01*
X9508158Y-33598158D01*
X9564106Y-33569651D01*
X9580000Y-33568400D01*
X10548557Y-33568400D01*
X10589168Y-33567236D01*
X10667380Y-33542018D01*
X10732123Y-33494591D01*
X10778621Y-33429198D01*
X10802742Y-33350557D01*
X10803400Y-33309201D01*
X10803400Y-33235000D01*
X10822804Y-33175281D01*
X10873604Y-33138373D01*
X10936396Y-33138373D01*
X10956288Y-33147295D01*
X10988674Y-33166233D01*
X11060996Y-33187062D01*
X11096904Y-33188400D01*
X11632604Y-33188400D01*
X11672352Y-33186518D01*
X11750677Y-33160731D01*
X11816027Y-33113582D01*
X11864069Y-33048895D01*
X11890950Y-32970855D01*
X11893400Y-32931809D01*
X11893400Y-32147378D01*
X11891070Y-32097761D01*
X11853376Y-32003161D01*
X11783927Y-31929040D01*
X11737999Y-31905075D01*
X11694031Y-31860246D01*
X11684810Y-31798134D01*
X11705120Y-31752217D01*
X11744727Y-31701823D01*
X11800318Y-31588105D01*
X11826771Y-31465902D01*
X11823230Y-31340919D01*
X11789464Y-31218822D01*
X11759854Y-31161864D01*
X11748400Y-31115000D01*
X11748400Y-30775000D01*
X11767804Y-30715281D01*
X11818604Y-30678373D01*
X11850000Y-30673400D01*
X12400000Y-30673400D01*
X12459719Y-30692804D01*
X12496627Y-30743604D01*
X12501078Y-30764713D01*
X12505194Y-30805162D01*
X12533837Y-30879278D01*
X12582115Y-30940124D01*
X12646298Y-30983869D01*
X12722477Y-31007122D01*
X12761653Y-31008400D01*
X13658613Y-31008400D01*
X13697428Y-31007329D01*
X13772529Y-30984288D01*
X13835653Y-30940740D01*
X13882707Y-30880202D01*
X13910106Y-30806168D01*
X13913827Y-30765698D01*
X13938617Y-30708007D01*
X13992582Y-30675904D01*
X14015000Y-30673400D01*
X14020000Y-30673400D01*
X14062240Y-30682597D01*
X14122503Y-30710145D01*
X14250698Y-30736697D01*
X14379926Y-30730226D01*
X14503362Y-30691451D01*
X14613091Y-30622874D01*
X14702035Y-30528908D01*
X14764476Y-30415593D01*
X14796785Y-30288717D01*
X14798365Y-30225129D01*
X14796612Y-30161225D01*
X14763815Y-30033826D01*
X14700767Y-29920099D01*
X14611137Y-29825885D01*
X14500705Y-29757245D01*
X14376554Y-29718587D01*
X14246675Y-29712402D01*
X14117965Y-29739376D01*
X14057576Y-29767249D01*
X14015000Y-29776600D01*
X13890000Y-29776600D01*
X13830281Y-29757196D01*
X13826873Y-29754609D01*
X13794723Y-29729115D01*
X13718437Y-29699313D01*
X13677598Y-29696330D01*
X13619452Y-29672627D01*
X13586342Y-29619273D01*
X13590917Y-29556648D01*
X13596485Y-29545124D01*
X13634396Y-29477842D01*
X13673403Y-29330243D01*
X13668940Y-29177555D01*
X13647415Y-29103280D01*
X13649430Y-29040520D01*
X13687949Y-28990930D01*
X13745000Y-28973400D01*
X13882951Y-28973400D01*
X13911370Y-28972246D01*
X13971141Y-28960319D01*
X13999673Y-28949739D01*
X14062413Y-28947168D01*
X14076643Y-28952326D01*
X14101548Y-28963517D01*
X14154915Y-28974227D01*
X14182062Y-28973442D01*
X14185000Y-28973400D01*
X14748013Y-28973400D01*
X14787861Y-28971845D01*
X14865468Y-28946626D01*
X14929851Y-28899851D01*
X14976626Y-28835468D01*
X15001845Y-28757861D01*
X15003400Y-28718012D01*
X15003400Y-28182395D01*
X15001518Y-28142647D01*
X14975731Y-28064322D01*
X14928582Y-27998972D01*
X14863895Y-27950930D01*
X14785855Y-27924049D01*
X14746810Y-27921600D01*
X14445000Y-27921600D01*
X14385281Y-27902196D01*
X14348373Y-27851396D01*
X14343400Y-27820000D01*
X14343400Y-26990000D01*
X14362804Y-26930281D01*
X14368538Y-26923096D01*
X14403538Y-26883096D01*
X14457466Y-26850930D01*
X14480000Y-26848400D01*
X14667392Y-26848400D01*
X14728088Y-26845280D01*
X14844966Y-26797003D01*
X14890063Y-26756260D01*
X16013318Y-25637998D01*
X16069330Y-25609616D01*
X16131327Y-25619577D01*
X16175387Y-25663603D01*
X16196108Y-25703970D01*
X16246939Y-25779125D01*
X16273983Y-25810243D01*
X16302662Y-25838302D01*
X16374920Y-25889290D01*
X16414667Y-25908745D01*
X16459774Y-25952428D01*
X16470591Y-26014281D01*
X16468202Y-26026058D01*
X16452093Y-26086763D01*
X16445832Y-26210698D01*
X16468617Y-26331179D01*
X16519705Y-26444245D01*
X16554952Y-26492225D01*
X16593126Y-26537759D01*
X16690742Y-26613804D01*
X16802294Y-26663663D01*
X16923940Y-26685659D01*
X16986431Y-26683463D01*
X17046795Y-26700757D01*
X17053313Y-26705540D01*
X17099163Y-26742073D01*
X17208512Y-26784496D01*
X17263596Y-26788400D01*
X18880000Y-26788400D01*
X18939719Y-26807804D01*
X18951666Y-26817983D01*
X19976009Y-27837329D01*
X20005451Y-27865582D01*
X20076063Y-27906653D01*
X20155408Y-27927415D01*
X20196208Y-27928400D01*
X22335000Y-27928400D01*
X22394719Y-27947804D01*
X22431627Y-27998604D01*
X22431627Y-28061396D01*
X22414137Y-28093718D01*
X22372158Y-28145855D01*
X22313544Y-28264377D01*
X22286310Y-28392156D01*
X22291493Y-28524493D01*
X22307254Y-28585285D01*
X22327920Y-28643818D01*
X22397457Y-28755057D01*
X22491227Y-28844517D01*
X22605513Y-28908692D01*
X22669037Y-28927638D01*
X22720720Y-28963300D01*
X22741570Y-29022529D01*
X22741600Y-29025000D01*
X22741600Y-29315000D01*
X22722196Y-29374719D01*
X22711842Y-29386842D01*
X22536842Y-29561842D01*
X22480894Y-29590349D01*
X22465000Y-29591600D01*
X21811649Y-29591600D01*
X21771199Y-29592909D01*
X21691498Y-29614217D01*
X21620149Y-29655297D01*
X21590738Y-29682945D01*
X21372848Y-29900835D01*
X21345008Y-29930286D01*
X21303754Y-30001561D01*
X21282493Y-30080701D01*
X21281600Y-30121115D01*
X21281600Y-31285000D01*
X21262196Y-31344719D01*
X21251842Y-31356842D01*
X21071842Y-31536842D01*
X21015894Y-31565349D01*
X21000000Y-31566600D01*
X20625000Y-31566600D01*
X20565281Y-31547196D01*
X20528373Y-31496396D01*
X20523400Y-31465000D01*
X20523400Y-31405000D01*
X20542804Y-31345281D01*
X20554894Y-31331463D01*
X20601889Y-31286660D01*
X20673246Y-31180159D01*
X20715547Y-31060814D01*
X20727041Y-30934731D01*
X20707007Y-30809704D01*
X20656145Y-30692215D01*
X20619525Y-30642076D01*
X20580295Y-30593887D01*
X20479979Y-30514372D01*
X20364662Y-30462412D01*
X20240139Y-30440226D01*
X20113972Y-30449147D01*
X19992575Y-30489043D01*
X19937153Y-30522193D01*
X19875941Y-30536195D01*
X19833015Y-30522293D01*
X19776957Y-30488909D01*
X19654583Y-30448411D01*
X19527542Y-30439197D01*
X19402118Y-30461354D01*
X19285929Y-30513540D01*
X19184931Y-30593442D01*
X19145918Y-30641523D01*
X19110175Y-30691775D01*
X19060259Y-30809840D01*
X19041140Y-30935018D01*
X19053387Y-31061057D01*
X19096250Y-31180216D01*
X19168038Y-31286576D01*
X19215118Y-31331475D01*
X19244944Y-31386731D01*
X19246600Y-31405000D01*
X19246600Y-31488350D01*
X19247909Y-31528800D01*
X19269217Y-31608501D01*
X19310297Y-31679850D01*
X19338985Y-31710367D01*
X19418985Y-31795367D01*
X19445785Y-31852153D01*
X19446600Y-31865000D01*
X19446600Y-31908810D01*
X19447541Y-31948479D01*
X19468314Y-32025711D01*
X19509304Y-32094715D01*
X19537411Y-32123727D01*
X19759516Y-32345832D01*
X19804326Y-32385203D01*
X19920000Y-32433988D01*
X19978803Y-32438400D01*
X21273351Y-32438400D01*
X21313800Y-32437090D01*
X21393501Y-32415782D01*
X21464850Y-32374702D01*
X21494261Y-32347054D01*
X22062151Y-31779164D01*
X22089991Y-31749713D01*
X22131245Y-31678438D01*
X22152506Y-31599298D01*
X22153400Y-31558884D01*
X22153400Y-30565000D01*
X22172804Y-30505281D01*
X22223604Y-30468373D01*
X22255000Y-30463400D01*
X22738351Y-30463400D01*
X22778800Y-30462090D01*
X22858501Y-30440782D01*
X22929850Y-30399702D01*
X22959261Y-30372054D01*
X23513158Y-29818158D01*
X23569106Y-29789651D01*
X23631125Y-29799474D01*
X23675526Y-29843875D01*
X23686600Y-29890000D01*
X23686600Y-30603214D01*
X23689153Y-30675729D01*
X23726157Y-30818027D01*
X23797320Y-30946950D01*
X23846452Y-31003085D01*
X23871183Y-31060802D01*
X23857265Y-31122033D01*
X23847021Y-31136259D01*
X23804232Y-31185997D01*
X23743634Y-31300576D01*
X23714052Y-31425225D01*
X23716665Y-31553304D01*
X23751313Y-31676642D01*
X23815774Y-31787337D01*
X23905942Y-31878345D01*
X24016040Y-31943830D01*
X24140283Y-31979979D01*
X24203229Y-31983424D01*
X24266292Y-31983991D01*
X24392553Y-31956556D01*
X24506676Y-31899203D01*
X24602908Y-31815224D01*
X24675187Y-31709924D01*
X24718954Y-31589933D01*
X24731449Y-31462822D01*
X24711888Y-31336607D01*
X24660804Y-31217611D01*
X24622489Y-31164283D01*
X24603401Y-31104462D01*
X24623121Y-31044846D01*
X24634414Y-31031923D01*
X24693274Y-30975068D01*
X24779277Y-30837823D01*
X24824943Y-30682379D01*
X24828400Y-30602800D01*
X24828400Y-29371393D01*
X24826429Y-29299444D01*
X24790427Y-29158809D01*
X24721201Y-29032901D01*
X24622760Y-28928244D01*
X24499876Y-28850518D01*
X24430611Y-28825603D01*
X24380985Y-28787131D01*
X24363449Y-28726837D01*
X24384703Y-28667751D01*
X24436627Y-28632442D01*
X24465000Y-28628400D01*
X26590000Y-28628400D01*
X26649719Y-28647804D01*
X26686627Y-28698604D01*
X26686627Y-28761396D01*
X26649719Y-28812196D01*
X26623601Y-28825883D01*
X26554299Y-28850168D01*
X26431334Y-28927502D01*
X26332774Y-29032128D01*
X26263645Y-29158161D01*
X26228054Y-29298814D01*
X26226600Y-29371004D01*
X26226600Y-30603340D01*
X26228962Y-30675727D01*
X26266214Y-30817474D01*
X26337154Y-30943984D01*
X26437594Y-31048605D01*
X26561113Y-31124624D01*
X26699764Y-31167163D01*
X26844660Y-31173490D01*
X26986497Y-31143207D01*
X27116175Y-31078250D01*
X27225359Y-30982790D01*
X27308071Y-30861457D01*
X27335628Y-30792363D01*
X27375774Y-30744081D01*
X27436632Y-30728617D01*
X27494957Y-30751878D01*
X27524675Y-30793132D01*
X27551716Y-30862572D01*
X27634470Y-30984576D01*
X27744109Y-31080822D01*
X27874436Y-31146363D01*
X28017074Y-31176995D01*
X28162834Y-31170740D01*
X28302309Y-31128005D01*
X28426556Y-31051528D01*
X28527543Y-30946255D01*
X28598783Y-30818944D01*
X28636092Y-30676293D01*
X28638400Y-30603397D01*
X28638400Y-29371353D01*
X28636546Y-29301124D01*
X28602448Y-29163721D01*
X28536605Y-29040107D01*
X28442618Y-28936268D01*
X28326159Y-28858468D01*
X28194238Y-28811405D01*
X28053023Y-28797733D01*
X27981592Y-28805937D01*
X27920049Y-28793473D01*
X27877586Y-28747216D01*
X27868785Y-28713840D01*
X27863649Y-28655043D01*
X27815857Y-28547369D01*
X27776899Y-28505583D01*
X27373158Y-28101842D01*
X27344651Y-28045894D01*
X27354474Y-27983875D01*
X27398875Y-27939474D01*
X27445000Y-27928400D01*
X28595000Y-27928400D01*
X28654719Y-27947804D01*
X28666842Y-27958158D01*
X28996842Y-28288158D01*
X29025349Y-28344106D01*
X29026600Y-28360000D01*
X29026600Y-30975000D01*
X29007196Y-31034719D01*
X28995612Y-31048052D01*
X28947985Y-31094087D01*
X28875993Y-31203309D01*
X28833859Y-31325462D01*
X28823334Y-31454235D01*
X28845085Y-31581600D01*
X28897742Y-31699593D01*
X28978026Y-31800834D01*
X29082222Y-31880002D01*
X29139412Y-31906297D01*
X29198001Y-31928720D01*
X29327234Y-31947153D01*
X29455469Y-31932823D01*
X29576014Y-31886838D01*
X29681214Y-31812137D01*
X29708861Y-31779329D01*
X37024306Y-31779329D01*
X37032139Y-31908257D01*
X37072001Y-32031111D01*
X37141354Y-32140085D01*
X37235779Y-32228219D01*
X37349256Y-32289903D01*
X37476315Y-32321655D01*
X37539727Y-32323356D01*
X37602502Y-32321346D01*
X37728346Y-32288552D01*
X37840748Y-32226185D01*
X37934101Y-32137783D01*
X38002494Y-32028938D01*
X38041630Y-31906480D01*
X38049047Y-31778137D01*
X38024271Y-31651992D01*
X37968867Y-31535982D01*
X37885053Y-31435914D01*
X37832684Y-31395245D01*
X37797418Y-31343291D01*
X37799426Y-31280531D01*
X37832841Y-31234633D01*
X37884891Y-31194375D01*
X37967886Y-31094405D01*
X38022818Y-30978429D01*
X38047262Y-30852448D01*
X38039701Y-30724342D01*
X38000607Y-30602108D01*
X37932428Y-30493396D01*
X37839411Y-30404989D01*
X37727372Y-30342412D01*
X37601727Y-30309152D01*
X37539261Y-30306652D01*
X37476599Y-30308263D01*
X37350091Y-30340402D01*
X37236918Y-30402349D01*
X37142773Y-30490576D01*
X37073598Y-30599489D01*
X37033783Y-30722219D01*
X37025830Y-30851007D01*
X37050238Y-30977693D01*
X37105486Y-31094299D01*
X37188802Y-31194328D01*
X37241231Y-31233924D01*
X37277192Y-31285398D01*
X37276029Y-31348180D01*
X37241376Y-31395966D01*
X37188678Y-31435913D01*
X37104649Y-31535984D01*
X37049004Y-31652549D01*
X37024306Y-31779329D01*
X29708861Y-31779329D01*
X29764360Y-31713469D01*
X29820160Y-31597130D01*
X29845344Y-31468998D01*
X29843442Y-31402925D01*
X29861119Y-31342672D01*
X29873158Y-31328158D01*
X30688158Y-30513158D01*
X30744106Y-30484651D01*
X30760000Y-30483400D01*
X30765000Y-30483400D01*
X30824719Y-30502804D01*
X30855874Y-30539563D01*
X30865874Y-30559563D01*
X30875226Y-30621655D01*
X30868768Y-30644116D01*
X30857097Y-30672092D01*
X30843328Y-30731168D01*
X30841600Y-30758243D01*
X30841600Y-31323557D01*
X30842763Y-31364168D01*
X30867981Y-31442380D01*
X30915408Y-31507123D01*
X30980801Y-31553621D01*
X31059442Y-31577742D01*
X31100799Y-31578400D01*
X31638013Y-31578400D01*
X31677861Y-31576845D01*
X31755468Y-31551626D01*
X31819851Y-31504851D01*
X31866626Y-31440468D01*
X31891845Y-31362861D01*
X31893400Y-31323012D01*
X31893400Y-30757048D01*
X31892246Y-30728629D01*
X31880319Y-30668858D01*
X31869739Y-30640327D01*
X31867168Y-30577587D01*
X31872326Y-30563357D01*
X31883517Y-30538451D01*
X31894227Y-30485084D01*
X31893442Y-30457938D01*
X31893400Y-30455000D01*
X31893400Y-29891987D01*
X31891845Y-29852138D01*
X31866626Y-29774531D01*
X31819851Y-29710148D01*
X31755468Y-29663373D01*
X31677861Y-29638154D01*
X31638013Y-29636600D01*
X31102155Y-29636600D01*
X31063602Y-29638233D01*
X30987746Y-29661989D01*
X30923787Y-29705887D01*
X30874389Y-29768069D01*
X30858232Y-29805378D01*
X30816693Y-29852467D01*
X30765000Y-29866600D01*
X30591189Y-29866600D01*
X30551520Y-29867541D01*
X30474288Y-29888314D01*
X30405284Y-29929304D01*
X30376272Y-29957411D01*
X29816842Y-30516842D01*
X29760894Y-30545349D01*
X29698875Y-30535526D01*
X29654474Y-30491125D01*
X29643400Y-30445000D01*
X29643400Y-28800000D01*
X29662804Y-28740281D01*
X29713604Y-28703373D01*
X29776396Y-28703373D01*
X29816842Y-28728158D01*
X30180835Y-29092151D01*
X30210286Y-29119991D01*
X30281561Y-29161245D01*
X30360701Y-29182506D01*
X30401116Y-29183400D01*
X33098351Y-29183400D01*
X33138800Y-29182090D01*
X33218501Y-29160782D01*
X33289850Y-29119702D01*
X33319261Y-29092054D01*
X34632151Y-27779164D01*
X34659991Y-27749713D01*
X34701245Y-27678438D01*
X34722506Y-27599298D01*
X34723400Y-27558884D01*
X34723400Y-26840000D01*
X34742804Y-26780281D01*
X34753158Y-26768158D01*
X34798158Y-26723158D01*
X34854106Y-26694651D01*
X34870000Y-26693400D01*
X35815000Y-26693400D01*
X35874719Y-26712804D01*
X35886842Y-26723158D01*
X35891842Y-26728158D01*
X35920349Y-26784106D01*
X35921600Y-26800000D01*
X35921600Y-27128015D01*
X35923184Y-27168649D01*
X35948894Y-27247760D01*
X35996588Y-27313411D01*
X36062239Y-27361105D01*
X36141350Y-27386815D01*
X36181985Y-27388400D01*
X36718557Y-27388400D01*
X36759168Y-27387236D01*
X36837380Y-27362018D01*
X36902123Y-27314591D01*
X36948621Y-27249198D01*
X36972742Y-27170557D01*
X36973400Y-27129201D01*
X36973400Y-26567048D01*
X36972246Y-26538629D01*
X36960319Y-26478858D01*
X36949739Y-26450327D01*
X36947168Y-26387587D01*
X36952326Y-26373357D01*
X36963517Y-26348451D01*
X36974227Y-26295084D01*
X36973442Y-26267938D01*
X36973400Y-26265000D01*
X36973400Y-25702395D01*
X36971518Y-25662647D01*
X36945731Y-25584322D01*
X36898582Y-25518972D01*
X36833895Y-25470930D01*
X36755855Y-25444049D01*
X36716810Y-25441600D01*
X36181985Y-25441600D01*
X36141350Y-25443184D01*
X36062239Y-25468894D01*
X35996588Y-25516588D01*
X35948894Y-25582239D01*
X35923184Y-25661350D01*
X35921600Y-25701984D01*
X35921600Y-25975000D01*
X35902196Y-26034719D01*
X35851396Y-26071627D01*
X35820000Y-26076600D01*
X34870000Y-26076600D01*
X34810281Y-26057196D01*
X34796951Y-26045615D01*
X34747600Y-25994563D01*
X34629197Y-25919361D01*
X34496667Y-25878803D01*
X34358130Y-25874906D01*
X34223529Y-25907953D01*
X34101108Y-25976371D01*
X34051619Y-26022152D01*
X34005374Y-26071390D01*
X33936144Y-26193515D01*
X33902693Y-26328069D01*
X33906624Y-26466659D01*
X33947646Y-26599096D01*
X34023802Y-26717283D01*
X34075307Y-26766655D01*
X34104991Y-26821989D01*
X34106600Y-26840000D01*
X34106600Y-27395000D01*
X34087196Y-27454719D01*
X34076674Y-27467009D01*
X33001674Y-28537009D01*
X32945660Y-28565386D01*
X32930000Y-28566600D01*
X31980000Y-28566600D01*
X31920281Y-28547196D01*
X31883373Y-28496396D01*
X31878400Y-28465000D01*
X31878400Y-28385000D01*
X31897804Y-28325281D01*
X31908158Y-28313158D01*
X32017151Y-28204164D01*
X32044991Y-28174713D01*
X32086245Y-28103438D01*
X32107506Y-28024298D01*
X32108400Y-27983875D01*
X32108400Y-26830000D01*
X32127804Y-26770281D01*
X32170566Y-26736365D01*
X32208490Y-26720393D01*
X32271943Y-26671170D01*
X32317030Y-26607038D01*
X32341729Y-26531161D01*
X32343400Y-26492784D01*
X32343400Y-25956984D01*
X32341815Y-25916350D01*
X32316105Y-25837239D01*
X32268411Y-25771588D01*
X32202760Y-25723894D01*
X32123649Y-25698184D01*
X32083015Y-25696600D01*
X31520786Y-25696600D01*
X31493547Y-25697019D01*
X31438889Y-25709806D01*
X31413444Y-25721843D01*
X31351163Y-25729839D01*
X31330884Y-25723768D01*
X31302907Y-25712097D01*
X31243831Y-25698328D01*
X31216757Y-25696600D01*
X30654856Y-25696600D01*
X30635793Y-25696572D01*
X30598699Y-25703238D01*
X30581293Y-25709896D01*
X30545000Y-25716600D01*
X30241922Y-25716600D01*
X30175359Y-25719111D01*
X30044720Y-25754537D01*
X29928851Y-25821345D01*
X29833899Y-25915528D01*
X29766156Y-26030853D01*
X29729673Y-26161236D01*
X29726676Y-26225698D01*
X29728794Y-26290618D01*
X29764037Y-26422154D01*
X29831279Y-26538615D01*
X29926384Y-26633720D01*
X30042845Y-26700962D01*
X30174381Y-26736205D01*
X30241658Y-26738400D01*
X30545000Y-26738400D01*
X30575664Y-26743138D01*
X30594094Y-26748972D01*
X30632075Y-26754210D01*
X30651076Y-26753476D01*
X30655000Y-26753400D01*
X31219214Y-26753400D01*
X31246452Y-26752980D01*
X31301110Y-26740193D01*
X31326556Y-26728157D01*
X31388837Y-26720161D01*
X31407733Y-26725667D01*
X31432733Y-26735667D01*
X31480975Y-26775862D01*
X31496600Y-26830000D01*
X31496600Y-27810000D01*
X31477196Y-27869719D01*
X31426396Y-27906627D01*
X31394581Y-27911599D01*
X31317931Y-27911282D01*
X31171175Y-27948878D01*
X31041161Y-28026560D01*
X30987474Y-28081205D01*
X30931779Y-28110205D01*
X30915000Y-28111600D01*
X30495000Y-28111600D01*
X30435281Y-28092196D01*
X30423158Y-28081842D01*
X29239164Y-26897848D01*
X29209713Y-26870008D01*
X29138438Y-26828754D01*
X29059298Y-26807493D01*
X29018884Y-26806600D01*
X24775000Y-26806600D01*
X24715281Y-26787196D01*
X24678373Y-26736396D01*
X24678373Y-26673604D01*
X24687910Y-26652676D01*
X24707774Y-26619613D01*
X24737138Y-26548292D01*
X24746087Y-26511763D01*
X24754821Y-26472844D01*
X24763585Y-26391446D01*
X24763401Y-26350457D01*
X24782536Y-26290651D01*
X24793158Y-26278158D01*
X25106728Y-25964587D01*
X25132906Y-25936244D01*
X25175574Y-25867091D01*
X25189979Y-25829035D01*
X25229266Y-25780051D01*
X25289842Y-25763515D01*
X25318490Y-25769078D01*
X25381215Y-25790978D01*
X25511445Y-25808866D01*
X25641013Y-25797245D01*
X25764680Y-25756889D01*
X25876169Y-25689855D01*
X25969817Y-25599546D01*
X26041381Y-25489751D01*
X26065298Y-25428202D01*
X26105014Y-25379565D01*
X26165733Y-25363562D01*
X26224262Y-25386304D01*
X26254728Y-25428269D01*
X26280753Y-25495387D01*
X26359563Y-25613970D01*
X26463774Y-25708770D01*
X26587928Y-25775328D01*
X26724563Y-25809640D01*
X26865437Y-25809640D01*
X27002071Y-25775328D01*
X27126225Y-25708770D01*
X27230436Y-25613970D01*
X27309246Y-25495387D01*
X27335272Y-25428269D01*
X27374954Y-25379604D01*
X27435661Y-25363558D01*
X27494206Y-25386259D01*
X27524675Y-25428132D01*
X27551716Y-25497572D01*
X27634470Y-25619576D01*
X27744109Y-25715822D01*
X27874436Y-25781363D01*
X28017074Y-25811995D01*
X28162834Y-25805740D01*
X28302309Y-25763005D01*
X28426556Y-25686528D01*
X28527543Y-25581255D01*
X28598783Y-25453944D01*
X28636092Y-25311293D01*
X28638400Y-25238397D01*
X28638400Y-25235000D01*
X28657804Y-25175281D01*
X28708604Y-25138373D01*
X28740000Y-25133400D01*
X29200000Y-25133400D01*
X29219156Y-25135222D01*
X29284287Y-25147726D01*
X29415171Y-25143756D01*
X29539412Y-25107810D01*
X29652143Y-25041303D01*
X29699280Y-24997035D01*
X30647336Y-24048979D01*
X30694037Y-24000102D01*
X30762260Y-23882737D01*
X30796926Y-23751499D01*
X30798400Y-23683888D01*
X30798400Y-21185000D01*
X30817804Y-21125281D01*
X30838034Y-21104484D01*
X30871143Y-21079002D01*
X30918946Y-21013123D01*
X30943000Y-20935572D01*
X30943400Y-20894523D01*
X30943400Y-19996987D01*
X30941845Y-19957138D01*
X30916626Y-19879531D01*
X30869851Y-19815148D01*
X30805468Y-19768373D01*
X30727861Y-19743154D01*
X30688013Y-19741600D01*
X30390000Y-19741600D01*
X30330281Y-19722196D01*
X30293373Y-19671396D01*
X30288400Y-19640000D01*
X30288400Y-19221679D01*
X30286190Y-19155458D01*
X30251827Y-19025599D01*
X30185805Y-18908677D01*
X30141533Y-18860217D01*
X29728158Y-18446842D01*
X29699651Y-18390894D01*
X29698400Y-18375000D01*
X29698400Y-16790000D01*
X29717804Y-16730281D01*
X29768604Y-16693373D01*
X29800000Y-16688400D01*
X31492392Y-16688400D01*
X31553088Y-16685280D01*
X31669966Y-16637003D01*
X31715131Y-16596198D01*
X32343445Y-15972872D01*
X32399506Y-15944588D01*
X32461486Y-15954658D01*
X32505709Y-15999236D01*
X32515088Y-16027539D01*
X32526154Y-16090973D01*
X32574383Y-16208715D01*
X32648862Y-16310033D01*
X32745697Y-16390262D01*
X32859098Y-16444598D01*
X32982286Y-16469793D01*
X33107919Y-16464346D01*
X33228484Y-16428581D01*
X33338542Y-16363591D01*
X33383858Y-16322368D01*
X33425821Y-16278128D01*
X33491701Y-16168592D01*
X33528298Y-16047728D01*
X33534181Y-15921583D01*
X33508992Y-15797838D01*
X33454262Y-15684037D01*
X33373325Y-15587093D01*
X33271115Y-15512931D01*
X33152591Y-15465545D01*
X33088889Y-15455314D01*
X33033002Y-15426686D01*
X33004617Y-15370676D01*
X33014574Y-15308678D01*
X33032927Y-15283389D01*
X33354790Y-14959449D01*
X34541647Y-14959449D01*
X34544027Y-15024704D01*
X34579452Y-15155147D01*
X34646508Y-15270566D01*
X34741092Y-15364766D01*
X34856785Y-15431347D01*
X34985751Y-15465810D01*
X35119249Y-15465810D01*
X35248214Y-15431347D01*
X35363907Y-15364766D01*
X35458491Y-15270566D01*
X35525547Y-15155147D01*
X35560972Y-15024704D01*
X35563352Y-14959449D01*
X35561660Y-14893950D01*
X35526959Y-14762666D01*
X35460159Y-14646235D01*
X35365425Y-14551118D01*
X35249266Y-14483841D01*
X35119618Y-14449010D01*
X34985382Y-14449010D01*
X34855733Y-14483841D01*
X34739574Y-14551118D01*
X34644840Y-14646235D01*
X34578040Y-14762666D01*
X34543339Y-14893950D01*
X34541647Y-14959449D01*
X33354790Y-14959449D01*
X33805729Y-14505600D01*
X33845203Y-14460673D01*
X33893988Y-14344999D01*
X33898400Y-14286196D01*
X33898400Y-5526649D01*
X33897090Y-5486199D01*
X33875782Y-5406498D01*
X33834702Y-5335149D01*
X33807054Y-5305738D01*
X31973158Y-3471842D01*
X31944651Y-3415894D01*
X31943431Y-3397472D01*
X31945180Y-3327161D01*
X31916024Y-3191346D01*
X31852638Y-3069616D01*
X31759206Y-2969093D01*
X31642446Y-2896964D01*
X31510727Y-2858426D01*
X31373504Y-2856227D01*
X31240627Y-2890540D01*
X31120733Y-2959397D01*
X31072637Y-3006085D01*
X31026928Y-3055235D01*
X30959244Y-3175168D01*
X30925983Y-3307114D01*
X30928706Y-3443169D01*
X30967217Y-3573685D01*
X31038784Y-3689407D01*
X31138351Y-3782160D01*
X31258864Y-3845370D01*
X31393269Y-3874888D01*
X31462862Y-3873423D01*
X31522976Y-3891565D01*
X31536947Y-3903263D01*
X33251947Y-5623263D01*
X33280372Y-5679252D01*
X33281600Y-5695000D01*
X33281600Y-7710000D01*
X33262196Y-7769719D01*
X33211396Y-7806627D01*
X33148604Y-7806627D01*
X33108158Y-7781842D01*
X31269164Y-5942848D01*
X31239713Y-5915008D01*
X31168438Y-5873754D01*
X31089298Y-5852493D01*
X31048884Y-5851600D01*
X29790000Y-5851600D01*
X29730281Y-5832196D01*
X29716950Y-5820613D01*
X29665242Y-5767120D01*
X29540258Y-5689980D01*
X29400401Y-5651500D01*
X29253338Y-5653865D01*
X29184717Y-5672223D01*
X29118061Y-5695207D01*
X28995825Y-5775552D01*
X28902260Y-5885611D01*
X28842644Y-6019158D01*
X28830142Y-6092152D01*
X28800934Y-6147738D01*
X28759447Y-6172239D01*
X28692988Y-6192365D01*
X28574562Y-6261581D01*
X28479654Y-6358354D01*
X28413542Y-6476704D01*
X28380894Y-6608269D01*
X28384001Y-6743775D01*
X28422662Y-6873710D01*
X28494136Y-6988890D01*
X28594607Y-7082348D01*
X28655073Y-7116596D01*
X28697472Y-7162912D01*
X28704551Y-7225304D01*
X28673604Y-7279940D01*
X28655819Y-7292977D01*
X28596094Y-7327475D01*
X28496960Y-7421060D01*
X28426361Y-7535858D01*
X28388022Y-7665069D01*
X28384561Y-7799798D01*
X28416238Y-7930789D01*
X28480862Y-8049073D01*
X28573986Y-8146482D01*
X28690544Y-8217149D01*
X28756166Y-8238298D01*
X28807054Y-8275085D01*
X28826441Y-8329320D01*
X28829936Y-8391739D01*
X28862231Y-8510944D01*
X28920917Y-8617960D01*
X29003091Y-8708205D01*
X29105280Y-8777405D01*
X29160137Y-8799615D01*
X29216075Y-8818226D01*
X29338143Y-8832013D01*
X29458583Y-8816914D01*
X29572097Y-8773946D01*
X29673589Y-8704655D01*
X29716626Y-8659723D01*
X29771947Y-8630017D01*
X29790000Y-8628400D01*
X30755000Y-8628400D01*
X30814719Y-8647804D01*
X30826842Y-8658158D01*
X31346842Y-9178158D01*
X31375349Y-9234106D01*
X31376600Y-9250000D01*
X31376600Y-13040000D01*
X31357196Y-13099719D01*
X31346842Y-13111842D01*
X31111842Y-13346842D01*
X31055894Y-13375349D01*
X30993875Y-13365526D01*
X30949474Y-13321125D01*
X30939651Y-13259106D01*
X30941537Y-13249949D01*
X30945422Y-13234677D01*
X30948909Y-13203579D01*
X30948445Y-13188037D01*
X30948400Y-13185000D01*
X30948400Y-10846442D01*
X30947236Y-10805831D01*
X30922018Y-10727619D01*
X30874591Y-10662876D01*
X30809198Y-10616378D01*
X30730557Y-10592257D01*
X30689201Y-10591600D01*
X27097396Y-10591600D01*
X27057647Y-10593481D01*
X26979322Y-10619268D01*
X26913972Y-10666417D01*
X26865930Y-10731104D01*
X26839049Y-10809144D01*
X26836600Y-10848190D01*
X26836600Y-12165000D01*
X26817196Y-12224719D01*
X26766396Y-12261627D01*
X26703604Y-12261627D01*
X26652804Y-12224719D01*
X26641136Y-12203886D01*
X26616875Y-12145323D01*
X26545423Y-12042413D01*
X26452475Y-11960538D01*
X26342623Y-11903294D01*
X26220497Y-11873598D01*
X26158380Y-11871600D01*
X25775000Y-11871600D01*
X25746299Y-11867462D01*
X25727843Y-11862026D01*
X25689505Y-11856600D01*
X25125000Y-11856600D01*
X25065281Y-11837196D01*
X25028373Y-11786396D01*
X25026047Y-11778041D01*
X25011297Y-11714695D01*
X24955813Y-11598841D01*
X24874585Y-11501341D01*
X24771900Y-11426751D01*
X24654068Y-11379652D01*
X24528270Y-11362912D01*
X24402212Y-11377559D01*
X24283596Y-11422695D01*
X24179692Y-11495562D01*
X24096852Y-11591699D01*
X24039417Y-11706670D01*
X24023526Y-11769802D01*
X23990131Y-11822977D01*
X23931859Y-11846368D01*
X23870966Y-11831040D01*
X23870700Y-11830872D01*
X23837541Y-11809904D01*
X23762292Y-11787392D01*
X23723963Y-11786600D01*
X22377396Y-11786600D01*
X22337647Y-11788481D01*
X22259322Y-11814268D01*
X22193972Y-11861417D01*
X22145930Y-11926104D01*
X22119049Y-12004144D01*
X22116600Y-12043190D01*
X22116600Y-12090000D01*
X22097196Y-12149719D01*
X22046396Y-12186627D01*
X22015000Y-12191600D01*
X21225000Y-12191600D01*
X21165281Y-12172196D01*
X21128373Y-12121396D01*
X21123400Y-12090000D01*
X21123400Y-12041987D01*
X21121845Y-12002138D01*
X21096626Y-11924531D01*
X21049851Y-11860148D01*
X20985468Y-11813373D01*
X20907861Y-11788154D01*
X20868013Y-11786600D01*
X19522873Y-11786600D01*
X19476260Y-11789236D01*
X19385775Y-11823458D01*
X19312439Y-11886466D01*
X19286344Y-11928546D01*
X19238380Y-11969072D01*
X19175756Y-11973665D01*
X19147076Y-11961727D01*
X19080740Y-11921246D01*
X18932414Y-11875396D01*
X18857430Y-11871600D01*
X18600000Y-11871600D01*
X18571299Y-11867462D01*
X18552843Y-11862026D01*
X18514505Y-11856600D01*
X17945000Y-11856600D01*
X17885281Y-11837196D01*
X17848373Y-11786396D01*
X17846334Y-11779240D01*
X17829874Y-11712242D01*
X17767617Y-11590948D01*
X17676941Y-11491256D01*
X17563403Y-11418659D01*
X17434869Y-11378177D01*
X17300219Y-11372619D01*
X17168783Y-11402368D01*
X17049650Y-11465364D01*
X16951073Y-11557241D01*
X16879859Y-11671654D01*
X16840498Y-11802154D01*
X16836423Y-11871003D01*
X16813524Y-11929471D01*
X16760632Y-11963314D01*
X16697950Y-11959604D01*
X16649419Y-11919758D01*
X16648457Y-11918224D01*
X16623955Y-11878384D01*
X16554338Y-11819287D01*
X16468394Y-11788134D01*
X16423280Y-11786600D01*
X15077396Y-11786600D01*
X15037647Y-11788481D01*
X14959322Y-11814268D01*
X14893972Y-11861417D01*
X14845930Y-11926104D01*
X14819049Y-12004144D01*
X14816600Y-12043190D01*
X14816600Y-12125000D01*
X14797196Y-12184719D01*
X14746396Y-12221627D01*
X14683604Y-12221627D01*
X14632804Y-12184719D01*
X14624672Y-12171513D01*
X14590606Y-12105358D01*
X14493452Y-11995069D01*
X14371039Y-11916874D01*
X14229838Y-11875007D01*
X14157609Y-11871600D01*
X13840000Y-11871600D01*
X13811299Y-11867462D01*
X13792843Y-11862026D01*
X13754505Y-11856600D01*
X13166456Y-11856600D01*
X13139544Y-11857379D01*
X13083986Y-11868846D01*
X13057686Y-11879352D01*
X12995030Y-11883484D01*
X12978357Y-11877674D01*
X12953451Y-11866482D01*
X12900084Y-11855772D01*
X12872938Y-11856558D01*
X12870000Y-11856600D01*
X12760000Y-11856600D01*
X12700281Y-11837196D01*
X12688158Y-11826842D01*
X10394637Y-9533321D01*
X10345843Y-9488390D01*
X10228361Y-9421588D01*
X10099263Y-9387450D01*
X9965737Y-9387450D01*
X9836638Y-9421588D01*
X9719156Y-9488390D01*
X9671341Y-9532420D01*
X9626575Y-9579589D01*
X9558624Y-9696541D01*
X9523850Y-9825642D01*
X9523850Y-9959357D01*
X9558624Y-10088458D01*
X9626575Y-10205410D01*
X9672783Y-10254099D01*
X12016842Y-12598158D01*
X12045349Y-12654106D01*
X12046288Y-12662046D01*
X12049466Y-12702527D01*
X12076542Y-12777026D01*
X12123681Y-12838413D01*
X12187142Y-12882736D01*
X12263407Y-12906618D01*
X12302331Y-12908400D01*
X12867951Y-12908400D01*
X12896370Y-12907246D01*
X12956141Y-12895319D01*
X12984673Y-12884739D01*
X13047413Y-12882168D01*
X13059391Y-12886347D01*
X13084710Y-12896996D01*
X13138541Y-12908118D01*
X13165485Y-12908400D01*
X13733776Y-12908400D01*
X13753208Y-12907939D01*
X13793946Y-12902133D01*
X13813807Y-12896834D01*
X13840000Y-12893400D01*
X14175000Y-12893400D01*
X14234719Y-12912804D01*
X14271627Y-12963604D01*
X14271627Y-13026396D01*
X14246717Y-13066966D01*
X12801717Y-14506966D01*
X12745720Y-14535377D01*
X12730000Y-14536600D01*
X12700000Y-14536600D01*
X12643763Y-14519616D01*
X12611079Y-14497894D01*
X12535970Y-14475867D01*
X12496859Y-14476583D01*
X12495000Y-14476600D01*
X11560000Y-14476600D01*
X11500281Y-14457196D01*
X11463373Y-14406396D01*
X11458400Y-14375000D01*
X11458400Y-14276776D01*
X11457571Y-14253081D01*
X11449530Y-14202780D01*
X11442431Y-14178334D01*
X11444388Y-14115637D01*
X11451971Y-14094537D01*
X11459050Y-14050228D01*
X11458438Y-14027768D01*
X11458400Y-14025000D01*
X11458400Y-13776776D01*
X11457571Y-13753081D01*
X11449530Y-13702780D01*
X11442431Y-13678334D01*
X11444388Y-13615637D01*
X11451971Y-13594537D01*
X11459050Y-13550228D01*
X11458438Y-13527768D01*
X11458400Y-13525000D01*
X11458400Y-13276984D01*
X11456815Y-13236350D01*
X11431105Y-13157239D01*
X11383411Y-13091588D01*
X11317760Y-13043894D01*
X11238649Y-13018184D01*
X11198015Y-13016600D01*
X10535000Y-13016600D01*
X10475281Y-12997196D01*
X10438373Y-12946396D01*
X10438373Y-12883604D01*
X10475281Y-12832804D01*
X10480918Y-12828990D01*
X10537922Y-12793146D01*
X10633560Y-12700464D01*
X10704050Y-12589190D01*
X10746500Y-12464494D01*
X10758542Y-12333329D01*
X10739526Y-12202983D01*
X10690494Y-12080732D01*
X10614179Y-11973358D01*
X10514840Y-11886864D01*
X10397991Y-11826056D01*
X10268691Y-11793954D01*
X10204510Y-11791647D01*
X10140069Y-11793336D01*
X10010058Y-11824473D01*
X9892339Y-11884647D01*
X9792075Y-11970841D01*
X9714904Y-12078205D01*
X9665167Y-12200699D01*
X9645645Y-12331475D01*
X9657433Y-12463154D01*
X9699880Y-12588372D01*
X9770595Y-12700089D01*
X9866629Y-12793032D01*
X9923902Y-12828877D01*
X9964229Y-12877008D01*
X9968564Y-12939650D01*
X9935251Y-12992877D01*
X9877015Y-13016358D01*
X9870000Y-13016600D01*
X9701443Y-13016600D01*
X9660831Y-13017763D01*
X9582619Y-13042981D01*
X9517876Y-13090408D01*
X9471378Y-13155801D01*
X9447257Y-13234442D01*
X9446600Y-13275798D01*
X9446600Y-13523131D01*
X9447473Y-13546834D01*
X9455524Y-13597289D01*
X9462606Y-13621793D01*
X9460545Y-13684551D01*
X9460441Y-13684836D01*
X9452859Y-13705607D01*
X9445888Y-13749573D01*
X9446555Y-13771978D01*
X9446600Y-13775000D01*
X9446600Y-14023131D01*
X9447473Y-14046834D01*
X9455524Y-14097289D01*
X9462606Y-14121793D01*
X9460545Y-14184551D01*
X9460441Y-14184836D01*
X9452859Y-14205607D01*
X9445888Y-14249573D01*
X9446555Y-14271978D01*
X9446600Y-14275000D01*
X9446600Y-14550000D01*
X9434289Y-14598477D01*
X9417222Y-14629911D01*
X9398094Y-14698791D01*
X9396600Y-14732268D01*
X9396600Y-16053073D01*
X9397931Y-16088189D01*
X9417128Y-16159517D01*
X9434539Y-16191986D01*
X9446600Y-16240000D01*
X9446600Y-16523131D01*
X9447473Y-16546834D01*
X9455524Y-16597289D01*
X9462606Y-16621793D01*
X9460545Y-16684551D01*
X9460441Y-16684836D01*
X9452859Y-16705607D01*
X9445888Y-16749573D01*
X9446555Y-16771978D01*
X9446600Y-16775000D01*
X9446600Y-17023131D01*
X9447473Y-17046834D01*
X9455524Y-17097289D01*
X9462606Y-17121793D01*
X9460545Y-17184551D01*
X9460441Y-17184836D01*
X9452859Y-17205607D01*
X9445888Y-17249573D01*
X9446555Y-17271978D01*
X9446600Y-17275000D01*
X9446600Y-17523131D01*
X9447473Y-17546834D01*
X9455524Y-17597289D01*
X9462606Y-17621793D01*
X9460545Y-17684551D01*
X9460441Y-17684836D01*
X9452859Y-17705607D01*
X9445888Y-17749573D01*
X9446555Y-17771978D01*
X9446600Y-17775000D01*
X9446600Y-18023131D01*
X9447473Y-18046834D01*
X9455524Y-18097289D01*
X9462606Y-18121793D01*
X9460545Y-18184551D01*
X9460441Y-18184836D01*
X9452859Y-18205607D01*
X9445888Y-18249573D01*
X9446555Y-18271978D01*
X9446600Y-18275000D01*
X9446600Y-18523131D01*
X9447473Y-18546834D01*
X9455524Y-18597289D01*
X9462606Y-18621793D01*
X9460545Y-18684551D01*
X9460441Y-18684836D01*
X9452859Y-18705607D01*
X9445888Y-18749573D01*
X9446555Y-18771978D01*
X9446600Y-18775000D01*
X9446600Y-19023131D01*
X9447473Y-19046834D01*
X9455524Y-19097289D01*
X9462606Y-19121793D01*
X9460545Y-19184551D01*
X9460441Y-19184836D01*
X9452859Y-19205607D01*
X9445888Y-19249573D01*
X9446555Y-19271978D01*
X9446600Y-19275000D01*
X9446600Y-19523131D01*
X9447473Y-19546834D01*
X9455524Y-19597289D01*
X9462606Y-19621793D01*
X9460545Y-19684551D01*
X9460441Y-19684836D01*
X9452859Y-19705607D01*
X9445888Y-19749573D01*
X9446555Y-19771978D01*
X9446600Y-19775000D01*
X9446600Y-20023131D01*
X9447473Y-20046834D01*
X9455524Y-20097289D01*
X9462606Y-20121793D01*
X9460545Y-20184551D01*
X9460441Y-20184836D01*
X9452859Y-20205607D01*
X9445888Y-20249573D01*
X9446555Y-20271978D01*
X9446600Y-20275000D01*
X9446600Y-20522637D01*
X9448448Y-20562462D01*
X9474186Y-20640817D01*
X9521308Y-20706182D01*
X9586000Y-20754214D01*
X9663989Y-20781039D01*
X9703063Y-20783400D01*
X11197918Y-20783400D01*
X11235208Y-20781866D01*
X11311081Y-20760443D01*
X11345565Y-20741238D01*
X11407179Y-20729133D01*
X11464141Y-20755555D01*
X11494694Y-20810413D01*
X11496460Y-20835340D01*
X11491460Y-20930340D01*
X11468944Y-20988957D01*
X11461842Y-20996842D01*
X11431842Y-21026842D01*
X11375894Y-21055349D01*
X11318037Y-21047529D01*
X11288566Y-21034163D01*
X11225779Y-21018468D01*
X11196738Y-21016600D01*
X9701443Y-21016600D01*
X9660831Y-21017763D01*
X9582619Y-21042981D01*
X9517876Y-21090408D01*
X9471378Y-21155801D01*
X9447257Y-21234442D01*
X9446600Y-21275798D01*
X9446600Y-21523131D01*
X9447473Y-21546834D01*
X9455524Y-21597289D01*
X9462606Y-21621793D01*
X9460545Y-21684551D01*
X9460441Y-21684836D01*
X9452859Y-21705607D01*
X9445888Y-21749573D01*
X9446555Y-21771978D01*
X9446600Y-21775000D01*
X9446600Y-22023131D01*
X9447473Y-22046834D01*
X9455524Y-22097289D01*
X9462606Y-22121793D01*
X9460545Y-22184551D01*
X9460441Y-22184836D01*
X9452859Y-22205607D01*
X9445888Y-22249573D01*
X9446555Y-22271978D01*
X9446600Y-22275000D01*
X9446600Y-22523131D01*
X9447473Y-22546834D01*
X9455524Y-22597289D01*
X9462606Y-22621793D01*
X9460545Y-22684551D01*
X9460441Y-22684836D01*
X9452859Y-22705607D01*
X9445888Y-22749573D01*
X9446555Y-22771978D01*
X9446600Y-22775000D01*
X9446600Y-23023131D01*
X9447473Y-23046834D01*
X9455524Y-23097289D01*
X9462606Y-23121793D01*
X9460545Y-23184551D01*
X9460441Y-23184836D01*
X9452859Y-23205607D01*
X9445888Y-23249573D01*
X9446555Y-23271978D01*
X9446600Y-23275000D01*
X9446600Y-23523131D01*
X9447473Y-23546834D01*
X9455524Y-23597289D01*
X9462606Y-23621793D01*
X9460545Y-23684551D01*
X9460441Y-23684836D01*
X9452859Y-23705607D01*
X9445888Y-23749573D01*
X9446555Y-23771978D01*
X9446600Y-23775000D01*
X9446600Y-24023131D01*
X9447473Y-24046834D01*
X9455524Y-24097289D01*
X9462606Y-24121793D01*
X9460545Y-24184551D01*
X9460441Y-24184836D01*
X9452859Y-24205607D01*
X9445888Y-24249573D01*
X9446555Y-24271978D01*
X9446600Y-24275000D01*
X9446600Y-24523131D01*
X9447473Y-24546834D01*
X9455524Y-24597289D01*
X9462606Y-24621793D01*
X9460545Y-24684551D01*
X9460441Y-24684836D01*
X9452859Y-24705607D01*
X9445888Y-24749573D01*
X9446555Y-24771978D01*
X9446600Y-24775000D01*
X9446600Y-24990000D01*
X9427196Y-25049719D01*
X9376396Y-25086627D01*
X9345000Y-25091600D01*
X9050000Y-25091600D01*
X8990281Y-25072196D01*
X8953373Y-25021396D01*
X8950213Y-25009110D01*
X8937526Y-24942866D01*
X8883942Y-24820824D01*
X8802337Y-24717383D01*
X8697335Y-24637786D01*
X8574278Y-24586555D01*
X8507796Y-24575133D01*
X8453158Y-24546842D01*
X8025552Y-24119236D01*
X7988096Y-24086462D01*
X7955930Y-24032534D01*
X7953400Y-24010000D01*
X7953400Y-23766868D01*
X7952526Y-23743165D01*
X7944475Y-23692710D01*
X7937394Y-23668207D01*
X7939455Y-23605449D01*
X7939559Y-23605164D01*
X7947140Y-23584392D01*
X7954111Y-23540426D01*
X7953445Y-23518022D01*
X7953400Y-23515000D01*
X7953400Y-23266868D01*
X7952526Y-23243165D01*
X7944475Y-23192710D01*
X7937394Y-23168207D01*
X7939455Y-23105449D01*
X7939559Y-23105164D01*
X7947140Y-23084392D01*
X7954111Y-23040426D01*
X7953445Y-23018022D01*
X7953400Y-23015000D01*
X7953400Y-22766868D01*
X7952526Y-22743165D01*
X7944475Y-22692710D01*
X7937394Y-22668207D01*
X7939455Y-22605449D01*
X7939559Y-22605164D01*
X7947140Y-22584392D01*
X7954111Y-22540426D01*
X7953445Y-22518022D01*
X7953400Y-22515000D01*
X7953400Y-22267372D01*
X7951612Y-22229258D01*
X7928664Y-22153377D01*
X7885716Y-22087001D01*
X7856093Y-22059662D01*
X7825368Y-22004900D01*
X7831835Y-21949884D01*
X7795840Y-21994879D01*
X7735285Y-22011491D01*
X7727398Y-22010815D01*
X7693678Y-22006600D01*
X5500000Y-22006600D01*
X5440281Y-21987196D01*
X5403373Y-21936396D01*
X5398400Y-21905000D01*
X5398400Y-21661444D01*
X5397524Y-21630635D01*
X5382365Y-21568020D01*
X5368423Y-21539002D01*
X5360049Y-21476770D01*
X5369366Y-21449087D01*
X5383900Y-21420395D01*
X5398619Y-21357845D01*
X5398402Y-21325688D01*
X5398400Y-21325000D01*
X5398400Y-21000000D01*
X5417804Y-20940281D01*
X5468604Y-20903373D01*
X5500263Y-20898400D01*
X5576661Y-20898597D01*
X5724690Y-20861679D01*
X5791848Y-20825535D01*
X5853631Y-20814319D01*
X5910207Y-20841559D01*
X5939966Y-20896851D01*
X5941600Y-20915000D01*
X5941600Y-21014696D01*
X5941710Y-21036895D01*
X5950435Y-21080685D01*
X5958920Y-21101251D01*
X5963760Y-21163856D01*
X5961396Y-21172100D01*
X5953274Y-21196489D01*
X5943191Y-21246807D01*
X5941600Y-21268694D01*
X5941600Y-21513614D01*
X5942721Y-21554302D01*
X5967867Y-21632558D01*
X6015266Y-21697306D01*
X6080672Y-21743802D01*
X6159255Y-21767851D01*
X6200667Y-21768400D01*
X7690000Y-21768400D01*
X7749719Y-21787804D01*
X7753469Y-21790664D01*
X7803469Y-21830664D01*
X7837980Y-21883122D01*
X7835353Y-21939661D01*
X7875286Y-21896394D01*
X7936862Y-21884095D01*
X7945506Y-21885491D01*
X8007887Y-21898345D01*
X8133699Y-21896711D01*
X8253928Y-21864962D01*
X8362837Y-21804989D01*
X8455143Y-21719252D01*
X8489997Y-21669272D01*
X8521861Y-21617486D01*
X8563435Y-21498643D01*
X8575004Y-21374728D01*
X8556367Y-21251684D01*
X8508041Y-21135370D01*
X8471617Y-21083051D01*
X8453421Y-21022953D01*
X8474024Y-20963637D01*
X8513827Y-20932116D01*
X8577628Y-20903834D01*
X8687031Y-20820026D01*
X8769216Y-20711499D01*
X8819609Y-20585039D01*
X8834594Y-20449717D01*
X8812793Y-20313458D01*
X8787377Y-20251894D01*
X8758038Y-20192404D01*
X8670124Y-20086337D01*
X8558800Y-20007897D01*
X8430833Y-19961332D01*
X8295141Y-19949878D01*
X8159798Y-19974597D01*
X8096274Y-20002839D01*
X8033822Y-20009368D01*
X7979460Y-19977943D01*
X7953951Y-19920565D01*
X7953400Y-19910000D01*
X7953400Y-19766868D01*
X7952526Y-19743165D01*
X7944475Y-19692710D01*
X7937394Y-19668207D01*
X7939455Y-19605449D01*
X7939559Y-19605164D01*
X7947140Y-19584392D01*
X7954111Y-19540426D01*
X7953445Y-19518022D01*
X7953400Y-19515000D01*
X7953400Y-19266868D01*
X7952526Y-19243165D01*
X7944475Y-19192710D01*
X7937394Y-19168207D01*
X7939455Y-19105449D01*
X7939559Y-19105164D01*
X7947140Y-19084392D01*
X7954111Y-19040426D01*
X7953445Y-19018022D01*
X7953400Y-19015000D01*
X7953400Y-18766868D01*
X7952526Y-18743165D01*
X7944475Y-18692710D01*
X7937394Y-18668207D01*
X7939455Y-18605449D01*
X7939559Y-18605164D01*
X7947140Y-18584392D01*
X7954111Y-18540426D01*
X7953445Y-18518022D01*
X7953400Y-18515000D01*
X7953400Y-18266868D01*
X7952526Y-18243165D01*
X7944475Y-18192710D01*
X7937394Y-18168207D01*
X7939455Y-18105449D01*
X7939559Y-18105164D01*
X7947140Y-18084392D01*
X7954111Y-18040426D01*
X7953445Y-18018022D01*
X7953400Y-18015000D01*
X7953400Y-17766868D01*
X7952526Y-17743165D01*
X7944475Y-17692710D01*
X7937394Y-17668207D01*
X7939455Y-17605449D01*
X7939559Y-17605164D01*
X7947140Y-17584392D01*
X7954111Y-17540426D01*
X7953445Y-17518022D01*
X7953400Y-17515000D01*
X7953400Y-17266868D01*
X7952526Y-17243165D01*
X7944475Y-17192710D01*
X7937394Y-17168207D01*
X7939455Y-17105449D01*
X7939559Y-17105164D01*
X7947140Y-17084392D01*
X7954111Y-17040426D01*
X7953445Y-17018022D01*
X7953400Y-17015000D01*
X7953400Y-16766868D01*
X7952526Y-16743165D01*
X7944475Y-16692710D01*
X7937394Y-16668207D01*
X7939455Y-16605449D01*
X7939559Y-16605164D01*
X7947140Y-16584392D01*
X7954111Y-16540426D01*
X7953445Y-16518022D01*
X7953400Y-16515000D01*
X7953400Y-16267362D01*
X7951551Y-16227537D01*
X7925813Y-16149182D01*
X7878691Y-16083817D01*
X7813999Y-16035785D01*
X7736010Y-16008960D01*
X7696937Y-16006600D01*
X6201985Y-16006600D01*
X6161350Y-16008184D01*
X6082239Y-16033894D01*
X6016588Y-16081588D01*
X5968894Y-16147239D01*
X5943184Y-16226350D01*
X5941600Y-16266984D01*
X5941600Y-16514696D01*
X5941710Y-16536895D01*
X5950435Y-16580685D01*
X5958920Y-16601251D01*
X5963760Y-16663856D01*
X5961396Y-16672100D01*
X5953274Y-16696489D01*
X5943191Y-16746807D01*
X5941600Y-16768694D01*
X5941600Y-16875000D01*
X5922196Y-16934719D01*
X5871396Y-16971627D01*
X5808604Y-16971627D01*
X5790197Y-16963556D01*
X5735391Y-16932733D01*
X5616805Y-16895892D01*
X5494387Y-16888487D01*
X5373745Y-16910495D01*
X5261821Y-16960642D01*
X5165098Y-17036033D01*
X5089159Y-17132320D01*
X5037727Y-17245366D01*
X5024234Y-17306798D01*
X4992470Y-17360963D01*
X4934934Y-17386113D01*
X4911411Y-17385687D01*
X4841467Y-17376246D01*
X4702915Y-17390790D01*
X4575020Y-17441462D01*
X4465486Y-17524702D01*
X4381331Y-17635768D01*
X4354313Y-17697892D01*
X4330987Y-17761088D01*
X4314789Y-17898911D01*
X4335531Y-18034430D01*
X4391539Y-18159556D01*
X4479835Y-18266584D01*
X4535999Y-18308750D01*
X4572107Y-18360122D01*
X4571124Y-18422906D01*
X4535676Y-18471492D01*
X4485460Y-18508880D01*
X4403955Y-18601824D01*
X4347637Y-18710162D01*
X4318368Y-18830309D01*
X4316644Y-18889955D01*
X4318432Y-18949543D01*
X4347838Y-19069663D01*
X4404206Y-19178034D01*
X4485692Y-19271113D01*
X4535862Y-19308647D01*
X4572057Y-19359958D01*
X4571179Y-19422744D01*
X4535834Y-19471375D01*
X4482186Y-19511480D01*
X4396512Y-19612352D01*
X4339708Y-19730156D01*
X4314181Y-19859739D01*
X4316430Y-19923401D01*
X4322436Y-19986646D01*
X4363823Y-20111412D01*
X4434619Y-20220311D01*
X4531882Y-20308794D01*
X4589890Y-20341492D01*
X4632385Y-20387720D01*
X4639592Y-20450098D01*
X4608759Y-20504798D01*
X4552770Y-20530794D01*
X4529697Y-20533716D01*
X4484655Y-20545472D01*
X4463074Y-20554196D01*
X4400435Y-20558586D01*
X4383357Y-20552674D01*
X4358451Y-20541482D01*
X4305084Y-20530772D01*
X4277938Y-20531558D01*
X4275000Y-20531600D01*
X3711987Y-20531600D01*
X3672138Y-20533154D01*
X3594531Y-20558373D01*
X3530148Y-20605148D01*
X3483373Y-20669531D01*
X3458154Y-20747138D01*
X3456600Y-20786987D01*
X3456600Y-21322820D01*
X3457992Y-21355072D01*
X3473775Y-21422164D01*
X3487804Y-21453649D01*
X3494386Y-21516095D01*
X3486291Y-21539593D01*
X3472321Y-21568191D01*
X3457356Y-21630339D01*
X3456600Y-21661257D01*
X3456600Y-21720000D01*
X3437196Y-21779719D01*
X3386396Y-21816627D01*
X3323604Y-21816627D01*
X3283543Y-21792225D01*
X2813543Y-21327225D01*
X2784737Y-21271430D01*
X2794228Y-21209359D01*
X2810725Y-21185676D01*
X2880725Y-21110676D01*
X2881167Y-21110206D01*
X2909991Y-21079713D01*
X2951245Y-21008438D01*
X2972506Y-20929298D01*
X2973400Y-20888884D01*
X2973400Y-20781376D01*
X2972366Y-20743230D01*
X2952709Y-20666627D01*
X2934626Y-20631423D01*
X2924599Y-20569436D01*
X2935009Y-20537838D01*
X2953647Y-20502273D01*
X2973111Y-20424419D01*
X2973400Y-20384674D01*
X2973400Y-20276874D01*
X2971932Y-20237290D01*
X2951804Y-20156784D01*
X2933640Y-20119452D01*
X2924960Y-20057262D01*
X2935009Y-20027838D01*
X2953647Y-19992273D01*
X2973111Y-19914419D01*
X2973400Y-19874674D01*
X2973400Y-19766874D01*
X2971932Y-19727290D01*
X2951804Y-19646784D01*
X2933640Y-19609452D01*
X2924960Y-19547262D01*
X2934258Y-19519300D01*
X2952250Y-19483574D01*
X2972136Y-19406371D01*
X2973400Y-19368314D01*
X2973400Y-19261649D01*
X2972090Y-19221199D01*
X2950782Y-19141498D01*
X2909702Y-19070149D01*
X2880973Y-19039588D01*
X2880725Y-19039324D01*
X2811526Y-18965182D01*
X2802969Y-18956442D01*
X2781668Y-18940040D01*
X2770007Y-18933449D01*
X2727566Y-18887172D01*
X2718400Y-18845000D01*
X2718400Y-13266984D01*
X5941600Y-13266984D01*
X5941600Y-13514696D01*
X5941710Y-13536895D01*
X5950435Y-13580685D01*
X5958920Y-13601251D01*
X5963760Y-13663856D01*
X5961396Y-13672100D01*
X5953274Y-13696489D01*
X5943191Y-13746807D01*
X5941600Y-13768694D01*
X5941600Y-14014696D01*
X5941710Y-14036895D01*
X5950435Y-14080685D01*
X5958920Y-14101251D01*
X5963760Y-14163856D01*
X5961396Y-14172100D01*
X5953274Y-14196489D01*
X5943191Y-14246807D01*
X5941600Y-14268694D01*
X5941600Y-14513614D01*
X5942721Y-14554302D01*
X5967867Y-14632558D01*
X6015266Y-14697306D01*
X6080672Y-14743802D01*
X6159255Y-14767851D01*
X6200667Y-14768400D01*
X7698013Y-14768400D01*
X7737861Y-14766845D01*
X7815468Y-14741626D01*
X7879851Y-14694851D01*
X7926626Y-14630468D01*
X7951845Y-14552861D01*
X7953400Y-14513012D01*
X7953400Y-14266868D01*
X7952526Y-14243165D01*
X7944475Y-14192710D01*
X7937394Y-14168207D01*
X7939455Y-14105449D01*
X7939559Y-14105164D01*
X7947140Y-14084392D01*
X7954111Y-14040426D01*
X7953445Y-14018022D01*
X7953400Y-14015000D01*
X7953400Y-13766868D01*
X7952526Y-13743165D01*
X7944475Y-13692710D01*
X7937394Y-13668207D01*
X7939455Y-13605449D01*
X7939559Y-13605164D01*
X7947140Y-13584392D01*
X7954111Y-13540426D01*
X7953445Y-13518022D01*
X7953400Y-13515000D01*
X7953400Y-13267362D01*
X7951551Y-13227537D01*
X7925813Y-13149182D01*
X7878691Y-13083817D01*
X7813999Y-13035785D01*
X7736010Y-13008960D01*
X7696937Y-13006600D01*
X6201985Y-13006600D01*
X6161350Y-13008184D01*
X6082239Y-13033894D01*
X6016588Y-13081588D01*
X5968894Y-13147239D01*
X5943184Y-13226350D01*
X5941600Y-13266984D01*
X2718400Y-13266984D01*
X2718400Y-7790000D01*
X2737804Y-7730281D01*
X2748225Y-7718091D01*
X5433225Y-5038091D01*
X5489200Y-5009636D01*
X5505000Y-5008400D01*
X21948351Y-5008400D01*
X21988800Y-5007090D01*
X22068501Y-4985782D01*
X22139850Y-4944702D01*
X22169261Y-4917054D01*
X23077151Y-4009164D01*
X23104991Y-3979713D01*
X23146245Y-3908438D01*
X23167506Y-3829298D01*
X23168400Y-3788884D01*
X23168400Y-3155000D01*
X23187804Y-3095281D01*
X23197620Y-3083700D01*
X23527620Y-2748700D01*
X23583352Y-2719773D01*
X23600000Y-2718400D01*
X23835000Y-2718400D01*
X23894719Y-2737804D01*
X23906842Y-2748158D01*
X23931842Y-2773158D01*
X23960349Y-2829106D01*
X23950526Y-2891125D01*
X23944536Y-2901358D01*
X23914536Y-2946358D01*
X23891007Y-2971245D01*
X23836735Y-3011997D01*
X23750467Y-3114572D01*
X23694054Y-3234357D01*
X23670202Y-3364592D01*
X23680519Y-3496589D01*
X23724928Y-3623324D01*
X23759202Y-3678033D01*
X23796670Y-3729411D01*
X23896906Y-3816365D01*
X24014522Y-3874299D01*
X24143008Y-3900454D01*
X24273911Y-3893105D01*
X24400198Y-3852235D01*
X24457906Y-3817772D01*
X24519126Y-3803811D01*
X24561733Y-3817557D01*
X24619867Y-3851950D01*
X24746989Y-3892603D01*
X24878710Y-3899811D01*
X25007997Y-3873594D01*
X25126502Y-3815628D01*
X25227990Y-3728462D01*
X25266332Y-3677230D01*
X25300672Y-3623192D01*
X25345159Y-3496688D01*
X25355522Y-3364631D01*
X25331615Y-3234358D01*
X25275034Y-3114590D01*
X25188474Y-3012073D01*
X25134071Y-2971303D01*
X25107470Y-2941585D01*
X25098183Y-2925827D01*
X25075109Y-2897436D01*
X25061567Y-2885096D01*
X25058158Y-2881842D01*
X24973158Y-2796842D01*
X24944651Y-2740894D01*
X24943400Y-2725000D01*
X24943400Y-2692607D01*
X24940280Y-2631911D01*
X24892003Y-2515033D01*
X24851177Y-2469844D01*
X24328979Y-1942674D01*
X24299713Y-1915008D01*
X24228438Y-1873754D01*
X24149298Y-1852493D01*
X24108884Y-1851600D01*
X23326649Y-1851600D01*
X23286199Y-1852909D01*
X23206498Y-1874217D01*
X23135149Y-1915297D01*
X23105738Y-1942945D01*
X22841842Y-2206842D01*
X22785894Y-2235349D01*
X22723875Y-2225526D01*
X22679474Y-2181125D01*
X22668455Y-2131669D01*
X22670574Y-2067050D01*
X22647348Y-1941398D01*
X22595041Y-1826455D01*
X22516480Y-1727568D01*
X22414999Y-1649602D01*
X22359605Y-1623292D01*
X22302358Y-1600842D01*
X22175457Y-1581027D01*
X22049154Y-1592978D01*
X21929704Y-1635721D01*
X21823400Y-1707348D01*
X21779054Y-1754560D01*
X21724025Y-1784803D01*
X21705000Y-1786600D01*
X5146649Y-1786600D01*
X5106199Y-1787909D01*
X5026498Y-1809217D01*
X4955149Y-1850297D01*
X4925738Y-1877945D01*
X431842Y-6371842D01*
X375894Y-6400349D01*
X313875Y-6390526D01*
X269474Y-6346125D01*
X258400Y-6300000D01*
X258400Y-1000000D01*
X258454Y-996684D01*
X261194Y-912784D01*
X264602Y-889802D01*
X308032Y-727732D01*
X318179Y-703235D01*
X402069Y-557915D01*
X418218Y-536868D01*
X536868Y-418218D01*
X557915Y-402069D01*
X703235Y-318179D01*
X727732Y-308032D01*
X889802Y-264602D01*
X912784Y-261194D01*
X996684Y-258454D01*
X1000000Y-258400D01*
X39000000Y-258400D01*
X39003316Y-258454D01*
G37*
%TD.AperFunction*%
%TA.AperFunction,Conductor*%
G36*
X7335206Y-35471694D02*
G01*
X7382372Y-35513147D01*
X7394664Y-35545261D01*
X7403953Y-35592167D01*
X7449505Y-35673781D01*
X7518904Y-35733283D01*
X7606999Y-35766018D01*
X7652649Y-35768400D01*
X7715000Y-35768400D01*
X7774719Y-35787804D01*
X7811627Y-35838604D01*
X7811627Y-35901396D01*
X7785728Y-35942939D01*
X7620728Y-36102939D01*
X7564348Y-36130582D01*
X7548020Y-36131581D01*
X7485396Y-36130360D01*
X7362350Y-36154198D01*
X7304495Y-36178609D01*
X7241930Y-36183946D01*
X7188177Y-36151489D01*
X7163768Y-36093635D01*
X7163400Y-36085000D01*
X7163400Y-35690000D01*
X7170520Y-35652636D01*
X7179776Y-35629230D01*
X7191523Y-35580473D01*
X7193836Y-35555595D01*
X7218685Y-35497928D01*
X7272684Y-35465881D01*
X7335206Y-35471694D01*
G37*
%TD.AperFunction*%
%TA.AperFunction,Conductor*%
G36*
X23684719Y-23692804D02*
G01*
X23721627Y-23743604D01*
X23721627Y-23806396D01*
X23721090Y-23808004D01*
X23704642Y-23855889D01*
X23687331Y-23955748D01*
X23686600Y-24005736D01*
X23686600Y-24150000D01*
X23667196Y-24209719D01*
X23616396Y-24246627D01*
X23585000Y-24251600D01*
X22980000Y-24251600D01*
X22950106Y-24247103D01*
X22928273Y-24240381D01*
X22883175Y-24232562D01*
X22862622Y-24231600D01*
X21966985Y-24231600D01*
X21926350Y-24233184D01*
X21847239Y-24258894D01*
X21781588Y-24306588D01*
X21733894Y-24372239D01*
X21708184Y-24451350D01*
X21706600Y-24491984D01*
X21706600Y-25288015D01*
X21708184Y-25328649D01*
X21733894Y-25407760D01*
X21781588Y-25473411D01*
X21847239Y-25521105D01*
X21926350Y-25546815D01*
X21966985Y-25548400D01*
X22864408Y-25548400D01*
X22884991Y-25548147D01*
X22926798Y-25540887D01*
X22946825Y-25533969D01*
X22980000Y-25528400D01*
X23635000Y-25528400D01*
X23694719Y-25547804D01*
X23706842Y-25558158D01*
X23806113Y-25657429D01*
X23842241Y-25692129D01*
X23925464Y-25751306D01*
X23970970Y-25774395D01*
X24015447Y-25818719D01*
X24025376Y-25880722D01*
X23996965Y-25936719D01*
X23981399Y-25949509D01*
X23925322Y-25986932D01*
X23835156Y-26084779D01*
X23774493Y-26203127D01*
X23759188Y-26267066D01*
X23745829Y-26332098D01*
X23749861Y-26466516D01*
X23788606Y-26595170D01*
X23822793Y-26653863D01*
X23836083Y-26715232D01*
X23810764Y-26772694D01*
X23756505Y-26804298D01*
X23735000Y-26806600D01*
X20615000Y-26806600D01*
X20555281Y-26787196D01*
X20543158Y-26776842D01*
X19014164Y-25247848D01*
X18984713Y-25220008D01*
X18913438Y-25178754D01*
X18834298Y-25157493D01*
X18793884Y-25156600D01*
X17105000Y-25156600D01*
X17045281Y-25137196D01*
X17028636Y-25122016D01*
X16983496Y-25070580D01*
X16870288Y-24993729D01*
X16805793Y-24970669D01*
X16756094Y-24932291D01*
X16738443Y-24872031D01*
X16741176Y-24851412D01*
X16746252Y-24830144D01*
X16752429Y-24786811D01*
X16753400Y-24767449D01*
X16753400Y-24735000D01*
X16772804Y-24675281D01*
X16823604Y-24638373D01*
X16869032Y-24634374D01*
X16927170Y-24642481D01*
X17042940Y-24635437D01*
X17152919Y-24603033D01*
X17254197Y-24546102D01*
X17297022Y-24509449D01*
X17337689Y-24471025D01*
X17404194Y-24376704D01*
X17447333Y-24271123D01*
X17465890Y-24157382D01*
X17463487Y-24099192D01*
X17480410Y-24038723D01*
X17493158Y-24023158D01*
X17813158Y-23703158D01*
X17869106Y-23674651D01*
X17885000Y-23673400D01*
X23625000Y-23673400D01*
X23684719Y-23692804D01*
G37*
%TD.AperFunction*%
%TA.AperFunction,Conductor*%
G36*
X2197038Y-21938354D02*
G01*
X3110945Y-22857255D01*
X3140286Y-22884991D01*
X3211561Y-22926245D01*
X3290701Y-22947506D01*
X3331116Y-22948400D01*
X3355000Y-22948400D01*
X3414719Y-22967804D01*
X3451627Y-23018604D01*
X3456600Y-23050000D01*
X3456600Y-23362871D01*
X3458197Y-23401007D01*
X3481331Y-23478133D01*
X3502084Y-23512665D01*
X3516214Y-23573847D01*
X3499616Y-23621237D01*
X3477894Y-23653920D01*
X3455867Y-23729029D01*
X3456583Y-23768141D01*
X3456600Y-23770000D01*
X3456600Y-24230000D01*
X3437196Y-24289719D01*
X3386396Y-24326627D01*
X3355000Y-24331600D01*
X2200000Y-24331600D01*
X2140281Y-24312196D01*
X2125879Y-24299488D01*
X2050879Y-24219488D01*
X2024191Y-24162650D01*
X2023400Y-24150000D01*
X2023400Y-22010000D01*
X2042804Y-21950281D01*
X2093604Y-21913373D01*
X2156396Y-21913373D01*
X2197038Y-21938354D01*
G37*
%TD.AperFunction*%
%TA.AperFunction,Conductor*%
G36*
X28756125Y-22449474D02*
G01*
X28800526Y-22493875D01*
X28811600Y-22540000D01*
X28811600Y-22832951D01*
X28812753Y-22861370D01*
X28824680Y-22921141D01*
X28835261Y-22949673D01*
X28837832Y-23012413D01*
X28832674Y-23026643D01*
X28821482Y-23051548D01*
X28810772Y-23104915D01*
X28811558Y-23132062D01*
X28811600Y-23135000D01*
X28811600Y-23702946D01*
X28813374Y-23746825D01*
X28843738Y-23831064D01*
X28900954Y-23899714D01*
X28939564Y-23924295D01*
X28979519Y-23972735D01*
X28983372Y-24035409D01*
X28949649Y-24088377D01*
X28891233Y-24111409D01*
X28885000Y-24111600D01*
X28740000Y-24111600D01*
X28680281Y-24092196D01*
X28643373Y-24041396D01*
X28638400Y-24010000D01*
X28638400Y-24006331D01*
X28636657Y-23939300D01*
X28605473Y-23807669D01*
X28545292Y-23688079D01*
X28459060Y-23585660D01*
X28351459Y-23505995D01*
X28228345Y-23453397D01*
X28096391Y-23430741D01*
X27962776Y-23439238D01*
X27834758Y-23478436D01*
X27719301Y-23546206D01*
X27622665Y-23638870D01*
X27549346Y-23752562D01*
X27524858Y-23816393D01*
X27485351Y-23865199D01*
X27424701Y-23881462D01*
X27366075Y-23858970D01*
X27335471Y-23817240D01*
X27305268Y-23740574D01*
X27210495Y-23607939D01*
X27083073Y-23506477D01*
X27008121Y-23472568D01*
X26961710Y-23430273D01*
X26949022Y-23368776D01*
X26958232Y-23336398D01*
X26988932Y-23271782D01*
X27016912Y-23131422D01*
X27013514Y-23059817D01*
X27030065Y-22999245D01*
X27079058Y-22959970D01*
X27115000Y-22953400D01*
X28023351Y-22953400D01*
X28063800Y-22952090D01*
X28143501Y-22930782D01*
X28214850Y-22889702D01*
X28244261Y-22862054D01*
X28638158Y-22468158D01*
X28694106Y-22439651D01*
X28756125Y-22449474D01*
G37*
%TD.AperFunction*%
%TA.AperFunction,Conductor*%
G36*
X25281125Y-23069474D02*
G01*
X25325526Y-23113875D01*
X25335783Y-23147144D01*
X25341951Y-23195502D01*
X25368048Y-23289280D01*
X25387815Y-23333672D01*
X25394380Y-23396121D01*
X25362986Y-23450501D01*
X25332064Y-23469598D01*
X25292540Y-23485083D01*
X25217448Y-23524880D01*
X25182326Y-23548883D01*
X25122073Y-23566558D01*
X25062937Y-23545441D01*
X25054772Y-23538420D01*
X24939772Y-23428420D01*
X24910029Y-23373119D01*
X24918471Y-23310897D01*
X24961875Y-23265521D01*
X24964314Y-23264251D01*
X24987436Y-23252610D01*
X25029492Y-23221938D01*
X25047936Y-23203381D01*
X25048158Y-23203158D01*
X25163158Y-23088158D01*
X25219106Y-23059651D01*
X25281125Y-23069474D01*
G37*
%TD.AperFunction*%
%TD*%
%TA.AperFunction,Conductor*%
%TO.N,+5V*%
G36*
X12497000Y-16053000D02*
G01*
X9652000Y-16053000D01*
X9652000Y-14732000D01*
X12497000Y-14732000D01*
X12497000Y-16053000D01*
G37*
%TD.AperFunction*%
%TD*%
M02*
