%TF.GenerationSoftware,KiCad,Pcbnew,9.0.4*%
%TF.CreationDate,2025-09-14T02:35:36-04:00*%
%TF.ProjectId,D8X3C_Backpack_V1.0,44385833-435f-4426-9163-6b7061636b5f,rev?*%
%TF.SameCoordinates,Original*%
%TF.FileFunction,Profile,NP*%
%FSLAX46Y46*%
G04 Gerber Fmt 4.6, Leading zero omitted, Abs format (unit mm)*
G04 Created by KiCad (PCBNEW 9.0.4) date 2025-09-14 02:35:36*
%MOMM*%
%LPD*%
G01*
G04 APERTURE LIST*
%TA.AperFunction,Profile*%
%ADD10C,0.254000*%
%TD*%
%TA.AperFunction,Profile*%
%ADD11C,0.000000*%
%TD*%
G04 APERTURE END LIST*
D10*
X1000000Y-40000000D02*
G75*
G02*
X0Y-39000000I0J1000000D01*
G01*
X0Y-1000000D02*
G75*
G02*
X1000000Y0I1000000J0D01*
G01*
X1000000Y-40000000D02*
X39000000Y-40000000D01*
X1000000Y0D02*
X39000000Y0D01*
X40000000Y-1000000D02*
X40000000Y-39000000D01*
X40000000Y-39000000D02*
G75*
G02*
X39000000Y-40000000I-1000000J0D01*
G01*
X0Y-1000000D02*
X0Y-39000000D01*
X39000000Y0D02*
G75*
G02*
X40000000Y-1000000I0J-1000000D01*
G01*
D11*
%TA.AperFunction,Profile*%
%TO.C,USB1*%
G36*
X17754439Y-33233142D02*
G01*
X17833567Y-33278826D01*
X17898174Y-33343433D01*
X17943858Y-33422561D01*
X17967506Y-33510816D01*
X17967506Y-33602184D01*
X17943858Y-33690439D01*
X17898174Y-33769567D01*
X17833567Y-33834174D01*
X17754439Y-33879858D01*
X17666184Y-33903506D01*
X17574816Y-33903506D01*
X17486561Y-33879858D01*
X17407433Y-33834174D01*
X17342826Y-33769567D01*
X17297142Y-33690439D01*
X17273494Y-33602184D01*
X17273494Y-33510816D01*
X17297142Y-33422561D01*
X17342826Y-33343433D01*
X17407433Y-33278826D01*
X17486561Y-33233142D01*
X17574816Y-33209494D01*
X17666184Y-33209494D01*
X17754439Y-33233142D01*
G37*
%TD.AperFunction*%
%TA.AperFunction,Profile*%
G36*
X23534439Y-33233142D02*
G01*
X23613567Y-33278826D01*
X23678174Y-33343433D01*
X23723858Y-33422561D01*
X23747506Y-33510816D01*
X23747506Y-33602184D01*
X23723858Y-33690439D01*
X23678174Y-33769567D01*
X23613567Y-33834174D01*
X23534439Y-33879858D01*
X23446184Y-33903506D01*
X23354816Y-33903506D01*
X23266561Y-33879858D01*
X23187433Y-33834174D01*
X23122826Y-33769567D01*
X23077142Y-33690439D01*
X23053494Y-33602184D01*
X23053494Y-33510816D01*
X23077142Y-33422561D01*
X23122826Y-33343433D01*
X23187433Y-33278826D01*
X23266561Y-33233142D01*
X23354816Y-33209494D01*
X23446184Y-33209494D01*
X23534439Y-33233142D01*
G37*
%TD.AperFunction*%
%TA.AperFunction,Profile*%
%TO.C,CN1*%
G36*
X10317805Y-12072836D02*
G01*
X10385628Y-12111994D01*
X10441006Y-12167372D01*
X10480164Y-12235195D01*
X10500433Y-12310842D01*
X10500433Y-12389158D01*
X10480164Y-12464805D01*
X10441006Y-12532628D01*
X10385628Y-12588006D01*
X10317805Y-12627164D01*
X10242158Y-12647433D01*
X10163842Y-12647433D01*
X10088195Y-12627164D01*
X10020372Y-12588006D01*
X9964994Y-12532628D01*
X9925836Y-12464805D01*
X9905567Y-12389158D01*
X9905567Y-12310842D01*
X9925836Y-12235195D01*
X9964994Y-12167372D01*
X10020372Y-12111994D01*
X10088195Y-12072836D01*
X10163842Y-12052567D01*
X10242158Y-12052567D01*
X10317805Y-12072836D01*
G37*
%TD.AperFunction*%
%TA.AperFunction,Profile*%
G36*
X10317805Y-26175336D02*
G01*
X10385628Y-26214494D01*
X10441006Y-26269872D01*
X10480164Y-26337695D01*
X10500433Y-26413342D01*
X10500433Y-26491658D01*
X10480164Y-26567305D01*
X10441006Y-26635128D01*
X10385628Y-26690506D01*
X10317805Y-26729664D01*
X10242158Y-26749933D01*
X10163842Y-26749933D01*
X10088195Y-26729664D01*
X10020372Y-26690506D01*
X9964994Y-26635128D01*
X9925836Y-26567305D01*
X9905567Y-26491658D01*
X9905567Y-26413342D01*
X9925836Y-26337695D01*
X9964994Y-26269872D01*
X10020372Y-26214494D01*
X10088195Y-26175336D01*
X10163842Y-26155067D01*
X10242158Y-26155067D01*
X10317805Y-26175336D01*
G37*
%TD.AperFunction*%
%TD*%
M02*
