%TF.GenerationSoftware,KiCad,Pcbnew,9.0.4*%
%TF.CreationDate,2025-09-14T02:35:36-04:00*%
%TF.ProjectId,D8X3C_Backpack_V1.0,44385833-435f-4426-9163-6b7061636b5f,rev?*%
%TF.SameCoordinates,Original*%
%TF.FileFunction,Copper,L2,Inr*%
%TF.FilePolarity,Positive*%
%FSLAX46Y46*%
G04 Gerber Fmt 4.6, Leading zero omitted, Abs format (unit mm)*
G04 Created by KiCad (PCBNEW 9.0.4) date 2025-09-14 02:35:36*
%MOMM*%
%LPD*%
G01*
G04 APERTURE LIST*
%TA.AperFunction,ComponentPad*%
%ADD10O,3.000000X3.200000*%
%TD*%
%TA.AperFunction,ComponentPad*%
%ADD11O,1.100000X2.000000*%
%TD*%
%TA.AperFunction,ComponentPad*%
%ADD12O,1.200000X1.800000*%
%TD*%
%TA.AperFunction,ViaPad*%
%ADD13C,0.508000*%
%TD*%
G04 APERTURE END LIST*
D10*
%TO.N,GND*%
%TO.C,*%
X2000000Y-2000000D03*
%TD*%
%TO.N,GND*%
%TO.C,*%
X38000000Y-2000000D03*
%TD*%
%TO.N,GND*%
%TO.C,*%
X2000000Y-38000000D03*
%TD*%
D11*
%TO.N,GND*%
%TO.C,USB1*%
X16185500Y-33036500D03*
D12*
%TO.N,N/C*%
X16185500Y-37236500D03*
D11*
%TO.N,GND*%
X24835500Y-33036500D03*
D12*
%TO.N,N/C*%
X24835500Y-37236500D03*
%TD*%
D10*
%TO.N,GND*%
%TO.C,*%
X38000000Y-38000000D03*
%TD*%
D13*
%TO.N,ACMP*%
X6985000Y-25971500D03*
X13582000Y-28276000D03*
%TO.N,VGND*%
X13335000Y-27430500D03*
%TO.N,KEY4*%
X16954500Y-26173500D03*
X29334000Y-31432500D03*
X13488500Y-26035000D03*
%TO.N,KEY5*%
X31369000Y-28419500D03*
X31802000Y-26225500D03*
X13488500Y-25146000D03*
X16637000Y-25450000D03*
%TO.N,KEY1*%
X13488500Y-24257000D03*
X34414000Y-26384500D03*
X17843500Y-25933000D03*
%TO.N,KEY2*%
X24254000Y-26384500D03*
X16954500Y-24130000D03*
X13488500Y-23368000D03*
%TO.N,KEY3*%
X13488500Y-22479000D03*
X29334000Y-21336000D03*
X16951000Y-23470000D03*
%TO.N,FPGA_IO2*%
X13081000Y-20891500D03*
%TO.N,FPGA_IO1*%
X12001500Y-20891500D03*
%TO.N,FPGA_CLK*%
X23063000Y-17780000D03*
%TO.N,FPGA_VSINC*%
X11811000Y-19900500D03*
%TO.N,FPGA_HSYNC*%
X12446000Y-19400500D03*
%TO.N,FPGA_D13*%
X21145500Y-18224500D03*
%TO.N,FPGA_D12*%
X20510500Y-17780000D03*
%TO.N,FPGA_D11*%
X19883000Y-18224500D03*
%TO.N,FPGA_D10*%
X19240500Y-17780000D03*
%TO.N,FPGA_D9*%
X18577000Y-14824000D03*
%TO.N,FPGA_D8*%
X17933000Y-15176500D03*
%TO.N,FPGA_D0*%
X5524500Y-17399000D03*
%TO.N,FPGA_D1*%
X4826000Y-17889500D03*
%TO.N,FPGA_D2*%
X5524500Y-18389500D03*
%TO.N,FPGA_D3*%
X4826000Y-18889500D03*
%TO.N,FPGA_D4*%
X5524500Y-19367500D03*
%TO.N,FPGA_D5*%
X4826000Y-19889500D03*
%TO.N,FPGA_D6*%
X5524500Y-20389500D03*
%TO.N,FPGA_D7*%
X8323000Y-20460500D03*
%TO.N,FPGA_IO3*%
X8064500Y-21389500D03*
%TO.N,FPGA_TCK*%
X20320000Y-3810000D03*
%TO.N,FPGA_TDO*%
X20942500Y-3238500D03*
%TO.N,FPGA_TDI*%
X21526500Y-2667000D03*
%TO.N,FPGA_TMS*%
X22161500Y-2095500D03*
%TO.N,GND*%
X35918000Y-14242000D03*
X20891500Y-24638000D03*
X6667500Y-34127500D03*
X15811500Y-10160000D03*
X24701500Y-9398000D03*
X8249000Y-32611500D03*
X35918000Y-9162000D03*
X23750000Y-4024000D03*
X1016000Y-35750500D03*
X11811000Y-36512500D03*
X30391000Y-5397500D03*
X13906500Y-39179500D03*
X35918000Y-19322000D03*
X27178000Y-23393000D03*
X16510000Y-31686500D03*
X3238500Y-21056500D03*
X5438000Y-9162000D03*
X20678000Y-34562000D03*
X35918000Y-4082000D03*
X12503500Y-37909500D03*
X30391000Y-4661000D03*
X20383500Y-28638500D03*
X30838000Y-4082000D03*
X35918000Y-24402000D03*
X8763000Y-21922500D03*
X3746500Y-35540000D03*
X6451500Y-30940000D03*
X25844500Y-9334500D03*
X10096500Y-27305000D03*
X19050000Y-23876000D03*
X29718000Y-9334500D03*
X30988000Y-9334500D03*
X25758000Y-34562000D03*
X7493000Y-35941000D03*
X23114000Y-11309500D03*
X25146000Y-23393000D03*
X7302500Y-27738000D03*
X16065500Y-29146500D03*
X9271000Y-24130000D03*
X11430000Y-33438000D03*
X35918000Y-29482000D03*
X30353000Y-10350500D03*
X15811500Y-11303000D03*
X15310000Y-30506000D03*
X9949000Y-34430500D03*
X23114000Y-10096500D03*
X22415500Y-26290500D03*
X25270000Y-4032500D03*
X5905500Y-38989000D03*
X2017000Y-35750500D03*
X11896000Y-31066000D03*
X18934500Y-30030500D03*
X3238500Y-24066500D03*
X21559500Y-25209500D03*
%TO.N,$1N3421*%
X7518000Y-36643500D03*
%TO.N,$1N3429*%
X6858000Y-36639500D03*
%TO.N,3V3*%
X31369000Y-30999500D03*
X7136000Y-31280500D03*
X14287500Y-30226000D03*
X26162000Y-12382500D03*
X30226000Y-12446000D03*
X28702000Y-12065000D03*
X3746500Y-34544000D03*
X1524000Y-30924500D03*
X14160500Y-12382500D03*
X35052000Y-14959500D03*
X30289500Y-20448500D03*
X37539500Y-31813500D03*
X27495500Y-12885500D03*
X29337000Y-24638000D03*
X22796500Y-28431500D03*
X11317000Y-31420500D03*
X27495500Y-12065000D03*
X30237500Y-26225500D03*
X24257000Y-25206000D03*
X18859500Y-12382500D03*
X33020000Y-15960500D03*
X37539500Y-30819000D03*
X25903000Y-33642500D03*
X29692000Y-12928000D03*
X36449000Y-25983000D03*
X10894000Y-36512500D03*
X24257000Y-24066500D03*
%TO.N,$1N4042*%
X3993500Y-24041000D03*
X25843000Y-23101500D03*
%TO.N,$1N4038*%
X26503000Y-23101500D03*
X3993500Y-21056500D03*
%TO.N,$1N5374*%
X9874500Y-36544500D03*
%TO.N,DP_SERIAL*%
X20213500Y-30950000D03*
%TO.N,DN_SERIAL*%
X19553500Y-30951000D03*
%TO.N,DP_ADC*%
X13103500Y-39126500D03*
X16495000Y-30973000D03*
%TO.N,DN_ADC*%
X16028000Y-30506000D03*
X12636500Y-38660000D03*
%TO.N,+5V*%
X20924000Y-12954000D03*
X22640000Y-12954000D03*
X27305000Y-21780500D03*
X22918500Y-31530500D03*
X21782000Y-12954000D03*
X22911000Y-32766000D03*
X22923500Y-32158500D03*
X6286500Y-32575500D03*
X23498000Y-12954000D03*
X18110500Y-31528000D03*
X27305000Y-21001500D03*
X27305000Y-20268000D03*
X33757500Y-37528500D03*
X33083500Y-37528500D03*
X18110000Y-32766000D03*
X20066000Y-12954000D03*
X18110500Y-32156000D03*
X34417000Y-37528500D03*
%TO.N,3V3A*%
X27677500Y-35202000D03*
X13164000Y-29273500D03*
X27677500Y-35958000D03*
X32733000Y-35202000D03*
X8894000Y-30899500D03*
X6626000Y-33169000D03*
X11430000Y-35496500D03*
X8927000Y-36254500D03*
X27677500Y-36772500D03*
%TO.N,$1N5907*%
X17273500Y-35948500D03*
%TO.N,$1N5892*%
X17272000Y-35115500D03*
%TO.N,$1N5759*%
X5207000Y-29845000D03*
%TO.N,$1N5755*%
X3619500Y-30924500D03*
%TO.N,1V2A*%
X8826500Y-39243000D03*
X14592500Y-32327500D03*
%TO.N,$1N5750*%
X2603500Y-30924500D03*
%TO.N,1V2*%
X2857500Y-35014000D03*
X4635500Y-37682000D03*
%TO.N,$1N5608*%
X17272000Y-36766500D03*
%TO.N,$1N5613*%
X17272000Y-34290000D03*
%TO.N,1V8*%
X20701000Y-14922500D03*
%TO.N,$1N7724*%
X10033000Y-9893500D03*
%TO.N,$1N8034*%
X23114000Y-14922500D03*
X29972000Y-13970000D03*
%TO.N,$1N7857*%
X17347000Y-11886000D03*
%TO.N,$1N7939*%
X24522500Y-11874500D03*
%TO.N,$1N9790*%
X31432500Y-3365500D03*
%TO.N,$1N9783*%
X29337000Y-6159500D03*
%TO.N,$1N9780*%
X28892500Y-6667500D03*
%TO.N,$1N9777*%
X29337000Y-7239000D03*
%TO.N,$1N9774*%
X28892500Y-7747000D03*
%TO.N,$1N9771*%
X29337000Y-8318500D03*
%TO.N,$1N9591*%
X24841000Y-3391500D03*
%TO.N,$1N9585*%
X24181000Y-3391500D03*
%TO.N,FPGA_3V3*%
X8445500Y-25082500D03*
%TD*%
%TA.AperFunction,Conductor*%
%TO.N,GND*%
G36*
X39003316Y-258454D02*
G01*
X39087216Y-261194D01*
X39110198Y-264602D01*
X39272268Y-308032D01*
X39296765Y-318179D01*
X39442085Y-402069D01*
X39463132Y-418218D01*
X39581782Y-536868D01*
X39597931Y-557915D01*
X39681821Y-703235D01*
X39691968Y-727732D01*
X39735398Y-889802D01*
X39738806Y-912784D01*
X39741546Y-996684D01*
X39741600Y-1000000D01*
X39741600Y-39000000D01*
X39741546Y-39003316D01*
X39738806Y-39087216D01*
X39735398Y-39110198D01*
X39691968Y-39272268D01*
X39681821Y-39296765D01*
X39597931Y-39442085D01*
X39581782Y-39463132D01*
X39463132Y-39581782D01*
X39442085Y-39597931D01*
X39296765Y-39681821D01*
X39272268Y-39691968D01*
X39110198Y-39735398D01*
X39087216Y-39738806D01*
X39003316Y-39741546D01*
X39000000Y-39741600D01*
X13435000Y-39741600D01*
X13375281Y-39722196D01*
X13338373Y-39671396D01*
X13338373Y-39608604D01*
X13375281Y-39557804D01*
X13378093Y-39555833D01*
X13428823Y-39521532D01*
X13512787Y-39434463D01*
X13573163Y-39331343D01*
X13607561Y-39216911D01*
X13614145Y-39096210D01*
X13604993Y-39038069D01*
X13593141Y-38980046D01*
X13544718Y-38868555D01*
X13472395Y-38772668D01*
X13379618Y-38696395D01*
X13270309Y-38643375D01*
X13210637Y-38628636D01*
X13157313Y-38595478D01*
X13136394Y-38554484D01*
X13119504Y-38486464D01*
X13055677Y-38363625D01*
X12962735Y-38263285D01*
X12846545Y-38191121D01*
X12715395Y-38152287D01*
X12578643Y-38149562D01*
X12446058Y-38183131D01*
X12325595Y-38251444D01*
X12276641Y-38297113D01*
X12230541Y-38345902D01*
X12161350Y-38466387D01*
X12126926Y-38599275D01*
X12128902Y-38736544D01*
X12167121Y-38868395D01*
X12238873Y-38985427D01*
X12339043Y-39079311D01*
X12461983Y-39144136D01*
X12530164Y-39161566D01*
X12583216Y-39195156D01*
X12603531Y-39235218D01*
X12620105Y-39301118D01*
X12682400Y-39419914D01*
X12773987Y-39517819D01*
X12830735Y-39555052D01*
X12870022Y-39604036D01*
X12873013Y-39666757D01*
X12838567Y-39719257D01*
X12779841Y-39741485D01*
X12775000Y-39741600D01*
X9290000Y-39741600D01*
X9230281Y-39722196D01*
X9193373Y-39671396D01*
X9193373Y-39608604D01*
X9210440Y-39576812D01*
X9251503Y-39525109D01*
X9308089Y-39407516D01*
X9333351Y-39280989D01*
X9326337Y-39152149D01*
X9287498Y-39029108D01*
X9219275Y-38919602D01*
X9125948Y-38830503D01*
X9013391Y-38767427D01*
X8887253Y-38733955D01*
X8824391Y-38731646D01*
X8761169Y-38733214D01*
X8634072Y-38765575D01*
X8520551Y-38828120D01*
X8426392Y-38917215D01*
X8357679Y-39027115D01*
X8318809Y-39150757D01*
X8312294Y-39280213D01*
X8338537Y-39407145D01*
X8396374Y-39524441D01*
X8438369Y-39575341D01*
X8461408Y-39633754D01*
X8445712Y-39694553D01*
X8397277Y-39734514D01*
X8360000Y-39741600D01*
X1000000Y-39741600D01*
X996684Y-39741546D01*
X912784Y-39738806D01*
X889802Y-39735398D01*
X727732Y-39691968D01*
X703235Y-39681821D01*
X557915Y-39597931D01*
X536868Y-39581782D01*
X418218Y-39463132D01*
X402069Y-39442085D01*
X318179Y-39296765D01*
X308032Y-39272268D01*
X264602Y-39110198D01*
X261194Y-39087216D01*
X258454Y-39003316D01*
X258400Y-39000000D01*
X258400Y-37679449D01*
X4126647Y-37679449D01*
X4129027Y-37744704D01*
X4164452Y-37875147D01*
X4231508Y-37990566D01*
X4326092Y-38084766D01*
X4441785Y-38151347D01*
X4570751Y-38185810D01*
X4704249Y-38185810D01*
X4833214Y-38151347D01*
X4948907Y-38084766D01*
X5043491Y-37990566D01*
X5110547Y-37875147D01*
X5145972Y-37744704D01*
X5148352Y-37679449D01*
X5146660Y-37613950D01*
X5124509Y-37530148D01*
X32571644Y-37530148D01*
X32573556Y-37597744D01*
X32610211Y-37732335D01*
X32680660Y-37850749D01*
X32780206Y-37945999D01*
X32901609Y-38011138D01*
X33036017Y-38041432D01*
X33173636Y-38034671D01*
X33306307Y-37990712D01*
X33366706Y-37953500D01*
X33427728Y-37938694D01*
X33472449Y-37952985D01*
X33536891Y-37991828D01*
X33679095Y-38034664D01*
X33825774Y-38035689D01*
X33968808Y-37994778D01*
X34034188Y-37957019D01*
X34095606Y-37943955D01*
X34136788Y-37957590D01*
X34197098Y-37993321D01*
X34329395Y-38034256D01*
X34466181Y-38038860D01*
X34599364Y-38007314D01*
X34719539Y-37941821D01*
X34818240Y-37847007D01*
X34888514Y-37729556D01*
X34925824Y-37596198D01*
X34928343Y-37529554D01*
X34926394Y-37462634D01*
X34889942Y-37328558D01*
X34820056Y-37210418D01*
X34721306Y-37115068D01*
X34600784Y-37049357D01*
X34467147Y-37018010D01*
X34329971Y-37023260D01*
X34197765Y-37065177D01*
X34137958Y-37101706D01*
X34076880Y-37116275D01*
X34033530Y-37102598D01*
X33968642Y-37064471D01*
X33825926Y-37022990D01*
X33679074Y-37022990D01*
X33536357Y-37064471D01*
X33471470Y-37102598D01*
X33410152Y-37116122D01*
X33367442Y-37101949D01*
X33307013Y-37065422D01*
X33174074Y-37023177D01*
X33036361Y-37017722D01*
X32902115Y-37048944D01*
X32780941Y-37114623D01*
X32681503Y-37210049D01*
X32610893Y-37328414D01*
X32573749Y-37462734D01*
X32571644Y-37530148D01*
X5124509Y-37530148D01*
X5111959Y-37482666D01*
X5045159Y-37366235D01*
X4950425Y-37271118D01*
X4834266Y-37203841D01*
X4704618Y-37169010D01*
X4570382Y-37169010D01*
X4440733Y-37203841D01*
X4324574Y-37271118D01*
X4229840Y-37366235D01*
X4163040Y-37482666D01*
X4128339Y-37613950D01*
X4126647Y-37679449D01*
X258400Y-37679449D01*
X258400Y-36636378D01*
X6346644Y-36636378D01*
X6347912Y-36703339D01*
X6383055Y-36837588D01*
X6451859Y-36956141D01*
X6549788Y-37052072D01*
X6669736Y-37118431D01*
X6803037Y-37150416D01*
X6940038Y-37145713D01*
X7072418Y-37104154D01*
X7132631Y-37067936D01*
X7193807Y-37053782D01*
X7238033Y-37068339D01*
X7297651Y-37104823D01*
X7428984Y-37147353D01*
X7565255Y-37153524D01*
X7698276Y-37123396D01*
X7818581Y-37059112D01*
X7917576Y-36965273D01*
X7988193Y-36848579D01*
X8025808Y-36715851D01*
X8028344Y-36649508D01*
X8026442Y-36582821D01*
X7990391Y-36449082D01*
X7921258Y-36330917D01*
X7885032Y-36295405D01*
X8414788Y-36295405D01*
X8441043Y-36421328D01*
X8497761Y-36536772D01*
X8581398Y-36634491D01*
X8686689Y-36708359D01*
X8807044Y-36753738D01*
X8934901Y-36767786D01*
X9062237Y-36749611D01*
X9182609Y-36699720D01*
X9236668Y-36661814D01*
X9296704Y-36643414D01*
X9356089Y-36663817D01*
X9390154Y-36709388D01*
X9413176Y-36770903D01*
X9484436Y-36879411D01*
X9579386Y-36965755D01*
X9692840Y-37025727D01*
X9817663Y-37055543D01*
X9945979Y-37053336D01*
X10069703Y-37019237D01*
X10181035Y-36955398D01*
X10274015Y-36864803D01*
X10309768Y-36809700D01*
X10358551Y-36770163D01*
X10421256Y-36766851D01*
X10473932Y-36801029D01*
X10476515Y-36804355D01*
X10518837Y-36861241D01*
X10627044Y-36950260D01*
X10753819Y-37006074D01*
X10890953Y-37025531D01*
X11028245Y-37007180D01*
X11157082Y-36951696D01*
X11211759Y-36910439D01*
X11264098Y-36866622D01*
X11346734Y-36753597D01*
X11360175Y-36717661D01*
X16759902Y-36717661D01*
X16764464Y-36848660D01*
X16801964Y-36974272D01*
X16869963Y-37086342D01*
X16964075Y-37177602D01*
X17078177Y-37242134D01*
X17206380Y-37276154D01*
X17270285Y-37278349D01*
X17334002Y-37276528D01*
X17461995Y-37243345D01*
X17576115Y-37179662D01*
X17670443Y-37089234D01*
X17738875Y-36977905D01*
X17776971Y-36852905D01*
X17782264Y-36722343D01*
X17754413Y-36594665D01*
X17694377Y-36476513D01*
X17651604Y-36424626D01*
X17628590Y-36366204D01*
X17644311Y-36305411D01*
X17652541Y-36294253D01*
X17694621Y-36244676D01*
X17754552Y-36131066D01*
X17784304Y-36007724D01*
X17783899Y-35974005D01*
X27162270Y-35974005D01*
X27186754Y-36114266D01*
X27250071Y-36243634D01*
X27297336Y-36299108D01*
X27321296Y-36357150D01*
X27306565Y-36418189D01*
X27297382Y-36430838D01*
X27253984Y-36481845D01*
X27193011Y-36599256D01*
X27164202Y-36726752D01*
X27168716Y-36857387D01*
X27206245Y-36982593D01*
X27274342Y-37094167D01*
X27368539Y-37184791D01*
X27482656Y-37248533D01*
X27610785Y-37281611D01*
X27674631Y-37283352D01*
X27738239Y-37281163D01*
X27865811Y-37247399D01*
X27979480Y-37183428D01*
X28073458Y-37092954D01*
X28141699Y-36981797D01*
X28179828Y-36857057D01*
X28185417Y-36726739D01*
X28158097Y-36599181D01*
X28098911Y-36481156D01*
X28056476Y-36429471D01*
X28033578Y-36371003D01*
X28049419Y-36310242D01*
X28056437Y-36300577D01*
X28102644Y-36244227D01*
X28164476Y-36114125D01*
X28188479Y-35973726D01*
X28173541Y-35832074D01*
X28120248Y-35698432D01*
X28077662Y-35639523D01*
X28058400Y-35579758D01*
X28077947Y-35520085D01*
X28078461Y-35519387D01*
X28117440Y-35466950D01*
X28170051Y-35349145D01*
X28191592Y-35223556D01*
X28189739Y-35200550D01*
X32221647Y-35200550D01*
X32223339Y-35266049D01*
X32258040Y-35397333D01*
X32324840Y-35513764D01*
X32419574Y-35608881D01*
X32535733Y-35676158D01*
X32665382Y-35710990D01*
X32799618Y-35710990D01*
X32929266Y-35676158D01*
X33045425Y-35608881D01*
X33140159Y-35513764D01*
X33206959Y-35397333D01*
X33241660Y-35266049D01*
X33243352Y-35200550D01*
X33240972Y-35135295D01*
X33205547Y-35004852D01*
X33138491Y-34889433D01*
X33043907Y-34795233D01*
X32928214Y-34728652D01*
X32799249Y-34694190D01*
X32665751Y-34694190D01*
X32536785Y-34728652D01*
X32421092Y-34795233D01*
X32326508Y-34889433D01*
X32259452Y-35004852D01*
X32224027Y-35135295D01*
X32221647Y-35200550D01*
X28189739Y-35200550D01*
X28181363Y-35096536D01*
X28140021Y-34976010D01*
X28070118Y-34869464D01*
X27976019Y-34783553D01*
X27863576Y-34723591D01*
X27738219Y-34692961D01*
X27675546Y-34691634D01*
X27613258Y-34693623D01*
X27488839Y-34725385D01*
X27377434Y-34786008D01*
X27284337Y-34872172D01*
X27215275Y-34978570D01*
X27174492Y-35098668D01*
X27164483Y-35225115D01*
X27185859Y-35350147D01*
X27237875Y-35467354D01*
X27276550Y-35519401D01*
X27296594Y-35578909D01*
X27277833Y-35638833D01*
X27276500Y-35640666D01*
X27232901Y-35699237D01*
X27177842Y-35832470D01*
X27162270Y-35974005D01*
X17783899Y-35974005D01*
X17782779Y-35880849D01*
X17750069Y-35758266D01*
X17687431Y-35646145D01*
X17644161Y-35597609D01*
X17618905Y-35540120D01*
X17632264Y-35478765D01*
X17643293Y-35463377D01*
X17685593Y-35414673D01*
X17746498Y-35302750D01*
X17777917Y-35180808D01*
X17778676Y-35054898D01*
X17748725Y-34932595D01*
X17689140Y-34819905D01*
X17647443Y-34770631D01*
X17623678Y-34712509D01*
X17638615Y-34651519D01*
X17647854Y-34638886D01*
X17697043Y-34581487D01*
X17762291Y-34447168D01*
X17786322Y-34300004D01*
X17778895Y-34225014D01*
X17792318Y-34163674D01*
X17839233Y-34121938D01*
X17839880Y-34121657D01*
X17910665Y-34091232D01*
X18034436Y-34002174D01*
X18131616Y-33886674D01*
X18197524Y-33750883D01*
X18228127Y-33603078D01*
X18221501Y-33450595D01*
X18201774Y-33375965D01*
X18205271Y-33313271D01*
X18244952Y-33264605D01*
X18266085Y-33254228D01*
X18329000Y-33231948D01*
X18440302Y-33161264D01*
X18528991Y-33065855D01*
X18590637Y-32951083D01*
X18621218Y-32824451D01*
X18621104Y-32818462D01*
X22400620Y-32818462D01*
X22431030Y-32946771D01*
X22493079Y-33063123D01*
X22582672Y-33159862D01*
X22695390Y-33231558D01*
X22759148Y-33254311D01*
X22808871Y-33292657D01*
X22826558Y-33352907D01*
X22823186Y-33376118D01*
X22803930Y-33448504D01*
X22796669Y-33596516D01*
X22824610Y-33740508D01*
X22886056Y-33873678D01*
X22977478Y-33988362D01*
X23093596Y-34077955D01*
X23227729Y-34137295D01*
X23372135Y-34162947D01*
X23518489Y-34153440D01*
X23659687Y-34108896D01*
X23721994Y-34073272D01*
X23782551Y-34033789D01*
X23887085Y-33927639D01*
X23962159Y-33800654D01*
X24004366Y-33659307D01*
X24005237Y-33640550D01*
X25391647Y-33640550D01*
X25393339Y-33706049D01*
X25428040Y-33837333D01*
X25494840Y-33953764D01*
X25589574Y-34048881D01*
X25705733Y-34116158D01*
X25835382Y-34150990D01*
X25969618Y-34150990D01*
X26099266Y-34116158D01*
X26215425Y-34048881D01*
X26310159Y-33953764D01*
X26376959Y-33837333D01*
X26411660Y-33706049D01*
X26413352Y-33640550D01*
X26410972Y-33575295D01*
X26375547Y-33444852D01*
X26308491Y-33329433D01*
X26213907Y-33235233D01*
X26098214Y-33168652D01*
X25969249Y-33134190D01*
X25835751Y-33134190D01*
X25706785Y-33168652D01*
X25591092Y-33235233D01*
X25496508Y-33329433D01*
X25429452Y-33444852D01*
X25394027Y-33575295D01*
X25391647Y-33640550D01*
X24005237Y-33640550D01*
X24011211Y-33511946D01*
X23982284Y-33367301D01*
X23919290Y-33233903D01*
X23825976Y-33119660D01*
X23707839Y-33031317D01*
X23570561Y-32973541D01*
X23496597Y-32959919D01*
X23441381Y-32930020D01*
X23414284Y-32873375D01*
X23414234Y-32847006D01*
X23421487Y-32790756D01*
X23414768Y-32678930D01*
X23384404Y-32571106D01*
X23359086Y-32520357D01*
X23349789Y-32458257D01*
X23361396Y-32425281D01*
X23396285Y-32363104D01*
X23433521Y-32227244D01*
X23432424Y-32088003D01*
X23393027Y-31952728D01*
X23357173Y-31891078D01*
X23343924Y-31829699D01*
X23355977Y-31791037D01*
X23389111Y-31730792D01*
X23425262Y-31599819D01*
X23425979Y-31465530D01*
X23418043Y-31435550D01*
X28821647Y-31435550D01*
X28823339Y-31501049D01*
X28858040Y-31632333D01*
X28924840Y-31748764D01*
X29019574Y-31843881D01*
X29135733Y-31911158D01*
X29265382Y-31945990D01*
X29399618Y-31945990D01*
X29529266Y-31911158D01*
X29645425Y-31843881D01*
X29709717Y-31779329D01*
X37024306Y-31779329D01*
X37032139Y-31908257D01*
X37072001Y-32031111D01*
X37141354Y-32140085D01*
X37235779Y-32228219D01*
X37349256Y-32289903D01*
X37476315Y-32321655D01*
X37539727Y-32323356D01*
X37602502Y-32321346D01*
X37728346Y-32288552D01*
X37840748Y-32226185D01*
X37934101Y-32137783D01*
X38002494Y-32028938D01*
X38041630Y-31906480D01*
X38049047Y-31778137D01*
X38024271Y-31651992D01*
X37968867Y-31535982D01*
X37885053Y-31435914D01*
X37832684Y-31395245D01*
X37797418Y-31343291D01*
X37799426Y-31280531D01*
X37832841Y-31234633D01*
X37884891Y-31194375D01*
X37967886Y-31094405D01*
X38022818Y-30978429D01*
X38047262Y-30852448D01*
X38039701Y-30724342D01*
X38000607Y-30602108D01*
X37932428Y-30493396D01*
X37839411Y-30404989D01*
X37727372Y-30342412D01*
X37601727Y-30309152D01*
X37539261Y-30306652D01*
X37476599Y-30308263D01*
X37350091Y-30340402D01*
X37236918Y-30402349D01*
X37142773Y-30490576D01*
X37073598Y-30599489D01*
X37033783Y-30722219D01*
X37025830Y-30851007D01*
X37050238Y-30977693D01*
X37105486Y-31094299D01*
X37188802Y-31194328D01*
X37241231Y-31233924D01*
X37277192Y-31285398D01*
X37276029Y-31348180D01*
X37241376Y-31395966D01*
X37188678Y-31435913D01*
X37104649Y-31535984D01*
X37049004Y-31652549D01*
X37024306Y-31779329D01*
X29709717Y-31779329D01*
X29740159Y-31748764D01*
X29806959Y-31632333D01*
X29841660Y-31501049D01*
X29843352Y-31435550D01*
X29840972Y-31370295D01*
X29805547Y-31239852D01*
X29738491Y-31124433D01*
X29643907Y-31030233D01*
X29592329Y-31000550D01*
X30856647Y-31000550D01*
X30858339Y-31066049D01*
X30893040Y-31197333D01*
X30959840Y-31313764D01*
X31054574Y-31408881D01*
X31170733Y-31476158D01*
X31300382Y-31510990D01*
X31434618Y-31510990D01*
X31564266Y-31476158D01*
X31680425Y-31408881D01*
X31775159Y-31313764D01*
X31841959Y-31197333D01*
X31876660Y-31066049D01*
X31878352Y-31000550D01*
X31875972Y-30935295D01*
X31840547Y-30804852D01*
X31773491Y-30689433D01*
X31678907Y-30595233D01*
X31563214Y-30528652D01*
X31434249Y-30494190D01*
X31300751Y-30494190D01*
X31171785Y-30528652D01*
X31056092Y-30595233D01*
X30961508Y-30689433D01*
X30894452Y-30804852D01*
X30859027Y-30935295D01*
X30856647Y-31000550D01*
X29592329Y-31000550D01*
X29528214Y-30963652D01*
X29399249Y-30929190D01*
X29265751Y-30929190D01*
X29136785Y-30963652D01*
X29021092Y-31030233D01*
X28926508Y-31124433D01*
X28859452Y-31239852D01*
X28824027Y-31370295D01*
X28821647Y-31435550D01*
X23418043Y-31435550D01*
X23391615Y-31335711D01*
X23324560Y-31219361D01*
X23229466Y-31124542D01*
X23112915Y-31057828D01*
X22981272Y-31023385D01*
X22915821Y-31021657D01*
X22850513Y-31024450D01*
X22719446Y-31061429D01*
X22603748Y-31130297D01*
X22509830Y-31226785D01*
X22444107Y-31344301D01*
X22411057Y-31474832D01*
X22412942Y-31609465D01*
X22450007Y-31740355D01*
X22483623Y-31800315D01*
X22495901Y-31861895D01*
X22484148Y-31898736D01*
X22451986Y-31957565D01*
X22416154Y-32085046D01*
X22413947Y-32215874D01*
X22445431Y-32344394D01*
X22475656Y-32404129D01*
X22485304Y-32466176D01*
X22473776Y-32499410D01*
X22440921Y-32558441D01*
X22403839Y-32686640D01*
X22400620Y-32818462D01*
X18621104Y-32818462D01*
X18618729Y-32694210D01*
X18582906Y-32567315D01*
X18550871Y-32508771D01*
X18539226Y-32447068D01*
X18550376Y-32412144D01*
X18583118Y-32350824D01*
X18617999Y-32217967D01*
X18616956Y-32082202D01*
X18580089Y-31950060D01*
X18546292Y-31889532D01*
X18534119Y-31827931D01*
X18545644Y-31791647D01*
X18578377Y-31731154D01*
X18614243Y-31600157D01*
X18615060Y-31466026D01*
X18581206Y-31336220D01*
X18514990Y-31219570D01*
X18420894Y-31123972D01*
X18305293Y-31055912D01*
X18174338Y-31019540D01*
X18109078Y-31016658D01*
X18043641Y-31018356D01*
X17911857Y-31053400D01*
X17795224Y-31120918D01*
X17700331Y-31216611D01*
X17633784Y-31333815D01*
X17600240Y-31464342D01*
X17602031Y-31599099D01*
X17639409Y-31730021D01*
X17673364Y-31789856D01*
X17685962Y-31851372D01*
X17673674Y-31889593D01*
X17639765Y-31950222D01*
X17602551Y-32082295D01*
X17601502Y-32217885D01*
X17636707Y-32350668D01*
X17669569Y-32412042D01*
X17680652Y-32473848D01*
X17669524Y-32508042D01*
X17641506Y-32560251D01*
X17607261Y-32672162D01*
X17598611Y-32788838D01*
X17605840Y-32847595D01*
X17593873Y-32909236D01*
X17547959Y-32952071D01*
X17524849Y-32959642D01*
X17450764Y-32974399D01*
X17313694Y-33034238D01*
X17196219Y-33124427D01*
X17103924Y-33240256D01*
X17042228Y-33374902D01*
X17014780Y-33520442D01*
X17023278Y-33670170D01*
X17043086Y-33743509D01*
X17039924Y-33806221D01*
X17001251Y-33854607D01*
X16946532Y-33890986D01*
X16856930Y-33985014D01*
X16794253Y-34097091D01*
X16761438Y-34221230D01*
X16760537Y-34349641D01*
X16791613Y-34474225D01*
X16853491Y-34588630D01*
X16896701Y-34638370D01*
X16921216Y-34696178D01*
X16907071Y-34757357D01*
X16897343Y-34770884D01*
X16855203Y-34820353D01*
X16794990Y-34933747D01*
X16764703Y-35056929D01*
X16765462Y-35183783D01*
X16797225Y-35306598D01*
X16858777Y-35419237D01*
X16901514Y-35468156D01*
X16926191Y-35525895D01*
X16912217Y-35587113D01*
X16901674Y-35601661D01*
X16859685Y-35649956D01*
X16799037Y-35760934D01*
X16767359Y-35881869D01*
X16765824Y-36006861D01*
X16794533Y-36128522D01*
X16852440Y-36240922D01*
X16893248Y-36290193D01*
X16916396Y-36348563D01*
X16900814Y-36409391D01*
X16892641Y-36420532D01*
X16849339Y-36471834D01*
X16788577Y-36589737D01*
X16759902Y-36717661D01*
X11360175Y-36717661D01*
X11395223Y-36623954D01*
X11406912Y-36486041D01*
X11380937Y-36350082D01*
X11318517Y-36224779D01*
X11272621Y-36170841D01*
X11248699Y-36112785D01*
X11263470Y-36051755D01*
X11311292Y-36011062D01*
X11360605Y-36003955D01*
X11426780Y-36010900D01*
X11557316Y-35995180D01*
X11678289Y-35947705D01*
X11783436Y-35871347D01*
X11866010Y-35771003D01*
X11920704Y-35653123D01*
X11944009Y-35525277D01*
X11934424Y-35395689D01*
X11892566Y-35272665D01*
X11821118Y-35164109D01*
X11723640Y-35076067D01*
X11667935Y-35045080D01*
X11610844Y-35017120D01*
X11483471Y-34987100D01*
X11354169Y-34989949D01*
X11229701Y-35025128D01*
X11118042Y-35090394D01*
X11026302Y-35181576D01*
X10960364Y-35292831D01*
X10924425Y-35417087D01*
X10920784Y-35546378D01*
X10949687Y-35672440D01*
X11010072Y-35788775D01*
X11052805Y-35839663D01*
X11076350Y-35897874D01*
X11061182Y-35958807D01*
X11013096Y-35999187D01*
X10964837Y-36006090D01*
X10890170Y-35998583D01*
X10743687Y-36021457D01*
X10611300Y-36084300D01*
X10501051Y-36183255D01*
X10459879Y-36245840D01*
X10410847Y-36285066D01*
X10348122Y-36287980D01*
X10295664Y-36253469D01*
X10294066Y-36251419D01*
X10251742Y-36195648D01*
X10144771Y-36107943D01*
X10019972Y-36052132D01*
X9884882Y-36031123D01*
X9749040Y-36046401D01*
X9620710Y-36097400D01*
X9563866Y-36137809D01*
X9503950Y-36156595D01*
X9444434Y-36136574D01*
X9409892Y-36090736D01*
X9386747Y-36029139D01*
X9315237Y-35920500D01*
X9220041Y-35834073D01*
X9106330Y-35774041D01*
X8981263Y-35744185D01*
X8852700Y-35746394D01*
X8728720Y-35780510D01*
X8617139Y-35844407D01*
X8524960Y-35934052D01*
X8457246Y-36045024D01*
X8437259Y-36104530D01*
X8420722Y-36165314D01*
X8414788Y-36295405D01*
X7885032Y-36295405D01*
X7823505Y-36235091D01*
X7703982Y-36168329D01*
X7571118Y-36135343D01*
X7434257Y-36138455D01*
X7301511Y-36177882D01*
X7240859Y-36212954D01*
X7179448Y-36226051D01*
X7138174Y-36212388D01*
X7078127Y-36176776D01*
X6946379Y-36135870D01*
X6810118Y-36130999D01*
X6677345Y-36162028D01*
X6557358Y-36226788D01*
X6458555Y-36320744D01*
X6387838Y-36437323D01*
X6349711Y-36569925D01*
X6346644Y-36636378D01*
X258400Y-36636378D01*
X258400Y-35068576D01*
X2348288Y-35068576D01*
X2377697Y-35196167D01*
X2404989Y-35252709D01*
X2436050Y-35307201D01*
X2524425Y-35403690D01*
X2632847Y-35474234D01*
X2755453Y-35515447D01*
X2884473Y-35524736D01*
X3011716Y-35501498D01*
X3129119Y-35447220D01*
X3229243Y-35365330D01*
X3305734Y-35261015D01*
X3354307Y-35139520D01*
X3364647Y-35074132D01*
X3393140Y-35018176D01*
X3449081Y-34989655D01*
X3508617Y-34998239D01*
X3568449Y-35026679D01*
X3696217Y-35055311D01*
X3825607Y-35051200D01*
X3949869Y-35014928D01*
X4061152Y-34948799D01*
X4152399Y-34856992D01*
X4217863Y-34745315D01*
X4253375Y-34620829D01*
X4256711Y-34491423D01*
X4227302Y-34363832D01*
X4199770Y-34306794D01*
X4168862Y-34251167D01*
X4080947Y-34153338D01*
X3972517Y-34081682D01*
X3849515Y-34039684D01*
X3719909Y-34030045D01*
X3592043Y-34053399D01*
X3474210Y-34108216D01*
X3373993Y-34190988D01*
X3297880Y-34296334D01*
X3250224Y-34418940D01*
X3240514Y-34484817D01*
X3212608Y-34541067D01*
X3156969Y-34570173D01*
X3096383Y-34561761D01*
X3036550Y-34533320D01*
X2908782Y-34504688D01*
X2779392Y-34508799D01*
X2655130Y-34545071D01*
X2543847Y-34611200D01*
X2452600Y-34703007D01*
X2387136Y-34814684D01*
X2351624Y-34939170D01*
X2348288Y-35068576D01*
X258400Y-35068576D01*
X258400Y-32523085D01*
X5775934Y-32523085D01*
X5780409Y-32661077D01*
X5821521Y-32792862D01*
X5896295Y-32908924D01*
X6000614Y-33001993D01*
X6063022Y-33035466D01*
X6106478Y-33080792D01*
X6116517Y-33129113D01*
X6113648Y-33199930D01*
X6141069Y-33337169D01*
X6203431Y-33460544D01*
X6296523Y-33562733D01*
X6413565Y-33636293D01*
X6546020Y-33675868D01*
X6684228Y-33678559D01*
X6819681Y-33643775D01*
X6879176Y-33611963D01*
X6936459Y-33576354D01*
X7034487Y-33476748D01*
X7101579Y-33356091D01*
X7134065Y-33221914D01*
X7129590Y-33083922D01*
X7088478Y-32952137D01*
X7013704Y-32836075D01*
X6909385Y-32743006D01*
X6846978Y-32709534D01*
X6803522Y-32664208D01*
X6793483Y-32615887D01*
X6796351Y-32545069D01*
X6768930Y-32407830D01*
X6729868Y-32330550D01*
X14081647Y-32330550D01*
X14083339Y-32396049D01*
X14118040Y-32527333D01*
X14184840Y-32643764D01*
X14279574Y-32738881D01*
X14395733Y-32806158D01*
X14525382Y-32840990D01*
X14659618Y-32840990D01*
X14789266Y-32806158D01*
X14905425Y-32738881D01*
X15000159Y-32643764D01*
X15066959Y-32527333D01*
X15101660Y-32396049D01*
X15103352Y-32330550D01*
X15100972Y-32265295D01*
X15065547Y-32134852D01*
X14998491Y-32019433D01*
X14903907Y-31925233D01*
X14788214Y-31858652D01*
X14659249Y-31824190D01*
X14525751Y-31824190D01*
X14396785Y-31858652D01*
X14281092Y-31925233D01*
X14186508Y-32019433D01*
X14119452Y-32134852D01*
X14084027Y-32265295D01*
X14081647Y-32330550D01*
X6729868Y-32330550D01*
X6706568Y-32284455D01*
X6613476Y-32182266D01*
X6496434Y-32108706D01*
X6363979Y-32069131D01*
X6225771Y-32066440D01*
X6090318Y-32101224D01*
X6030823Y-32133036D01*
X5973540Y-32168645D01*
X5875512Y-32268251D01*
X5808420Y-32388908D01*
X5775934Y-32523085D01*
X258400Y-32523085D01*
X258400Y-30925204D01*
X1011649Y-30925204D01*
X1013595Y-30991620D01*
X1049439Y-31124441D01*
X1118046Y-31241839D01*
X1215038Y-31337138D01*
X1333620Y-31403670D01*
X1465504Y-31436787D01*
X1601455Y-31434160D01*
X1731959Y-31395984D01*
X1847883Y-31324915D01*
X1942219Y-31224784D01*
X1976895Y-31164403D01*
X2023461Y-31122279D01*
X2085894Y-31115572D01*
X2140346Y-31146842D01*
X2153159Y-31164497D01*
X2186591Y-31222856D01*
X2276857Y-31320276D01*
X2387665Y-31390513D01*
X2512749Y-31430077D01*
X2643800Y-31436354D01*
X2772082Y-31408920D01*
X2889095Y-31349584D01*
X2988233Y-31261263D01*
X3027025Y-31206368D01*
X3077335Y-31168794D01*
X3140122Y-31167968D01*
X3191403Y-31204205D01*
X3192925Y-31206298D01*
X3231547Y-31260856D01*
X3330006Y-31348837D01*
X3446136Y-31408306D01*
X3573540Y-31436429D01*
X3703919Y-31431372D01*
X3828763Y-31393470D01*
X3939947Y-31325195D01*
X3983780Y-31279449D01*
X6626647Y-31279449D01*
X6629027Y-31344704D01*
X6664452Y-31475147D01*
X6731508Y-31590566D01*
X6826092Y-31684766D01*
X6941785Y-31751347D01*
X7070751Y-31785810D01*
X7204249Y-31785810D01*
X7333214Y-31751347D01*
X7448907Y-31684766D01*
X7543491Y-31590566D01*
X7610547Y-31475147D01*
X7625673Y-31419449D01*
X10806647Y-31419449D01*
X10809027Y-31484704D01*
X10844452Y-31615147D01*
X10911508Y-31730566D01*
X11006092Y-31824766D01*
X11121785Y-31891347D01*
X11250751Y-31925810D01*
X11384249Y-31925810D01*
X11513214Y-31891347D01*
X11628907Y-31824766D01*
X11723491Y-31730566D01*
X11790547Y-31615147D01*
X11825972Y-31484704D01*
X11828352Y-31419449D01*
X11826660Y-31353950D01*
X11791959Y-31222666D01*
X11725159Y-31106235D01*
X11630425Y-31011118D01*
X11514266Y-30943841D01*
X11384618Y-30909010D01*
X11250382Y-30909010D01*
X11120733Y-30943841D01*
X11004574Y-31011118D01*
X10909840Y-31106235D01*
X10843040Y-31222666D01*
X10808339Y-31353950D01*
X10806647Y-31419449D01*
X7625673Y-31419449D01*
X7645972Y-31344704D01*
X7648352Y-31279449D01*
X7646660Y-31213950D01*
X7611959Y-31082666D01*
X7545159Y-30966235D01*
X7479738Y-30900550D01*
X8381647Y-30900550D01*
X8383339Y-30966049D01*
X8418040Y-31097333D01*
X8484840Y-31213764D01*
X8579574Y-31308881D01*
X8695733Y-31376158D01*
X8825382Y-31410990D01*
X8959618Y-31410990D01*
X9089266Y-31376158D01*
X9205425Y-31308881D01*
X9300159Y-31213764D01*
X9366959Y-31097333D01*
X9401660Y-30966049D01*
X9403352Y-30900550D01*
X9400972Y-30835295D01*
X9365547Y-30704852D01*
X9298491Y-30589433D01*
X9203907Y-30495233D01*
X9088214Y-30428652D01*
X8959249Y-30394190D01*
X8825751Y-30394190D01*
X8696785Y-30428652D01*
X8581092Y-30495233D01*
X8486508Y-30589433D01*
X8419452Y-30704852D01*
X8384027Y-30835295D01*
X8381647Y-30900550D01*
X7479738Y-30900550D01*
X7450425Y-30871118D01*
X7334266Y-30803841D01*
X7204618Y-30769010D01*
X7070382Y-30769010D01*
X6940733Y-30803841D01*
X6824574Y-30871118D01*
X6729840Y-30966235D01*
X6663040Y-31082666D01*
X6628339Y-31213950D01*
X6626647Y-31279449D01*
X3983780Y-31279449D01*
X4030217Y-31230985D01*
X4093691Y-31116999D01*
X4126627Y-30989098D01*
X4128355Y-30925272D01*
X4126294Y-30861669D01*
X4092800Y-30734323D01*
X4029054Y-30620856D01*
X3938777Y-30527121D01*
X3827788Y-30459159D01*
X3703253Y-30421348D01*
X3573213Y-30416139D01*
X3446055Y-30443866D01*
X3329991Y-30502736D01*
X3231382Y-30589948D01*
X3192631Y-30644115D01*
X3142103Y-30681395D01*
X3079313Y-30681855D01*
X3028244Y-30645319D01*
X3027714Y-30644595D01*
X2988413Y-30590331D01*
X2888791Y-30503169D01*
X2771778Y-30444724D01*
X2643792Y-30417748D01*
X2513134Y-30424009D01*
X2388304Y-30463082D01*
X2277399Y-30532439D01*
X2186549Y-30628723D01*
X2152584Y-30686494D01*
X2105589Y-30728140D01*
X2043091Y-30734210D01*
X1988961Y-30702385D01*
X1977097Y-30685947D01*
X1942258Y-30625837D01*
X1847768Y-30526226D01*
X1731874Y-30455599D01*
X1601555Y-30417713D01*
X1465863Y-30415212D01*
X1334237Y-30448260D01*
X1215820Y-30514565D01*
X1118857Y-30609519D01*
X1050072Y-30726513D01*
X1013840Y-30858933D01*
X1011649Y-30925204D01*
X258400Y-30925204D01*
X258400Y-29844449D01*
X4696647Y-29844449D01*
X4699027Y-29909704D01*
X4734452Y-30040147D01*
X4801508Y-30155566D01*
X4896092Y-30249766D01*
X5011785Y-30316347D01*
X5140751Y-30350810D01*
X5274249Y-30350810D01*
X5403214Y-30316347D01*
X5518907Y-30249766D01*
X5543222Y-30225550D01*
X13776647Y-30225550D01*
X13778339Y-30291049D01*
X13813040Y-30422333D01*
X13879840Y-30538764D01*
X13974574Y-30633881D01*
X14090733Y-30701158D01*
X14220382Y-30735990D01*
X14354618Y-30735990D01*
X14484266Y-30701158D01*
X14600425Y-30633881D01*
X14695159Y-30538764D01*
X14747613Y-30447338D01*
X15521742Y-30447338D01*
X15524253Y-30583485D01*
X15562316Y-30714222D01*
X15633282Y-30830445D01*
X15732188Y-30924037D01*
X15853394Y-30989137D01*
X15920659Y-31006694D01*
X15973542Y-31040551D01*
X15993603Y-31080503D01*
X16010599Y-31148915D01*
X16074920Y-31272370D01*
X16168637Y-31373011D01*
X16285764Y-31445066D01*
X16417851Y-31483341D01*
X16555371Y-31485074D01*
X16688376Y-31450142D01*
X16808809Y-31380162D01*
X16857565Y-31333682D01*
X16902858Y-31284675D01*
X16970446Y-31164163D01*
X17003540Y-31031670D01*
X17001789Y-30950445D01*
X19041656Y-30950445D01*
X19043605Y-31017365D01*
X19080057Y-31151441D01*
X19149943Y-31269581D01*
X19248693Y-31364931D01*
X19369215Y-31430642D01*
X19502852Y-31461989D01*
X19640028Y-31456739D01*
X19772234Y-31414822D01*
X19832042Y-31378294D01*
X19893120Y-31363725D01*
X19937187Y-31377827D01*
X19997194Y-31413751D01*
X20129005Y-31455024D01*
X20265385Y-31459821D01*
X20398161Y-31428311D01*
X20517840Y-31362742D01*
X20615867Y-31267797D01*
X20685225Y-31150274D01*
X20721396Y-31016953D01*
X20723350Y-30950207D01*
X20721127Y-30883575D01*
X20684511Y-30750519D01*
X20614941Y-30633252D01*
X20516898Y-30538492D01*
X20397321Y-30472938D01*
X20264706Y-30441248D01*
X20128413Y-30445665D01*
X19996906Y-30486246D01*
X19937375Y-30522060D01*
X19876200Y-30536218D01*
X19833212Y-30522410D01*
X19772901Y-30486678D01*
X19640604Y-30445743D01*
X19503818Y-30441139D01*
X19370635Y-30472685D01*
X19250460Y-30538178D01*
X19151759Y-30632992D01*
X19081485Y-30750443D01*
X19044175Y-30883801D01*
X19041656Y-30950445D01*
X17001789Y-30950445D01*
X17000597Y-30895151D01*
X16961816Y-30764218D01*
X16889950Y-30648102D01*
X16790055Y-30554993D01*
X16667740Y-30490710D01*
X16599950Y-30473464D01*
X16546859Y-30439935D01*
X16526545Y-30400082D01*
X16509283Y-30332326D01*
X16444882Y-30210132D01*
X16351601Y-30110512D01*
X16235306Y-30039089D01*
X16104271Y-30000940D01*
X15967804Y-29998773D01*
X15835633Y-30032747D01*
X15715580Y-30101340D01*
X15667128Y-30146652D01*
X15622382Y-30195139D01*
X15554966Y-30315287D01*
X15521742Y-30447338D01*
X14747613Y-30447338D01*
X14761959Y-30422333D01*
X14796660Y-30291049D01*
X14798352Y-30225550D01*
X14795972Y-30160295D01*
X14760547Y-30029852D01*
X14693491Y-29914433D01*
X14598907Y-29820233D01*
X14483214Y-29753652D01*
X14354249Y-29719190D01*
X14220751Y-29719190D01*
X14091785Y-29753652D01*
X13976092Y-29820233D01*
X13881508Y-29914433D01*
X13814452Y-30029852D01*
X13779027Y-30160295D01*
X13776647Y-30225550D01*
X5543222Y-30225550D01*
X5613491Y-30155566D01*
X5680547Y-30040147D01*
X5715972Y-29909704D01*
X5718352Y-29844449D01*
X5716660Y-29778950D01*
X5681959Y-29647666D01*
X5615159Y-29531235D01*
X5520425Y-29436118D01*
X5404266Y-29368841D01*
X5274618Y-29334010D01*
X5140382Y-29334010D01*
X5010733Y-29368841D01*
X4894574Y-29436118D01*
X4799840Y-29531235D01*
X4733040Y-29647666D01*
X4698339Y-29778950D01*
X4696647Y-29844449D01*
X258400Y-29844449D01*
X258400Y-29263577D01*
X12652217Y-29263577D01*
X12666906Y-29398376D01*
X12716350Y-29524625D01*
X12797109Y-29633553D01*
X12904837Y-29718575D01*
X12964824Y-29746471D01*
X13026913Y-29770542D01*
X13163790Y-29789166D01*
X13299163Y-29771393D01*
X13425106Y-29718680D01*
X13532782Y-29634741D01*
X13614626Y-29525458D01*
X13664895Y-29398512D01*
X13680049Y-29262834D01*
X13659023Y-29127932D01*
X13602863Y-29002287D01*
X13560052Y-28947697D01*
X13538469Y-28888731D01*
X13555666Y-28828340D01*
X13605077Y-28789591D01*
X13627175Y-28784213D01*
X13693628Y-28775756D01*
X13817821Y-28730098D01*
X13925086Y-28655342D01*
X14009905Y-28555825D01*
X14066723Y-28438073D01*
X14068410Y-28429449D01*
X22286647Y-28429449D01*
X22289027Y-28494704D01*
X22324452Y-28625147D01*
X22391508Y-28740566D01*
X22486092Y-28834766D01*
X22601785Y-28901347D01*
X22730751Y-28935810D01*
X22864249Y-28935810D01*
X22993214Y-28901347D01*
X23108907Y-28834766D01*
X23203491Y-28740566D01*
X23270547Y-28625147D01*
X23305972Y-28494704D01*
X23308352Y-28429449D01*
X23308122Y-28420550D01*
X30856647Y-28420550D01*
X30858339Y-28486049D01*
X30893040Y-28617333D01*
X30959840Y-28733764D01*
X31054574Y-28828881D01*
X31170733Y-28896158D01*
X31300382Y-28930990D01*
X31434618Y-28930990D01*
X31564266Y-28896158D01*
X31680425Y-28828881D01*
X31775159Y-28733764D01*
X31841959Y-28617333D01*
X31876660Y-28486049D01*
X31878352Y-28420550D01*
X31875972Y-28355295D01*
X31840547Y-28224852D01*
X31773491Y-28109433D01*
X31678907Y-28015233D01*
X31563214Y-27948652D01*
X31434249Y-27914190D01*
X31300751Y-27914190D01*
X31171785Y-27948652D01*
X31056092Y-28015233D01*
X30961508Y-28109433D01*
X30894452Y-28224852D01*
X30859027Y-28355295D01*
X30856647Y-28420550D01*
X23308122Y-28420550D01*
X23306660Y-28363950D01*
X23271959Y-28232666D01*
X23205159Y-28116235D01*
X23110425Y-28021118D01*
X22994266Y-27953841D01*
X22864618Y-27919010D01*
X22730382Y-27919010D01*
X22600733Y-27953841D01*
X22484574Y-28021118D01*
X22389840Y-28116235D01*
X22323040Y-28232666D01*
X22288339Y-28363950D01*
X22286647Y-28429449D01*
X14068410Y-28429449D01*
X14091827Y-28309758D01*
X14083587Y-28179270D01*
X14042530Y-28055133D01*
X13971346Y-27945467D01*
X13873540Y-27856377D01*
X13815186Y-27823550D01*
X13772651Y-27777358D01*
X13765391Y-27714987D01*
X13775524Y-27686869D01*
X13808168Y-27626181D01*
X13843124Y-27494592D01*
X13842457Y-27360021D01*
X13806627Y-27230305D01*
X13738115Y-27114482D01*
X13641702Y-27020608D01*
X13524086Y-26955218D01*
X13393462Y-26922859D01*
X13257379Y-26925815D01*
X13193780Y-26942488D01*
X13131308Y-26963040D01*
X13015249Y-27034273D01*
X12922705Y-27132071D01*
X12858717Y-27250524D01*
X12827675Y-27381522D01*
X12831694Y-27516100D01*
X12870501Y-27645019D01*
X12941435Y-27759446D01*
X13040764Y-27852593D01*
X13100531Y-27886857D01*
X13142690Y-27933392D01*
X13149444Y-27995820D01*
X13139972Y-28022198D01*
X13110714Y-28077969D01*
X13077211Y-28197759D01*
X13073158Y-28320575D01*
X13098375Y-28440831D01*
X13152108Y-28553086D01*
X13190541Y-28603067D01*
X13211562Y-28662236D01*
X13193790Y-28722461D01*
X13144013Y-28760738D01*
X13122350Y-28765847D01*
X13053439Y-28774285D01*
X12924853Y-28822073D01*
X12814540Y-28900914D01*
X12728697Y-29005873D01*
X12673300Y-29129631D01*
X12652217Y-29263577D01*
X258400Y-29263577D01*
X258400Y-25970000D01*
X6476654Y-25970000D01*
X6478774Y-26034958D01*
X6513676Y-26165224D01*
X6580271Y-26280567D01*
X6674432Y-26374728D01*
X6789775Y-26441323D01*
X6918417Y-26475790D01*
X7051583Y-26475790D01*
X7146032Y-26450484D01*
X9646641Y-26450484D01*
X9648227Y-26516398D01*
X9680404Y-26648765D01*
X9742727Y-26768275D01*
X9831896Y-26869349D01*
X9942712Y-26946080D01*
X10068700Y-26993988D01*
X10202500Y-27010270D01*
X10336299Y-26993988D01*
X10462287Y-26946080D01*
X10573103Y-26869349D01*
X10662272Y-26768275D01*
X10724595Y-26648765D01*
X10756772Y-26516398D01*
X10758358Y-26450484D01*
X10756141Y-26384847D01*
X10723263Y-26253259D01*
X10660631Y-26134686D01*
X10571507Y-26034501D01*
X10461040Y-25958483D01*
X10335618Y-25911043D01*
X10202500Y-25894922D01*
X10069381Y-25911043D01*
X9943959Y-25958483D01*
X9833492Y-26034501D01*
X9744368Y-26134686D01*
X9681736Y-26253259D01*
X9648858Y-26384847D01*
X9646641Y-26450484D01*
X7146032Y-26450484D01*
X7180224Y-26441323D01*
X7295567Y-26374728D01*
X7389728Y-26280567D01*
X7456323Y-26165224D01*
X7491225Y-26034958D01*
X7493345Y-25970000D01*
X7491225Y-25905041D01*
X7456323Y-25774775D01*
X7389728Y-25659432D01*
X7295567Y-25565271D01*
X7180224Y-25498676D01*
X7051583Y-25464210D01*
X6918417Y-25464210D01*
X6789775Y-25498676D01*
X6674432Y-25565271D01*
X6580271Y-25659432D01*
X6513676Y-25774775D01*
X6478774Y-25905041D01*
X6476654Y-25970000D01*
X258400Y-25970000D01*
X258400Y-25084449D01*
X7936647Y-25084449D01*
X7939027Y-25149704D01*
X7974452Y-25280147D01*
X8041508Y-25395566D01*
X8136092Y-25489766D01*
X8251785Y-25556347D01*
X8380751Y-25590810D01*
X8514249Y-25590810D01*
X8643214Y-25556347D01*
X8758907Y-25489766D01*
X8853491Y-25395566D01*
X8920547Y-25280147D01*
X8955972Y-25149704D01*
X8958352Y-25084449D01*
X8956660Y-25018950D01*
X8921959Y-24887666D01*
X8855159Y-24771235D01*
X8760425Y-24676118D01*
X8644266Y-24608841D01*
X8514618Y-24574010D01*
X8380382Y-24574010D01*
X8250733Y-24608841D01*
X8134574Y-24676118D01*
X8039840Y-24771235D01*
X7973040Y-24887666D01*
X7938339Y-25018950D01*
X7936647Y-25084449D01*
X258400Y-25084449D01*
X258400Y-24040550D01*
X3481647Y-24040550D01*
X3483339Y-24106049D01*
X3518040Y-24237333D01*
X3584840Y-24353764D01*
X3679574Y-24448881D01*
X3795733Y-24516158D01*
X3925382Y-24550990D01*
X4059618Y-24550990D01*
X4189266Y-24516158D01*
X4305425Y-24448881D01*
X4400159Y-24353764D01*
X4466959Y-24237333D01*
X4501660Y-24106049D01*
X4503352Y-24040550D01*
X4500972Y-23975295D01*
X4465547Y-23844852D01*
X4398491Y-23729433D01*
X4303907Y-23635233D01*
X4188214Y-23568652D01*
X4059249Y-23534190D01*
X3925751Y-23534190D01*
X3796785Y-23568652D01*
X3681092Y-23635233D01*
X3586508Y-23729433D01*
X3519452Y-23844852D01*
X3484027Y-23975295D01*
X3481647Y-24040550D01*
X258400Y-24040550D01*
X258400Y-22420787D01*
X12977815Y-22420787D01*
X12980708Y-22556847D01*
X13019251Y-22687371D01*
X13091259Y-22804011D01*
X13140789Y-22852120D01*
X13170107Y-22907648D01*
X13161188Y-22969803D01*
X13142165Y-22996518D01*
X13092136Y-23046999D01*
X13019641Y-23167155D01*
X12982480Y-23300693D01*
X12982480Y-23439306D01*
X13019641Y-23572844D01*
X13092136Y-23693000D01*
X13142165Y-23743482D01*
X13170420Y-23799558D01*
X13160318Y-23861533D01*
X13142778Y-23885894D01*
X13093587Y-23936391D01*
X13022437Y-24056066D01*
X12985990Y-24188714D01*
X12985990Y-24326285D01*
X13022437Y-24458933D01*
X13093587Y-24578608D01*
X13142778Y-24629106D01*
X13170549Y-24685423D01*
X13159914Y-24747308D01*
X13142165Y-24771518D01*
X13092136Y-24821999D01*
X13019641Y-24942155D01*
X12982480Y-25075693D01*
X12982480Y-25214306D01*
X13019641Y-25347844D01*
X13092136Y-25468000D01*
X13142165Y-25518482D01*
X13170420Y-25574558D01*
X13160318Y-25636533D01*
X13141880Y-25661805D01*
X13092934Y-25710801D01*
X13021368Y-25827411D01*
X12983357Y-25957177D01*
X12980734Y-26092366D01*
X13013674Y-26223519D01*
X13079875Y-26341413D01*
X13174702Y-26437806D01*
X13291508Y-26505946D01*
X13423653Y-26541470D01*
X13489805Y-26543353D01*
X13555852Y-26541218D01*
X13687725Y-26505269D01*
X13804267Y-26436911D01*
X13898870Y-26340466D01*
X13964995Y-26222649D01*
X13998019Y-26091646D01*
X13995652Y-25956565D01*
X13958053Y-25826800D01*
X13887313Y-25710471D01*
X13838547Y-25662229D01*
X13809738Y-25606436D01*
X13819226Y-25544365D01*
X13837835Y-25518482D01*
X13887863Y-25468000D01*
X13904522Y-25440389D01*
X16123625Y-25440389D01*
X16137644Y-25568809D01*
X16183433Y-25689608D01*
X16258063Y-25795060D01*
X16357891Y-25879383D01*
X16416638Y-25909737D01*
X16460786Y-25954388D01*
X16470257Y-26016462D01*
X16468220Y-26025987D01*
X16451667Y-26088548D01*
X16446307Y-26216318D01*
X16471922Y-26340049D01*
X16526903Y-26453823D01*
X16607940Y-26550775D01*
X16711383Y-26625970D01*
X16767612Y-26650558D01*
X16825698Y-26671480D01*
X16953274Y-26687841D01*
X17079413Y-26672528D01*
X17197912Y-26626666D01*
X17301502Y-26553085D01*
X17384789Y-26455157D01*
X17415125Y-26397618D01*
X17460141Y-26353840D01*
X17522291Y-26344882D01*
X17558715Y-26358761D01*
X17618603Y-26396062D01*
X17750865Y-26439889D01*
X17888323Y-26446786D01*
X18022658Y-26416787D01*
X18144132Y-26352068D01*
X18243958Y-26257299D01*
X18314908Y-26139356D01*
X18351845Y-26006769D01*
X18352107Y-25867096D01*
X18336841Y-25801459D01*
X18317208Y-25737582D01*
X18246395Y-25617980D01*
X18147584Y-25522603D01*
X18027005Y-25456863D01*
X17893306Y-25425478D01*
X17756075Y-25430695D01*
X17625147Y-25472140D01*
X17509903Y-25546847D01*
X17417633Y-25650557D01*
X17384776Y-25712569D01*
X17339670Y-25756253D01*
X17277501Y-25765082D01*
X17244592Y-25753214D01*
X17174592Y-25713214D01*
X17132369Y-25666737D01*
X17125527Y-25604319D01*
X17126874Y-25598658D01*
X17144060Y-25534635D01*
X17149069Y-25403740D01*
X17121419Y-25277256D01*
X17065225Y-25166287D01*
X23745229Y-25166287D01*
X23751263Y-25293766D01*
X23788617Y-25415806D01*
X23854974Y-25524818D01*
X23946216Y-25614042D01*
X24057863Y-25678630D01*
X24120136Y-25697972D01*
X24171412Y-25734217D01*
X24191591Y-25793678D01*
X24172966Y-25853644D01*
X24122651Y-25891211D01*
X24120239Y-25891996D01*
X24055181Y-25912278D01*
X23939147Y-25980353D01*
X23845739Y-26074853D01*
X23779835Y-26190233D01*
X23745880Y-26318697D01*
X23746179Y-26451568D01*
X23780701Y-26579875D01*
X23847121Y-26694962D01*
X23940955Y-26789046D01*
X24055858Y-26855774D01*
X24185591Y-26891050D01*
X24250467Y-26893352D01*
X24315630Y-26891641D01*
X24446156Y-26857603D01*
X24562034Y-26791849D01*
X24656993Y-26698414D01*
X24724620Y-26583622D01*
X24760320Y-26455268D01*
X24761679Y-26322042D01*
X24736942Y-26225550D01*
X29726647Y-26225550D01*
X29728339Y-26291049D01*
X29763040Y-26422333D01*
X29829840Y-26538764D01*
X29924574Y-26633881D01*
X30040733Y-26701158D01*
X30170382Y-26735990D01*
X30304618Y-26735990D01*
X30434266Y-26701158D01*
X30550425Y-26633881D01*
X30645159Y-26538764D01*
X30711959Y-26422333D01*
X30746660Y-26291049D01*
X30748352Y-26225550D01*
X30748312Y-26224449D01*
X31291647Y-26224449D01*
X31294027Y-26289704D01*
X31329452Y-26420147D01*
X31396508Y-26535566D01*
X31491092Y-26629766D01*
X31606785Y-26696347D01*
X31735751Y-26730810D01*
X31869249Y-26730810D01*
X31998214Y-26696347D01*
X32113907Y-26629766D01*
X32208491Y-26535566D01*
X32275547Y-26420147D01*
X32284943Y-26385550D01*
X33901647Y-26385550D01*
X33903339Y-26451049D01*
X33938040Y-26582333D01*
X34004840Y-26698764D01*
X34099574Y-26793881D01*
X34215733Y-26861158D01*
X34345382Y-26895990D01*
X34479618Y-26895990D01*
X34609266Y-26861158D01*
X34725425Y-26793881D01*
X34820159Y-26698764D01*
X34886959Y-26582333D01*
X34921660Y-26451049D01*
X34923352Y-26385550D01*
X34920972Y-26320295D01*
X34885547Y-26189852D01*
X34818491Y-26074433D01*
X34729246Y-25985550D01*
X35936647Y-25985550D01*
X35938339Y-26051049D01*
X35973040Y-26182333D01*
X36039840Y-26298764D01*
X36134574Y-26393881D01*
X36250733Y-26461158D01*
X36380382Y-26495990D01*
X36514618Y-26495990D01*
X36644266Y-26461158D01*
X36760425Y-26393881D01*
X36855159Y-26298764D01*
X36921959Y-26182333D01*
X36956660Y-26051049D01*
X36958352Y-25985550D01*
X36955972Y-25920295D01*
X36920547Y-25789852D01*
X36853491Y-25674433D01*
X36758907Y-25580233D01*
X36643214Y-25513652D01*
X36514249Y-25479190D01*
X36380751Y-25479190D01*
X36251785Y-25513652D01*
X36136092Y-25580233D01*
X36041508Y-25674433D01*
X35974452Y-25789852D01*
X35939027Y-25920295D01*
X35936647Y-25985550D01*
X34729246Y-25985550D01*
X34723907Y-25980233D01*
X34608214Y-25913652D01*
X34479249Y-25879190D01*
X34345751Y-25879190D01*
X34216785Y-25913652D01*
X34101092Y-25980233D01*
X34006508Y-26074433D01*
X33939452Y-26189852D01*
X33904027Y-26320295D01*
X33901647Y-26385550D01*
X32284943Y-26385550D01*
X32310972Y-26289704D01*
X32313352Y-26224449D01*
X32311660Y-26158950D01*
X32276959Y-26027666D01*
X32210159Y-25911235D01*
X32115425Y-25816118D01*
X31999266Y-25748841D01*
X31869618Y-25714010D01*
X31735382Y-25714010D01*
X31605733Y-25748841D01*
X31489574Y-25816118D01*
X31394840Y-25911235D01*
X31328040Y-26027666D01*
X31293339Y-26158950D01*
X31291647Y-26224449D01*
X30748312Y-26224449D01*
X30745972Y-26160295D01*
X30710547Y-26029852D01*
X30643491Y-25914433D01*
X30548907Y-25820233D01*
X30433214Y-25753652D01*
X30304249Y-25719190D01*
X30170751Y-25719190D01*
X30041785Y-25753652D01*
X29926092Y-25820233D01*
X29831508Y-25914433D01*
X29764452Y-26029852D01*
X29729027Y-26160295D01*
X29726647Y-26225550D01*
X24736942Y-26225550D01*
X24728596Y-26192996D01*
X24663317Y-26076860D01*
X24570269Y-25981504D01*
X24454309Y-25912539D01*
X24389189Y-25891815D01*
X24338166Y-25855215D01*
X24318402Y-25795614D01*
X24337444Y-25735779D01*
X24388020Y-25698564D01*
X24389654Y-25698038D01*
X24452020Y-25678519D01*
X24563886Y-25614177D01*
X24655292Y-25525313D01*
X24721948Y-25416656D01*
X24759731Y-25294905D01*
X24766308Y-25167597D01*
X24741277Y-25042603D01*
X24686183Y-24927654D01*
X24604420Y-24829845D01*
X24499699Y-24754244D01*
X24439630Y-24728235D01*
X24392538Y-24686700D01*
X24381986Y-24639449D01*
X28826647Y-24639449D01*
X28829027Y-24704704D01*
X28864452Y-24835147D01*
X28931508Y-24950566D01*
X29026092Y-25044766D01*
X29141785Y-25111347D01*
X29270751Y-25145810D01*
X29404249Y-25145810D01*
X29533214Y-25111347D01*
X29648907Y-25044766D01*
X29743491Y-24950566D01*
X29810547Y-24835147D01*
X29845972Y-24704704D01*
X29848352Y-24639449D01*
X29846660Y-24573950D01*
X29811959Y-24442666D01*
X29745159Y-24326235D01*
X29650425Y-24231118D01*
X29534266Y-24163841D01*
X29404618Y-24129010D01*
X29270382Y-24129010D01*
X29140733Y-24163841D01*
X29024574Y-24231118D01*
X28929840Y-24326235D01*
X28863040Y-24442666D01*
X28828339Y-24573950D01*
X28826647Y-24639449D01*
X24381986Y-24639449D01*
X24378853Y-24625417D01*
X24403803Y-24567795D01*
X24440212Y-24541515D01*
X24500719Y-24515762D01*
X24606096Y-24439656D01*
X24688227Y-24340837D01*
X24743122Y-24224664D01*
X24767325Y-24098477D01*
X24759310Y-23970230D01*
X24719577Y-23848032D01*
X24650643Y-23739598D01*
X24556848Y-23651777D01*
X24444122Y-23590107D01*
X24318231Y-23558137D01*
X24255297Y-23556635D01*
X24192350Y-23558506D01*
X24066636Y-23590973D01*
X23954277Y-23653043D01*
X23860943Y-23741154D01*
X23792519Y-23849754D01*
X23753326Y-23971980D01*
X23745846Y-24100106D01*
X23770538Y-24226071D01*
X23825846Y-24341893D01*
X23908291Y-24440274D01*
X24013858Y-24515868D01*
X24074414Y-24541356D01*
X24121929Y-24582407D01*
X24136240Y-24643547D01*
X24111881Y-24701422D01*
X24074562Y-24728581D01*
X24014297Y-24754058D01*
X23909072Y-24829034D01*
X23826661Y-24926481D01*
X23770890Y-25041273D01*
X23745229Y-25166287D01*
X17065225Y-25166287D01*
X17062931Y-25161756D01*
X16977328Y-25064610D01*
X16870112Y-24992036D01*
X16748115Y-24948679D01*
X16619140Y-24937304D01*
X16489889Y-24958896D01*
X16430963Y-24983014D01*
X16373589Y-25010114D01*
X16270757Y-25090805D01*
X16192379Y-25193499D01*
X16142268Y-25312555D01*
X16123625Y-25440389D01*
X13904522Y-25440389D01*
X13960358Y-25347844D01*
X13997520Y-25214306D01*
X13997520Y-25075693D01*
X13960358Y-24942155D01*
X13887863Y-24821999D01*
X13837835Y-24771518D01*
X13809580Y-24715442D01*
X13819682Y-24653467D01*
X13838097Y-24628219D01*
X13888021Y-24578209D01*
X13960394Y-24458996D01*
X13997500Y-24326366D01*
X13997500Y-24188633D01*
X13960394Y-24056003D01*
X13888021Y-23936790D01*
X13838097Y-23886781D01*
X13809637Y-23830808D01*
X13819513Y-23768797D01*
X13837835Y-23743482D01*
X13887863Y-23693000D01*
X13960358Y-23572844D01*
X13997520Y-23439306D01*
X13997520Y-23424744D01*
X16440932Y-23424744D01*
X16445977Y-23560989D01*
X16487233Y-23693058D01*
X16522703Y-23753709D01*
X16536101Y-23815056D01*
X16522670Y-23856346D01*
X16487302Y-23916733D01*
X16447302Y-24049021D01*
X16443863Y-24185529D01*
X16476762Y-24318050D01*
X16543624Y-24437103D01*
X16639674Y-24534151D01*
X16758023Y-24602257D01*
X16891947Y-24636984D01*
X16958801Y-24638353D01*
X17025251Y-24635409D01*
X17157865Y-24597443D01*
X17274478Y-24526803D01*
X17368441Y-24428028D01*
X17433148Y-24308029D01*
X17464067Y-24175255D01*
X17459022Y-24039010D01*
X17417766Y-23906941D01*
X17382297Y-23846291D01*
X17368899Y-23784944D01*
X17382330Y-23743654D01*
X17417697Y-23683266D01*
X17457697Y-23550978D01*
X17461136Y-23414470D01*
X17428237Y-23281949D01*
X17361375Y-23162896D01*
X17299566Y-23100445D01*
X25331656Y-23100445D01*
X25333605Y-23167365D01*
X25370057Y-23301441D01*
X25439943Y-23419581D01*
X25538693Y-23514931D01*
X25659215Y-23580642D01*
X25792852Y-23611989D01*
X25930028Y-23606739D01*
X26062234Y-23564822D01*
X26122042Y-23528294D01*
X26183120Y-23513725D01*
X26227187Y-23527827D01*
X26287194Y-23563751D01*
X26419005Y-23605024D01*
X26555385Y-23609821D01*
X26688161Y-23578311D01*
X26807840Y-23512742D01*
X26905867Y-23417797D01*
X26975225Y-23300274D01*
X27011396Y-23166953D01*
X27013350Y-23100207D01*
X27011127Y-23033575D01*
X26974511Y-22900519D01*
X26904941Y-22783252D01*
X26806898Y-22688492D01*
X26687321Y-22622938D01*
X26554706Y-22591248D01*
X26418413Y-22595665D01*
X26286906Y-22636246D01*
X26227375Y-22672060D01*
X26166200Y-22686218D01*
X26123212Y-22672410D01*
X26062901Y-22636678D01*
X25930604Y-22595743D01*
X25793818Y-22591139D01*
X25660635Y-22622685D01*
X25540460Y-22688178D01*
X25441759Y-22782992D01*
X25371485Y-22900443D01*
X25334175Y-23033801D01*
X25331656Y-23100445D01*
X17299566Y-23100445D01*
X17265325Y-23065848D01*
X17146976Y-22997742D01*
X17013052Y-22963015D01*
X16946198Y-22961646D01*
X16879748Y-22964590D01*
X16747134Y-23002556D01*
X16630521Y-23073196D01*
X16536558Y-23171971D01*
X16471851Y-23291970D01*
X16440932Y-23424744D01*
X13997520Y-23424744D01*
X13997520Y-23300693D01*
X13960358Y-23167155D01*
X13887863Y-23046999D01*
X13837835Y-22996518D01*
X13809580Y-22940442D01*
X13819682Y-22878467D01*
X13837840Y-22853477D01*
X13886699Y-22804182D01*
X13958078Y-22687062D01*
X13995964Y-22556874D01*
X13998541Y-22421307D01*
X13965624Y-22289774D01*
X13899519Y-22171408D01*
X13804784Y-22074404D01*
X13688012Y-22005501D01*
X13555734Y-21969052D01*
X13489583Y-21966651D01*
X13423174Y-21968514D01*
X13290181Y-22004267D01*
X13172652Y-22072897D01*
X13077284Y-22169991D01*
X13010784Y-22288729D01*
X12977815Y-22420787D01*
X258400Y-22420787D01*
X258400Y-21055550D01*
X3481647Y-21055550D01*
X3483339Y-21121049D01*
X3518040Y-21252333D01*
X3584840Y-21368764D01*
X3679574Y-21463881D01*
X3795733Y-21531158D01*
X3925382Y-21565990D01*
X4059618Y-21565990D01*
X4189266Y-21531158D01*
X4305425Y-21463881D01*
X4400159Y-21368764D01*
X4406345Y-21357982D01*
X7554138Y-21357982D01*
X7561790Y-21484170D01*
X7600087Y-21604639D01*
X7666717Y-21712060D01*
X7757620Y-21799921D01*
X7868619Y-21863636D01*
X7927549Y-21882158D01*
X7987768Y-21897172D01*
X8116351Y-21900504D01*
X8240257Y-21872413D01*
X8353435Y-21814678D01*
X8448920Y-21730852D01*
X8520813Y-21626100D01*
X8564705Y-21506865D01*
X8577880Y-21380502D01*
X8559529Y-21254773D01*
X8510483Y-21136705D01*
X8472735Y-21084623D01*
X8453400Y-21024882D01*
X8472873Y-20965186D01*
X8513754Y-20932149D01*
X8573133Y-20905771D01*
X8676338Y-20829502D01*
X8756598Y-20731372D01*
X8810240Y-20616515D01*
X8833957Y-20491990D01*
X8826284Y-20365457D01*
X8787695Y-20244699D01*
X8720582Y-20137156D01*
X8629056Y-20049454D01*
X8517375Y-19986191D01*
X8458368Y-19968103D01*
X8398631Y-19953954D01*
X8270835Y-19951954D01*
X8147893Y-19980832D01*
X8035698Y-20038815D01*
X7941027Y-20122403D01*
X7869601Y-20226561D01*
X7825721Y-20344984D01*
X7812044Y-20470540D01*
X7829397Y-20595629D01*
X7877327Y-20714195D01*
X7913877Y-20767665D01*
X7931558Y-20827917D01*
X7910448Y-20887054D01*
X7871862Y-20917575D01*
X7812842Y-20944263D01*
X7710383Y-21020898D01*
X7630768Y-21119083D01*
X7577608Y-21233772D01*
X7554138Y-21357982D01*
X4406345Y-21357982D01*
X4466959Y-21252333D01*
X4501660Y-21121049D01*
X4503352Y-21055550D01*
X4500972Y-20990295D01*
X4465547Y-20859852D01*
X4398491Y-20744433D01*
X4303907Y-20650233D01*
X4188214Y-20583652D01*
X4059249Y-20549190D01*
X3925751Y-20549190D01*
X3796785Y-20583652D01*
X3681092Y-20650233D01*
X3586508Y-20744433D01*
X3519452Y-20859852D01*
X3484027Y-20990295D01*
X3481647Y-21055550D01*
X258400Y-21055550D01*
X258400Y-19881140D01*
X4313985Y-19881140D01*
X4330213Y-20018625D01*
X4353948Y-20081205D01*
X4381337Y-20142375D01*
X4465655Y-20252033D01*
X4574524Y-20334715D01*
X4701291Y-20385906D01*
X4838666Y-20402199D01*
X4908227Y-20394084D01*
X4969792Y-20406437D01*
X5012338Y-20452618D01*
X5019604Y-20474962D01*
X5032405Y-20538595D01*
X5084322Y-20655782D01*
X5162553Y-20755340D01*
X5262887Y-20832542D01*
X5379166Y-20882641D01*
X5504196Y-20902544D01*
X5630279Y-20891019D01*
X5751110Y-20848261D01*
X5803888Y-20815258D01*
X5854563Y-20779767D01*
X5940704Y-20685837D01*
X6000498Y-20575028D01*
X6031330Y-20452959D01*
X6031330Y-20327040D01*
X6000498Y-20204971D01*
X5940704Y-20094162D01*
X5854563Y-20000232D01*
X5801716Y-19963220D01*
X5763932Y-19913068D01*
X5762858Y-19851223D01*
X11300285Y-19851223D01*
X11307003Y-19994524D01*
X11352229Y-20128892D01*
X11432581Y-20245688D01*
X11543189Y-20337036D01*
X11608735Y-20368295D01*
X11654285Y-20411515D01*
X11665732Y-20473256D01*
X11639338Y-20529256D01*
X11595499Y-20576312D01*
X11530884Y-20685737D01*
X11495254Y-20806145D01*
X11489987Y-20931617D01*
X11515397Y-21054586D01*
X11569974Y-21167681D01*
X11651385Y-21265281D01*
X11699831Y-21302829D01*
X11749985Y-21337105D01*
X11866834Y-21384362D01*
X11990191Y-21401861D01*
X12114114Y-21389098D01*
X12231314Y-21346838D01*
X12334868Y-21277564D01*
X12419898Y-21184024D01*
X12452331Y-21128651D01*
X12499256Y-21086927D01*
X12561744Y-21080754D01*
X12615927Y-21112489D01*
X12627903Y-21129053D01*
X12662741Y-21189162D01*
X12757231Y-21288773D01*
X12873125Y-21359400D01*
X13003444Y-21397286D01*
X13139136Y-21399787D01*
X13270762Y-21366739D01*
X13389179Y-21300434D01*
X13486142Y-21205480D01*
X13554927Y-21088486D01*
X13591159Y-20956066D01*
X13593353Y-20889726D01*
X13591501Y-20823088D01*
X13555706Y-20690015D01*
X13486938Y-20572455D01*
X13389651Y-20477176D01*
X13270698Y-20410879D01*
X13138471Y-20378254D01*
X13002338Y-20381603D01*
X12871879Y-20420695D01*
X12756332Y-20492760D01*
X12662741Y-20593906D01*
X12628595Y-20654734D01*
X12582442Y-20697311D01*
X12520077Y-20704627D01*
X12465322Y-20673890D01*
X12451565Y-20655018D01*
X12422690Y-20603966D01*
X12347228Y-20516083D01*
X12254235Y-20446957D01*
X12201278Y-20421711D01*
X12155722Y-20378497D01*
X12144267Y-20316758D01*
X12160574Y-20281507D01*
X26792181Y-20281507D01*
X26811450Y-20405843D01*
X26861328Y-20523609D01*
X26898441Y-20577033D01*
X26916577Y-20637150D01*
X26898299Y-20693171D01*
X26858438Y-20750249D01*
X26808165Y-20878271D01*
X26793616Y-21013398D01*
X26815236Y-21147569D01*
X26872098Y-21272643D01*
X26914959Y-21327317D01*
X26936532Y-21386287D01*
X26919323Y-21446676D01*
X26915398Y-21452119D01*
X26875134Y-21504230D01*
X26819912Y-21621961D01*
X26795876Y-21748130D01*
X26803833Y-21876332D01*
X26843289Y-21998562D01*
X26911796Y-22107211D01*
X27005074Y-22195509D01*
X27117312Y-22257950D01*
X27243008Y-22291043D01*
X27305561Y-22293351D01*
X27368296Y-22291728D01*
X27494575Y-22259568D01*
X27607499Y-22197574D01*
X27701338Y-22109334D01*
X27770146Y-22000428D01*
X27809542Y-21877792D01*
X27817031Y-21749194D01*
X27792138Y-21622802D01*
X27735576Y-21504838D01*
X27694780Y-21452348D01*
X27673453Y-21393289D01*
X27690168Y-21335550D01*
X28821647Y-21335550D01*
X28823339Y-21401049D01*
X28858040Y-21532333D01*
X28924840Y-21648764D01*
X29019574Y-21743881D01*
X29135733Y-21811158D01*
X29265382Y-21845990D01*
X29399618Y-21845990D01*
X29529266Y-21811158D01*
X29645425Y-21743881D01*
X29740159Y-21648764D01*
X29806959Y-21532333D01*
X29841660Y-21401049D01*
X29843352Y-21335550D01*
X29840972Y-21270295D01*
X29805547Y-21139852D01*
X29738491Y-21024433D01*
X29643907Y-20930233D01*
X29528214Y-20863652D01*
X29399249Y-20829190D01*
X29265751Y-20829190D01*
X29136785Y-20863652D01*
X29021092Y-20930233D01*
X28926508Y-21024433D01*
X28859452Y-21139852D01*
X28824027Y-21270295D01*
X28821647Y-21335550D01*
X27690168Y-21335550D01*
X27690914Y-21332973D01*
X27694751Y-21327689D01*
X27737420Y-21272735D01*
X27794152Y-21147517D01*
X27815698Y-21013396D01*
X27801201Y-20878324D01*
X27751028Y-20750143D01*
X27711387Y-20692718D01*
X27693430Y-20632549D01*
X27711602Y-20576972D01*
X27748314Y-20524209D01*
X27778772Y-20450550D01*
X29776647Y-20450550D01*
X29778339Y-20516049D01*
X29813040Y-20647333D01*
X29879840Y-20763764D01*
X29974574Y-20858881D01*
X30090733Y-20926158D01*
X30220382Y-20960990D01*
X30354618Y-20960990D01*
X30484266Y-20926158D01*
X30600425Y-20858881D01*
X30695159Y-20763764D01*
X30761959Y-20647333D01*
X30796660Y-20516049D01*
X30798352Y-20450550D01*
X30795972Y-20385295D01*
X30760547Y-20254852D01*
X30693491Y-20139433D01*
X30598907Y-20045233D01*
X30483214Y-19978652D01*
X30354249Y-19944190D01*
X30220751Y-19944190D01*
X30091785Y-19978652D01*
X29976092Y-20045233D01*
X29881508Y-20139433D01*
X29814452Y-20254852D01*
X29779027Y-20385295D01*
X29776647Y-20450550D01*
X27778772Y-20450550D01*
X27796849Y-20406832D01*
X27815309Y-20282653D01*
X27803164Y-20157699D01*
X27761141Y-20039398D01*
X27691724Y-19934795D01*
X27599052Y-19850098D01*
X27488638Y-19790357D01*
X27365669Y-19758765D01*
X27304579Y-19756646D01*
X27243228Y-19758263D01*
X27119631Y-19788972D01*
X27008641Y-19848229D01*
X26915490Y-19932815D01*
X26845825Y-20037596D01*
X26803878Y-20156221D01*
X26792181Y-20281507D01*
X12160574Y-20281507D01*
X12169690Y-20261802D01*
X12222954Y-20202983D01*
X12297356Y-20062832D01*
X12316346Y-19985709D01*
X12349465Y-19932361D01*
X12407616Y-19908669D01*
X12416814Y-19908416D01*
X12483189Y-19909601D01*
X12611570Y-19882699D01*
X12727720Y-19825086D01*
X12825664Y-19740142D01*
X12899125Y-19633316D01*
X12943396Y-19511461D01*
X12955629Y-19382385D01*
X12935046Y-19254374D01*
X12882173Y-19133840D01*
X12844896Y-19082596D01*
X12804389Y-19034283D01*
X12699583Y-18954939D01*
X12579569Y-18905198D01*
X12450902Y-18887367D01*
X12321882Y-18902584D01*
X12200874Y-18949869D01*
X12095732Y-19026152D01*
X12013243Y-19126507D01*
X11958108Y-19245819D01*
X11944427Y-19310901D01*
X11913153Y-19365351D01*
X11855846Y-19391019D01*
X11842555Y-19391571D01*
X11769526Y-19389813D01*
X11628786Y-19421560D01*
X11503723Y-19490027D01*
X11402365Y-19590286D01*
X11331867Y-19715809D01*
X11313991Y-19783085D01*
X11300285Y-19851223D01*
X5762858Y-19851223D01*
X5762842Y-19850285D01*
X5798864Y-19798853D01*
X5801696Y-19796795D01*
X5853251Y-19760668D01*
X5937839Y-19669569D01*
X5997464Y-19562262D01*
X6030118Y-19442323D01*
X6033370Y-19382769D01*
X6032736Y-19323865D01*
X6006737Y-19203699D01*
X5954581Y-19093977D01*
X5877789Y-18997919D01*
X5829950Y-18958046D01*
X5796500Y-18904905D01*
X5800673Y-18842252D01*
X5831378Y-18800786D01*
X5885915Y-18756983D01*
X5970469Y-18647698D01*
X6022508Y-18521484D01*
X6039330Y-18385995D01*
X6019749Y-18250873D01*
X5965162Y-18125737D01*
X5878391Y-18018186D01*
X5822973Y-17975468D01*
X5787521Y-17923641D01*
X5789303Y-17860874D01*
X5822836Y-17814637D01*
X5852259Y-17791876D01*
X18725117Y-17791876D01*
X18744340Y-17919600D01*
X18794856Y-18038472D01*
X18873453Y-18140958D01*
X18975160Y-18220567D01*
X19093534Y-18272251D01*
X19222443Y-18292964D01*
X19288314Y-18288620D01*
X19349180Y-18304052D01*
X19389352Y-18352313D01*
X19392096Y-18360084D01*
X19412054Y-18424860D01*
X19479918Y-18540332D01*
X19574318Y-18633176D01*
X19689566Y-18698368D01*
X19819412Y-18731866D01*
X19884690Y-18733366D01*
X19949525Y-18731482D01*
X20078375Y-18697486D01*
X20192630Y-18632191D01*
X20286138Y-18539605D01*
X20353263Y-18424804D01*
X20372778Y-18360497D01*
X20408687Y-18308986D01*
X20468016Y-18288419D01*
X20470000Y-18288400D01*
X20555000Y-18288400D01*
X20614719Y-18307804D01*
X20651627Y-18358604D01*
X20652085Y-18360049D01*
X20671422Y-18422730D01*
X20736094Y-18535113D01*
X20825656Y-18626799D01*
X20935240Y-18693299D01*
X21057915Y-18730434D01*
X21185985Y-18735857D01*
X21311366Y-18709235D01*
X21426171Y-18652232D01*
X21524294Y-18567481D01*
X21561527Y-18517006D01*
X21595751Y-18464642D01*
X21641199Y-18343701D01*
X21655112Y-18216851D01*
X21637167Y-18090520D01*
X21588495Y-17972557D01*
X21512118Y-17870329D01*
X21412800Y-17790199D01*
X21391680Y-17780550D01*
X22551647Y-17780550D01*
X22553339Y-17846049D01*
X22588040Y-17977333D01*
X22654840Y-18093764D01*
X22749574Y-18188881D01*
X22865733Y-18256158D01*
X22995382Y-18290990D01*
X23129618Y-18290990D01*
X23259266Y-18256158D01*
X23375425Y-18188881D01*
X23470159Y-18093764D01*
X23536959Y-17977333D01*
X23571660Y-17846049D01*
X23573352Y-17780550D01*
X23570972Y-17715295D01*
X23535547Y-17584852D01*
X23468491Y-17469433D01*
X23373907Y-17375233D01*
X23258214Y-17308652D01*
X23129249Y-17274190D01*
X22995751Y-17274190D01*
X22866785Y-17308652D01*
X22751092Y-17375233D01*
X22656508Y-17469433D01*
X22589452Y-17584852D01*
X22554027Y-17715295D01*
X22551647Y-17780550D01*
X21391680Y-17780550D01*
X21296736Y-17737173D01*
X21169292Y-17714211D01*
X21103593Y-17716536D01*
X21043225Y-17699256D01*
X21004543Y-17649793D01*
X21002904Y-17644916D01*
X20982945Y-17580139D01*
X20915081Y-17464667D01*
X20820681Y-17371823D01*
X20705433Y-17306631D01*
X20575587Y-17273133D01*
X20510557Y-17271639D01*
X20445602Y-17273848D01*
X20315995Y-17308362D01*
X20200779Y-17373895D01*
X20106013Y-17466541D01*
X20037259Y-17581316D01*
X20016850Y-17645701D01*
X19980308Y-17696765D01*
X19920730Y-17716597D01*
X19920000Y-17716600D01*
X19830000Y-17716600D01*
X19770281Y-17697196D01*
X19733373Y-17646396D01*
X19733089Y-17645509D01*
X19713276Y-17582576D01*
X19647989Y-17469824D01*
X19557871Y-17377980D01*
X19447753Y-17311406D01*
X19324549Y-17274265D01*
X19195983Y-17268896D01*
X19070113Y-17295638D01*
X18954835Y-17352805D01*
X18856003Y-17438007D01*
X18818249Y-17488334D01*
X18783881Y-17540923D01*
X18738404Y-17663407D01*
X18725117Y-17791876D01*
X5852259Y-17791876D01*
X5873407Y-17775517D01*
X5954504Y-17678646D01*
X6009185Y-17566365D01*
X6035131Y-17444226D01*
X6030820Y-17319417D01*
X5996511Y-17199346D01*
X5934221Y-17091116D01*
X5846596Y-17000023D01*
X5795882Y-16966037D01*
X5743723Y-16935298D01*
X5624551Y-16896130D01*
X5500906Y-16886950D01*
X5378699Y-16907833D01*
X5265123Y-16957565D01*
X5166883Y-17033197D01*
X5089763Y-17130276D01*
X5037712Y-17244407D01*
X5024309Y-17306453D01*
X4992733Y-17360728D01*
X4935285Y-17386078D01*
X4911411Y-17385687D01*
X4841467Y-17376246D01*
X4702915Y-17390790D01*
X4575020Y-17441462D01*
X4465486Y-17524702D01*
X4381331Y-17635768D01*
X4354313Y-17697892D01*
X4330987Y-17761088D01*
X4314789Y-17898911D01*
X4335531Y-18034430D01*
X4391539Y-18159556D01*
X4479835Y-18266584D01*
X4535999Y-18308750D01*
X4572107Y-18360122D01*
X4571124Y-18422906D01*
X4535676Y-18471492D01*
X4485460Y-18508880D01*
X4403955Y-18601824D01*
X4347637Y-18710162D01*
X4318368Y-18830309D01*
X4316644Y-18889955D01*
X4318432Y-18949543D01*
X4347838Y-19069663D01*
X4404206Y-19178034D01*
X4485692Y-19271113D01*
X4535862Y-19308647D01*
X4572057Y-19359958D01*
X4571179Y-19422744D01*
X4535849Y-19471363D01*
X4479535Y-19513478D01*
X4390963Y-19620417D01*
X4334792Y-19745556D01*
X4313985Y-19881140D01*
X258400Y-19881140D01*
X258400Y-15960000D01*
X32511654Y-15960000D01*
X32513774Y-16024958D01*
X32548676Y-16155224D01*
X32615271Y-16270567D01*
X32709432Y-16364728D01*
X32824775Y-16431323D01*
X32953417Y-16465790D01*
X33086583Y-16465790D01*
X33215224Y-16431323D01*
X33330567Y-16364728D01*
X33424728Y-16270567D01*
X33491323Y-16155224D01*
X33526225Y-16024958D01*
X33528345Y-15960000D01*
X33526225Y-15895041D01*
X33491323Y-15764775D01*
X33424728Y-15649432D01*
X33330567Y-15555271D01*
X33215224Y-15488676D01*
X33086583Y-15454210D01*
X32953417Y-15454210D01*
X32824775Y-15488676D01*
X32709432Y-15555271D01*
X32615271Y-15649432D01*
X32548676Y-15764775D01*
X32513774Y-15895041D01*
X32511654Y-15960000D01*
X258400Y-15960000D01*
X258400Y-15118353D01*
X17425879Y-15118353D01*
X17426388Y-15243806D01*
X17457678Y-15367191D01*
X17484642Y-15422052D01*
X17515269Y-15474862D01*
X17601494Y-15568761D01*
X17706786Y-15637886D01*
X17825790Y-15679179D01*
X17951260Y-15690118D01*
X18075612Y-15670047D01*
X18191282Y-15620189D01*
X18291250Y-15543558D01*
X18370404Y-15443616D01*
X18398629Y-15385571D01*
X18442194Y-15340350D01*
X18500831Y-15328979D01*
X18564690Y-15335825D01*
X18690857Y-15322027D01*
X18808566Y-15278634D01*
X18912275Y-15208062D01*
X18995827Y-15114493D01*
X19054267Y-15003486D01*
X19073632Y-14924449D01*
X20191647Y-14924449D01*
X20194027Y-14989704D01*
X20229452Y-15120147D01*
X20296508Y-15235566D01*
X20391092Y-15329766D01*
X20506785Y-15396347D01*
X20635751Y-15430810D01*
X20769249Y-15430810D01*
X20898214Y-15396347D01*
X21013907Y-15329766D01*
X21108491Y-15235566D01*
X21175547Y-15120147D01*
X21210972Y-14989704D01*
X21213312Y-14925550D01*
X22601647Y-14925550D01*
X22603339Y-14991049D01*
X22638040Y-15122333D01*
X22704840Y-15238764D01*
X22799574Y-15333881D01*
X22915733Y-15401158D01*
X23045382Y-15435990D01*
X23179618Y-15435990D01*
X23309266Y-15401158D01*
X23425425Y-15333881D01*
X23520159Y-15238764D01*
X23586959Y-15122333D01*
X23621660Y-14991049D01*
X23622476Y-14959449D01*
X34541647Y-14959449D01*
X34544027Y-15024704D01*
X34579452Y-15155147D01*
X34646508Y-15270566D01*
X34741092Y-15364766D01*
X34856785Y-15431347D01*
X34985751Y-15465810D01*
X35119249Y-15465810D01*
X35248214Y-15431347D01*
X35363907Y-15364766D01*
X35458491Y-15270566D01*
X35525547Y-15155147D01*
X35560972Y-15024704D01*
X35563352Y-14959449D01*
X35561660Y-14893950D01*
X35526959Y-14762666D01*
X35460159Y-14646235D01*
X35365425Y-14551118D01*
X35249266Y-14483841D01*
X35119618Y-14449010D01*
X34985382Y-14449010D01*
X34855733Y-14483841D01*
X34739574Y-14551118D01*
X34644840Y-14646235D01*
X34578040Y-14762666D01*
X34543339Y-14893950D01*
X34541647Y-14959449D01*
X23622476Y-14959449D01*
X23623352Y-14925550D01*
X23620972Y-14860295D01*
X23585547Y-14729852D01*
X23518491Y-14614433D01*
X23423907Y-14520233D01*
X23308214Y-14453652D01*
X23179249Y-14419190D01*
X23045751Y-14419190D01*
X22916785Y-14453652D01*
X22801092Y-14520233D01*
X22706508Y-14614433D01*
X22639452Y-14729852D01*
X22604027Y-14860295D01*
X22601647Y-14925550D01*
X21213312Y-14925550D01*
X21213352Y-14924449D01*
X21211660Y-14858950D01*
X21176959Y-14727666D01*
X21110159Y-14611235D01*
X21015425Y-14516118D01*
X20899266Y-14448841D01*
X20769618Y-14414010D01*
X20635382Y-14414010D01*
X20505733Y-14448841D01*
X20389574Y-14516118D01*
X20294840Y-14611235D01*
X20228040Y-14727666D01*
X20193339Y-14858950D01*
X20191647Y-14924449D01*
X19073632Y-14924449D01*
X19084120Y-14881646D01*
X19083611Y-14756193D01*
X19052321Y-14632808D01*
X19025357Y-14577947D01*
X18994730Y-14525137D01*
X18908505Y-14431238D01*
X18803213Y-14362113D01*
X18684209Y-14320820D01*
X18558739Y-14309881D01*
X18434387Y-14329952D01*
X18318717Y-14379810D01*
X18218749Y-14456441D01*
X18139595Y-14556383D01*
X18111371Y-14614429D01*
X18067806Y-14659650D01*
X18009169Y-14671021D01*
X17945309Y-14664174D01*
X17819142Y-14677972D01*
X17701433Y-14721365D01*
X17597724Y-14791937D01*
X17514172Y-14885506D01*
X17455732Y-14996513D01*
X17425879Y-15118353D01*
X258400Y-15118353D01*
X258400Y-12954410D01*
X19556638Y-12954410D01*
X19558847Y-13019669D01*
X19593748Y-13149624D01*
X19660131Y-13264747D01*
X19753951Y-13358867D01*
X19868860Y-13425618D01*
X19997094Y-13460505D01*
X20129990Y-13461146D01*
X20258551Y-13427509D01*
X20375924Y-13360843D01*
X20426736Y-13314750D01*
X20484005Y-13288997D01*
X20545473Y-13301824D01*
X20564086Y-13315504D01*
X20613947Y-13361744D01*
X20730498Y-13428442D01*
X20858675Y-13462520D01*
X20991325Y-13462520D01*
X21119501Y-13428442D01*
X21236052Y-13361744D01*
X21285914Y-13315504D01*
X21342896Y-13289124D01*
X21404501Y-13301274D01*
X21423439Y-13314909D01*
X21473278Y-13360333D01*
X21589345Y-13425730D01*
X21716673Y-13459130D01*
X21848327Y-13459130D01*
X21975654Y-13425730D01*
X22091721Y-13360333D01*
X22141561Y-13314909D01*
X22198769Y-13289023D01*
X22260267Y-13301706D01*
X22279086Y-13315504D01*
X22328947Y-13361744D01*
X22445498Y-13428442D01*
X22573675Y-13462520D01*
X22706325Y-13462520D01*
X22834501Y-13428442D01*
X22951052Y-13361744D01*
X23000914Y-13315504D01*
X23057896Y-13289124D01*
X23119501Y-13301274D01*
X23139205Y-13315615D01*
X23189229Y-13362156D01*
X23306310Y-13429209D01*
X23435111Y-13463254D01*
X23568337Y-13462796D01*
X23696913Y-13427877D01*
X23812063Y-13360879D01*
X23905952Y-13266358D01*
X23972186Y-13150754D01*
X24006637Y-13020481D01*
X24008350Y-12955506D01*
X24005981Y-12890654D01*
X23970902Y-12760836D01*
X23904538Y-12645760D01*
X23810899Y-12551505D01*
X23696257Y-12484399D01*
X23568235Y-12448901D01*
X23435397Y-12447384D01*
X23306608Y-12479954D01*
X23188698Y-12545401D01*
X23137520Y-12590919D01*
X23080001Y-12616107D01*
X23018662Y-12602675D01*
X23001283Y-12589837D01*
X22951238Y-12543885D01*
X22834510Y-12477686D01*
X22706303Y-12443860D01*
X22573697Y-12443860D01*
X22445489Y-12477686D01*
X22328761Y-12543885D01*
X22278717Y-12589837D01*
X22221605Y-12615935D01*
X22160060Y-12603479D01*
X22141018Y-12589593D01*
X22091445Y-12543749D01*
X21975649Y-12477654D01*
X21848352Y-12443880D01*
X21716648Y-12443880D01*
X21589350Y-12477654D01*
X21473554Y-12543749D01*
X21423982Y-12589593D01*
X21366963Y-12615893D01*
X21305375Y-12603656D01*
X21286283Y-12589837D01*
X21236238Y-12543885D01*
X21119510Y-12477686D01*
X20991303Y-12443860D01*
X20858697Y-12443860D01*
X20730489Y-12477686D01*
X20613761Y-12543885D01*
X20563717Y-12589837D01*
X20506605Y-12615935D01*
X20445060Y-12603479D01*
X20425841Y-12589429D01*
X20375769Y-12542902D01*
X20258301Y-12476185D01*
X20129047Y-12442555D01*
X19995491Y-12443538D01*
X19866749Y-12479068D01*
X19751600Y-12546726D01*
X19657895Y-12641906D01*
X19592027Y-12758089D01*
X19558109Y-12888901D01*
X19556638Y-12954410D01*
X258400Y-12954410D01*
X258400Y-12350484D01*
X9646641Y-12350484D01*
X9648227Y-12416398D01*
X9680404Y-12548765D01*
X9742727Y-12668275D01*
X9831896Y-12769349D01*
X9942712Y-12846080D01*
X10068700Y-12893988D01*
X10202500Y-12910270D01*
X10336299Y-12893988D01*
X10462287Y-12846080D01*
X10573103Y-12769349D01*
X10662272Y-12668275D01*
X10724595Y-12548765D01*
X10756772Y-12416398D01*
X10757541Y-12384449D01*
X13651647Y-12384449D01*
X13654027Y-12449704D01*
X13689452Y-12580147D01*
X13756508Y-12695566D01*
X13851092Y-12789766D01*
X13966785Y-12856347D01*
X14095751Y-12890810D01*
X14229249Y-12890810D01*
X14358214Y-12856347D01*
X14473907Y-12789766D01*
X14568491Y-12695566D01*
X14635547Y-12580147D01*
X14670972Y-12449704D01*
X14673352Y-12384449D01*
X14671660Y-12318950D01*
X14636959Y-12187666D01*
X14570159Y-12071235D01*
X14475425Y-11976118D01*
X14359266Y-11908841D01*
X14268474Y-11884449D01*
X16836647Y-11884449D01*
X16839027Y-11949704D01*
X16874452Y-12080147D01*
X16941508Y-12195566D01*
X17036092Y-12289766D01*
X17151785Y-12356347D01*
X17280751Y-12390810D01*
X17414249Y-12390810D01*
X17433933Y-12385550D01*
X18346647Y-12385550D01*
X18348339Y-12451049D01*
X18383040Y-12582333D01*
X18449840Y-12698764D01*
X18544574Y-12793881D01*
X18660733Y-12861158D01*
X18790382Y-12895990D01*
X18924618Y-12895990D01*
X19054266Y-12861158D01*
X19170425Y-12793881D01*
X19265159Y-12698764D01*
X19331959Y-12582333D01*
X19366660Y-12451049D01*
X19368352Y-12385550D01*
X19365972Y-12320295D01*
X19330547Y-12189852D01*
X19263491Y-12074433D01*
X19168907Y-11980233D01*
X19053214Y-11913652D01*
X18924249Y-11879190D01*
X18790751Y-11879190D01*
X18661785Y-11913652D01*
X18546092Y-11980233D01*
X18451508Y-12074433D01*
X18384452Y-12189852D01*
X18349027Y-12320295D01*
X18346647Y-12385550D01*
X17433933Y-12385550D01*
X17543214Y-12356347D01*
X17658907Y-12289766D01*
X17753491Y-12195566D01*
X17820547Y-12080147D01*
X17855972Y-11949704D01*
X17858352Y-11884449D01*
X17858122Y-11875550D01*
X24011647Y-11875550D01*
X24013339Y-11941049D01*
X24048040Y-12072333D01*
X24114840Y-12188764D01*
X24209574Y-12283881D01*
X24325733Y-12351158D01*
X24455382Y-12385990D01*
X24589618Y-12385990D01*
X24595354Y-12384449D01*
X25651647Y-12384449D01*
X25654027Y-12449704D01*
X25689452Y-12580147D01*
X25756508Y-12695566D01*
X25851092Y-12789766D01*
X25966785Y-12856347D01*
X26095751Y-12890810D01*
X26229249Y-12890810D01*
X26358214Y-12856347D01*
X26473907Y-12789766D01*
X26568491Y-12695566D01*
X26635547Y-12580147D01*
X26670972Y-12449704D01*
X26673352Y-12384449D01*
X26671660Y-12318950D01*
X26636959Y-12187666D01*
X26587873Y-12102110D01*
X26984632Y-12102110D01*
X27011575Y-12234666D01*
X27072741Y-12356695D01*
X27117381Y-12409161D01*
X27141302Y-12467219D01*
X27126528Y-12528249D01*
X27117641Y-12540532D01*
X27074339Y-12591834D01*
X27013577Y-12709737D01*
X26984902Y-12837661D01*
X26989464Y-12968660D01*
X27026964Y-13094272D01*
X27094963Y-13206342D01*
X27189075Y-13297602D01*
X27303177Y-13362134D01*
X27431380Y-13396154D01*
X27495268Y-13398349D01*
X27559299Y-13396487D01*
X27687910Y-13362970D01*
X27802424Y-13298681D01*
X27896871Y-13207435D01*
X27965067Y-13095210D01*
X28002555Y-12969342D01*
X28003012Y-12955409D01*
X29179109Y-12955409D01*
X29199555Y-13075099D01*
X29246915Y-13185343D01*
X29318789Y-13281417D01*
X29411179Y-13357958D01*
X29520308Y-13411389D01*
X29579970Y-13426516D01*
X29633088Y-13460002D01*
X29656380Y-13518314D01*
X29640948Y-13579181D01*
X29626723Y-13596961D01*
X29577775Y-13645746D01*
X29506062Y-13761945D01*
X29467742Y-13891339D01*
X29464644Y-14026247D01*
X29497001Y-14157266D01*
X29562538Y-14275232D01*
X29656683Y-14371917D01*
X29772868Y-14440570D01*
X29902972Y-14476390D01*
X30039500Y-14476887D01*
X30103568Y-14461842D01*
X30166520Y-14442672D01*
X30284403Y-14373703D01*
X30379028Y-14277446D01*
X30445186Y-14159793D01*
X30478286Y-14028926D01*
X30476011Y-13893969D01*
X30438520Y-13764292D01*
X30368431Y-13648932D01*
X30270607Y-13555923D01*
X30150509Y-13490987D01*
X30083775Y-13473157D01*
X30031088Y-13438996D01*
X30008543Y-13380390D01*
X30024751Y-13319726D01*
X30037368Y-13303956D01*
X30093331Y-13246741D01*
X30171745Y-13107354D01*
X30191567Y-13029832D01*
X30225159Y-12976781D01*
X30276476Y-12954304D01*
X30339946Y-12945779D01*
X30458840Y-12902470D01*
X30562465Y-12832484D01*
X30646054Y-12739485D01*
X30704636Y-12628990D01*
X30734707Y-12507613D01*
X30734482Y-12382563D01*
X30703975Y-12261287D01*
X30644291Y-12149680D01*
X30604561Y-12103114D01*
X30562259Y-12058814D01*
X30457235Y-11988084D01*
X30339601Y-11945433D01*
X30215131Y-11932547D01*
X30091254Y-11950218D01*
X29975342Y-11997371D01*
X29874309Y-12071214D01*
X29794192Y-12167326D01*
X29738978Y-12281583D01*
X29723696Y-12344119D01*
X29690669Y-12397525D01*
X29638942Y-12420639D01*
X29566279Y-12430705D01*
X29432039Y-12485125D01*
X29319607Y-12573626D01*
X29236195Y-12689885D01*
X29187823Y-12826298D01*
X29181419Y-12896599D01*
X29179109Y-12955409D01*
X28003012Y-12955409D01*
X28006864Y-12838093D01*
X27977730Y-12710043D01*
X27916291Y-12592127D01*
X27872644Y-12540868D01*
X27848701Y-12482820D01*
X27863451Y-12421785D01*
X27872035Y-12409854D01*
X27919524Y-12353020D01*
X27984881Y-12220348D01*
X28000776Y-12148155D01*
X28032567Y-12094004D01*
X28090114Y-12068882D01*
X28151438Y-12082383D01*
X28193114Y-12129351D01*
X28199420Y-12149065D01*
X28212719Y-12212224D01*
X28265243Y-12328405D01*
X28343590Y-12427074D01*
X28443645Y-12503640D01*
X28559349Y-12553490D01*
X28683720Y-12573594D01*
X28809245Y-12562750D01*
X28928324Y-12521601D01*
X29033768Y-12452647D01*
X29119200Y-12360047D01*
X29179454Y-12249400D01*
X29211258Y-12125985D01*
X29213355Y-12064550D01*
X29211792Y-12002600D01*
X29180868Y-11878042D01*
X29121025Y-11766273D01*
X29035546Y-11672627D01*
X28929683Y-11602858D01*
X28809921Y-11561240D01*
X28683607Y-11550314D01*
X28558479Y-11570765D01*
X28442216Y-11621333D01*
X28341936Y-11698920D01*
X28263792Y-11798765D01*
X28212074Y-11915903D01*
X28199733Y-11979388D01*
X28169289Y-12034307D01*
X28112380Y-12060843D01*
X28050741Y-12048860D01*
X28007918Y-12002936D01*
X28000412Y-11980118D01*
X27986711Y-11912299D01*
X27929255Y-11788261D01*
X27842286Y-11684897D01*
X27731230Y-11607987D01*
X27603879Y-11562942D01*
X27469167Y-11552917D01*
X27334991Y-11578915D01*
X27274536Y-11606361D01*
X27215635Y-11637117D01*
X27112269Y-11726804D01*
X27036782Y-11839054D01*
X26993235Y-11967110D01*
X26984632Y-12102110D01*
X26587873Y-12102110D01*
X26570159Y-12071235D01*
X26475425Y-11976118D01*
X26359266Y-11908841D01*
X26229618Y-11874010D01*
X26095382Y-11874010D01*
X25965733Y-11908841D01*
X25849574Y-11976118D01*
X25754840Y-12071235D01*
X25688040Y-12187666D01*
X25653339Y-12318950D01*
X25651647Y-12384449D01*
X24595354Y-12384449D01*
X24719266Y-12351158D01*
X24835425Y-12283881D01*
X24930159Y-12188764D01*
X24996959Y-12072333D01*
X25031660Y-11941049D01*
X25033352Y-11875550D01*
X25030972Y-11810295D01*
X24995547Y-11679852D01*
X24928491Y-11564433D01*
X24833907Y-11470233D01*
X24718214Y-11403652D01*
X24589249Y-11369190D01*
X24455751Y-11369190D01*
X24326785Y-11403652D01*
X24211092Y-11470233D01*
X24116508Y-11564433D01*
X24049452Y-11679852D01*
X24014027Y-11810295D01*
X24011647Y-11875550D01*
X17858122Y-11875550D01*
X17856660Y-11818950D01*
X17821959Y-11687666D01*
X17755159Y-11571235D01*
X17660425Y-11476118D01*
X17544266Y-11408841D01*
X17414618Y-11374010D01*
X17280382Y-11374010D01*
X17150733Y-11408841D01*
X17034574Y-11476118D01*
X16939840Y-11571235D01*
X16873040Y-11687666D01*
X16838339Y-11818950D01*
X16836647Y-11884449D01*
X14268474Y-11884449D01*
X14229618Y-11874010D01*
X14095382Y-11874010D01*
X13965733Y-11908841D01*
X13849574Y-11976118D01*
X13754840Y-12071235D01*
X13688040Y-12187666D01*
X13653339Y-12318950D01*
X13651647Y-12384449D01*
X10757541Y-12384449D01*
X10758358Y-12350484D01*
X10756141Y-12284847D01*
X10723263Y-12153259D01*
X10660631Y-12034686D01*
X10571507Y-11934501D01*
X10461040Y-11858483D01*
X10335618Y-11811043D01*
X10202500Y-11794922D01*
X10069381Y-11811043D01*
X9943959Y-11858483D01*
X9833492Y-11934501D01*
X9744368Y-12034686D01*
X9681736Y-12153259D01*
X9648858Y-12284847D01*
X9646641Y-12350484D01*
X258400Y-12350484D01*
X258400Y-9895550D01*
X9521647Y-9895550D01*
X9523339Y-9961049D01*
X9558040Y-10092333D01*
X9624840Y-10208764D01*
X9719574Y-10303881D01*
X9835733Y-10371158D01*
X9965382Y-10405990D01*
X10099618Y-10405990D01*
X10229266Y-10371158D01*
X10345425Y-10303881D01*
X10440159Y-10208764D01*
X10506959Y-10092333D01*
X10541660Y-9961049D01*
X10543352Y-9895550D01*
X10540972Y-9830295D01*
X10505547Y-9699852D01*
X10438491Y-9584433D01*
X10343907Y-9490233D01*
X10228214Y-9423652D01*
X10099249Y-9389190D01*
X9965751Y-9389190D01*
X9836785Y-9423652D01*
X9721092Y-9490233D01*
X9626508Y-9584433D01*
X9559452Y-9699852D01*
X9524027Y-9830295D01*
X9521647Y-9895550D01*
X258400Y-9895550D01*
X258400Y-6671289D01*
X28380331Y-6671289D01*
X28395150Y-6792924D01*
X28438334Y-6906038D01*
X28507519Y-7005415D01*
X28599689Y-7086103D01*
X28653992Y-7115993D01*
X28696953Y-7161788D01*
X28704791Y-7224090D01*
X28674512Y-7279099D01*
X28655626Y-7293089D01*
X28601789Y-7324029D01*
X28510338Y-7405841D01*
X28441413Y-7505592D01*
X28397759Y-7618705D01*
X28381618Y-7740365D01*
X28386079Y-7799287D01*
X28394066Y-7857870D01*
X28435431Y-7973536D01*
X28501897Y-8075104D01*
X28590283Y-8158317D01*
X28696910Y-8219258D01*
X28756080Y-8238270D01*
X28807000Y-8275012D01*
X28826433Y-8329170D01*
X28830372Y-8397716D01*
X28869142Y-8527769D01*
X28939462Y-8642039D01*
X29036984Y-8734193D01*
X29155044Y-8797954D01*
X29285584Y-8828965D01*
X29419708Y-8825097D01*
X29549784Y-8786184D01*
X29606300Y-8753679D01*
X29660342Y-8717410D01*
X29752748Y-8618412D01*
X29815648Y-8500389D01*
X29845926Y-8370107D01*
X29841533Y-8236430D01*
X29802754Y-8108422D01*
X29732231Y-7994776D01*
X29633643Y-7902182D01*
X29574339Y-7868068D01*
X29532249Y-7821471D01*
X29525587Y-7759033D01*
X29556897Y-7704604D01*
X29573841Y-7692220D01*
X29635025Y-7656561D01*
X29736160Y-7559897D01*
X29807415Y-7441393D01*
X29845425Y-7306543D01*
X29848332Y-7239354D01*
X29846288Y-7172300D01*
X29809112Y-7037525D01*
X29737932Y-6919222D01*
X29636328Y-6823286D01*
X29574814Y-6788340D01*
X29532474Y-6741970D01*
X29525476Y-6679569D01*
X29556492Y-6624972D01*
X29574088Y-6612077D01*
X29632037Y-6578521D01*
X29728899Y-6488368D01*
X29799095Y-6378029D01*
X29839232Y-6253572D01*
X29846731Y-6123006D01*
X29821100Y-5994766D01*
X29763995Y-5877112D01*
X29678109Y-5776475D01*
X29626831Y-5738355D01*
X29573421Y-5703408D01*
X29449526Y-5657644D01*
X29319637Y-5644881D01*
X29190750Y-5665425D01*
X29071254Y-5717921D01*
X28968937Y-5798959D01*
X28890481Y-5903248D01*
X28840569Y-6025014D01*
X28830399Y-6090575D01*
X28802070Y-6146613D01*
X28760211Y-6172005D01*
X28700515Y-6190596D01*
X28592791Y-6250996D01*
X28503382Y-6334065D01*
X28436044Y-6435856D01*
X28394094Y-6551898D01*
X28385953Y-6611637D01*
X28380331Y-6671289D01*
X258400Y-6671289D01*
X258400Y-3860625D01*
X19811062Y-3860625D01*
X19840445Y-3989391D01*
X19902361Y-4107492D01*
X19944634Y-4155999D01*
X19990034Y-4202314D01*
X20102971Y-4274344D01*
X20229051Y-4314501D01*
X20361206Y-4320991D01*
X20490603Y-4293364D01*
X20608595Y-4233484D01*
X20707285Y-4145351D01*
X20780079Y-4034857D01*
X20822574Y-3907986D01*
X20828836Y-3840600D01*
X20853682Y-3782932D01*
X20907679Y-3750882D01*
X20929296Y-3748402D01*
X20995814Y-3747941D01*
X21123725Y-3717820D01*
X21238596Y-3657218D01*
X21334537Y-3569669D01*
X21405387Y-3460816D01*
X21429145Y-3389792D01*
X23671649Y-3389792D01*
X23673872Y-3456424D01*
X23710488Y-3589480D01*
X23780058Y-3706747D01*
X23878101Y-3801507D01*
X23997678Y-3867061D01*
X24130293Y-3898751D01*
X24266586Y-3894334D01*
X24398093Y-3853753D01*
X24457625Y-3817940D01*
X24518800Y-3803782D01*
X24561788Y-3817590D01*
X24622098Y-3853321D01*
X24754395Y-3894256D01*
X24891181Y-3898860D01*
X25024364Y-3867314D01*
X25144539Y-3801821D01*
X25243240Y-3707007D01*
X25313514Y-3589556D01*
X25350824Y-3456198D01*
X25353343Y-3389554D01*
X25352644Y-3365550D01*
X30921647Y-3365550D01*
X30923339Y-3431049D01*
X30958040Y-3562333D01*
X31024840Y-3678764D01*
X31119574Y-3773881D01*
X31235733Y-3841158D01*
X31365382Y-3875990D01*
X31499618Y-3875990D01*
X31629266Y-3841158D01*
X31745425Y-3773881D01*
X31840159Y-3678764D01*
X31906959Y-3562333D01*
X31941660Y-3431049D01*
X31943352Y-3365550D01*
X31940972Y-3300295D01*
X31905547Y-3169852D01*
X31838491Y-3054433D01*
X31743907Y-2960233D01*
X31628214Y-2893652D01*
X31499249Y-2859190D01*
X31365751Y-2859190D01*
X31236785Y-2893652D01*
X31121092Y-2960233D01*
X31026508Y-3054433D01*
X30959452Y-3169852D01*
X30924027Y-3300295D01*
X30921647Y-3365550D01*
X25352644Y-3365550D01*
X25351394Y-3322634D01*
X25314942Y-3188558D01*
X25245056Y-3070418D01*
X25146306Y-2975068D01*
X25025784Y-2909357D01*
X24892147Y-2878010D01*
X24754971Y-2883260D01*
X24622765Y-2925177D01*
X24562958Y-2961706D01*
X24501880Y-2976275D01*
X24457813Y-2962173D01*
X24397805Y-2926248D01*
X24265994Y-2884975D01*
X24129614Y-2880178D01*
X23996838Y-2911688D01*
X23877159Y-2977257D01*
X23779132Y-3072202D01*
X23709774Y-3189725D01*
X23673603Y-3323046D01*
X23671649Y-3389792D01*
X21429145Y-3389792D01*
X21447134Y-3336012D01*
X21453928Y-3269653D01*
X21479313Y-3212221D01*
X21533608Y-3180678D01*
X21547682Y-3178664D01*
X21611304Y-3174069D01*
X21732081Y-3138198D01*
X21839210Y-3074776D01*
X21927676Y-2987193D01*
X21992160Y-2880701D01*
X22029082Y-2760756D01*
X22033667Y-2697640D01*
X22057346Y-2639483D01*
X22110686Y-2606352D01*
X22135739Y-2603403D01*
X22203869Y-2603898D01*
X22335160Y-2574425D01*
X22453006Y-2512960D01*
X22551083Y-2423267D01*
X22622807Y-2311382D01*
X22663361Y-2184809D01*
X22670012Y-2052070D01*
X22642317Y-1922080D01*
X22581563Y-1802448D01*
X22539585Y-1753147D01*
X22494443Y-1706070D01*
X22381615Y-1632472D01*
X22255205Y-1590952D01*
X22122373Y-1583411D01*
X21992078Y-1610350D01*
X21873115Y-1669952D01*
X21773537Y-1758190D01*
X21700063Y-1869109D01*
X21657229Y-1996450D01*
X21651198Y-2064032D01*
X21626562Y-2121790D01*
X21572682Y-2154036D01*
X21549149Y-2156596D01*
X21481912Y-2156032D01*
X21352230Y-2184747D01*
X21235535Y-2244768D01*
X21137957Y-2332499D01*
X21065893Y-2442166D01*
X21023397Y-2568629D01*
X21015993Y-2636085D01*
X20990190Y-2693331D01*
X20935666Y-2724476D01*
X20922781Y-2726302D01*
X20858964Y-2731203D01*
X20737778Y-2767534D01*
X20630109Y-2831181D01*
X20540881Y-2918823D01*
X20475322Y-3025333D01*
X20436899Y-3145608D01*
X20431192Y-3209097D01*
X20406519Y-3266839D01*
X20352618Y-3299050D01*
X20331692Y-3301586D01*
X20264014Y-3302712D01*
X20134275Y-3334995D01*
X20018518Y-3398595D01*
X19922867Y-3489670D01*
X19853696Y-3602173D01*
X19815579Y-3728632D01*
X19811062Y-3860625D01*
X258400Y-3860625D01*
X258400Y-1000000D01*
X258454Y-996684D01*
X261194Y-912784D01*
X264602Y-889802D01*
X308032Y-727732D01*
X318179Y-703235D01*
X402069Y-557915D01*
X418218Y-536868D01*
X536868Y-418218D01*
X557915Y-402069D01*
X703235Y-318179D01*
X727732Y-308032D01*
X889802Y-264602D01*
X912784Y-261194D01*
X996684Y-258454D01*
X1000000Y-258400D01*
X39000000Y-258400D01*
X39003316Y-258454D01*
G37*
%TD.AperFunction*%
%TD*%
M02*
