%TF.GenerationSoftware,KiCad,Pcbnew,9.0.4*%
%TF.CreationDate,2025-09-14T02:35:36-04:00*%
%TF.ProjectId,D8X3C_Backpack_V1.0,44385833-435f-4426-9163-6b7061636b5f,rev?*%
%TF.SameCoordinates,Original*%
%TF.FileFunction,Soldermask,Top*%
%TF.FilePolarity,Negative*%
%FSLAX46Y46*%
G04 Gerber Fmt 4.6, Leading zero omitted, Abs format (unit mm)*
G04 Created by KiCad (PCBNEW 9.0.4) date 2025-09-14 02:35:36*
%MOMM*%
%LPD*%
G01*
G04 APERTURE LIST*
%ADD10R,0.790000X0.540000*%
%ADD11R,1.360000X1.230000*%
%ADD12R,1.400000X1.200000*%
%ADD13R,0.540000X0.565500*%
%ADD14R,0.864000X0.800000*%
%ADD15R,0.540000X0.790000*%
%ADD16R,0.280000X1.620000*%
%ADD17R,1.620000X0.280000*%
%ADD18O,0.364000X1.742000*%
%ADD19O,3.000000X3.200000*%
%ADD20C,0.500000*%
%ADD21R,1.230000X1.360000*%
%ADD22R,0.565500X0.540000*%
%ADD23R,0.280000X0.665000*%
%ADD24R,0.665000X0.280000*%
%ADD25R,1.750000X1.750000*%
%ADD26R,0.806500X0.864000*%
%ADD27R,0.600000X1.070000*%
%ADD28R,0.800000X0.800000*%
%ADD29R,0.550000X1.100000*%
%ADD30R,0.300000X1.100000*%
%ADD31O,1.100000X2.000000*%
%ADD32O,1.200000X1.800000*%
%ADD33R,0.300000X1.200000*%
%ADD34R,2.000000X1.800000*%
%ADD35R,0.800000X0.900000*%
%ADD36R,0.800000X0.864000*%
%ADD37R,0.532000X1.037500*%
G04 APERTURE END LIST*
D10*
%TO.C,C25*%
X13499000Y-24257000D03*
X12409000Y-24257000D03*
%TD*%
D11*
%TO.C,C*%
X31369000Y-28569500D03*
X31369000Y-24199500D03*
%TD*%
D12*
%TO.C,X1*%
X21293000Y-23216500D03*
X19093000Y-23216500D03*
X19093000Y-24916500D03*
X21293000Y-24916500D03*
%TD*%
D13*
%TO.C,R15*%
X9334500Y-24776500D03*
X9334500Y-25642500D03*
%TD*%
D10*
%TO.C,C26*%
X13499000Y-23368000D03*
X12409000Y-23368000D03*
%TD*%
D14*
%TO.C,L2*%
X4635500Y-37654000D03*
X4635500Y-39054000D03*
%TD*%
D15*
%TO.C,C14*%
X9334500Y-26823500D03*
X9334500Y-27913500D03*
%TD*%
D16*
%TO.C,U1*%
X11894000Y-29672000D03*
X11394000Y-29672000D03*
X10894000Y-29672000D03*
X10394000Y-29672000D03*
X9894000Y-29672000D03*
X9394000Y-29672000D03*
X8894000Y-29672000D03*
X8394000Y-29672000D03*
X7894000Y-29672000D03*
X7394000Y-29672000D03*
X6894000Y-29672000D03*
X6394000Y-29672000D03*
D17*
X5034000Y-31032000D03*
X5034000Y-31532000D03*
X5034000Y-32032000D03*
X5034000Y-32532000D03*
X5034000Y-33032000D03*
X5034000Y-33532000D03*
X5034000Y-34032000D03*
X5034000Y-34532000D03*
X5034000Y-35032000D03*
X5034000Y-35532000D03*
X5034000Y-36032000D03*
X5034000Y-36532000D03*
D16*
X6394000Y-37892000D03*
X6894000Y-37892000D03*
X7394000Y-37892000D03*
X7894000Y-37892000D03*
X8394000Y-37892000D03*
X8894000Y-37892000D03*
X9394000Y-37892000D03*
X9894000Y-37892000D03*
X10394000Y-37892000D03*
X10894000Y-37892000D03*
X11394000Y-37892000D03*
X11894000Y-37892000D03*
D17*
X13254000Y-36532000D03*
X13254000Y-36032000D03*
X13254000Y-35532000D03*
X13254000Y-35032000D03*
X13254000Y-34532000D03*
X13254000Y-34032000D03*
X13254000Y-33532000D03*
X13254000Y-33032000D03*
X13254000Y-32532000D03*
X13254000Y-32032000D03*
X13254000Y-31532000D03*
X13254000Y-31032000D03*
%TD*%
D18*
%TO.C,U9*%
X23872000Y-16460000D03*
X24522000Y-16460000D03*
X25172000Y-16460000D03*
X25822000Y-16460000D03*
X26472000Y-16460000D03*
X27122000Y-16460000D03*
X27772000Y-16460000D03*
X28422000Y-16460000D03*
X29072000Y-16460000D03*
X29722000Y-16460000D03*
X29722000Y-10718000D03*
X29072000Y-10718000D03*
X28422000Y-10718000D03*
X27772000Y-10718000D03*
X27122000Y-10718000D03*
X26472000Y-10718000D03*
X25822000Y-10718000D03*
X25172000Y-10718000D03*
X24522000Y-10718000D03*
X23872000Y-10718000D03*
%TD*%
D19*
%TO.C,*%
X2000000Y-2000000D03*
%TD*%
D10*
%TO.C,C18*%
X37539500Y-31813500D03*
X36449500Y-31813500D03*
%TD*%
D19*
%TO.C,*%
X38000000Y-2000000D03*
%TD*%
D13*
%TO.C,R44*%
X7302500Y-27738000D03*
X7302500Y-26872000D03*
%TD*%
D20*
%TO.C,DM4*%
X19784500Y-26384500D03*
%TD*%
D21*
%TO.C,-*%
X24104000Y-26384500D03*
X28474000Y-26384500D03*
%TD*%
D22*
%TO.C,R14*%
X14466500Y-28257500D03*
X13600500Y-28257500D03*
%TD*%
D23*
%TO.C,U3*%
X21133500Y-27231000D03*
X20633500Y-27231000D03*
X20133500Y-27231000D03*
X19633500Y-27231000D03*
D24*
X18976000Y-27888500D03*
X18976000Y-28388500D03*
X18976000Y-28888500D03*
X18976000Y-29388500D03*
D23*
X19633500Y-30046000D03*
X20133500Y-30046000D03*
X20633500Y-30046000D03*
X21133500Y-30046000D03*
D24*
X21791000Y-29388500D03*
X21791000Y-28888500D03*
X21791000Y-28388500D03*
X21791000Y-27888500D03*
D25*
X20383500Y-28638500D03*
%TD*%
D22*
%TO.C,R2*%
X23356500Y-30797500D03*
X22490500Y-30797500D03*
%TD*%
D15*
%TO.C,C13*%
X6286500Y-26760000D03*
X6286500Y-27850000D03*
%TD*%
D18*
%TO.C,U7*%
X9394000Y-16460000D03*
X10044000Y-16460000D03*
X10694000Y-16460000D03*
X11344000Y-16460000D03*
X11994000Y-16460000D03*
X12644000Y-16460000D03*
X13294000Y-16460000D03*
X13944000Y-16460000D03*
X14594000Y-16460000D03*
X15244000Y-16460000D03*
X15244000Y-10718000D03*
X14594000Y-10718000D03*
X13944000Y-10718000D03*
X13294000Y-10718000D03*
X12644000Y-10718000D03*
X11994000Y-10718000D03*
X11344000Y-10718000D03*
X10694000Y-10718000D03*
X10044000Y-10718000D03*
X9394000Y-10718000D03*
%TD*%
D21*
%TO.C,M*%
X29184000Y-31432500D03*
X33554000Y-31432500D03*
%TD*%
D13*
%TO.C,R43*%
X12065000Y-27738000D03*
X12065000Y-26872000D03*
%TD*%
D26*
%TO.C,R58*%
X13851500Y-18097500D03*
X15358500Y-18097500D03*
%TD*%
D13*
%TO.C,R12*%
X3683000Y-29412000D03*
X3683000Y-30278000D03*
%TD*%
D27*
%TO.C,1V2*%
X1082000Y-34745500D03*
X2982000Y-34745500D03*
X2032000Y-32275500D03*
%TD*%
D22*
%TO.C,R6*%
X27126000Y-28702000D03*
X27992000Y-28702000D03*
%TD*%
D10*
%TO.C,C29*%
X13499000Y-25146000D03*
X12409000Y-25146000D03*
%TD*%
D13*
%TO.C,R27*%
X30924500Y-10997000D03*
X30924500Y-11863000D03*
%TD*%
D15*
%TO.C,C2*%
X22923500Y-23712000D03*
X22923500Y-24802000D03*
%TD*%
D10*
%TO.C,C5*%
X24029500Y-28702000D03*
X25119500Y-28702000D03*
%TD*%
D15*
%TO.C,C24*%
X8318500Y-26823500D03*
X8318500Y-27913500D03*
%TD*%
D19*
%TO.C,*%
X2000000Y-38000000D03*
%TD*%
D10*
%TO.C,C16*%
X36449500Y-30819000D03*
X37539500Y-30819000D03*
%TD*%
D21*
%TO.C,F*%
X29184000Y-21336000D03*
X33554000Y-21336000D03*
%TD*%
D28*
%TO.C,THM_PWR*%
X7911500Y-23495000D03*
X6312500Y-23495000D03*
%TD*%
D29*
%TO.C,USB1*%
X17310500Y-32486500D03*
X18110500Y-32486500D03*
D30*
X18760500Y-32486500D03*
X19260500Y-32486500D03*
X19760500Y-32486500D03*
X20260500Y-32486500D03*
X20760500Y-32486500D03*
X21260500Y-32486500D03*
X21760500Y-32486500D03*
X22260500Y-32486500D03*
D29*
X22910500Y-32486500D03*
X23710500Y-32486500D03*
D31*
X16185500Y-33036500D03*
D32*
X16185500Y-37236500D03*
D31*
X24835500Y-33036500D03*
D32*
X24835500Y-37236500D03*
%TD*%
D20*
%TO.C,G1IN*%
X10248500Y-25103000D03*
%TD*%
D33*
%TO.C,FPC1*%
X10250000Y-4990500D03*
X10750000Y-4990500D03*
X11250000Y-4990500D03*
X11750000Y-4990500D03*
X12250000Y-4990500D03*
X12750000Y-4990500D03*
X13250000Y-4990500D03*
X13750000Y-4990500D03*
X14250000Y-4990500D03*
X14750000Y-4990500D03*
X15250000Y-4990500D03*
X15750000Y-4990500D03*
X16250000Y-4990500D03*
X16750000Y-4990500D03*
X17250000Y-4990500D03*
X17750000Y-4990500D03*
X18250000Y-4990500D03*
X18750000Y-4990500D03*
X19250000Y-4990500D03*
X19750000Y-4990500D03*
X20250000Y-4990500D03*
X20750000Y-4990500D03*
X21250000Y-4990500D03*
X21750000Y-4990500D03*
X22250000Y-4990500D03*
X22750000Y-4990500D03*
X23250000Y-4990500D03*
X23750000Y-4990500D03*
X24250000Y-4990500D03*
X24750000Y-4990500D03*
X25250000Y-4990500D03*
X25750000Y-4990500D03*
X26250000Y-4990500D03*
X26750000Y-4990500D03*
X27250000Y-4990500D03*
X27750000Y-4990500D03*
X28250000Y-4990500D03*
X28750000Y-4990500D03*
X29250000Y-4990500D03*
X29750000Y-4990500D03*
D34*
X31300000Y-1740500D03*
X8700000Y-1740500D03*
%TD*%
D22*
%TO.C,R45*%
X26658500Y-24066500D03*
X25792500Y-24066500D03*
%TD*%
%TO.C,R7*%
X26237000Y-30797500D03*
X27103000Y-30797500D03*
%TD*%
D35*
%TO.C,C21*%
X32002500Y-10922000D03*
X33402500Y-10922000D03*
%TD*%
D21*
%TO.C,+*%
X34264000Y-26384500D03*
X38634000Y-26384500D03*
%TD*%
D22*
%TO.C,R1*%
X17601000Y-30797500D03*
X18467000Y-30797500D03*
%TD*%
D18*
%TO.C,U8*%
X16633000Y-16460000D03*
X17283000Y-16460000D03*
X17933000Y-16460000D03*
X18583000Y-16460000D03*
X19233000Y-16460000D03*
X19883000Y-16460000D03*
X20533000Y-16460000D03*
X21183000Y-16460000D03*
X21833000Y-16460000D03*
X22483000Y-16460000D03*
X22483000Y-10718000D03*
X21833000Y-10718000D03*
X21183000Y-10718000D03*
X20533000Y-10718000D03*
X19883000Y-10718000D03*
X19233000Y-10718000D03*
X18583000Y-10718000D03*
X17933000Y-10718000D03*
X17283000Y-10718000D03*
X16633000Y-10718000D03*
%TD*%
D10*
%TO.C,C22*%
X33184000Y-12319000D03*
X32094000Y-12319000D03*
%TD*%
D13*
%TO.C,R11*%
X2603500Y-30278000D03*
X2603500Y-29412000D03*
%TD*%
D15*
%TO.C,C23*%
X11176000Y-26760000D03*
X11176000Y-27850000D03*
%TD*%
D20*
%TO.C,DM3*%
X17855500Y-27535500D03*
%TD*%
D28*
%TO.C,PG*%
X27114500Y-32093500D03*
X27114500Y-33692500D03*
%TD*%
D20*
%TO.C,DP3*%
X17855500Y-28345000D03*
%TD*%
D19*
%TO.C,*%
X38000000Y-38000000D03*
%TD*%
D36*
%TO.C,L1*%
X14606500Y-29273500D03*
X13206500Y-29273500D03*
%TD*%
D10*
%TO.C,C28*%
X13499000Y-26035000D03*
X12409000Y-26035000D03*
%TD*%
%TO.C,C27*%
X13499000Y-22479000D03*
X12409000Y-22479000D03*
%TD*%
D13*
%TO.C,R29*%
X30924500Y-15673000D03*
X30924500Y-14807000D03*
%TD*%
D20*
%TO.C,DP4*%
X18848000Y-26384500D03*
%TD*%
D37*
%TO.C,1V8*%
X33970000Y-13757500D03*
X32070000Y-13757500D03*
X33020000Y-15960500D03*
%TD*%
D22*
%TO.C,R59*%
X7608500Y-25082500D03*
X6742500Y-25082500D03*
%TD*%
D13*
%TO.C,R13*%
X1524000Y-30278000D03*
X1524000Y-29412000D03*
%TD*%
%TO.C,R28*%
X30924500Y-13768000D03*
X30924500Y-12902000D03*
%TD*%
D15*
%TO.C,C1*%
X17665000Y-23427000D03*
X17665000Y-24517000D03*
%TD*%
M02*
