%TF.GenerationSoftware,KiCad,Pcbnew,9.0.4*%
%TF.CreationDate,2025-09-14T02:35:36-04:00*%
%TF.ProjectId,D8X3C_Backpack_V1.0,44385833-435f-4426-9163-6b7061636b5f,rev?*%
%TF.SameCoordinates,Original*%
%TF.FileFunction,Legend,Bot*%
%TF.FilePolarity,Positive*%
%FSLAX46Y46*%
G04 Gerber Fmt 4.6, Leading zero omitted, Abs format (unit mm)*
G04 Created by KiCad (PCBNEW 9.0.4) date 2025-09-14 02:35:36*
%MOMM*%
%LPD*%
G01*
G04 APERTURE LIST*
%ADD10C,0.152500*%
%ADD11C,0.254000*%
%ADD12C,0.300000*%
%ADD13O,3.000000X3.200000*%
%ADD14O,1.100000X2.000000*%
%ADD15O,1.200000X1.800000*%
%ADD16C,0.500000*%
%ADD17R,0.540000X0.790000*%
%ADD18R,0.565500X0.540000*%
%ADD19R,0.540000X0.565500*%
%ADD20R,0.790000X0.540000*%
%ADD21R,1.350000X1.410000*%
%ADD22R,1.500000X0.250000*%
%ADD23R,2.000000X1.500000*%
%ADD24R,1.200000X1.400000*%
%ADD25R,0.800000X0.900000*%
%ADD26R,0.900000X0.800000*%
%ADD27O,0.574000X2.035500*%
%ADD28O,0.630000X1.865000*%
%ADD29R,0.800000X0.864000*%
%ADD30R,2.500000X1.100000*%
%ADD31R,2.340000X3.600000*%
%ADD32R,1.100000X2.500000*%
%ADD33R,3.600000X2.340000*%
G04 APERTURE END LIST*
D10*
%TO.C,C32*%
X14844500Y-9936500D02*
X14844500Y-11346500D01*
X14844500Y-13558500D02*
X14844500Y-12148500D01*
X16499000Y-9784000D02*
X14997000Y-9784000D01*
X16499000Y-13711000D02*
X14997000Y-13711000D01*
X16651500Y-11346500D02*
X16651500Y-9936500D01*
X16651500Y-12148500D02*
X16651500Y-13558500D01*
X14844500Y-9936500D02*
G75*
G02*
X14997000Y-9784000I152499J1D01*
G01*
X14997000Y-13711000D02*
G75*
G02*
X14844500Y-13558500I0J152500D01*
G01*
X16499000Y-9784000D02*
G75*
G02*
X16651500Y-9936500I1J-152499D01*
G01*
X16651500Y-13558500D02*
G75*
G02*
X16499000Y-13711000I-152500J0D01*
G01*
D11*
%TO.C,CN1*%
X6949500Y-12151500D02*
X7472000Y-12151500D01*
X6949500Y-13033000D02*
X6949500Y-12151500D01*
X6949500Y-26651000D02*
X6949500Y-25747000D01*
X6949500Y-26651000D02*
X7470000Y-26651000D01*
X7502000Y-12851500D02*
X7502000Y-13033000D01*
X7502000Y-25747000D02*
X7502000Y-25951000D01*
X9902000Y-12851500D02*
X7502000Y-12851500D01*
X9902000Y-13044000D02*
X9902000Y-12851500D01*
X9902000Y-25951000D02*
X7502000Y-25951000D01*
X9902000Y-25951000D02*
X9902000Y-25756500D01*
X10454500Y-13044000D02*
X10454500Y-12774000D01*
X10454500Y-26028500D02*
X10454500Y-25756500D01*
D10*
%TO.C,X2*%
X7192000Y-35968500D02*
X7192000Y-34111500D01*
X7420500Y-31683000D02*
X7420500Y-35740000D01*
X7420500Y-35740000D02*
X10777500Y-35740000D01*
X8849000Y-35968500D02*
X7192000Y-35968500D01*
X10777500Y-31683000D02*
X7420500Y-31683000D01*
X10777500Y-35740000D02*
X10777500Y-31683000D01*
%TO.C,C31*%
X19289500Y-9936500D02*
X19289500Y-11346500D01*
X19289500Y-13558500D02*
X19289500Y-12148500D01*
X20944000Y-9784000D02*
X19442000Y-9784000D01*
X20944000Y-13711000D02*
X19442000Y-13711000D01*
X21096500Y-11346500D02*
X21096500Y-9936500D01*
X21096500Y-12148500D02*
X21096500Y-13558500D01*
X19289500Y-9936500D02*
G75*
G02*
X19442000Y-9784000I152499J1D01*
G01*
X19442000Y-13711000D02*
G75*
G02*
X19289500Y-13558500I0J152500D01*
G01*
X20944000Y-9784000D02*
G75*
G02*
X21096500Y-9936500I1J-152499D01*
G01*
X21096500Y-13558500D02*
G75*
G02*
X20944000Y-13711000I-152500J0D01*
G01*
%TO.C,C30*%
X22147000Y-9936500D02*
X22147000Y-11346500D01*
X22147000Y-13558500D02*
X22147000Y-12148500D01*
X23801500Y-9784000D02*
X22299500Y-9784000D01*
X23801500Y-13711000D02*
X22299500Y-13711000D01*
X23954000Y-11346500D02*
X23954000Y-9936500D01*
X23954000Y-12148500D02*
X23954000Y-13558500D01*
X22147000Y-9936500D02*
G75*
G02*
X22299500Y-9784000I152499J1D01*
G01*
X22299500Y-13711000D02*
G75*
G02*
X22147000Y-13558500I0J152500D01*
G01*
X23801500Y-9784000D02*
G75*
G02*
X23954000Y-9936500I1J-152499D01*
G01*
X23954000Y-13558500D02*
G75*
G02*
X23801500Y-13711000I-152500J0D01*
G01*
%TO.C,U10*%
X903000Y-28133000D02*
X903000Y-31176000D01*
X903000Y-31176000D02*
X5955000Y-31176000D01*
X5955000Y-28133000D02*
X903000Y-28133000D01*
X5955000Y-31176000D02*
X5955000Y-28133000D01*
D12*
X934500Y-26886500D02*
G75*
G02*
X634500Y-26886500I-150000J0D01*
G01*
X634500Y-26886500D02*
G75*
G02*
X934500Y-26886500I150000J0D01*
G01*
X1674000Y-28885500D02*
G75*
G02*
X1374000Y-28885500I-150000J0D01*
G01*
X1374000Y-28885500D02*
G75*
G02*
X1674000Y-28885500I150000J0D01*
G01*
D11*
%TO.C,U2*%
X23662000Y-28802500D02*
X23662000Y-25823000D01*
X28661500Y-26670000D02*
X28661500Y-25823000D01*
X28662000Y-25823000D02*
X23662000Y-25823000D01*
X28662000Y-27940000D02*
X28662000Y-28802500D01*
X28662000Y-28802500D02*
X23662000Y-28802500D01*
X28662000Y-27940000D02*
G75*
G02*
X28661500Y-26670000I-500J635000D01*
G01*
D12*
X28217000Y-28321000D02*
G75*
G02*
X27917000Y-28321000I-150000J0D01*
G01*
X27917000Y-28321000D02*
G75*
G02*
X28217000Y-28321000I150000J0D01*
G01*
D10*
%TO.C,U4*%
X29076000Y-31876000D02*
X29076000Y-38528000D01*
X29076000Y-38528000D02*
X32019000Y-38528000D01*
X32019000Y-31876000D02*
X29076000Y-31876000D01*
X32019000Y-38528000D02*
X32019000Y-31876000D01*
%TO.C,U11*%
X25566500Y-13414500D02*
X25566500Y-16357500D01*
X25566500Y-16357500D02*
X32218500Y-16357500D01*
X32218500Y-13414500D02*
X25566500Y-13414500D01*
X32218500Y-16357500D02*
X32218500Y-13414500D01*
%TD*%
%LPC*%
D13*
%TO.C,*%
X2000000Y-2000000D03*
%TD*%
%TO.C,*%
X38000000Y-2000000D03*
%TD*%
%TO.C,*%
X2000000Y-38000000D03*
%TD*%
D14*
%TO.C,USB1*%
X16185500Y-33036500D03*
D15*
X16185500Y-37236500D03*
D14*
X24835500Y-33036500D03*
D15*
X24835500Y-37236500D03*
%TD*%
D13*
%TO.C,*%
X38000000Y-38000000D03*
%TD*%
D16*
%TO.C,RTS#*%
X24224000Y-31479500D03*
%TD*%
D17*
%TO.C,C4*%
X6667500Y-34062500D03*
X6667500Y-35152500D03*
%TD*%
D18*
%TO.C,R37*%
X13455000Y-25164500D03*
X14321000Y-25164500D03*
%TD*%
D19*
%TO.C,R49*%
X29337000Y-22554000D03*
X29337000Y-23420000D03*
%TD*%
D20*
%TO.C,C9*%
X8990500Y-37338000D03*
X7900500Y-37338000D03*
%TD*%
D21*
%TO.C,C32*%
X15748000Y-10747500D03*
X15748000Y-12747500D03*
%TD*%
D18*
%TO.C,R36*%
X13455000Y-26053500D03*
X14321000Y-26053500D03*
%TD*%
D22*
%TO.C,CN1*%
X6949000Y-25391000D03*
X6948000Y-24889000D03*
X6949000Y-24389500D03*
X6949000Y-23889500D03*
X6949000Y-23389500D03*
X6949000Y-22889500D03*
X6949000Y-22389500D03*
X6949000Y-21889500D03*
X6949000Y-21389500D03*
X6949000Y-20889500D03*
X6949000Y-20389500D03*
X6949000Y-19889500D03*
X6949000Y-19389500D03*
X6949000Y-18889500D03*
X6949000Y-18389500D03*
X6949000Y-17889500D03*
X6949000Y-17389500D03*
X6949000Y-16889500D03*
X6949000Y-16389500D03*
X6949000Y-15889500D03*
X6949000Y-15389500D03*
X6949000Y-14889500D03*
X6949000Y-14389500D03*
X6949000Y-13889500D03*
X6949000Y-13389500D03*
X10452000Y-13400500D03*
X10452000Y-13900500D03*
X10452000Y-14400500D03*
X10452000Y-14900500D03*
X10452000Y-15400500D03*
X10452000Y-15900500D03*
X10452000Y-16400500D03*
X10452000Y-16900500D03*
X10452000Y-17400500D03*
X10452000Y-17900500D03*
X10452000Y-18400500D03*
X10452000Y-18900500D03*
X10452000Y-19400500D03*
X10452000Y-19900500D03*
X10452000Y-20400500D03*
X10452000Y-20900500D03*
X10452000Y-21400500D03*
X10452000Y-21900500D03*
X10452000Y-22400000D03*
X10452000Y-22900500D03*
X10452000Y-23400000D03*
X10452000Y-23900500D03*
X10452000Y-24400000D03*
X10452000Y-24900500D03*
X10452000Y-25400000D03*
D23*
X8701000Y-27199000D03*
X8703000Y-11601000D03*
%TD*%
D24*
%TO.C,X2*%
X8249000Y-34811500D03*
X8249000Y-32611500D03*
X9949000Y-32611500D03*
X9949000Y-34811500D03*
%TD*%
D20*
%TO.C,C12*%
X18187500Y-34671000D03*
X19277500Y-34671000D03*
%TD*%
D18*
%TO.C,R34*%
X4859500Y-23094000D03*
X3993500Y-23094000D03*
%TD*%
D25*
%TO.C,C33*%
X30288000Y-20447000D03*
X31688000Y-20447000D03*
%TD*%
D21*
%TO.C,C31*%
X20193000Y-10747500D03*
X20193000Y-12747500D03*
%TD*%
D18*
%TO.C,R4*%
X3993500Y-24041000D03*
X4859500Y-24041000D03*
%TD*%
%TO.C,R35*%
X4859500Y-21929500D03*
X3993500Y-21929500D03*
%TD*%
D17*
%TO.C,C3*%
X11366500Y-32538500D03*
X11366500Y-33628500D03*
%TD*%
D18*
%TO.C,R23*%
X17347000Y-12382500D03*
X18213000Y-12382500D03*
%TD*%
D26*
%TO.C,C15*%
X22415500Y-24890500D03*
X22415500Y-26290500D03*
%TD*%
D21*
%TO.C,C30*%
X23050500Y-10747500D03*
X23050500Y-12747500D03*
%TD*%
D17*
%TO.C,C6*%
X4762500Y-34507000D03*
X4762500Y-35597000D03*
%TD*%
%TO.C,C10*%
X38077000Y-33641000D03*
X38077000Y-34731000D03*
%TD*%
D27*
%TO.C,U10*%
X1524000Y-26886500D03*
X2794000Y-26886500D03*
X4064000Y-26886500D03*
X5334000Y-26886500D03*
X5334000Y-32422500D03*
X4064000Y-32422500D03*
X2794000Y-32422500D03*
X1524000Y-32422500D03*
%TD*%
D18*
%TO.C,R41*%
X13600500Y-28448000D03*
X14466500Y-28448000D03*
%TD*%
D25*
%TO.C,C19*%
X5078500Y-37528500D03*
X6478500Y-37528500D03*
%TD*%
D26*
%TO.C,C8*%
X36337500Y-34886000D03*
X36337500Y-33486000D03*
%TD*%
D28*
%TO.C,U2*%
X28067000Y-29987500D03*
X26797000Y-29987500D03*
X25527000Y-29987500D03*
X24257000Y-29987500D03*
X24257000Y-24622500D03*
X25527000Y-24622500D03*
X26797000Y-24622500D03*
X28067000Y-24622500D03*
%TD*%
D29*
%TO.C,L3*%
X13333500Y-27241500D03*
X14733500Y-27241500D03*
%TD*%
D18*
%TO.C,R8*%
X11291500Y-37211000D03*
X10425500Y-37211000D03*
%TD*%
%TO.C,R40*%
X13455000Y-22497500D03*
X14321000Y-22497500D03*
%TD*%
D25*
%TO.C,C7*%
X7745500Y-38354000D03*
X9145500Y-38354000D03*
%TD*%
D18*
%TO.C,R5*%
X3993500Y-21056500D03*
X4859500Y-21056500D03*
%TD*%
%TO.C,R25*%
X24522500Y-12382500D03*
X25388500Y-12382500D03*
%TD*%
%TO.C,R21*%
X12584500Y-12382500D03*
X13450500Y-12382500D03*
%TD*%
D20*
%TO.C,C11*%
X18187500Y-37338000D03*
X19277500Y-37338000D03*
%TD*%
D18*
%TO.C,R9*%
X19165500Y-36449000D03*
X18299500Y-36449000D03*
%TD*%
D19*
%TO.C,R30*%
X36449000Y-26849000D03*
X36449000Y-25983000D03*
%TD*%
D30*
%TO.C,U4*%
X33617500Y-32902000D03*
X33617500Y-35202000D03*
X33617500Y-37502000D03*
D31*
X27677500Y-35202000D03*
%TD*%
D19*
%TO.C,R53*%
X31369000Y-30174000D03*
X31369000Y-31040000D03*
%TD*%
D20*
%TO.C,C20*%
X1614000Y-34988500D03*
X2704000Y-34988500D03*
%TD*%
D18*
%TO.C,R10*%
X19160500Y-35564000D03*
X18294500Y-35564000D03*
%TD*%
%TO.C,R39*%
X13455000Y-23386500D03*
X14321000Y-23386500D03*
%TD*%
D26*
%TO.C,C17*%
X13208000Y-31751500D03*
X13208000Y-30351500D03*
%TD*%
D32*
%TO.C,U11*%
X31192500Y-17956000D03*
X28892500Y-17956000D03*
X26592500Y-17956000D03*
D33*
X28892500Y-12016000D03*
%TD*%
D18*
%TO.C,R57*%
X31802000Y-26225500D03*
X30936000Y-26225500D03*
%TD*%
%TO.C,R38*%
X13455000Y-24275500D03*
X14321000Y-24275500D03*
%TD*%
%LPD*%
M02*
