%TF.GenerationSoftware,KiCad,Pcbnew,9.0.4*%
%TF.CreationDate,2025-09-14T02:35:36-04:00*%
%TF.ProjectId,D8X3C_Backpack_V1.0,44385833-435f-4426-9163-6b7061636b5f,rev?*%
%TF.SameCoordinates,Original*%
%TF.FileFunction,Legend,Top*%
%TF.FilePolarity,Positive*%
%FSLAX46Y46*%
G04 Gerber Fmt 4.6, Leading zero omitted, Abs format (unit mm)*
G04 Created by KiCad (PCBNEW 9.0.4) date 2025-09-14 02:35:36*
%MOMM*%
%LPD*%
G01*
G04 APERTURE LIST*
%ADD10C,0.203000*%
%ADD11C,0.152500*%
%ADD12C,0.254000*%
%ADD13C,0.000000*%
%ADD14C,0.175000*%
%ADD15C,0.300000*%
%ADD16C,0.152000*%
%ADD17C,0.150000*%
%ADD18R,0.790000X0.540000*%
%ADD19R,1.360000X1.230000*%
%ADD20R,1.400000X1.200000*%
%ADD21R,0.540000X0.565500*%
%ADD22R,0.864000X0.800000*%
%ADD23R,0.540000X0.790000*%
%ADD24R,0.280000X1.620000*%
%ADD25R,1.620000X0.280000*%
%ADD26O,0.364000X1.742000*%
%ADD27O,3.000000X3.200000*%
%ADD28C,0.500000*%
%ADD29R,1.230000X1.360000*%
%ADD30R,0.565500X0.540000*%
%ADD31R,0.280000X0.665000*%
%ADD32R,0.665000X0.280000*%
%ADD33R,1.750000X1.750000*%
%ADD34R,0.806500X0.864000*%
%ADD35R,0.600000X1.070000*%
%ADD36R,0.800000X0.800000*%
%ADD37R,0.550000X1.100000*%
%ADD38R,0.300000X1.100000*%
%ADD39O,1.100000X2.000000*%
%ADD40O,1.200000X1.800000*%
%ADD41R,0.300000X1.200000*%
%ADD42R,2.000000X1.800000*%
%ADD43R,0.800000X0.900000*%
%ADD44R,0.800000X0.864000*%
%ADD45R,0.532000X1.037500*%
G04 APERTURE END LIST*
D10*
X10863313Y-7542363D02*
X10340742Y-7542363D01*
X10602028Y-7542363D02*
X10602028Y-6475363D01*
X10602028Y-6475363D02*
X10514932Y-6627792D01*
X10514932Y-6627792D02*
X10427837Y-6729411D01*
X10427837Y-6729411D02*
X10340742Y-6780220D01*
X26914242Y-36571196D02*
X27349718Y-36571196D01*
X26827147Y-36876053D02*
X27131980Y-35809053D01*
X27131980Y-35809053D02*
X27436813Y-36876053D01*
X28133575Y-36876053D02*
X28133575Y-35809053D01*
X28133575Y-36825244D02*
X28046480Y-36876053D01*
X28046480Y-36876053D02*
X27872289Y-36876053D01*
X27872289Y-36876053D02*
X27785194Y-36825244D01*
X27785194Y-36825244D02*
X27741647Y-36774434D01*
X27741647Y-36774434D02*
X27698099Y-36672815D01*
X27698099Y-36672815D02*
X27698099Y-36367958D01*
X27698099Y-36367958D02*
X27741647Y-36266339D01*
X27741647Y-36266339D02*
X27785194Y-36215529D01*
X27785194Y-36215529D02*
X27872289Y-36164720D01*
X27872289Y-36164720D02*
X28046480Y-36164720D01*
X28046480Y-36164720D02*
X28133575Y-36215529D01*
X28569052Y-36876053D02*
X28569052Y-36164720D01*
X28569052Y-36266339D02*
X28612599Y-36215529D01*
X28612599Y-36215529D02*
X28699694Y-36164720D01*
X28699694Y-36164720D02*
X28830337Y-36164720D01*
X28830337Y-36164720D02*
X28917433Y-36215529D01*
X28917433Y-36215529D02*
X28960980Y-36317148D01*
X28960980Y-36317148D02*
X28960980Y-36876053D01*
X28960980Y-36317148D02*
X29004528Y-36215529D01*
X29004528Y-36215529D02*
X29091623Y-36164720D01*
X29091623Y-36164720D02*
X29222266Y-36164720D01*
X29222266Y-36164720D02*
X29309361Y-36215529D01*
X29309361Y-36215529D02*
X29352909Y-36317148D01*
X29352909Y-36317148D02*
X29352909Y-36876053D01*
X29788385Y-36876053D02*
X29788385Y-36164720D01*
X29788385Y-35809053D02*
X29744837Y-35859863D01*
X29744837Y-35859863D02*
X29788385Y-35910672D01*
X29788385Y-35910672D02*
X29831932Y-35859863D01*
X29831932Y-35859863D02*
X29788385Y-35809053D01*
X29788385Y-35809053D02*
X29788385Y-35910672D01*
X30223861Y-36164720D02*
X30223861Y-36876053D01*
X30223861Y-36266339D02*
X30267408Y-36215529D01*
X30267408Y-36215529D02*
X30354503Y-36164720D01*
X30354503Y-36164720D02*
X30485146Y-36164720D01*
X30485146Y-36164720D02*
X30572242Y-36215529D01*
X30572242Y-36215529D02*
X30615789Y-36317148D01*
X30615789Y-36317148D02*
X30615789Y-36876053D01*
X31748028Y-36876053D02*
X31748028Y-35809053D01*
X31748028Y-35809053D02*
X32096409Y-35809053D01*
X32096409Y-35809053D02*
X32183504Y-35859863D01*
X32183504Y-35859863D02*
X32227051Y-35910672D01*
X32227051Y-35910672D02*
X32270599Y-36012291D01*
X32270599Y-36012291D02*
X32270599Y-36164720D01*
X32270599Y-36164720D02*
X32227051Y-36266339D01*
X32227051Y-36266339D02*
X32183504Y-36317148D01*
X32183504Y-36317148D02*
X32096409Y-36367958D01*
X32096409Y-36367958D02*
X31748028Y-36367958D01*
X33054456Y-36876053D02*
X33054456Y-36317148D01*
X33054456Y-36317148D02*
X33010909Y-36215529D01*
X33010909Y-36215529D02*
X32923813Y-36164720D01*
X32923813Y-36164720D02*
X32749623Y-36164720D01*
X32749623Y-36164720D02*
X32662528Y-36215529D01*
X33054456Y-36825244D02*
X32967361Y-36876053D01*
X32967361Y-36876053D02*
X32749623Y-36876053D01*
X32749623Y-36876053D02*
X32662528Y-36825244D01*
X32662528Y-36825244D02*
X32618980Y-36723624D01*
X32618980Y-36723624D02*
X32618980Y-36622005D01*
X32618980Y-36622005D02*
X32662528Y-36520386D01*
X32662528Y-36520386D02*
X32749623Y-36469577D01*
X32749623Y-36469577D02*
X32967361Y-36469577D01*
X32967361Y-36469577D02*
X33054456Y-36418767D01*
X33446385Y-36825244D02*
X33533480Y-36876053D01*
X33533480Y-36876053D02*
X33707671Y-36876053D01*
X33707671Y-36876053D02*
X33794766Y-36825244D01*
X33794766Y-36825244D02*
X33838314Y-36723624D01*
X33838314Y-36723624D02*
X33838314Y-36672815D01*
X33838314Y-36672815D02*
X33794766Y-36571196D01*
X33794766Y-36571196D02*
X33707671Y-36520386D01*
X33707671Y-36520386D02*
X33577028Y-36520386D01*
X33577028Y-36520386D02*
X33489933Y-36469577D01*
X33489933Y-36469577D02*
X33446385Y-36367958D01*
X33446385Y-36367958D02*
X33446385Y-36317148D01*
X33446385Y-36317148D02*
X33489933Y-36215529D01*
X33489933Y-36215529D02*
X33577028Y-36164720D01*
X33577028Y-36164720D02*
X33707671Y-36164720D01*
X33707671Y-36164720D02*
X33794766Y-36215529D01*
X34186695Y-36825244D02*
X34273790Y-36876053D01*
X34273790Y-36876053D02*
X34447981Y-36876053D01*
X34447981Y-36876053D02*
X34535076Y-36825244D01*
X34535076Y-36825244D02*
X34578624Y-36723624D01*
X34578624Y-36723624D02*
X34578624Y-36672815D01*
X34578624Y-36672815D02*
X34535076Y-36571196D01*
X34535076Y-36571196D02*
X34447981Y-36520386D01*
X34447981Y-36520386D02*
X34317338Y-36520386D01*
X34317338Y-36520386D02*
X34230243Y-36469577D01*
X34230243Y-36469577D02*
X34186695Y-36367958D01*
X34186695Y-36367958D02*
X34186695Y-36317148D01*
X34186695Y-36317148D02*
X34230243Y-36215529D01*
X34230243Y-36215529D02*
X34317338Y-36164720D01*
X34317338Y-36164720D02*
X34447981Y-36164720D01*
X34447981Y-36164720D02*
X34535076Y-36215529D01*
X34970553Y-36774434D02*
X35014100Y-36825244D01*
X35014100Y-36825244D02*
X34970553Y-36876053D01*
X34970553Y-36876053D02*
X34927005Y-36825244D01*
X34927005Y-36825244D02*
X34970553Y-36774434D01*
X34970553Y-36774434D02*
X34970553Y-36876053D01*
X34970553Y-36215529D02*
X35014100Y-36266339D01*
X35014100Y-36266339D02*
X34970553Y-36317148D01*
X34970553Y-36317148D02*
X34927005Y-36266339D01*
X34927005Y-36266339D02*
X34970553Y-36215529D01*
X34970553Y-36215529D02*
X34970553Y-36317148D01*
X26957790Y-38187387D02*
X27654552Y-38187387D01*
X27306171Y-38593863D02*
X27306171Y-37780911D01*
X28090028Y-38187387D02*
X28786790Y-38187387D01*
X29222266Y-38593863D02*
X29222266Y-37526863D01*
X29222266Y-37526863D02*
X29527099Y-38289006D01*
X29527099Y-38289006D02*
X29831932Y-37526863D01*
X29831932Y-37526863D02*
X29831932Y-38593863D01*
X30789980Y-38492244D02*
X30746432Y-38543054D01*
X30746432Y-38543054D02*
X30615790Y-38593863D01*
X30615790Y-38593863D02*
X30528694Y-38593863D01*
X30528694Y-38593863D02*
X30398051Y-38543054D01*
X30398051Y-38543054D02*
X30310956Y-38441434D01*
X30310956Y-38441434D02*
X30267409Y-38339815D01*
X30267409Y-38339815D02*
X30223861Y-38136577D01*
X30223861Y-38136577D02*
X30223861Y-37984149D01*
X30223861Y-37984149D02*
X30267409Y-37780911D01*
X30267409Y-37780911D02*
X30310956Y-37679292D01*
X30310956Y-37679292D02*
X30398051Y-37577673D01*
X30398051Y-37577673D02*
X30528694Y-37526863D01*
X30528694Y-37526863D02*
X30615790Y-37526863D01*
X30615790Y-37526863D02*
X30746432Y-37577673D01*
X30746432Y-37577673D02*
X30789980Y-37628482D01*
X31181909Y-38187387D02*
X31878671Y-38187387D01*
X31530290Y-38593863D02*
X31530290Y-37780911D01*
X32314147Y-38187387D02*
X33010909Y-38187387D01*
X2719743Y-21764309D02*
X1652743Y-21764309D01*
X1652743Y-21764309D02*
X1652743Y-21546571D01*
X1652743Y-21546571D02*
X1703553Y-21415928D01*
X1703553Y-21415928D02*
X1805172Y-21328833D01*
X1805172Y-21328833D02*
X1906791Y-21285286D01*
X1906791Y-21285286D02*
X2110029Y-21241738D01*
X2110029Y-21241738D02*
X2262457Y-21241738D01*
X2262457Y-21241738D02*
X2465695Y-21285286D01*
X2465695Y-21285286D02*
X2567314Y-21328833D01*
X2567314Y-21328833D02*
X2668934Y-21415928D01*
X2668934Y-21415928D02*
X2719743Y-21546571D01*
X2719743Y-21546571D02*
X2719743Y-21764309D01*
X2110029Y-20719167D02*
X2059219Y-20806262D01*
X2059219Y-20806262D02*
X2008410Y-20849809D01*
X2008410Y-20849809D02*
X1906791Y-20893357D01*
X1906791Y-20893357D02*
X1855981Y-20893357D01*
X1855981Y-20893357D02*
X1754362Y-20849809D01*
X1754362Y-20849809D02*
X1703553Y-20806262D01*
X1703553Y-20806262D02*
X1652743Y-20719167D01*
X1652743Y-20719167D02*
X1652743Y-20544976D01*
X1652743Y-20544976D02*
X1703553Y-20457881D01*
X1703553Y-20457881D02*
X1754362Y-20414333D01*
X1754362Y-20414333D02*
X1855981Y-20370786D01*
X1855981Y-20370786D02*
X1906791Y-20370786D01*
X1906791Y-20370786D02*
X2008410Y-20414333D01*
X2008410Y-20414333D02*
X2059219Y-20457881D01*
X2059219Y-20457881D02*
X2110029Y-20544976D01*
X2110029Y-20544976D02*
X2110029Y-20719167D01*
X2110029Y-20719167D02*
X2160838Y-20806262D01*
X2160838Y-20806262D02*
X2211648Y-20849809D01*
X2211648Y-20849809D02*
X2313267Y-20893357D01*
X2313267Y-20893357D02*
X2516505Y-20893357D01*
X2516505Y-20893357D02*
X2618124Y-20849809D01*
X2618124Y-20849809D02*
X2668934Y-20806262D01*
X2668934Y-20806262D02*
X2719743Y-20719167D01*
X2719743Y-20719167D02*
X2719743Y-20544976D01*
X2719743Y-20544976D02*
X2668934Y-20457881D01*
X2668934Y-20457881D02*
X2618124Y-20414333D01*
X2618124Y-20414333D02*
X2516505Y-20370786D01*
X2516505Y-20370786D02*
X2313267Y-20370786D01*
X2313267Y-20370786D02*
X2211648Y-20414333D01*
X2211648Y-20414333D02*
X2160838Y-20457881D01*
X2160838Y-20457881D02*
X2110029Y-20544976D01*
X1652743Y-20065953D02*
X2719743Y-19456286D01*
X1652743Y-19456286D02*
X2719743Y-20065953D01*
X1652743Y-19195001D02*
X1652743Y-18628882D01*
X1652743Y-18628882D02*
X2059219Y-18933715D01*
X2059219Y-18933715D02*
X2059219Y-18803072D01*
X2059219Y-18803072D02*
X2110029Y-18715977D01*
X2110029Y-18715977D02*
X2160838Y-18672429D01*
X2160838Y-18672429D02*
X2262457Y-18628882D01*
X2262457Y-18628882D02*
X2516505Y-18628882D01*
X2516505Y-18628882D02*
X2618124Y-18672429D01*
X2618124Y-18672429D02*
X2668934Y-18715977D01*
X2668934Y-18715977D02*
X2719743Y-18803072D01*
X2719743Y-18803072D02*
X2719743Y-19064358D01*
X2719743Y-19064358D02*
X2668934Y-19151453D01*
X2668934Y-19151453D02*
X2618124Y-19195001D01*
X2618124Y-17714382D02*
X2668934Y-17757930D01*
X2668934Y-17757930D02*
X2719743Y-17888572D01*
X2719743Y-17888572D02*
X2719743Y-17975668D01*
X2719743Y-17975668D02*
X2668934Y-18106311D01*
X2668934Y-18106311D02*
X2567314Y-18193406D01*
X2567314Y-18193406D02*
X2465695Y-18236953D01*
X2465695Y-18236953D02*
X2262457Y-18280501D01*
X2262457Y-18280501D02*
X2110029Y-18280501D01*
X2110029Y-18280501D02*
X1906791Y-18236953D01*
X1906791Y-18236953D02*
X1805172Y-18193406D01*
X1805172Y-18193406D02*
X1703553Y-18106311D01*
X1703553Y-18106311D02*
X1652743Y-17975668D01*
X1652743Y-17975668D02*
X1652743Y-17888572D01*
X1652743Y-17888572D02*
X1703553Y-17757930D01*
X1703553Y-17757930D02*
X1754362Y-17714382D01*
X2160838Y-16625691D02*
X2160838Y-16320858D01*
X2719743Y-16190215D02*
X2719743Y-16625691D01*
X2719743Y-16625691D02*
X1652743Y-16625691D01*
X1652743Y-16625691D02*
X1652743Y-16190215D01*
X2719743Y-15885382D02*
X2008410Y-15406358D01*
X2008410Y-15885382D02*
X2719743Y-15406358D01*
X2008410Y-15188619D02*
X2008410Y-14840238D01*
X1652743Y-15057976D02*
X2567314Y-15057976D01*
X2567314Y-15057976D02*
X2668934Y-15014429D01*
X2668934Y-15014429D02*
X2719743Y-14927334D01*
X2719743Y-14927334D02*
X2719743Y-14840238D01*
X2668934Y-14187024D02*
X2719743Y-14274120D01*
X2719743Y-14274120D02*
X2719743Y-14448310D01*
X2719743Y-14448310D02*
X2668934Y-14535405D01*
X2668934Y-14535405D02*
X2567314Y-14578953D01*
X2567314Y-14578953D02*
X2160838Y-14578953D01*
X2160838Y-14578953D02*
X2059219Y-14535405D01*
X2059219Y-14535405D02*
X2008410Y-14448310D01*
X2008410Y-14448310D02*
X2008410Y-14274120D01*
X2008410Y-14274120D02*
X2059219Y-14187024D01*
X2059219Y-14187024D02*
X2160838Y-14143477D01*
X2160838Y-14143477D02*
X2262457Y-14143477D01*
X2262457Y-14143477D02*
X2364076Y-14578953D01*
X2008410Y-13751548D02*
X2719743Y-13751548D01*
X2110029Y-13751548D02*
X2059219Y-13708001D01*
X2059219Y-13708001D02*
X2008410Y-13620906D01*
X2008410Y-13620906D02*
X2008410Y-13490263D01*
X2008410Y-13490263D02*
X2059219Y-13403167D01*
X2059219Y-13403167D02*
X2160838Y-13359620D01*
X2160838Y-13359620D02*
X2719743Y-13359620D01*
X2668934Y-12967691D02*
X2719743Y-12880596D01*
X2719743Y-12880596D02*
X2719743Y-12706405D01*
X2719743Y-12706405D02*
X2668934Y-12619310D01*
X2668934Y-12619310D02*
X2567314Y-12575762D01*
X2567314Y-12575762D02*
X2516505Y-12575762D01*
X2516505Y-12575762D02*
X2414886Y-12619310D01*
X2414886Y-12619310D02*
X2364076Y-12706405D01*
X2364076Y-12706405D02*
X2364076Y-12837048D01*
X2364076Y-12837048D02*
X2313267Y-12924143D01*
X2313267Y-12924143D02*
X2211648Y-12967691D01*
X2211648Y-12967691D02*
X2160838Y-12967691D01*
X2160838Y-12967691D02*
X2059219Y-12924143D01*
X2059219Y-12924143D02*
X2008410Y-12837048D01*
X2008410Y-12837048D02*
X2008410Y-12706405D01*
X2008410Y-12706405D02*
X2059219Y-12619310D01*
X2719743Y-12183833D02*
X2008410Y-12183833D01*
X1652743Y-12183833D02*
X1703553Y-12227381D01*
X1703553Y-12227381D02*
X1754362Y-12183833D01*
X1754362Y-12183833D02*
X1703553Y-12140286D01*
X1703553Y-12140286D02*
X1652743Y-12183833D01*
X1652743Y-12183833D02*
X1754362Y-12183833D01*
X2719743Y-11617715D02*
X2668934Y-11704810D01*
X2668934Y-11704810D02*
X2618124Y-11748357D01*
X2618124Y-11748357D02*
X2516505Y-11791905D01*
X2516505Y-11791905D02*
X2211648Y-11791905D01*
X2211648Y-11791905D02*
X2110029Y-11748357D01*
X2110029Y-11748357D02*
X2059219Y-11704810D01*
X2059219Y-11704810D02*
X2008410Y-11617715D01*
X2008410Y-11617715D02*
X2008410Y-11487072D01*
X2008410Y-11487072D02*
X2059219Y-11399976D01*
X2059219Y-11399976D02*
X2110029Y-11356429D01*
X2110029Y-11356429D02*
X2211648Y-11312881D01*
X2211648Y-11312881D02*
X2516505Y-11312881D01*
X2516505Y-11312881D02*
X2618124Y-11356429D01*
X2618124Y-11356429D02*
X2668934Y-11399976D01*
X2668934Y-11399976D02*
X2719743Y-11487072D01*
X2719743Y-11487072D02*
X2719743Y-11617715D01*
X2008410Y-10920952D02*
X2719743Y-10920952D01*
X2110029Y-10920952D02*
X2059219Y-10877405D01*
X2059219Y-10877405D02*
X2008410Y-10790310D01*
X2008410Y-10790310D02*
X2008410Y-10659667D01*
X2008410Y-10659667D02*
X2059219Y-10572571D01*
X2059219Y-10572571D02*
X2160838Y-10529024D01*
X2160838Y-10529024D02*
X2719743Y-10529024D01*
X1652743Y-9527428D02*
X2719743Y-9222595D01*
X2719743Y-9222595D02*
X1652743Y-8917762D01*
X2719743Y-8133905D02*
X2719743Y-8656476D01*
X2719743Y-8395190D02*
X1652743Y-8395190D01*
X1652743Y-8395190D02*
X1805172Y-8482286D01*
X1805172Y-8482286D02*
X1906791Y-8569381D01*
X1906791Y-8569381D02*
X1957600Y-8656476D01*
X2618124Y-7741976D02*
X2668934Y-7698429D01*
X2668934Y-7698429D02*
X2719743Y-7741976D01*
X2719743Y-7741976D02*
X2668934Y-7785524D01*
X2668934Y-7785524D02*
X2618124Y-7741976D01*
X2618124Y-7741976D02*
X2719743Y-7741976D01*
X1652743Y-7132310D02*
X1652743Y-7045215D01*
X1652743Y-7045215D02*
X1703553Y-6958119D01*
X1703553Y-6958119D02*
X1754362Y-6914572D01*
X1754362Y-6914572D02*
X1855981Y-6871024D01*
X1855981Y-6871024D02*
X2059219Y-6827477D01*
X2059219Y-6827477D02*
X2313267Y-6827477D01*
X2313267Y-6827477D02*
X2516505Y-6871024D01*
X2516505Y-6871024D02*
X2618124Y-6914572D01*
X2618124Y-6914572D02*
X2668934Y-6958119D01*
X2668934Y-6958119D02*
X2719743Y-7045215D01*
X2719743Y-7045215D02*
X2719743Y-7132310D01*
X2719743Y-7132310D02*
X2668934Y-7219405D01*
X2668934Y-7219405D02*
X2618124Y-7262953D01*
X2618124Y-7262953D02*
X2516505Y-7306500D01*
X2516505Y-7306500D02*
X2313267Y-7350048D01*
X2313267Y-7350048D02*
X2059219Y-7350048D01*
X2059219Y-7350048D02*
X1855981Y-7306500D01*
X1855981Y-7306500D02*
X1754362Y-7262953D01*
X1754362Y-7262953D02*
X1703553Y-7219405D01*
X1703553Y-7219405D02*
X1652743Y-7132310D01*
X4437553Y-21764309D02*
X3370553Y-21764309D01*
X3370553Y-21764309D02*
X3370553Y-21546571D01*
X3370553Y-21546571D02*
X3421363Y-21415928D01*
X3421363Y-21415928D02*
X3522982Y-21328833D01*
X3522982Y-21328833D02*
X3624601Y-21285286D01*
X3624601Y-21285286D02*
X3827839Y-21241738D01*
X3827839Y-21241738D02*
X3980267Y-21241738D01*
X3980267Y-21241738D02*
X4183505Y-21285286D01*
X4183505Y-21285286D02*
X4285124Y-21328833D01*
X4285124Y-21328833D02*
X4386744Y-21415928D01*
X4386744Y-21415928D02*
X4437553Y-21546571D01*
X4437553Y-21546571D02*
X4437553Y-21764309D01*
X4386744Y-20501428D02*
X4437553Y-20588524D01*
X4437553Y-20588524D02*
X4437553Y-20762714D01*
X4437553Y-20762714D02*
X4386744Y-20849809D01*
X4386744Y-20849809D02*
X4285124Y-20893357D01*
X4285124Y-20893357D02*
X3878648Y-20893357D01*
X3878648Y-20893357D02*
X3777029Y-20849809D01*
X3777029Y-20849809D02*
X3726220Y-20762714D01*
X3726220Y-20762714D02*
X3726220Y-20588524D01*
X3726220Y-20588524D02*
X3777029Y-20501428D01*
X3777029Y-20501428D02*
X3878648Y-20457881D01*
X3878648Y-20457881D02*
X3980267Y-20457881D01*
X3980267Y-20457881D02*
X4081886Y-20893357D01*
X4386744Y-20109500D02*
X4437553Y-20022405D01*
X4437553Y-20022405D02*
X4437553Y-19848214D01*
X4437553Y-19848214D02*
X4386744Y-19761119D01*
X4386744Y-19761119D02*
X4285124Y-19717571D01*
X4285124Y-19717571D02*
X4234315Y-19717571D01*
X4234315Y-19717571D02*
X4132696Y-19761119D01*
X4132696Y-19761119D02*
X4081886Y-19848214D01*
X4081886Y-19848214D02*
X4081886Y-19978857D01*
X4081886Y-19978857D02*
X4031077Y-20065952D01*
X4031077Y-20065952D02*
X3929458Y-20109500D01*
X3929458Y-20109500D02*
X3878648Y-20109500D01*
X3878648Y-20109500D02*
X3777029Y-20065952D01*
X3777029Y-20065952D02*
X3726220Y-19978857D01*
X3726220Y-19978857D02*
X3726220Y-19848214D01*
X3726220Y-19848214D02*
X3777029Y-19761119D01*
X4437553Y-19325642D02*
X3726220Y-19325642D01*
X3370553Y-19325642D02*
X3421363Y-19369190D01*
X3421363Y-19369190D02*
X3472172Y-19325642D01*
X3472172Y-19325642D02*
X3421363Y-19282095D01*
X3421363Y-19282095D02*
X3370553Y-19325642D01*
X3370553Y-19325642D02*
X3472172Y-19325642D01*
X3726220Y-18498238D02*
X4589982Y-18498238D01*
X4589982Y-18498238D02*
X4691601Y-18541785D01*
X4691601Y-18541785D02*
X4742410Y-18585333D01*
X4742410Y-18585333D02*
X4793220Y-18672428D01*
X4793220Y-18672428D02*
X4793220Y-18803071D01*
X4793220Y-18803071D02*
X4742410Y-18890166D01*
X4386744Y-18498238D02*
X4437553Y-18585333D01*
X4437553Y-18585333D02*
X4437553Y-18759524D01*
X4437553Y-18759524D02*
X4386744Y-18846619D01*
X4386744Y-18846619D02*
X4335934Y-18890166D01*
X4335934Y-18890166D02*
X4234315Y-18933714D01*
X4234315Y-18933714D02*
X3929458Y-18933714D01*
X3929458Y-18933714D02*
X3827839Y-18890166D01*
X3827839Y-18890166D02*
X3777029Y-18846619D01*
X3777029Y-18846619D02*
X3726220Y-18759524D01*
X3726220Y-18759524D02*
X3726220Y-18585333D01*
X3726220Y-18585333D02*
X3777029Y-18498238D01*
X3726220Y-18062761D02*
X4437553Y-18062761D01*
X3827839Y-18062761D02*
X3777029Y-18019214D01*
X3777029Y-18019214D02*
X3726220Y-17932119D01*
X3726220Y-17932119D02*
X3726220Y-17801476D01*
X3726220Y-17801476D02*
X3777029Y-17714380D01*
X3777029Y-17714380D02*
X3878648Y-17670833D01*
X3878648Y-17670833D02*
X4437553Y-17670833D01*
X4386744Y-16886975D02*
X4437553Y-16974071D01*
X4437553Y-16974071D02*
X4437553Y-17148261D01*
X4437553Y-17148261D02*
X4386744Y-17235356D01*
X4386744Y-17235356D02*
X4285124Y-17278904D01*
X4285124Y-17278904D02*
X3878648Y-17278904D01*
X3878648Y-17278904D02*
X3777029Y-17235356D01*
X3777029Y-17235356D02*
X3726220Y-17148261D01*
X3726220Y-17148261D02*
X3726220Y-16974071D01*
X3726220Y-16974071D02*
X3777029Y-16886975D01*
X3777029Y-16886975D02*
X3878648Y-16843428D01*
X3878648Y-16843428D02*
X3980267Y-16843428D01*
X3980267Y-16843428D02*
X4081886Y-17278904D01*
X4437553Y-16059571D02*
X3370553Y-16059571D01*
X4386744Y-16059571D02*
X4437553Y-16146666D01*
X4437553Y-16146666D02*
X4437553Y-16320857D01*
X4437553Y-16320857D02*
X4386744Y-16407952D01*
X4386744Y-16407952D02*
X4335934Y-16451499D01*
X4335934Y-16451499D02*
X4234315Y-16495047D01*
X4234315Y-16495047D02*
X3929458Y-16495047D01*
X3929458Y-16495047D02*
X3827839Y-16451499D01*
X3827839Y-16451499D02*
X3777029Y-16407952D01*
X3777029Y-16407952D02*
X3726220Y-16320857D01*
X3726220Y-16320857D02*
X3726220Y-16146666D01*
X3726220Y-16146666D02*
X3777029Y-16059571D01*
X3878648Y-14622499D02*
X3929458Y-14491856D01*
X3929458Y-14491856D02*
X3980267Y-14448309D01*
X3980267Y-14448309D02*
X4081886Y-14404761D01*
X4081886Y-14404761D02*
X4234315Y-14404761D01*
X4234315Y-14404761D02*
X4335934Y-14448309D01*
X4335934Y-14448309D02*
X4386744Y-14491856D01*
X4386744Y-14491856D02*
X4437553Y-14578951D01*
X4437553Y-14578951D02*
X4437553Y-14927332D01*
X4437553Y-14927332D02*
X3370553Y-14927332D01*
X3370553Y-14927332D02*
X3370553Y-14622499D01*
X3370553Y-14622499D02*
X3421363Y-14535404D01*
X3421363Y-14535404D02*
X3472172Y-14491856D01*
X3472172Y-14491856D02*
X3573791Y-14448309D01*
X3573791Y-14448309D02*
X3675410Y-14448309D01*
X3675410Y-14448309D02*
X3777029Y-14491856D01*
X3777029Y-14491856D02*
X3827839Y-14535404D01*
X3827839Y-14535404D02*
X3878648Y-14622499D01*
X3878648Y-14622499D02*
X3878648Y-14927332D01*
X3726220Y-14099928D02*
X4437553Y-13882190D01*
X3726220Y-13664451D02*
X4437553Y-13882190D01*
X4437553Y-13882190D02*
X4691601Y-13969285D01*
X4691601Y-13969285D02*
X4742410Y-14012832D01*
X4742410Y-14012832D02*
X4793220Y-14099928D01*
X4437553Y-12619308D02*
X3370553Y-12619308D01*
X4437553Y-12096737D02*
X3827839Y-12488666D01*
X3370553Y-12096737D02*
X3980267Y-12619308D01*
X4437553Y-11704808D02*
X3726220Y-11704808D01*
X3370553Y-11704808D02*
X3421363Y-11748356D01*
X3421363Y-11748356D02*
X3472172Y-11704808D01*
X3472172Y-11704808D02*
X3421363Y-11661261D01*
X3421363Y-11661261D02*
X3370553Y-11704808D01*
X3370553Y-11704808D02*
X3472172Y-11704808D01*
X4437553Y-11138690D02*
X4386744Y-11225785D01*
X4386744Y-11225785D02*
X4285124Y-11269332D01*
X4285124Y-11269332D02*
X3370553Y-11269332D01*
X4437553Y-10659666D02*
X4386744Y-10746761D01*
X4386744Y-10746761D02*
X4285124Y-10790308D01*
X4285124Y-10790308D02*
X3370553Y-10790308D01*
X3726220Y-10398380D02*
X4437553Y-10180642D01*
X3726220Y-9962903D02*
X4437553Y-10180642D01*
X4437553Y-10180642D02*
X4691601Y-10267737D01*
X4691601Y-10267737D02*
X4742410Y-10311284D01*
X4742410Y-10311284D02*
X4793220Y-10398380D01*
X6053744Y-21241738D02*
X6104554Y-21285286D01*
X6104554Y-21285286D02*
X6155363Y-21415928D01*
X6155363Y-21415928D02*
X6155363Y-21503024D01*
X6155363Y-21503024D02*
X6104554Y-21633667D01*
X6104554Y-21633667D02*
X6002934Y-21720762D01*
X6002934Y-21720762D02*
X5901315Y-21764309D01*
X5901315Y-21764309D02*
X5698077Y-21807857D01*
X5698077Y-21807857D02*
X5545649Y-21807857D01*
X5545649Y-21807857D02*
X5342411Y-21764309D01*
X5342411Y-21764309D02*
X5240792Y-21720762D01*
X5240792Y-21720762D02*
X5139173Y-21633667D01*
X5139173Y-21633667D02*
X5088363Y-21503024D01*
X5088363Y-21503024D02*
X5088363Y-21415928D01*
X5088363Y-21415928D02*
X5139173Y-21285286D01*
X5139173Y-21285286D02*
X5189982Y-21241738D01*
X6053744Y-20327238D02*
X6104554Y-20370786D01*
X6104554Y-20370786D02*
X6155363Y-20501428D01*
X6155363Y-20501428D02*
X6155363Y-20588524D01*
X6155363Y-20588524D02*
X6104554Y-20719167D01*
X6104554Y-20719167D02*
X6002934Y-20806262D01*
X6002934Y-20806262D02*
X5901315Y-20849809D01*
X5901315Y-20849809D02*
X5698077Y-20893357D01*
X5698077Y-20893357D02*
X5545649Y-20893357D01*
X5545649Y-20893357D02*
X5342411Y-20849809D01*
X5342411Y-20849809D02*
X5240792Y-20806262D01*
X5240792Y-20806262D02*
X5139173Y-20719167D01*
X5139173Y-20719167D02*
X5088363Y-20588524D01*
X5088363Y-20588524D02*
X5088363Y-20501428D01*
X5088363Y-20501428D02*
X5139173Y-20370786D01*
X5139173Y-20370786D02*
X5189982Y-20327238D01*
X5748887Y-19935309D02*
X5748887Y-19238548D01*
X5596458Y-18498238D02*
X5647268Y-18367595D01*
X5647268Y-18367595D02*
X5698077Y-18324048D01*
X5698077Y-18324048D02*
X5799696Y-18280500D01*
X5799696Y-18280500D02*
X5952125Y-18280500D01*
X5952125Y-18280500D02*
X6053744Y-18324048D01*
X6053744Y-18324048D02*
X6104554Y-18367595D01*
X6104554Y-18367595D02*
X6155363Y-18454690D01*
X6155363Y-18454690D02*
X6155363Y-18803071D01*
X6155363Y-18803071D02*
X5088363Y-18803071D01*
X5088363Y-18803071D02*
X5088363Y-18498238D01*
X5088363Y-18498238D02*
X5139173Y-18411143D01*
X5139173Y-18411143D02*
X5189982Y-18367595D01*
X5189982Y-18367595D02*
X5291601Y-18324048D01*
X5291601Y-18324048D02*
X5393220Y-18324048D01*
X5393220Y-18324048D02*
X5494839Y-18367595D01*
X5494839Y-18367595D02*
X5545649Y-18411143D01*
X5545649Y-18411143D02*
X5596458Y-18498238D01*
X5596458Y-18498238D02*
X5596458Y-18803071D01*
X5647268Y-17714381D02*
X6155363Y-17714381D01*
X5088363Y-18019214D02*
X5647268Y-17714381D01*
X5647268Y-17714381D02*
X5088363Y-17409548D01*
X5444030Y-16016024D02*
X6155363Y-16016024D01*
X5037554Y-16233762D02*
X5799696Y-16451500D01*
X5799696Y-16451500D02*
X5799696Y-15885381D01*
X6053744Y-15537000D02*
X6104554Y-15493453D01*
X6104554Y-15493453D02*
X6155363Y-15537000D01*
X6155363Y-15537000D02*
X6104554Y-15580548D01*
X6104554Y-15580548D02*
X6053744Y-15537000D01*
X6053744Y-15537000D02*
X6155363Y-15537000D01*
X5088363Y-14927334D02*
X5088363Y-14840239D01*
X5088363Y-14840239D02*
X5139173Y-14753143D01*
X5139173Y-14753143D02*
X5189982Y-14709596D01*
X5189982Y-14709596D02*
X5291601Y-14666048D01*
X5291601Y-14666048D02*
X5494839Y-14622501D01*
X5494839Y-14622501D02*
X5748887Y-14622501D01*
X5748887Y-14622501D02*
X5952125Y-14666048D01*
X5952125Y-14666048D02*
X6053744Y-14709596D01*
X6053744Y-14709596D02*
X6104554Y-14753143D01*
X6104554Y-14753143D02*
X6155363Y-14840239D01*
X6155363Y-14840239D02*
X6155363Y-14927334D01*
X6155363Y-14927334D02*
X6104554Y-15014429D01*
X6104554Y-15014429D02*
X6053744Y-15057977D01*
X6053744Y-15057977D02*
X5952125Y-15101524D01*
X5952125Y-15101524D02*
X5748887Y-15145072D01*
X5748887Y-15145072D02*
X5494839Y-15145072D01*
X5494839Y-15145072D02*
X5291601Y-15101524D01*
X5291601Y-15101524D02*
X5189982Y-15057977D01*
X5189982Y-15057977D02*
X5139173Y-15014429D01*
X5139173Y-15014429D02*
X5088363Y-14927334D01*
X13378647Y-7825423D02*
X14887885Y-7825423D01*
X13552790Y-7418995D02*
X14713742Y-7418995D01*
X13610837Y-8164114D02*
X13378647Y-8435066D01*
X14075218Y-8773757D02*
X14365456Y-8773757D01*
X14133266Y-7148042D02*
X14133266Y-7825423D01*
X14365456Y-7825423D02*
X14365456Y-8773757D01*
X14597647Y-8096376D02*
X14829837Y-8367328D01*
X13959123Y-7825423D02*
X13901075Y-8435066D01*
X13901075Y-8435066D02*
X13610837Y-8773757D01*
X15352266Y-7825423D02*
X15700551Y-8164114D01*
X16281028Y-7148042D02*
X16281028Y-8773757D01*
X15584456Y-7215780D02*
X15352266Y-7689947D01*
X15352266Y-7689947D02*
X15178123Y-7960899D01*
X16048837Y-7689947D02*
X16455170Y-8164114D01*
X16455170Y-8164114D02*
X16687361Y-8299590D01*
X15526408Y-7486733D02*
X15932742Y-7486733D01*
X15932742Y-7486733D02*
X15758599Y-8164114D01*
X15758599Y-8164114D02*
X15584456Y-8435066D01*
X15584456Y-8435066D02*
X15294218Y-8773757D01*
X16977599Y-8028638D02*
X17500027Y-8028638D01*
X17093694Y-8231852D02*
X16977599Y-8638280D01*
X17209789Y-7148042D02*
X17093694Y-7554471D01*
X17267837Y-7960899D02*
X17267837Y-8773757D01*
X17383932Y-7757685D02*
X17500027Y-8096376D01*
X17383932Y-7351257D02*
X17267837Y-7757685D01*
X17441980Y-8231852D02*
X17500027Y-8502804D01*
X17674170Y-7893161D02*
X18370742Y-7893161D01*
X17674170Y-7622209D02*
X18370742Y-7622209D01*
X17674170Y-7351257D02*
X17674170Y-7893161D01*
X17790265Y-8773757D02*
X18022456Y-8773757D01*
X17964408Y-7148042D02*
X17906361Y-7351257D01*
X18022456Y-7893161D02*
X18022456Y-8773757D01*
X18370742Y-8096376D02*
X18196599Y-8299590D01*
X17035646Y-7486733D02*
X17267837Y-7757685D01*
X17267837Y-7757685D02*
X17035646Y-7960899D01*
X17674170Y-7351257D02*
X18370742Y-7351257D01*
X18370742Y-7351257D02*
X18428789Y-7893161D01*
X18022456Y-8028638D02*
X18196599Y-8367328D01*
X18196599Y-8367328D02*
X18428789Y-8706019D01*
X17616123Y-8231852D02*
X17906361Y-8231852D01*
X17906361Y-8231852D02*
X17790265Y-8502804D01*
X17790265Y-8502804D02*
X17558075Y-8706019D01*
X18777075Y-7622209D02*
X19531694Y-7622209D01*
X18893170Y-7960899D02*
X19473646Y-7960899D01*
X18893170Y-7418995D02*
X19473646Y-7418995D01*
X18951218Y-8638280D02*
X19531694Y-8638280D01*
X18951218Y-8367328D02*
X19473646Y-8367328D01*
X18951218Y-8164114D02*
X19473646Y-8164114D01*
X18951218Y-7825423D02*
X18951218Y-8706019D01*
X18951218Y-7148042D02*
X18835122Y-7554471D01*
X19125360Y-7418995D02*
X18835122Y-7960899D01*
X19241456Y-7825423D02*
X19241456Y-8638280D01*
X19647789Y-8231852D02*
X20228265Y-8231852D01*
X19647789Y-7893161D02*
X20228265Y-7893161D01*
X19647789Y-7554471D02*
X20228265Y-7554471D01*
X19647789Y-7215780D02*
X19647789Y-8164114D01*
X19996075Y-8773757D02*
X20286313Y-8773757D01*
X20054122Y-8231852D02*
X20054122Y-8773757D01*
X20286313Y-8502804D02*
X20286313Y-8773757D01*
X19647789Y-7215780D02*
X20228265Y-7215780D01*
X20228265Y-7215780D02*
X20228265Y-8164114D01*
X19763884Y-8231852D02*
X19705837Y-8502804D01*
X19705837Y-8502804D02*
X19531694Y-8773757D01*
X20576551Y-7689947D02*
X20866789Y-7825423D01*
X20692646Y-7215780D02*
X20924836Y-7351257D01*
X20866789Y-8164114D02*
X20634598Y-8706019D01*
X21040932Y-8299590D02*
X21505313Y-8299590D01*
X21040932Y-7960899D02*
X21505313Y-7960899D01*
X21040932Y-7622209D02*
X21505313Y-7622209D01*
X21040932Y-7283519D02*
X21040932Y-8299590D01*
X21157027Y-8435066D02*
X20924836Y-8773757D01*
X21389217Y-8435066D02*
X21621408Y-8706019D01*
X21737503Y-7351257D02*
X21737503Y-8367328D01*
X21795551Y-8773757D02*
X22085789Y-8773757D01*
X22085789Y-7148042D02*
X22085789Y-8773757D01*
X21040932Y-7283519D02*
X21505313Y-7283519D01*
X21505313Y-7283519D02*
X21505313Y-8299590D01*
X22376027Y-8164114D02*
X23885265Y-8164114D01*
X22492122Y-7283519D02*
X22608217Y-7418995D01*
X22666265Y-7689947D02*
X22376027Y-7825423D01*
X22782360Y-7148042D02*
X22782360Y-7960899D01*
X22840408Y-8367328D02*
X22840408Y-8706019D01*
X22956503Y-7486733D02*
X23885265Y-7486733D01*
X23014551Y-7893161D02*
X23827217Y-7893161D01*
X23188693Y-8706019D02*
X22666265Y-8773757D01*
X23420884Y-7148042D02*
X23420884Y-7893161D01*
X23711122Y-8299590D02*
X23362836Y-8502804D01*
X23130646Y-8164114D02*
X23420884Y-8570542D01*
X23420884Y-8570542D02*
X23885265Y-8773757D01*
X23130646Y-7960899D02*
X23130646Y-8231852D01*
X23130646Y-8231852D02*
X22724312Y-8435066D01*
X22724312Y-8435066D02*
X22376027Y-8502804D01*
X24175503Y-7689947D02*
X25626693Y-7689947D01*
X24233550Y-7554471D02*
X25568646Y-7554471D01*
X24233550Y-7215780D02*
X24233550Y-7486733D01*
X24291598Y-8706019D02*
X25684741Y-8706019D01*
X24291598Y-7960899D02*
X24291598Y-8773757D01*
X24581836Y-8502804D02*
X25452550Y-8502804D01*
X24581836Y-8299590D02*
X25452550Y-8299590D01*
X24581836Y-8096376D02*
X25452550Y-8096376D01*
X24581836Y-7893161D02*
X24581836Y-8502804D01*
X24697931Y-7215780D02*
X24697931Y-7486733D01*
X24930122Y-7554471D02*
X24930122Y-7960899D01*
X25104265Y-7215780D02*
X25104265Y-7486733D01*
X24233550Y-7215780D02*
X25568646Y-7215780D01*
X25568646Y-7215780D02*
X25568646Y-7486733D01*
X24581836Y-7893161D02*
X25452550Y-7893161D01*
X25452550Y-7893161D02*
X25452550Y-8502804D01*
X14836575Y-1522363D02*
X14836575Y-2284506D01*
X14836575Y-2284506D02*
X14793028Y-2436934D01*
X14793028Y-2436934D02*
X14705932Y-2538554D01*
X14705932Y-2538554D02*
X14575290Y-2589363D01*
X14575290Y-2589363D02*
X14488194Y-2589363D01*
X15707528Y-2589363D02*
X15272052Y-2589363D01*
X15272052Y-2589363D02*
X15272052Y-1522363D01*
X16534933Y-2487744D02*
X16491385Y-2538554D01*
X16491385Y-2538554D02*
X16360743Y-2589363D01*
X16360743Y-2589363D02*
X16273647Y-2589363D01*
X16273647Y-2589363D02*
X16143004Y-2538554D01*
X16143004Y-2538554D02*
X16055909Y-2436934D01*
X16055909Y-2436934D02*
X16012362Y-2335315D01*
X16012362Y-2335315D02*
X15968814Y-2132077D01*
X15968814Y-2132077D02*
X15968814Y-1979649D01*
X15968814Y-1979649D02*
X16012362Y-1776411D01*
X16012362Y-1776411D02*
X16055909Y-1674792D01*
X16055909Y-1674792D02*
X16143004Y-1573173D01*
X16143004Y-1573173D02*
X16273647Y-1522363D01*
X16273647Y-1522363D02*
X16360743Y-1522363D01*
X16360743Y-1522363D02*
X16491385Y-1573173D01*
X16491385Y-1573173D02*
X16534933Y-1623982D01*
X17188147Y-1522363D02*
X17188147Y-2284506D01*
X17188147Y-2284506D02*
X17144600Y-2436934D01*
X17144600Y-2436934D02*
X17057504Y-2538554D01*
X17057504Y-2538554D02*
X16926862Y-2589363D01*
X16926862Y-2589363D02*
X16839766Y-2589363D01*
X18059100Y-2589363D02*
X17623624Y-2589363D01*
X17623624Y-2589363D02*
X17623624Y-1522363D01*
X18886505Y-2487744D02*
X18842957Y-2538554D01*
X18842957Y-2538554D02*
X18712315Y-2589363D01*
X18712315Y-2589363D02*
X18625219Y-2589363D01*
X18625219Y-2589363D02*
X18494576Y-2538554D01*
X18494576Y-2538554D02*
X18407481Y-2436934D01*
X18407481Y-2436934D02*
X18363934Y-2335315D01*
X18363934Y-2335315D02*
X18320386Y-2132077D01*
X18320386Y-2132077D02*
X18320386Y-1979649D01*
X18320386Y-1979649D02*
X18363934Y-1776411D01*
X18363934Y-1776411D02*
X18407481Y-1674792D01*
X18407481Y-1674792D02*
X18494576Y-1573173D01*
X18494576Y-1573173D02*
X18625219Y-1522363D01*
X18625219Y-1522363D02*
X18712315Y-1522363D01*
X18712315Y-1522363D02*
X18842957Y-1573173D01*
X18842957Y-1573173D02*
X18886505Y-1623982D01*
X19539719Y-1522363D02*
X19539719Y-2284506D01*
X19539719Y-2284506D02*
X19496172Y-2436934D01*
X19496172Y-2436934D02*
X19409076Y-2538554D01*
X19409076Y-2538554D02*
X19278434Y-2589363D01*
X19278434Y-2589363D02*
X19191338Y-2589363D01*
X20410672Y-2589363D02*
X19975196Y-2589363D01*
X19975196Y-2589363D02*
X19975196Y-1522363D01*
X21238077Y-2487744D02*
X21194529Y-2538554D01*
X21194529Y-2538554D02*
X21063887Y-2589363D01*
X21063887Y-2589363D02*
X20976791Y-2589363D01*
X20976791Y-2589363D02*
X20846148Y-2538554D01*
X20846148Y-2538554D02*
X20759053Y-2436934D01*
X20759053Y-2436934D02*
X20715506Y-2335315D01*
X20715506Y-2335315D02*
X20671958Y-2132077D01*
X20671958Y-2132077D02*
X20671958Y-1979649D01*
X20671958Y-1979649D02*
X20715506Y-1776411D01*
X20715506Y-1776411D02*
X20759053Y-1674792D01*
X20759053Y-1674792D02*
X20846148Y-1573173D01*
X20846148Y-1573173D02*
X20976791Y-1522363D01*
X20976791Y-1522363D02*
X21063887Y-1522363D01*
X21063887Y-1522363D02*
X21194529Y-1573173D01*
X21194529Y-1573173D02*
X21238077Y-1623982D01*
X21891291Y-1522363D02*
X21891291Y-2284506D01*
X21891291Y-2284506D02*
X21847744Y-2436934D01*
X21847744Y-2436934D02*
X21760648Y-2538554D01*
X21760648Y-2538554D02*
X21630006Y-2589363D01*
X21630006Y-2589363D02*
X21542910Y-2589363D01*
X22762244Y-2589363D02*
X22326768Y-2589363D01*
X22326768Y-2589363D02*
X22326768Y-1522363D01*
X23589649Y-2487744D02*
X23546101Y-2538554D01*
X23546101Y-2538554D02*
X23415459Y-2589363D01*
X23415459Y-2589363D02*
X23328363Y-2589363D01*
X23328363Y-2589363D02*
X23197720Y-2538554D01*
X23197720Y-2538554D02*
X23110625Y-2436934D01*
X23110625Y-2436934D02*
X23067078Y-2335315D01*
X23067078Y-2335315D02*
X23023530Y-2132077D01*
X23023530Y-2132077D02*
X23023530Y-1979649D01*
X23023530Y-1979649D02*
X23067078Y-1776411D01*
X23067078Y-1776411D02*
X23110625Y-1674792D01*
X23110625Y-1674792D02*
X23197720Y-1573173D01*
X23197720Y-1573173D02*
X23328363Y-1522363D01*
X23328363Y-1522363D02*
X23415459Y-1522363D01*
X23415459Y-1522363D02*
X23546101Y-1573173D01*
X23546101Y-1573173D02*
X23589649Y-1623982D01*
X29572218Y-6831030D02*
X29572218Y-7542363D01*
X29354480Y-6424554D02*
X29136742Y-7186696D01*
X29136742Y-7186696D02*
X29702861Y-7186696D01*
X30225432Y-6475363D02*
X30312527Y-6475363D01*
X30312527Y-6475363D02*
X30399623Y-6526173D01*
X30399623Y-6526173D02*
X30443170Y-6576982D01*
X30443170Y-6576982D02*
X30486718Y-6678601D01*
X30486718Y-6678601D02*
X30530265Y-6881839D01*
X30530265Y-6881839D02*
X30530265Y-7135887D01*
X30530265Y-7135887D02*
X30486718Y-7339125D01*
X30486718Y-7339125D02*
X30443170Y-7440744D01*
X30443170Y-7440744D02*
X30399623Y-7491554D01*
X30399623Y-7491554D02*
X30312527Y-7542363D01*
X30312527Y-7542363D02*
X30225432Y-7542363D01*
X30225432Y-7542363D02*
X30138337Y-7491554D01*
X30138337Y-7491554D02*
X30094789Y-7440744D01*
X30094789Y-7440744D02*
X30051242Y-7339125D01*
X30051242Y-7339125D02*
X30007694Y-7135887D01*
X30007694Y-7135887D02*
X30007694Y-6881839D01*
X30007694Y-6881839D02*
X30051242Y-6678601D01*
X30051242Y-6678601D02*
X30094789Y-6576982D01*
X30094789Y-6576982D02*
X30138337Y-6526173D01*
X30138337Y-6526173D02*
X30225432Y-6475363D01*
D11*
%TO.C,C*%
X29828000Y-24358500D02*
X29828000Y-28410500D01*
X29828000Y-28410500D02*
X30486000Y-28410500D01*
X32910000Y-24358500D02*
X32910000Y-28410500D01*
X32910000Y-28410500D02*
X32252000Y-28410500D01*
D12*
X32269000Y-26384500D02*
G75*
G02*
X30469000Y-26384500I-900000J0D01*
G01*
X30469000Y-26384500D02*
G75*
G02*
X32269000Y-26384500I900000J0D01*
G01*
D13*
G36*
X30536500Y-24434500D02*
G01*
X29751500Y-24434500D01*
X29751500Y-24129500D01*
X30536500Y-24129500D01*
X30536500Y-24434500D01*
G37*
G36*
X32986500Y-24434500D02*
G01*
X32201500Y-24434500D01*
X32201500Y-24129500D01*
X32986500Y-24129500D01*
X32986500Y-24434500D01*
G37*
D11*
%TO.C,X1*%
X18164500Y-22388000D02*
X22221500Y-22388000D01*
X18164500Y-25745000D02*
X18164500Y-22388000D01*
X22221500Y-22388000D02*
X22221500Y-25745000D01*
X22221500Y-25745000D02*
X18164500Y-25745000D01*
X22450000Y-22159500D02*
X20593000Y-22159500D01*
X22450000Y-23816500D02*
X22450000Y-22159500D01*
%TO.C,U1*%
X5568000Y-30206000D02*
X5568000Y-30739500D01*
X5568000Y-37358000D02*
X5568000Y-36824500D01*
X6101500Y-30206000D02*
X5568000Y-30206000D01*
X6101500Y-37358000D02*
X5568000Y-37358000D01*
X6149000Y-30787000D02*
X12139000Y-30787000D01*
X6149000Y-36777000D02*
X6149000Y-30787000D01*
X12139000Y-30787000D02*
X12139000Y-36777000D01*
X12139000Y-36777000D02*
X6149000Y-36777000D01*
X12186500Y-30206000D02*
X12720000Y-30206000D01*
X12186500Y-37358000D02*
X12720000Y-37358000D01*
X12720000Y-30206000D02*
X12720000Y-30739500D01*
X12720000Y-37358000D02*
X12720000Y-36824500D01*
D14*
X11899500Y-31114000D02*
G75*
G02*
X11724500Y-31114000I-87500J0D01*
G01*
X11724500Y-31114000D02*
G75*
G02*
X11899500Y-31114000I87500J0D01*
G01*
X13041500Y-29972000D02*
G75*
G02*
X12866500Y-29972000I-87500J0D01*
G01*
X12866500Y-29972000D02*
G75*
G02*
X13041500Y-29972000I87500J0D01*
G01*
D11*
%TO.C,U9*%
X23471000Y-11817500D02*
X30123000Y-11817500D01*
X23471000Y-15360500D02*
X23471000Y-11817500D01*
X30123000Y-11817500D02*
X30123000Y-15360500D01*
X30123000Y-15360500D02*
X23471000Y-15360500D01*
D15*
X23388000Y-16460000D02*
G75*
G02*
X23087000Y-16460000I-150500J0D01*
G01*
X23087000Y-16460000D02*
G75*
G02*
X23388000Y-16460000I150500J0D01*
G01*
X24022000Y-14608000D02*
G75*
G02*
X23722000Y-14608000I-150000J0D01*
G01*
X23722000Y-14608000D02*
G75*
G02*
X24022000Y-14608000I150000J0D01*
G01*
D11*
%TO.C,-*%
X24263000Y-24843500D02*
X24263000Y-25501500D01*
X24263000Y-27925500D02*
X24263000Y-27267500D01*
X28315000Y-24843500D02*
X24263000Y-24843500D01*
X28315000Y-27925500D02*
X24263000Y-27925500D01*
D12*
X27189000Y-26384500D02*
G75*
G02*
X25389000Y-26384500I-900000J0D01*
G01*
X25389000Y-26384500D02*
G75*
G02*
X27189000Y-26384500I900000J0D01*
G01*
D13*
G36*
X28544000Y-25552000D02*
G01*
X28239000Y-25552000D01*
X28239000Y-24767000D01*
X28544000Y-24767000D01*
X28544000Y-25552000D01*
G37*
G36*
X28544000Y-28002000D02*
G01*
X28239000Y-28002000D01*
X28239000Y-27217000D01*
X28544000Y-27217000D01*
X28544000Y-28002000D01*
G37*
D11*
%TO.C,U3*%
X18807500Y-27062500D02*
X19303000Y-27062500D01*
X18807500Y-27558000D02*
X18807500Y-27062500D01*
X18807500Y-29719000D02*
X18807500Y-30214500D01*
X18807500Y-30214500D02*
X19303000Y-30214500D01*
D16*
X21464000Y-27062500D02*
X21959500Y-27558000D01*
D11*
X21959500Y-27062500D02*
X21464000Y-27062500D01*
X21959500Y-27558000D02*
X21959500Y-27062500D01*
X21959500Y-29719000D02*
X21959500Y-30214500D01*
X21959500Y-30214500D02*
X21464000Y-30214500D01*
D17*
X21601500Y-26733500D02*
G75*
G02*
X21451500Y-26733500I-75000J0D01*
G01*
X21451500Y-26733500D02*
G75*
G02*
X21601500Y-26733500I75000J0D01*
G01*
D13*
G36*
X21907500Y-27495500D02*
G01*
X21526500Y-27062500D01*
X21907500Y-27062500D01*
X21907500Y-27495500D01*
G37*
D11*
%TO.C,U7*%
X8993000Y-11817500D02*
X15645000Y-11817500D01*
X8993000Y-15360500D02*
X8993000Y-11817500D01*
X15645000Y-11817500D02*
X15645000Y-15360500D01*
X15645000Y-15360500D02*
X8993000Y-15360500D01*
D15*
X8910000Y-16460000D02*
G75*
G02*
X8609000Y-16460000I-150500J0D01*
G01*
X8609000Y-16460000D02*
G75*
G02*
X8910000Y-16460000I150500J0D01*
G01*
X9544000Y-14608000D02*
G75*
G02*
X9244000Y-14608000I-150000J0D01*
G01*
X9244000Y-14608000D02*
G75*
G02*
X9544000Y-14608000I150000J0D01*
G01*
D11*
%TO.C,M*%
X29343000Y-29891500D02*
X29343000Y-30549500D01*
X29343000Y-32973500D02*
X29343000Y-32315500D01*
X33395000Y-29891500D02*
X29343000Y-29891500D01*
X33395000Y-32973500D02*
X29343000Y-32973500D01*
D12*
X32269000Y-31432500D02*
G75*
G02*
X30469000Y-31432500I-900000J0D01*
G01*
X30469000Y-31432500D02*
G75*
G02*
X32269000Y-31432500I900000J0D01*
G01*
D13*
G36*
X33624000Y-30600000D02*
G01*
X33319000Y-30600000D01*
X33319000Y-29815000D01*
X33624000Y-29815000D01*
X33624000Y-30600000D01*
G37*
G36*
X33624000Y-33050000D02*
G01*
X33319000Y-33050000D01*
X33319000Y-32265000D01*
X33624000Y-32265000D01*
X33624000Y-33050000D01*
G37*
D11*
%TO.C,1V2*%
X496000Y-32634000D02*
X1537500Y-32634000D01*
X496000Y-34386500D02*
X496000Y-32634000D01*
X2487500Y-34386500D02*
X1576500Y-34386500D01*
X3568000Y-32634000D02*
X2526500Y-32634000D01*
X3568000Y-34386500D02*
X3568000Y-32634000D01*
%TO.C,F*%
X29343000Y-19795000D02*
X29343000Y-20453000D01*
X29343000Y-22877000D02*
X29343000Y-22219000D01*
X33395000Y-19795000D02*
X29343000Y-19795000D01*
X33395000Y-22877000D02*
X29343000Y-22877000D01*
D12*
X32269000Y-21336000D02*
G75*
G02*
X30469000Y-21336000I-900000J0D01*
G01*
X30469000Y-21336000D02*
G75*
G02*
X32269000Y-21336000I900000J0D01*
G01*
D13*
G36*
X33624000Y-20503500D02*
G01*
X33319000Y-20503500D01*
X33319000Y-19718500D01*
X33624000Y-19718500D01*
X33624000Y-20503500D01*
G37*
G36*
X33624000Y-22953500D02*
G01*
X33319000Y-22953500D01*
X33319000Y-22168500D01*
X33624000Y-22168500D01*
X33624000Y-22953500D01*
G37*
D17*
%TO.C,THM_PWR*%
X5721500Y-24251500D02*
X5721500Y-22771500D01*
X6871500Y-22751500D02*
X5721500Y-22751500D01*
X6871500Y-24251500D02*
X5721500Y-24251500D01*
X6891500Y-23171500D02*
X6901500Y-23171500D01*
X6891500Y-23501500D02*
X7231500Y-23501500D01*
X6891500Y-23841500D02*
X7231500Y-23501500D01*
X6891500Y-23851500D02*
X6891500Y-23171500D01*
X6891500Y-23851500D02*
X6891500Y-23841500D01*
X6901500Y-23171500D02*
X7231500Y-23501500D01*
X7251500Y-22749000D02*
X8301500Y-22749000D01*
X7251500Y-24249500D02*
X8301500Y-24249500D01*
X8601500Y-23049000D02*
X8301500Y-22749000D01*
X8601500Y-23149000D02*
X8601500Y-23049000D01*
X8601500Y-23849000D02*
X8601500Y-23149000D01*
X8601500Y-23849000D02*
X8601500Y-23949500D01*
X8601500Y-23949500D02*
X8301500Y-24249500D01*
D12*
%TO.C,USB1*%
X16010500Y-36255500D02*
X16010500Y-34267500D01*
X16010500Y-39836500D02*
X16010500Y-38217500D01*
X25010500Y-39836500D02*
X16010500Y-39836500D01*
X25082500Y-36258500D02*
X25082500Y-34264500D01*
X25082500Y-39687500D02*
X25082500Y-38214500D01*
%TO.C,FPC1*%
X8250000Y184500D02*
X31750000Y184500D01*
X8250000Y-609500D02*
X8250000Y184500D01*
X8250000Y-4765500D02*
X8250000Y-2871500D01*
X8900000Y-4765500D02*
X8250000Y-4765500D01*
X8900000Y-5265500D02*
X8900000Y-4765500D01*
X9869000Y-5265500D02*
X8900000Y-5265500D01*
X31150000Y-4765500D02*
X31150000Y-5265500D01*
X31150000Y-5265500D02*
X30131000Y-5265500D01*
X31750000Y184500D02*
X31750000Y-609500D01*
X31750000Y-2871500D02*
X31750000Y-4465500D01*
X31750000Y-4315500D02*
X31750000Y-4765500D01*
X31750000Y-4765500D02*
X31150000Y-4765500D01*
X9811000Y-5721000D02*
G75*
G02*
X9392000Y-5721000I-209500J0D01*
G01*
X9392000Y-5721000D02*
G75*
G02*
X9811000Y-5721000I209500J0D01*
G01*
D11*
%TO.C,+*%
X34423000Y-24843500D02*
X34423000Y-25501500D01*
X34423000Y-27925500D02*
X34423000Y-27267500D01*
X38475000Y-24843500D02*
X34423000Y-24843500D01*
X38475000Y-27925500D02*
X34423000Y-27925500D01*
D12*
X37349000Y-26384500D02*
G75*
G02*
X35549000Y-26384500I-900000J0D01*
G01*
X35549000Y-26384500D02*
G75*
G02*
X37349000Y-26384500I900000J0D01*
G01*
D13*
G36*
X38704000Y-25552000D02*
G01*
X38399000Y-25552000D01*
X38399000Y-24767000D01*
X38704000Y-24767000D01*
X38704000Y-25552000D01*
G37*
G36*
X38704000Y-28002000D02*
G01*
X38399000Y-28002000D01*
X38399000Y-27217000D01*
X38704000Y-27217000D01*
X38704000Y-28002000D01*
G37*
D11*
%TO.C,U8*%
X16232000Y-11817500D02*
X22884000Y-11817500D01*
X16232000Y-15360500D02*
X16232000Y-11817500D01*
X22884000Y-11817500D02*
X22884000Y-15360500D01*
X22884000Y-15360500D02*
X16232000Y-15360500D01*
D15*
X16149000Y-16460000D02*
G75*
G02*
X15848000Y-16460000I-150500J0D01*
G01*
X15848000Y-16460000D02*
G75*
G02*
X16149000Y-16460000I150500J0D01*
G01*
X16783000Y-14608000D02*
G75*
G02*
X16483000Y-14608000I-150000J0D01*
G01*
X16483000Y-14608000D02*
G75*
G02*
X16783000Y-14608000I150000J0D01*
G01*
D17*
%TO.C,PG*%
X26368500Y-32753500D02*
X26368500Y-31703500D01*
X26371000Y-33133500D02*
X26371000Y-34283500D01*
X26668500Y-31403500D02*
X26368500Y-31703500D01*
X26768500Y-31403500D02*
X26668500Y-31403500D01*
X26791000Y-33103500D02*
X27121000Y-32773500D01*
X26791000Y-33113500D02*
X26791000Y-33103500D01*
X27121000Y-33113500D02*
X27121000Y-32773500D01*
X27461000Y-33113500D02*
X27121000Y-32773500D01*
X27468500Y-31403500D02*
X26768500Y-31403500D01*
X27468500Y-31403500D02*
X27569000Y-31403500D01*
X27471000Y-33113500D02*
X26791000Y-33113500D01*
X27471000Y-33113500D02*
X27461000Y-33113500D01*
X27569000Y-31403500D02*
X27869000Y-31703500D01*
X27869000Y-32753500D02*
X27869000Y-31703500D01*
X27871000Y-33133500D02*
X27871000Y-34283500D01*
X27871000Y-34283500D02*
X26391000Y-34283500D01*
D11*
%TO.C,1V8*%
X31494000Y-14000500D02*
X31494000Y-15717500D01*
X31494000Y-15717500D02*
X32525500Y-15717500D01*
X32564500Y-14000500D02*
X33475500Y-14000500D01*
X34546000Y-14000500D02*
X34546000Y-15717500D01*
X34546000Y-15717500D02*
X33514500Y-15717500D01*
%TD*%
%LPC*%
D18*
%TO.C,C25*%
X13499000Y-24257000D03*
X12409000Y-24257000D03*
%TD*%
D19*
%TO.C,C*%
X31369000Y-28569500D03*
X31369000Y-24199500D03*
%TD*%
D20*
%TO.C,X1*%
X21293000Y-23216500D03*
X19093000Y-23216500D03*
X19093000Y-24916500D03*
X21293000Y-24916500D03*
%TD*%
D21*
%TO.C,R15*%
X9334500Y-24776500D03*
X9334500Y-25642500D03*
%TD*%
D18*
%TO.C,C26*%
X13499000Y-23368000D03*
X12409000Y-23368000D03*
%TD*%
D22*
%TO.C,L2*%
X4635500Y-37654000D03*
X4635500Y-39054000D03*
%TD*%
D23*
%TO.C,C14*%
X9334500Y-26823500D03*
X9334500Y-27913500D03*
%TD*%
D24*
%TO.C,U1*%
X11894000Y-29672000D03*
X11394000Y-29672000D03*
X10894000Y-29672000D03*
X10394000Y-29672000D03*
X9894000Y-29672000D03*
X9394000Y-29672000D03*
X8894000Y-29672000D03*
X8394000Y-29672000D03*
X7894000Y-29672000D03*
X7394000Y-29672000D03*
X6894000Y-29672000D03*
X6394000Y-29672000D03*
D25*
X5034000Y-31032000D03*
X5034000Y-31532000D03*
X5034000Y-32032000D03*
X5034000Y-32532000D03*
X5034000Y-33032000D03*
X5034000Y-33532000D03*
X5034000Y-34032000D03*
X5034000Y-34532000D03*
X5034000Y-35032000D03*
X5034000Y-35532000D03*
X5034000Y-36032000D03*
X5034000Y-36532000D03*
D24*
X6394000Y-37892000D03*
X6894000Y-37892000D03*
X7394000Y-37892000D03*
X7894000Y-37892000D03*
X8394000Y-37892000D03*
X8894000Y-37892000D03*
X9394000Y-37892000D03*
X9894000Y-37892000D03*
X10394000Y-37892000D03*
X10894000Y-37892000D03*
X11394000Y-37892000D03*
X11894000Y-37892000D03*
D25*
X13254000Y-36532000D03*
X13254000Y-36032000D03*
X13254000Y-35532000D03*
X13254000Y-35032000D03*
X13254000Y-34532000D03*
X13254000Y-34032000D03*
X13254000Y-33532000D03*
X13254000Y-33032000D03*
X13254000Y-32532000D03*
X13254000Y-32032000D03*
X13254000Y-31532000D03*
X13254000Y-31032000D03*
%TD*%
D26*
%TO.C,U9*%
X23872000Y-16460000D03*
X24522000Y-16460000D03*
X25172000Y-16460000D03*
X25822000Y-16460000D03*
X26472000Y-16460000D03*
X27122000Y-16460000D03*
X27772000Y-16460000D03*
X28422000Y-16460000D03*
X29072000Y-16460000D03*
X29722000Y-16460000D03*
X29722000Y-10718000D03*
X29072000Y-10718000D03*
X28422000Y-10718000D03*
X27772000Y-10718000D03*
X27122000Y-10718000D03*
X26472000Y-10718000D03*
X25822000Y-10718000D03*
X25172000Y-10718000D03*
X24522000Y-10718000D03*
X23872000Y-10718000D03*
%TD*%
D27*
%TO.C,*%
X2000000Y-2000000D03*
%TD*%
D18*
%TO.C,C18*%
X37539500Y-31813500D03*
X36449500Y-31813500D03*
%TD*%
D27*
%TO.C,*%
X38000000Y-2000000D03*
%TD*%
D21*
%TO.C,R44*%
X7302500Y-27738000D03*
X7302500Y-26872000D03*
%TD*%
D28*
%TO.C,DM4*%
X19784500Y-26384500D03*
%TD*%
D29*
%TO.C,-*%
X24104000Y-26384500D03*
X28474000Y-26384500D03*
%TD*%
D30*
%TO.C,R14*%
X14466500Y-28257500D03*
X13600500Y-28257500D03*
%TD*%
D31*
%TO.C,U3*%
X21133500Y-27231000D03*
X20633500Y-27231000D03*
X20133500Y-27231000D03*
X19633500Y-27231000D03*
D32*
X18976000Y-27888500D03*
X18976000Y-28388500D03*
X18976000Y-28888500D03*
X18976000Y-29388500D03*
D31*
X19633500Y-30046000D03*
X20133500Y-30046000D03*
X20633500Y-30046000D03*
X21133500Y-30046000D03*
D32*
X21791000Y-29388500D03*
X21791000Y-28888500D03*
X21791000Y-28388500D03*
X21791000Y-27888500D03*
D33*
X20383500Y-28638500D03*
%TD*%
D30*
%TO.C,R2*%
X23356500Y-30797500D03*
X22490500Y-30797500D03*
%TD*%
D23*
%TO.C,C13*%
X6286500Y-26760000D03*
X6286500Y-27850000D03*
%TD*%
D26*
%TO.C,U7*%
X9394000Y-16460000D03*
X10044000Y-16460000D03*
X10694000Y-16460000D03*
X11344000Y-16460000D03*
X11994000Y-16460000D03*
X12644000Y-16460000D03*
X13294000Y-16460000D03*
X13944000Y-16460000D03*
X14594000Y-16460000D03*
X15244000Y-16460000D03*
X15244000Y-10718000D03*
X14594000Y-10718000D03*
X13944000Y-10718000D03*
X13294000Y-10718000D03*
X12644000Y-10718000D03*
X11994000Y-10718000D03*
X11344000Y-10718000D03*
X10694000Y-10718000D03*
X10044000Y-10718000D03*
X9394000Y-10718000D03*
%TD*%
D29*
%TO.C,M*%
X29184000Y-31432500D03*
X33554000Y-31432500D03*
%TD*%
D21*
%TO.C,R43*%
X12065000Y-27738000D03*
X12065000Y-26872000D03*
%TD*%
D34*
%TO.C,R58*%
X13851500Y-18097500D03*
X15358500Y-18097500D03*
%TD*%
D21*
%TO.C,R12*%
X3683000Y-29412000D03*
X3683000Y-30278000D03*
%TD*%
D35*
%TO.C,1V2*%
X1082000Y-34745500D03*
X2982000Y-34745500D03*
X2032000Y-32275500D03*
%TD*%
D30*
%TO.C,R6*%
X27126000Y-28702000D03*
X27992000Y-28702000D03*
%TD*%
D18*
%TO.C,C29*%
X13499000Y-25146000D03*
X12409000Y-25146000D03*
%TD*%
D21*
%TO.C,R27*%
X30924500Y-10997000D03*
X30924500Y-11863000D03*
%TD*%
D23*
%TO.C,C2*%
X22923500Y-23712000D03*
X22923500Y-24802000D03*
%TD*%
D18*
%TO.C,C5*%
X24029500Y-28702000D03*
X25119500Y-28702000D03*
%TD*%
D23*
%TO.C,C24*%
X8318500Y-26823500D03*
X8318500Y-27913500D03*
%TD*%
D27*
%TO.C,*%
X2000000Y-38000000D03*
%TD*%
D18*
%TO.C,C16*%
X36449500Y-30819000D03*
X37539500Y-30819000D03*
%TD*%
D29*
%TO.C,F*%
X29184000Y-21336000D03*
X33554000Y-21336000D03*
%TD*%
D36*
%TO.C,THM_PWR*%
X7911500Y-23495000D03*
X6312500Y-23495000D03*
%TD*%
D37*
%TO.C,USB1*%
X17310500Y-32486500D03*
X18110500Y-32486500D03*
D38*
X18760500Y-32486500D03*
X19260500Y-32486500D03*
X19760500Y-32486500D03*
X20260500Y-32486500D03*
X20760500Y-32486500D03*
X21260500Y-32486500D03*
X21760500Y-32486500D03*
X22260500Y-32486500D03*
D37*
X22910500Y-32486500D03*
X23710500Y-32486500D03*
D39*
X16185500Y-33036500D03*
D40*
X16185500Y-37236500D03*
D39*
X24835500Y-33036500D03*
D40*
X24835500Y-37236500D03*
%TD*%
D28*
%TO.C,G1IN*%
X10248500Y-25103000D03*
%TD*%
D41*
%TO.C,FPC1*%
X10250000Y-4990500D03*
X10750000Y-4990500D03*
X11250000Y-4990500D03*
X11750000Y-4990500D03*
X12250000Y-4990500D03*
X12750000Y-4990500D03*
X13250000Y-4990500D03*
X13750000Y-4990500D03*
X14250000Y-4990500D03*
X14750000Y-4990500D03*
X15250000Y-4990500D03*
X15750000Y-4990500D03*
X16250000Y-4990500D03*
X16750000Y-4990500D03*
X17250000Y-4990500D03*
X17750000Y-4990500D03*
X18250000Y-4990500D03*
X18750000Y-4990500D03*
X19250000Y-4990500D03*
X19750000Y-4990500D03*
X20250000Y-4990500D03*
X20750000Y-4990500D03*
X21250000Y-4990500D03*
X21750000Y-4990500D03*
X22250000Y-4990500D03*
X22750000Y-4990500D03*
X23250000Y-4990500D03*
X23750000Y-4990500D03*
X24250000Y-4990500D03*
X24750000Y-4990500D03*
X25250000Y-4990500D03*
X25750000Y-4990500D03*
X26250000Y-4990500D03*
X26750000Y-4990500D03*
X27250000Y-4990500D03*
X27750000Y-4990500D03*
X28250000Y-4990500D03*
X28750000Y-4990500D03*
X29250000Y-4990500D03*
X29750000Y-4990500D03*
D42*
X31300000Y-1740500D03*
X8700000Y-1740500D03*
%TD*%
D30*
%TO.C,R45*%
X26658500Y-24066500D03*
X25792500Y-24066500D03*
%TD*%
%TO.C,R7*%
X26237000Y-30797500D03*
X27103000Y-30797500D03*
%TD*%
D43*
%TO.C,C21*%
X32002500Y-10922000D03*
X33402500Y-10922000D03*
%TD*%
D29*
%TO.C,+*%
X34264000Y-26384500D03*
X38634000Y-26384500D03*
%TD*%
D30*
%TO.C,R1*%
X17601000Y-30797500D03*
X18467000Y-30797500D03*
%TD*%
D26*
%TO.C,U8*%
X16633000Y-16460000D03*
X17283000Y-16460000D03*
X17933000Y-16460000D03*
X18583000Y-16460000D03*
X19233000Y-16460000D03*
X19883000Y-16460000D03*
X20533000Y-16460000D03*
X21183000Y-16460000D03*
X21833000Y-16460000D03*
X22483000Y-16460000D03*
X22483000Y-10718000D03*
X21833000Y-10718000D03*
X21183000Y-10718000D03*
X20533000Y-10718000D03*
X19883000Y-10718000D03*
X19233000Y-10718000D03*
X18583000Y-10718000D03*
X17933000Y-10718000D03*
X17283000Y-10718000D03*
X16633000Y-10718000D03*
%TD*%
D18*
%TO.C,C22*%
X33184000Y-12319000D03*
X32094000Y-12319000D03*
%TD*%
D21*
%TO.C,R11*%
X2603500Y-30278000D03*
X2603500Y-29412000D03*
%TD*%
D23*
%TO.C,C23*%
X11176000Y-26760000D03*
X11176000Y-27850000D03*
%TD*%
D28*
%TO.C,DM3*%
X17855500Y-27535500D03*
%TD*%
D36*
%TO.C,PG*%
X27114500Y-32093500D03*
X27114500Y-33692500D03*
%TD*%
D28*
%TO.C,DP3*%
X17855500Y-28345000D03*
%TD*%
D27*
%TO.C,*%
X38000000Y-38000000D03*
%TD*%
D44*
%TO.C,L1*%
X14606500Y-29273500D03*
X13206500Y-29273500D03*
%TD*%
D18*
%TO.C,C28*%
X13499000Y-26035000D03*
X12409000Y-26035000D03*
%TD*%
%TO.C,C27*%
X13499000Y-22479000D03*
X12409000Y-22479000D03*
%TD*%
D21*
%TO.C,R29*%
X30924500Y-15673000D03*
X30924500Y-14807000D03*
%TD*%
D28*
%TO.C,DP4*%
X18848000Y-26384500D03*
%TD*%
D45*
%TO.C,1V8*%
X33970000Y-13757500D03*
X32070000Y-13757500D03*
X33020000Y-15960500D03*
%TD*%
D30*
%TO.C,R59*%
X7608500Y-25082500D03*
X6742500Y-25082500D03*
%TD*%
D21*
%TO.C,R13*%
X1524000Y-30278000D03*
X1524000Y-29412000D03*
%TD*%
%TO.C,R28*%
X30924500Y-13768000D03*
X30924500Y-12902000D03*
%TD*%
D23*
%TO.C,C1*%
X17665000Y-23427000D03*
X17665000Y-24517000D03*
%TD*%
%LPD*%
M02*
