M48
; DRILL file {KiCad 9.0.4} date 2025-09-14T02:35:36-0400
; FORMAT={-:-/ absolute / inch / decimal}
; #@! TF.CreationDate,2025-09-14T02:35:36-04:00
; #@! TF.GenerationSoftware,Kicad,Pcbnew,9.0.4
; #@! TF.FileFunction,Plated,1,4,PTH
FMAT,2
INCH
; #@! TA.AperFunction,Plated,PTH,ViaDrill
T1C0.0120
; #@! TA.AperFunction,Plated,PTH,ComponentDrill
T2C0.0236
; #@! TA.AperFunction,Plated,PTH,ComponentDrill
T3C0.0787
%
G90
G05
T1
X0.04Y-1.4075
X0.06Y-1.2175
X0.0794Y-1.4075
X0.1025Y-1.2175
X0.1125Y-1.3785
X0.1275Y-0.829
X0.1275Y-0.9475
X0.1425Y-1.2175
X0.1475Y-1.36
X0.1475Y-1.3992
X0.1572Y-0.829
X0.1572Y-0.9465
X0.1825Y-1.4835
X0.19Y-0.7043
X0.19Y-0.7437
X0.19Y-0.7831
X0.205Y-1.175
X0.2141Y-0.3607
X0.2175Y-0.685
X0.2175Y-0.724
X0.2175Y-0.7625
X0.2175Y-0.8027
X0.2325Y-1.535
X0.2475Y-1.2825
X0.254Y-1.2181
X0.2609Y-1.3059
X0.2625Y-1.3436
X0.27Y-1.4425
X0.275Y-1.0225
X0.2809Y-1.2315
X0.2875Y-1.092
X0.295Y-1.415
X0.296Y-1.4427
X0.3175Y-0.8421
X0.3248Y-1.2839
X0.3277Y-0.8055
X0.3325Y-0.9875
X0.345Y-0.8631
X0.3475Y-1.545
X0.3502Y-1.2165
X0.3515Y-1.4273
X0.365Y-0.95
X0.3888Y-1.4388
X0.3917Y-1.3555
X0.395Y-0.3895
X0.3975Y-1.075
X0.4289Y-1.4375
X0.4456Y-1.237
X0.45Y-1.3165
X0.45Y-1.3975
X0.465Y-0.7835
X0.465Y-1.4375
X0.4683Y-1.2231
X0.4725Y-0.8225
X0.49Y-0.7638
X0.4923Y-1.4925
X0.4975Y-1.522
X0.515Y-0.8225
X0.5159Y-1.5404
X0.5183Y-1.1525
X0.525Y-1.0799
X0.531Y-0.885
X0.531Y-0.92
X0.531Y-0.955
X0.531Y-0.99
X0.531Y-1.025
X0.5347Y-1.1132
X0.5475Y-1.5425
X0.5575Y-0.4875
X0.5625Y-1.19
X0.5745Y-1.2727
X0.6028Y-1.201
X0.6225Y-0.4
X0.6225Y-0.445
X0.631Y-1.201
X0.6325Y-1.1475
X0.6494Y-1.2194
X0.65Y-1.2475
X0.655Y-1.002
X0.6674Y-0.924
X0.6675Y-0.95
X0.6675Y-1.0305
X0.68Y-1.35
X0.68Y-1.3825
X0.68Y-1.4475
X0.6801Y-1.4153
X0.683Y-0.468
X0.7025Y-1.021
X0.706Y-0.5975
X0.713Y-1.29
X0.713Y-1.2413
X0.713Y-1.266
X0.7314Y-0.5836
X0.7425Y-0.4875
X0.7455Y-1.1823
X0.75Y-0.94
X0.7575Y-0.7
X0.7698Y-1.2185
X0.7828Y-0.7175
X0.79Y-0.51
X0.7958Y-1.2185
X0.8Y-0.15
X0.8025Y-1.1275
X0.8075Y-0.7
X0.8141Y-1.3607
X0.815Y-0.5875
X0.8225Y-0.97
X0.8238Y-0.51
X0.8245Y-0.1275
X0.8325Y-0.7175
X0.8475Y-0.105
X0.8488Y-0.9925
X0.8576Y-0.51
X0.8725Y-0.0825
X0.8825Y-1.0351
X0.8913Y-0.51
X0.8975Y-1.1194
X0.902Y-1.29
X0.9023Y-1.2414
X0.9025Y-1.2661
X0.908Y-0.7
X0.91Y-0.3975
X0.91Y-0.4453
X0.91Y-0.5875
X0.9251Y-0.51
X0.935Y-0.1584
X0.952Y-0.1335
X0.9549Y-1.0388
X0.955Y-0.9475
X0.955Y-0.9924
X0.9655Y-0.4675
X0.9725Y-0.37
X0.978Y-0.1335
X0.99Y-0.921
X0.9949Y-0.1588
X1.0141Y-1.3607
X1.0174Y-0.9095
X1.0175Y-0.3675
X1.0198Y-1.3245
X1.03Y-0.4875
X1.0434Y-0.9095
X1.07Y-0.921
X1.075Y-0.798
X1.075Y-0.8268
X1.075Y-0.8575
X1.0825Y-0.475
X1.0825Y-0.5073
X1.0897Y-1.3859
X1.0897Y-1.4157
X1.0897Y-1.4477
X1.13Y-0.475
X1.1375Y-0.2625
X1.1375Y-0.305
X1.1549Y-0.84
X1.1549Y-1.2375
X1.155Y-0.2425
X1.155Y-0.285
X1.155Y-0.3275
X1.155Y-0.97
X1.169Y-0.509
X1.17Y-0.3675
X1.18Y-0.55
X1.19Y-0.49
X1.1905Y-1.0325
X1.1925Y-0.8051
X1.195Y-0.4075
X1.1965Y-0.1835
X1.1965Y-0.2125
X1.2141Y-0.1607
X1.22Y-0.3675
X1.235Y-1.1189
X1.235Y-1.2205
X1.2375Y-0.1325
X1.252Y-1.0325
X1.2887Y-1.3859
X1.3Y-0.6284
X1.3025Y-1.4775
X1.329Y-1.4775
X1.3549Y-1.0388
X1.355Y-1.4775
X1.38Y-0.589
X1.4141Y-0.1607
X1.4141Y-0.3607
X1.4141Y-0.5607
X1.4141Y-0.7607
X1.4141Y-0.9607
X1.4141Y-1.1607
X1.435Y-1.023
X1.4779Y-1.2133
X1.4779Y-1.2525
T2
G00X0.6372Y-1.2829
M15
G01X0.6372Y-1.3184
M16
G05
G00X0.6372Y-1.4542
M15
G01X0.6372Y-1.4778
M16
G05
G00X0.9778Y-1.2829
M15
G01X0.9778Y-1.3184
M16
G05
G00X0.9778Y-1.4542
M15
G01X0.9778Y-1.4778
M16
G05
T3
G00X0.0787Y-0.0689
M15
G01X0.0787Y-0.0886
M16
G05
G00X0.0787Y-1.4862
M15
G01X0.0787Y-1.5059
M16
G05
G00X1.4961Y-0.0689
M15
G01X1.4961Y-0.0886
M16
G05
G00X1.4961Y-1.4862
M15
G01X1.4961Y-1.5059
M16
G05
M30
